<?xml version="1.0" encoding="UTF-8" standalone="no"?>

<svg
    xmlns="http://www.w3.org/2000/svg"
    width="81.6328125"
    height="24.015498402179855"
    id="koch-line-04.svg"
    version="1.0">

<!-- viewbox="-0.31640625 -0.31640625 81.31640625 23.699092152179855" -->

  <g 
    style="stroke:black; stroke-width:0.31640625; stroke-opacity:1; fill:none" 
    id="layer1">

    <path d="M 0.31640625, 23.699092152179855 L 1.31640625, 23.699092152179855 L 1.81640625, 22.833066748395417 L 2.31640625, 23.699092152179855 L 3.31640625, 23.699092152179855 L 3.81640625, 22.833066748395417 L 3.31640625, 21.967041344610976 L 4.31640625, 21.967041344610976 L 4.81640625, 21.10101594082654 L 5.31640625, 21.967041344610976 L 6.31640625, 21.967041344610976 L 5.81640625, 22.833066748395417 L 6.31640625, 23.699092152179855 L 7.31640625, 23.699092152179855 L 7.81640625, 22.833066748395417 L 8.31640625, 23.699092152179855 L 9.31640625, 23.699092152179855 L 9.81640625, 22.833066748395417 L 9.31640625, 21.967041344610976 L 10.31640625, 21.967041344610976 L 10.81640625, 21.10101594082654 L 10.31640625, 20.2349905370421 L 9.31640625, 20.2349905370421 L 9.81640625, 19.36896513325766 L 9.31640625, 18.502939729473223 L 10.31640625, 18.502939729473223 L 10.81640625, 17.636914325688785 L 11.31640625, 18.502939729473223 L 12.31640625, 18.50293972947322 L 12.81640625, 17.63691432568878 L 12.31640625, 16.770888921904344 L 13.31640625, 16.770888921904344 L 13.81640625, 15.904863518119903 L 14.31640625, 16.77088892190434 L 15.31640625, 16.77088892190434 L 14.81640625, 17.636914325688778 L 15.31640625, 18.50293972947322 L 16.31640625, 18.50293972947322 L 16.81640625, 17.636914325688778 L 17.31640625, 18.502939729473216 L 18.31640625, 18.502939729473216 L 17.81640625, 19.368965133257653 L 18.31640625, 20.234990537042094 L 17.31640625, 20.234990537042094 L 16.81640625, 21.101015940826535 L 17.31640625, 21.967041344610973 L 18.31640625, 21.967041344610973 L 17.81640625, 22.83306674839541 L 18.31640625, 23.699092152179848 L 19.31640625, 23.699092152179848 L 19.81640625, 22.83306674839541 L 20.31640625, 23.699092152179848 L 21.31640625, 23.699092152179848 L 21.81640625, 22.83306674839541 L 21.31640625, 21.96704134461097 L 22.31640625, 21.96704134461097 L 22.81640625, 21.10101594082653 L 23.31640625, 21.96704134461097 L 24.31640625, 21.96704134461097 L 23.81640625, 22.833066748395407 L 24.31640625, 23.699092152179848 L 25.31640625, 23.699092152179844 L 25.81640625, 22.833066748395407 L 26.31640625, 23.699092152179844 L 27.31640625, 23.699092152179844 L 27.81640625, 22.833066748395407 L 27.31640625, 21.96704134461097 L 28.31640625, 21.967041344610966 L 28.81640625, 21.101015940826528 L 28.31640625, 20.23499053704209 L 27.31640625, 20.23499053704209 L 27.81640625, 19.368965133257653 L 27.31640625, 18.502939729473212 L 28.31640625, 18.502939729473212 L 28.81640625, 17.63691432568877 L 29.31640625, 18.502939729473212 L 30.31640625, 18.502939729473212 L 30.81640625, 17.63691432568877 L 30.31640625, 16.770888921904334 L 31.31640625, 16.77088892190433 L 31.81640625, 15.904863518119893 L 31.31640625, 15.038838114335453 L 30.31640625, 15.038838114335453 L 30.81640625, 14.172812710551014 L 30.31640625, 13.306787306766575 L 29.31640625, 13.306787306766575 L 28.81640625, 14.172812710551014 L 28.31640625, 13.306787306766575 L 27.31640625, 13.306787306766575 L 27.81640625, 12.440761902982135 L 27.31640625, 11.574736499197696 L 28.31640625, 11.574736499197696 L 28.81640625, 10.708711095413257 L 28.31640625, 9.842685691628818 L 27.31640625, 9.842685691628818 L 27.81640625, 8.976660287844378 L 27.31640625, 8.11063488405994 L 28.31640625, 8.11063488405994 L 28.81640625, 7.2446094802755 L 29.31640625, 8.110634884059937 L 30.31640625, 8.110634884059937 L 30.81640625, 7.2446094802755 L 30.31640625, 6.378584076491062 L 31.31640625, 6.378584076491062 L 31.81640625, 5.512558672706625 L 32.31640625, 6.378584076491062 L 33.31640625, 6.378584076491062 L 32.81640625, 7.2446094802755 L 33.31640625, 8.110634884059937 L 34.31640625, 8.110634884059937 L 34.81640625, 7.2446094802755 L 35.31640625, 8.110634884059937 L 36.31640625, 8.110634884059937 L 36.81640625, 7.2446094802755 L 36.31640625, 6.378584076491062 L 37.31640625, 6.378584076491062 L 37.81640625, 5.512558672706625 L 37.31640625, 4.646533268922187 L 36.31640625, 4.646533268922187 L 36.81640625, 3.78050786513775 L 36.31640625, 2.9144824613533125 L 37.31640625, 2.9144824613533125 L 37.81640625, 2.048457057568875 L 38.31640625, 2.9144824613533125 L 39.31640625, 2.9144824613533125 L 39.81640625, 2.048457057568875 L 39.31640625, 1.1824316537844375 L 40.31640625, 1.1824316537844375 L 40.81640625, 0.31640625 L 41.31640625, 1.1824316537844375 L 42.31640625, 1.1824316537844375 L 41.81640625, 2.048457057568875 L 42.31640625, 2.9144824613533125 L 43.31640625, 2.9144824613533125 L 43.81640625, 2.048457057568875 L 44.31640625, 2.9144824613533125 L 45.31640625, 2.9144824613533125 L 44.81640625, 3.78050786513775 L 45.31640625, 4.646533268922187 L 44.31640625, 4.646533268922187 L 43.81640625, 5.512558672706625 L 44.31640625, 6.378584076491062 L 45.31640625, 6.378584076491062 L 44.81640625, 7.2446094802755 L 45.31640625, 8.110634884059937 L 46.31640625, 8.110634884059937 L 46.81640625, 7.2446094802755 L 47.31640625, 8.110634884059937 L 48.31640625, 8.110634884059937 L 48.81640625, 7.2446094802755 L 48.31640625, 6.378584076491062 L 49.31640625, 6.378584076491062 L 49.81640625, 5.512558672706625 L 50.31640625, 6.378584076491062 L 51.31640625, 6.378584076491062 L 50.81640625, 7.2446094802755 L 51.31640625, 8.110634884059937 L 52.31640625, 8.110634884059937 L 52.81640625, 7.2446094802755 L 53.31640625, 8.110634884059937 L 54.31640625, 8.110634884059937 L 53.81640625, 8.976660287844377 L 54.31640625, 9.842685691628816 L 53.31640625, 9.842685691628818 L 52.81640625, 10.708711095413257 L 53.31640625, 11.574736499197694 L 54.31640625, 11.574736499197694 L 53.81640625, 12.440761902982134 L 54.31640625, 13.306787306766573 L 53.31640625, 13.306787306766575 L 52.81640625, 14.172812710551014 L 52.31640625, 13.306787306766577 L 51.31640625, 13.306787306766578 L 50.81640625, 14.172812710551018 L 51.31640625, 15.038838114335455 L 50.31640625, 15.038838114335457 L 49.81640625, 15.904863518119896 L 50.31640625, 16.770888921904334 L 51.31640625, 16.770888921904334 L 50.81640625, 17.63691432568877 L 51.31640625, 18.502939729473212 L 52.31640625, 18.502939729473212 L 52.81640625, 17.63691432568877 L 53.31640625, 18.50293972947321 L 54.31640625, 18.50293972947321 L 53.81640625, 19.368965133257646 L 54.31640625, 20.234990537042087 L 53.31640625, 20.234990537042087 L 52.81640625, 21.101015940826528 L 53.31640625, 21.967041344610966 L 54.31640625, 21.967041344610966 L 53.81640625, 22.833066748395403 L 54.31640625, 23.69909215217984 L 55.31640625, 23.69909215217984 L 55.81640625, 22.833066748395403 L 56.31640625, 23.69909215217984 L 57.31640625, 23.69909215217984 L 57.81640625, 22.833066748395403 L 57.31640625, 21.967041344610962 L 58.31640625, 21.967041344610962 L 58.81640625, 21.101015940826525 L 59.31640625, 21.967041344610962 L 60.31640625, 21.967041344610962 L 59.81640625, 22.8330667483954 L 60.31640625, 23.69909215217984 L 61.31640625, 23.699092152179837 L 61.81640625, 22.8330667483954 L 62.31640625, 23.699092152179837 L 63.31640625, 23.699092152179837 L 63.81640625, 22.8330667483954 L 63.31640625, 21.967041344610962 L 64.31640625, 21.96704134461096 L 64.81640625, 21.10101594082652 L 64.31640625, 20.234990537042084 L 63.31640625, 20.234990537042084 L 63.81640625, 19.368965133257646 L 63.31640625, 18.502939729473205 L 64.31640625, 18.502939729473205 L 64.81640625, 17.636914325688764 L 65.31640625, 18.502939729473205 L 66.31640625, 18.502939729473205 L 66.81640625, 17.636914325688764 L 66.31640625, 16.770888921904326 L 67.31640625, 16.770888921904323 L 67.81640625, 15.904863518119885 L 68.31640625, 16.770888921904323 L 69.31640625, 16.770888921904323 L 68.81640625, 17.636914325688764 L 69.31640625, 18.5029397294732 L 70.31640625, 18.502939729473198 L 70.81640625, 17.63691432568876 L 71.31640625, 18.502939729473198 L 72.31640625, 18.502939729473198 L 71.81640625, 19.36896513325764 L 72.31640625, 20.234990537042076 L 71.31640625, 20.234990537042076 L 70.81640625, 21.101015940826514 L 71.31640625, 21.967041344610955 L 72.31640625, 21.967041344610955 L 71.81640625, 22.833066748395392 L 72.31640625, 23.69909215217983 L 73.31640625, 23.69909215217983 L 73.81640625, 22.833066748395392 L 74.31640625, 23.69909215217983 L 75.31640625, 23.69909215217983 L 75.81640625, 22.833066748395392 L 75.31640625, 21.96704134461095 L 76.31640625, 21.96704134461095 L 76.81640625, 21.101015940826514 L 77.31640625, 21.96704134461095 L 78.31640625, 21.96704134461095 L 77.81640625, 22.83306674839539 L 78.31640625, 23.69909215217983 L 79.31640625, 23.699092152179826 L 79.81640625, 22.83306674839539 L 80.31640625, 23.699092152179826 L 81.31640625, 23.699092152179826" />

  </g>

</svg>
