<?xml version="1.0" encoding="UTF-8" standalone="no"?>

<svg
    xmlns="http://www.w3.org/2000/svg"
    width="81.6328125000001"
    height="94.16355610871942"
    id="koch-island-04.svg"
    version="1.0">

<!-- viewbox="-0.3164062500001002 -70.46446395653956 81.31640625 23.699092152179855" -->

  <g 
    style="stroke:black; stroke-width:0.3164062500000004; stroke-opacity:1; fill:none" 
    id="layer1">

    <path d="M 0.3164062500001002, 23.69909215217986 L 1.3164062500001001, 23.69909215217986 L 1.8164062500001001, 22.833066748395424 L 2.3164062500001004, 23.69909215217986 L 3.3164062500001004, 23.69909215217986 L 3.8164062500001004, 22.833066748395424 L 3.3164062500001004, 21.967041344610976 L 4.3164062500001, 21.967041344610976 L 4.8164062500001, 21.101015940826542 L 5.3164062500001, 21.967041344610976 L 6.3164062500001, 21.967041344610976 L 5.8164062500001, 22.833066748395424 L 6.3164062500001, 23.69909215217986 L 7.3164062500001, 23.69909215217986 L 7.8164062500001, 22.833066748395424 L 8.3164062500001, 23.69909215217986 L 9.3164062500001, 23.69909215217986 L 9.8164062500001, 22.833066748395424 L 9.3164062500001, 21.967041344610976 L 10.3164062500001, 21.967041344610976 L 10.8164062500001, 21.101015940826542 L 10.3164062500001, 20.23499053704211 L 9.3164062500001, 20.23499053704211 L 9.8164062500001, 19.36896513325766 L 9.3164062500001, 18.502939729473226 L 10.3164062500001, 18.502939729473226 L 10.8164062500001, 17.636914325688792 L 11.3164062500001, 18.502939729473226 L 12.3164062500001, 18.502939729473226 L 12.8164062500001, 17.636914325688778 L 12.3164062500001, 16.770888921904344 L 13.3164062500001, 16.770888921904344 L 13.8164062500001, 15.90486351811991 L 14.3164062500001, 16.770888921904344 L 15.3164062500001, 16.770888921904344 L 14.8164062500001, 17.636914325688778 L 15.3164062500001, 18.502939729473226 L 16.3164062500001, 18.502939729473226 L 16.8164062500001, 17.636914325688778 L 17.3164062500001, 18.502939729473226 L 18.3164062500001, 18.502939729473226 L 17.8164062500001, 19.36896513325766 L 18.3164062500001, 20.234990537042094 L 17.3164062500001, 20.234990537042094 L 16.8164062500001, 21.101015940826542 L 17.3164062500001, 21.967041344610976 L 18.3164062500001, 21.967041344610976 L 17.8164062500001, 22.83306674839541 L 18.3164062500001, 23.69909215217986 L 19.3164062500001, 23.69909215217986 L 19.8164062500001, 22.83306674839541 L 20.3164062500001, 23.69909215217986 L 21.3164062500001, 23.699092152179844 L 21.8164062500001, 22.83306674839541 L 21.3164062500001, 21.967041344610976 L 22.3164062500001, 21.967041344610976 L 22.8164062500001, 21.101015940826528 L 23.3164062500001, 21.967041344610976 L 24.3164062500001, 21.967041344610976 L 23.8164062500001, 22.83306674839541 L 24.3164062500001, 23.699092152179844 L 25.3164062500001, 23.699092152179844 L 25.8164062500001, 22.83306674839541 L 26.3164062500001, 23.699092152179844 L 27.3164062500001, 23.699092152179844 L 27.8164062500001, 22.83306674839541 L 27.3164062500001, 21.967041344610976 L 28.3164062500001, 21.967041344610976 L 28.8164062500001, 21.101015940826528 L 28.3164062500001, 20.234990537042094 L 27.3164062500001, 20.234990537042094 L 27.8164062500001, 19.36896513325766 L 27.3164062500001, 18.502939729473212 L 28.3164062500001, 18.502939729473212 L 28.8164062500001, 17.636914325688778 L 29.3164062500001, 18.502939729473212 L 30.3164062500001, 18.502939729473212 L 30.8164062500001, 17.636914325688778 L 30.3164062500001, 16.77088892190433 L 31.3164062500001, 16.77088892190433 L 31.8164062500001, 15.904863518119896 L 31.3164062500001, 15.038838114335462 L 30.3164062500001, 15.038838114335462 L 30.8164062500001, 14.172812710551014 L 30.3164062500001, 13.30678730676658 L 29.3164062500001, 13.30678730676658 L 28.8164062500001, 14.172812710551014 L 28.3164062500001, 13.30678730676658 L 27.3164062500001, 13.30678730676658 L 27.8164062500001, 12.440761902982146 L 27.3164062500001, 11.574736499197698 L 28.3164062500001, 11.574736499197698 L 28.8164062500001, 10.708711095413264 L 28.3164062500001, 9.842685691628816 L 27.3164062500001, 9.842685691628816 L 27.8164062500001, 8.976660287844382 L 27.3164062500001, 8.110634884059948 L 28.3164062500001, 8.110634884059948 L 28.8164062500001, 7.2446094802755 L 29.3164062500001, 8.110634884059934 L 30.3164062500001, 8.110634884059934 L 30.8164062500001, 7.2446094802755 L 30.3164062500001, 6.378584076491066 L 31.3164062500001, 6.378584076491066 L 31.8164062500001, 5.512558672706632 L 32.3164062500001, 6.378584076491066 L 33.3164062500001, 6.378584076491066 L 32.8164062500001, 7.2446094802755 L 33.3164062500001, 8.110634884059934 L 34.3164062500001, 8.110634884059934 L 34.8164062500001, 7.2446094802755 L 35.3164062500001, 8.110634884059934 L 36.3164062500001, 8.110634884059934 L 36.8164062500001, 7.2446094802755 L 36.3164062500001, 6.378584076491066 L 37.3164062500001, 6.378584076491066 L 37.8164062500001, 5.512558672706632 L 37.3164062500001, 4.646533268922198 L 36.3164062500001, 4.646533268922198 L 36.8164062500001, 3.78050786513775 L 36.3164062500001, 2.914482461353316 L 37.3164062500001, 2.914482461353316 L 37.8164062500001, 2.048457057568882 L 38.3164062500001, 2.914482461353316 L 39.3164062500001, 2.914482461353316 L 39.8164062500001, 2.048457057568882 L 39.3164062500001, 1.182431653784434 L 40.3164062500001, 1.182431653784434 L 40.8164062500001, 0.31640625 L 41.3164062500001, 1.182431653784434 L 42.3164062500001, 1.182431653784434 L 41.8164062500001, 2.048457057568882 L 42.3164062500001, 2.914482461353316 L 43.3164062500001, 2.914482461353316 L 43.8164062500001, 2.048457057568882 L 44.3164062500001, 2.914482461353316 L 45.3164062500001, 2.914482461353316 L 44.8164062500001, 3.78050786513775 L 45.3164062500001, 4.646533268922198 L 44.3164062500001, 4.646533268922198 L 43.8164062500001, 5.512558672706632 L 44.3164062500001, 6.378584076491066 L 45.3164062500001, 6.378584076491066 L 44.8164062500001, 7.2446094802755 L 45.3164062500001, 8.110634884059934 L 46.3164062500001, 8.110634884059934 L 46.8164062500001, 7.2446094802755 L 47.3164062500001, 8.110634884059934 L 48.3164062500001, 8.110634884059934 L 48.8164062500001, 7.2446094802755 L 48.3164062500001, 6.378584076491066 L 49.3164062500001, 6.378584076491066 L 49.8164062500001, 5.512558672706632 L 50.3164062500001, 6.378584076491066 L 51.3164062500001, 6.378584076491066 L 50.8164062500001, 7.2446094802755 L 51.3164062500001, 8.110634884059934 L 52.3164062500001, 8.110634884059934 L 52.8164062500001, 7.2446094802755 L 53.3164062500001, 8.110634884059934 L 54.3164062500001, 8.110634884059934 L 53.8164062500001, 8.976660287844382 L 54.3164062500001, 9.842685691628816 L 53.3164062500001, 9.842685691628816 L 52.8164062500001, 10.708711095413264 L 53.3164062500001, 11.574736499197698 L 54.3164062500001, 11.574736499197698 L 53.8164062500001, 12.440761902982132 L 54.3164062500001, 13.30678730676658 L 53.3164062500001, 13.30678730676658 L 52.8164062500001, 14.172812710551014 L 52.3164062500001, 13.30678730676658 L 51.3164062500001, 13.30678730676658 L 50.8164062500001, 14.172812710551014 L 51.3164062500001, 15.038838114335462 L 50.3164062500001, 15.038838114335462 L 49.8164062500001, 15.904863518119896 L 50.3164062500001, 16.770888921904344 L 51.3164062500001, 16.77088892190433 L 50.8164062500001, 17.636914325688778 L 51.3164062500001, 18.502939729473212 L 52.3164062500001, 18.502939729473212 L 52.8164062500001, 17.636914325688778 L 53.3164062500001, 18.502939729473212 L 54.3164062500001, 18.502939729473212 L 53.8164062500001, 19.368965133257646 L 54.3164062500001, 20.234990537042094 L 53.3164062500001, 20.234990537042094 L 52.8164062500001, 21.101015940826528 L 53.3164062500001, 21.967041344610962 L 54.3164062500001, 21.967041344610962 L 53.8164062500001, 22.83306674839541 L 54.3164062500001, 23.699092152179844 L 55.3164062500001, 23.699092152179844 L 55.8164062500001, 22.83306674839541 L 56.3164062500001, 23.699092152179844 L 57.3164062500001, 23.699092152179844 L 57.8164062500001, 22.83306674839541 L 57.3164062500001, 21.967041344610962 L 58.3164062500001, 21.967041344610962 L 58.8164062500001, 21.101015940826528 L 59.3164062500001, 21.967041344610962 L 60.3164062500001, 21.967041344610962 L 59.8164062500001, 22.83306674839541 L 60.3164062500001, 23.699092152179844 L 61.3164062500001, 23.699092152179844 L 61.8164062500001, 22.83306674839541 L 62.3164062500001, 23.699092152179844 L 63.3164062500001, 23.699092152179844 L 63.8164062500001, 22.833066748395396 L 63.3164062500001, 21.967041344610962 L 64.3164062500001, 21.967041344610962 L 64.8164062500001, 21.101015940826528 L 64.3164062500001, 20.23499053704208 L 63.3164062500001, 20.23499053704208 L 63.8164062500001, 19.368965133257646 L 63.3164062500001, 18.502939729473212 L 64.3164062500001, 18.502939729473212 L 64.8164062500001, 17.636914325688764 L 65.3164062500001, 18.502939729473212 L 66.3164062500001, 18.502939729473212 L 66.8164062500001, 17.636914325688764 L 66.3164062500001, 16.77088892190433 L 67.3164062500001, 16.77088892190433 L 67.8164062500001, 15.904863518119882 L 68.3164062500001, 16.77088892190433 L 69.3164062500001, 16.77088892190433 L 68.8164062500001, 17.636914325688764 L 69.3164062500001, 18.502939729473198 L 70.3164062500001, 18.502939729473198 L 70.8164062500001, 17.636914325688764 L 71.3164062500001, 18.502939729473198 L 72.3164062500001, 18.502939729473198 L 71.8164062500001, 19.368965133257646 L 72.3164062500001, 20.23499053704208 L 71.3164062500001, 20.23499053704208 L 70.8164062500001, 21.101015940826514 L 71.3164062500001, 21.967041344610962 L 72.3164062500001, 21.967041344610962 L 71.8164062500001, 22.833066748395396 L 72.3164062500001, 23.69909215217983 L 73.3164062500001, 23.69909215217983 L 73.8164062500001, 22.833066748395396 L 74.3164062500001, 23.69909215217983 L 75.3164062500001, 23.69909215217983 L 75.8164062500001, 22.833066748395396 L 75.3164062500001, 21.967041344610962 L 76.3164062500001, 21.967041344610962 L 76.8164062500001, 21.101015940826514 L 77.3164062500001, 21.967041344610962 L 78.3164062500001, 21.967041344610948 L 77.8164062500001, 22.833066748395396 L 78.3164062500001, 23.69909215217983 L 79.3164062500001, 23.69909215217983 L 79.8164062500001, 22.833066748395396 L 80.3164062500001, 23.69909215217983 L 81.3164062500001, 23.69909215217983 L 80.8164062500001, 24.565117555964264 L 81.3164062500001, 25.431142959748712 L 80.3164062500001, 25.431142959748712 L 79.8164062500001, 26.297168363533146 L 80.3164062500001, 27.16319376731758 L 81.3164062500001, 27.16319376731758 L 80.8164062500001, 28.029219171102028 L 81.3164062500001, 28.895244574886462 L 80.3164062500001, 28.895244574886462 L 79.8164062500001, 29.76126997867091 L 79.3164062500001, 28.895244574886462 L 78.3164062500001, 28.895244574886462 L 77.8164062500001, 29.76126997867091 L 78.3164062500001, 30.627295382455344 L 77.3164062500001, 30.627295382455344 L 76.8164062500001, 31.493320786239785 L 77.3164062500001, 32.359346190024226 L 78.3164062500001, 32.359346190024226 L 77.8164062500001, 33.22537159380866 L 78.3164062500001, 34.0913969975931 L 79.3164062500001, 34.0913969975931 L 79.8164062500001, 33.22537159380866 L 80.3164062500001, 34.0913969975931 L 81.3164062500001, 34.0913969975931 L 80.8164062500001, 34.95742240137754 L 81.3164062500001, 35.823447805161976 L 80.3164062500001, 35.82344780516198 L 79.8164062500001, 36.689473208946424 L 80.3164062500001, 37.55549861273086 L 81.3164062500001, 37.55549861273086 L 80.8164062500001, 38.4215240165153 L 81.3164062500001, 39.28754942029974 L 80.3164062500001, 39.28754942029974 L 79.8164062500001, 40.153574824084174 L 79.3164062500001, 39.28754942029974 L 78.3164062500001, 39.28754942029974 L 77.8164062500001, 40.15357482408418 L 78.3164062500001, 41.01960022786862 L 77.3164062500001, 41.01960022786862 L 76.8164062500001, 41.885625631653056 L 76.3164062500001, 41.01960022786862 L 75.3164062500001, 41.01960022786862 L 75.8164062500001, 40.153574824084174 L 75.3164062500001, 39.28754942029974 L 74.3164062500001, 39.28754942029974 L 73.8164062500001, 40.15357482408418 L 73.3164062500001, 39.28754942029974 L 72.3164062500001, 39.28754942029975 L 71.8164062500001, 40.15357482408419 L 72.3164062500001, 41.01960022786862 L 71.3164062500001, 41.01960022786862 L 70.8164062500001, 41.885625631653056 L 71.3164062500001, 42.7516510354375 L 72.3164062500001, 42.7516510354375 L 71.8164062500001, 43.61767643922194 L 72.3164062500001, 44.48370184300637 L 71.3164062500001, 44.48370184300637 L 70.8164062500001, 45.349727246790806 L 70.3164062500001, 44.48370184300637 L 69.3164062500001, 44.48370184300637 L 68.8164062500001, 45.349727246790806 L 69.3164062500001, 46.21575265057525 L 68.3164062500001, 46.21575265057525 L 67.8164062500001, 47.08177805435969 L 68.3164062500001, 47.94780345814412 L 69.3164062500001, 47.94780345814412 L 68.8164062500001, 48.813828861928556 L 69.3164062500001, 49.679854265713 L 70.3164062500001, 49.679854265713 L 70.8164062500001, 48.813828861928556 L 71.3164062500001, 49.679854265713 L 72.3164062500001, 49.679854265713 L 71.8164062500001, 50.54587966949744 L 72.3164062500001, 51.41190507328187 L 71.3164062500001, 51.41190507328187 L 70.8164062500001, 52.277930477066306 L 71.3164062500001, 53.14395588085075 L 72.3164062500001, 53.14395588085075 L 71.8164062500001, 54.00998128463519 L 72.3164062500001, 54.87600668841962 L 73.3164062500001, 54.87600668841962 L 73.8164062500001, 54.00998128463519 L 74.3164062500001, 54.87600668841962 L 75.3164062500001, 54.87600668841962 L 75.8164062500001, 54.00998128463519 L 75.3164062500001, 53.14395588085075 L 76.3164062500001, 53.14395588085075 L 76.8164062500001, 52.277930477066306 L 77.3164062500001, 53.14395588085075 L 78.3164062500001, 53.14395588085075 L 77.8164062500001, 54.00998128463519 L 78.3164062500001, 54.87600668841962 L 79.3164062500001, 54.87600668841962 L 79.8164062500001, 54.00998128463519 L 80.3164062500001, 54.87600668841962 L 81.3164062500001, 54.87600668841962 L 80.8164062500001, 55.74203209220406 L 81.3164062500001, 56.608057495988504 L 80.3164062500001, 56.608057495988504 L 79.8164062500001, 57.474082899772945 L 80.3164062500001, 58.340108303557386 L 81.3164062500001, 58.340108303557386 L 80.8164062500001, 59.20613370734183 L 81.3164062500001, 60.07215911112627 L 80.3164062500001, 60.07215911112627 L 79.8164062500001, 60.93818451491071 L 79.3164062500001, 60.07215911112627 L 78.3164062500001, 60.07215911112627 L 77.8164062500001, 60.93818451491071 L 78.3164062500001, 61.80420991869515 L 77.3164062500001, 61.80420991869515 L 76.8164062500001, 62.67023532247959 L 77.3164062500001, 63.53626072626403 L 78.3164062500001, 63.53626072626403 L 77.8164062500001, 64.40228613004848 L 78.3164062500001, 65.26831153383291 L 79.3164062500001, 65.26831153383291 L 79.8164062500001, 64.40228613004848 L 80.3164062500001, 65.26831153383291 L 81.3164062500001, 65.26831153383291 L 80.8164062500001, 66.13433693761735 L 81.3164062500001, 67.0003623414018 L 80.3164062500001, 67.0003623414018 L 79.8164062500001, 67.86638774518624 L 80.3164062500001, 68.73241314897068 L 81.3164062500001, 68.73241314897068 L 80.8164062500001, 69.59843855275511 L 81.3164062500001, 70.46446395653956 L 80.3164062500001, 70.46446395653956 L 79.8164062500001, 71.33048936032401 L 79.3164062500001, 70.46446395653956 L 78.3164062500001, 70.46446395653956 L 77.8164062500001, 71.33048936032401 L 78.3164062500001, 72.19651476410844 L 77.3164062500001, 72.19651476410844 L 76.8164062500001, 73.06254016789288 L 76.3164062500001, 72.19651476410844 L 75.3164062500001, 72.19651476410844 L 75.8164062500001, 71.33048936032401 L 75.3164062500001, 70.46446395653956 L 74.3164062500001, 70.46446395653956 L 73.8164062500001, 71.33048936032401 L 73.3164062500001, 70.46446395653956 L 72.3164062500001, 70.46446395653956 L 71.8164062500001, 71.33048936032401 L 72.3164062500001, 72.19651476410844 L 71.3164062500001, 72.19651476410844 L 70.8164062500001, 73.06254016789288 L 71.3164062500001, 73.92856557167732 L 72.3164062500001, 73.92856557167732 L 71.8164062500001, 74.79459097546177 L 72.3164062500001, 75.6606163792462 L 71.3164062500001, 75.6606163792462 L 70.8164062500001, 76.52664178303064 L 70.3164062500001, 75.6606163792462 L 69.3164062500001, 75.6606163792462 L 68.8164062500001, 76.52664178303064 L 69.3164062500001, 77.39266718681509 L 68.3164062500001, 77.39266718681509 L 67.8164062500001, 78.25869259059954 L 67.3164062500001, 77.39266718681509 L 66.3164062500001, 77.39266718681509 L 66.8164062500001, 76.52664178303064 L 66.3164062500001, 75.6606163792462 L 65.3164062500001, 75.6606163792462 L 64.8164062500001, 76.52664178303064 L 64.3164062500001, 75.6606163792462 L 63.3164062500001, 75.6606163792462 L 63.8164062500001, 74.79459097546177 L 63.3164062500001, 73.92856557167732 L 64.3164062500001, 73.92856557167732 L 64.8164062500001, 73.06254016789288 L 64.3164062500001, 72.19651476410844 L 63.3164062500001, 72.19651476410844 L 63.8164062500001, 71.33048936032401 L 63.3164062500001, 70.46446395653956 L 62.3164062500001, 70.46446395653956 L 61.8164062500001, 71.33048936032401 L 61.3164062500001, 70.46446395653956 L 60.3164062500001, 70.46446395653956 L 59.8164062500001, 71.33048936032401 L 60.3164062500001, 72.19651476410844 L 59.3164062500001, 72.19651476410844 L 58.8164062500001, 73.06254016789288 L 58.3164062500001, 72.19651476410844 L 57.3164062500001, 72.19651476410844 L 57.8164062500001, 71.33048936032401 L 57.3164062500001, 70.46446395653956 L 56.3164062500001, 70.46446395653956 L 55.8164062500001, 71.33048936032401 L 55.3164062500001, 70.46446395653956 L 54.3164062500001, 70.46446395653956 L 53.8164062500001, 71.33048936032401 L 54.3164062500001, 72.19651476410844 L 53.3164062500001, 72.19651476410844 L 52.8164062500001, 73.06254016789288 L 53.3164062500001, 73.92856557167732 L 54.3164062500001, 73.92856557167732 L 53.8164062500001, 74.79459097546177 L 54.3164062500001, 75.6606163792462 L 53.3164062500001, 75.6606163792462 L 52.8164062500001, 76.52664178303064 L 52.3164062500001, 75.6606163792462 L 51.3164062500001, 75.6606163792462 L 50.8164062500001, 76.52664178303064 L 51.3164062500001, 77.39266718681509 L 50.3164062500001, 77.39266718681509 L 49.8164062500001, 78.25869259059954 L 50.3164062500001, 79.12471799438397 L 51.3164062500001, 79.12471799438397 L 50.8164062500001, 79.9907433981684 L 51.3164062500001, 80.85676880195285 L 52.3164062500001, 80.85676880195285 L 52.8164062500001, 79.9907433981684 L 53.3164062500001, 80.85676880195285 L 54.3164062500001, 80.85676880195285 L 53.8164062500001, 81.7227942057373 L 54.3164062500001, 82.58881960952174 L 53.3164062500001, 82.58881960952174 L 52.8164062500001, 83.45484501330617 L 53.3164062500001, 84.32087041709062 L 54.3164062500001, 84.32087041709062 L 53.8164062500001, 85.18689582087507 L 54.3164062500001, 86.0529212246595 L 53.3164062500001, 86.0529212246595 L 52.8164062500001, 86.91894662844393 L 52.3164062500001, 86.0529212246595 L 51.3164062500001, 86.0529212246595 L 50.8164062500001, 86.91894662844393 L 51.3164062500001, 87.78497203222838 L 50.3164062500001, 87.78497203222838 L 49.8164062500001, 88.65099743601282 L 49.3164062500001, 87.78497203222838 L 48.3164062500001, 87.78497203222838 L 48.8164062500001, 86.91894662844393 L 48.3164062500001, 86.0529212246595 L 47.3164062500001, 86.0529212246595 L 46.8164062500001, 86.91894662844393 L 46.3164062500001, 86.0529212246595 L 45.3164062500001, 86.0529212246595 L 44.8164062500001, 86.91894662844393 L 45.3164062500001, 87.78497203222838 L 44.3164062500001, 87.78497203222838 L 43.8164062500001, 88.65099743601282 L 44.3164062500001, 89.51702283979725 L 45.3164062500001, 89.51702283979725 L 44.8164062500001, 90.38304824358168 L 45.3164062500001, 91.24907364736612 L 44.3164062500001, 91.24907364736612 L 43.8164062500001, 92.11509905115055 L 43.3164062500001, 91.24907364736612 L 42.3164062500001, 91.24907364736612 L 41.8164062500001, 92.11509905115055 L 42.3164062500001, 92.98112445493499 L 41.3164062500001, 92.98112445493499 L 40.8164062500001, 93.84714985871942 L 40.3164062500001, 92.98112445493499 L 39.3164062500001, 92.98112445493499 L 39.8164062500001, 92.11509905115055 L 39.3164062500001, 91.24907364736612 L 38.3164062500001, 91.24907364736612 L 37.8164062500001, 92.11509905115055 L 37.3164062500001, 91.24907364736612 L 36.3164062500001, 91.24907364736612 L 36.8164062500001, 90.38304824358168 L 36.3164062500001, 89.51702283979725 L 37.3164062500001, 89.51702283979725 L 37.8164062500001, 88.65099743601282 L 37.3164062500001, 87.78497203222838 L 36.3164062500001, 87.78497203222838 L 36.8164062500001, 86.91894662844393 L 36.3164062500001, 86.0529212246595 L 35.3164062500001, 86.0529212246595 L 34.8164062500001, 86.91894662844393 L 34.3164062500001, 86.0529212246595 L 33.3164062500001, 86.0529212246595 L 32.8164062500001, 86.91894662844393 L 33.3164062500001, 87.78497203222838 L 32.3164062500001, 87.78497203222838 L 31.8164062500001, 88.65099743601282 L 31.3164062500001, 87.78497203222838 L 30.3164062500001, 87.78497203222838 L 30.8164062500001, 86.91894662844393 L 30.3164062500001, 86.0529212246595 L 29.3164062500001, 86.0529212246595 L 28.8164062500001, 86.91894662844393 L 28.3164062500001, 86.0529212246595 L 27.3164062500001, 86.0529212246595 L 27.8164062500001, 85.18689582087507 L 27.3164062500001, 84.32087041709062 L 28.3164062500001, 84.32087041709062 L 28.8164062500001, 83.45484501330617 L 28.3164062500001, 82.58881960952174 L 27.3164062500001, 82.58881960952174 L 27.8164062500001, 81.7227942057373 L 27.3164062500001, 80.85676880195285 L 28.3164062500001, 80.85676880195285 L 28.8164062500001, 79.9907433981684 L 29.316406250000103, 80.85676880195285 L 30.316406250000103, 80.85676880195285 L 30.816406250000103, 79.9907433981684 L 30.316406250000103, 79.12471799438397 L 31.316406250000103, 79.12471799438397 L 31.816406250000103, 78.25869259059954 L 31.316406250000103, 77.39266718681509 L 30.316406250000103, 77.39266718681509 L 30.816406250000103, 76.52664178303064 L 30.316406250000103, 75.6606163792462 L 29.316406250000103, 75.6606163792462 L 28.816406250000103, 76.52664178303064 L 28.316406250000103, 75.6606163792462 L 27.316406250000103, 75.6606163792462 L 27.816406250000103, 74.79459097546177 L 27.316406250000103, 73.92856557167732 L 28.316406250000103, 73.92856557167732 L 28.816406250000103, 73.06254016789288 L 28.316406250000103, 72.19651476410844 L 27.316406250000103, 72.19651476410844 L 27.816406250000103, 71.33048936032401 L 27.316406250000103, 70.46446395653956 L 26.316406250000103, 70.46446395653956 L 25.816406250000103, 71.33048936032401 L 25.316406250000103, 70.46446395653956 L 24.316406250000103, 70.46446395653956 L 23.816406250000103, 71.33048936032401 L 24.316406250000103, 72.19651476410844 L 23.316406250000103, 72.19651476410844 L 22.816406250000103, 73.06254016789288 L 22.316406250000103, 72.19651476410844 L 21.316406250000103, 72.19651476410844 L 21.816406250000103, 71.33048936032401 L 21.316406250000103, 70.46446395653956 L 20.316406250000103, 70.46446395653956 L 19.816406250000103, 71.33048936032401 L 19.316406250000103, 70.46446395653956 L 18.316406250000103, 70.46446395653956 L 17.816406250000103, 71.33048936032401 L 18.316406250000103, 72.19651476410844 L 17.316406250000103, 72.19651476410844 L 16.816406250000103, 73.06254016789288 L 17.316406250000103, 73.92856557167732 L 18.316406250000103, 73.92856557167732 L 17.816406250000103, 74.79459097546177 L 18.316406250000103, 75.6606163792462 L 17.316406250000103, 75.6606163792462 L 16.816406250000103, 76.52664178303064 L 16.316406250000103, 75.6606163792462 L 15.316406250000103, 75.6606163792462 L 14.816406250000103, 76.52664178303064 L 15.316406250000103, 77.39266718681509 L 14.316406250000103, 77.39266718681509 L 13.816406250000103, 78.25869259059954 L 13.316406250000101, 77.39266718681509 L 12.316406250000101, 77.39266718681509 L 12.8164062500001, 76.52664178303064 L 12.316406250000098, 75.6606163792462 L 11.316406250000098, 75.6606163792462 L 10.816406250000098, 76.52664178303064 L 10.316406250000096, 75.6606163792462 L 9.316406250000096, 75.6606163792462 L 9.816406250000094, 74.79459097546177 L 9.316406250000092, 73.92856557167732 L 10.316406250000092, 73.92856557167732 L 10.81640625000009, 73.06254016789288 L 10.316406250000089, 72.19651476410844 L 9.316406250000089, 72.19651476410844 L 9.816406250000087, 71.33048936032401 L 9.316406250000085, 70.46446395653956 L 8.316406250000085, 70.46446395653956 L 7.816406250000087, 71.33048936032401 L 7.316406250000086, 70.46446395653956 L 6.316406250000086, 70.46446395653956 L 5.816406250000087, 71.33048936032401 L 6.316406250000088, 72.19651476410844 L 5.316406250000088, 72.19651476410844 L 4.816406250000089, 73.06254016789288 L 4.316406250000087, 72.19651476410844 L 3.3164062500000875, 72.19651476410844 L 3.816406250000086, 71.33048936032401 L 3.316406250000085, 70.46446395653956 L 2.316406250000085, 70.46446395653956 L 1.816406250000085, 71.33048936032401 L 1.316406250000084, 70.46446395653956 L 0.3164062500000839, 70.46446395653956 L 0.8164062500000824, 69.59843855275511 L 0.3164062500000812, 68.73241314897068 L 1.3164062500000813, 68.73241314897068 L 1.8164062500000797, 67.86638774518624 L 1.3164062500000786, 67.0003623414018 L 0.31640625000007855, 67.0003623414018 L 0.816406250000077, 66.13433693761735 L 0.3164062500000759, 65.26831153383291 L 1.316406250000076, 65.26831153383291 L 1.8164062500000744, 64.40228613004848 L 2.3164062500000764, 65.26831153383291 L 3.3164062500000764, 65.26831153383291 L 3.816406250000075, 64.40228613004848 L 3.3164062500000737, 63.53626072626403 L 4.316406250000074, 63.53626072626403 L 4.816406250000072, 62.67023532247959 L 4.31640625000007, 61.80420991869515 L 3.3164062500000706, 61.80420991869515 L 3.8164062500000693, 60.93818451491071 L 3.316406250000068, 60.07215911112627 L 2.316406250000068, 60.07215911112627 L 1.8164062500000682, 60.93818451491071 L 1.316406250000067, 60.07215911112627 L 0.316406250000067, 60.07215911112627 L 0.8164062500000655, 59.20613370734183 L 0.31640625000006434, 58.340108303557386 L 1.3164062500000644, 58.340108303557386 L 1.8164062500000628, 57.474082899772945 L 1.3164062500000617, 56.608057495988504 L 0.3164062500000617, 56.608057495988504 L 0.8164062500000602, 55.74203209220406 L 0.316406250000059, 54.87600668841962 L 1.316406250000059, 54.87600668841962 L 1.8164062500000575, 54.00998128463518 L 2.3164062500000595, 54.87600668841962 L 3.3164062500000595, 54.876006688419615 L 3.816406250000058, 54.009981284635174 L 3.316406250000057, 53.14395588085074 L 4.316406250000057, 53.14395588085073 L 4.816406250000055, 52.27793047706629 L 5.316406250000057, 53.143955880850726 L 6.316406250000057, 53.143955880850726 L 5.8164062500000595, 54.00998128463517 L 6.316406250000061, 54.87600668841961 L 7.316406250000061, 54.8760066884196 L 7.8164062500000595, 54.00998128463516 L 8.31640625000006, 54.876006688419594 L 9.31640625000006, 54.876006688419594 L 9.816406250000059, 54.00998128463515 L 9.316406250000057, 53.14395588085071 L 10.316406250000057, 53.14395588085071 L 10.816406250000055, 52.27793047706627 L 10.316406250000053, 51.41190507328183 L 9.316406250000053, 51.41190507328183 L 9.816406250000052, 50.545879669497396 L 9.31640625000005, 49.679854265712954 L 10.31640625000005, 49.67985426571295 L 10.816406250000048, 48.81382886192851 L 11.31640625000005, 49.67985426571295 L 12.31640625000005, 49.67985426571295 L 12.816406250000048, 48.8138288619285 L 12.316406250000046, 47.947803458144065 L 13.316406250000046, 47.947803458144065 L 13.816406250000044, 47.08177805435962 L 13.316406250000043, 46.21575265057518 L 12.316406250000043, 46.21575265057518 L 12.81640625000004, 45.34972724679074 L 12.316406250000039, 44.4837018430063 L 11.316406250000039, 44.4837018430063 L 10.816406250000039, 45.34972724679074 L 10.316406250000037, 44.4837018430063 L 9.316406250000037, 44.4837018430063 L 9.816406250000036, 43.61767643922187 L 9.316406250000034, 42.751651035437426 L 10.316406250000034, 42.75165103543742 L 10.816406250000032, 41.885625631652985 L 10.31640625000003, 41.019600227868544 L 9.31640625000003, 41.019600227868544 L 9.816406250000028, 40.1535748240841 L 9.316406250000027, 39.28754942029967 L 8.316406250000027, 39.28754942029967 L 7.816406250000028, 40.1535748240841 L 7.3164062500000275, 39.28754942029967 L 6.3164062500000275, 39.28754942029967 L 5.816406250000028, 40.15357482408411 L 6.316406250000029, 41.01960022786855 L 5.316406250000029, 41.01960022786855 L 4.81640625000003, 41.885625631652985 L 4.316406250000028, 41.01960022786855 L 3.316406250000029, 41.01960022786855 L 3.8164062500000275, 40.1535748240841 L 3.316406250000026, 39.28754942029967 L 2.316406250000026, 39.28754942029967 L 1.8164062500000264, 40.15357482408411 L 1.3164062500000253, 39.28754942029967 L 0.31640625000002526, 39.287549420299676 L 0.8164062500000238, 38.421524016515235 L 0.3164062500000226, 37.5554986127308 L 1.3164062500000226, 37.555498612730794 L 1.816406250000021, 36.68947320894635 L 1.31640625000002, 35.82344780516192 L 0.31640625000001993, 35.82344780516192 L 0.8164062500000184, 34.957422401377485 L 0.31640625000001726, 34.091396997593044 L 1.3164062500000173, 34.091396997593044 L 1.8164062500000158, 33.2253715938086 L 2.3164062500000178, 34.09139699759304 L 3.3164062500000178, 34.09139699759304 L 3.8164062500000164, 33.2253715938086 L 3.316406250000015, 32.35934619002416 L 4.316406250000015, 32.35934619002416 L 4.816406250000013, 31.49332078623972 L 4.3164062500000115, 30.627295382455287 L 3.316406250000012, 30.627295382455287 L 3.8164062500000107, 29.76126997867084 L 3.3164062500000093, 28.895244574886405 L 2.3164062500000093, 28.895244574886405 L 1.8164062500000095, 29.761269978670853 L 1.3164062500000084, 28.895244574886405 L 0.3164062500000084, 28.895244574886405 L 0.8164062500000069, 28.02921917110197 L 0.3164062500000057, 27.163193767317537 L 1.3164062500000058, 27.163193767317537 L 1.8164062500000042, 26.29716836353309 L 1.316406250000003, 25.431142959748655 L 0.31640625000000305, 25.431142959748655 L 0.8164062500000016, 24.56511755596422 L 0.3164062500000004, 23.699092152179773" />

  </g>

</svg>
