<?xml version="1.0" encoding="UTF-8" standalone="no"?>

<svg
    xmlns="http://www.w3.org/2000/svg"
    width="27.210937500000046"
    height="31.387852036239796"
    id="koch-island-03.svg"
    version="1.0">

<!-- viewbox="-0.1054687500000467 -23.488154652179844 27.10546875 7.899697384059952" -->

  <g 
    style="stroke:black; stroke-width:0.10546875000000018; stroke-opacity:1; fill:none" 
    id="layer1">

    <path d="M 0.1054687500000467, 7.899697384059952 L 1.1054687500000466, 7.899697384059952 L 1.6054687500000466, 7.033671980275514 L 2.1054687500000466, 7.899697384059952 L 3.1054687500000466, 7.899697384059952 L 3.6054687500000466, 7.033671980275514 L 3.1054687500000466, 6.167646576491073 L 4.105468750000047, 6.167646576491073 L 4.605468750000047, 5.301621172706636 L 5.105468750000047, 6.167646576491073 L 6.105468750000047, 6.167646576491073 L 5.605468750000047, 7.033671980275514 L 6.105468750000047, 7.899697384059952 L 7.105468750000047, 7.899697384059952 L 7.605468750000047, 7.033671980275514 L 8.105468750000046, 7.899697384059952 L 9.105468750000046, 7.899697384059952 L 9.605468750000046, 7.033671980275514 L 9.105468750000046, 6.167646576491073 L 10.105468750000046, 6.167646576491073 L 10.605468750000046, 5.301621172706636 L 10.105468750000046, 4.435595768922198 L 9.105468750000046, 4.435595768922198 L 9.605468750000046, 3.569570365137757 L 9.105468750000046, 2.7035449613533196 L 10.105468750000046, 2.7035449613533196 L 10.605468750000046, 1.8375195575688785 L 11.105468750000046, 2.7035449613533196 L 12.105468750000046, 2.7035449613533196 L 12.605468750000046, 1.8375195575688785 L 12.105468750000046, 0.971494153784441 L 13.105468750000046, 0.9714941537844375 L 13.605468750000046, 0.10546875 L 14.105468750000046, 0.9714941537844375 L 15.105468750000046, 0.9714941537844375 L 14.605468750000046, 1.8375195575688785 L 15.105468750000046, 2.703544961353316 L 16.105468750000046, 2.7035449613533125 L 16.605468750000046, 1.837519557568875 L 17.105468750000046, 2.7035449613533125 L 18.105468750000046, 2.7035449613533125 L 17.605468750000046, 3.5695703651377535 L 18.105468750000046, 4.435595768922191 L 17.105468750000046, 4.435595768922191 L 16.605468750000046, 5.3016211727066285 L 17.105468750000046, 6.1676465764910695 L 18.105468750000046, 6.1676465764910695 L 17.605468750000046, 7.033671980275507 L 18.105468750000046, 7.8996973840599445 L 19.105468750000046, 7.8996973840599445 L 19.605468750000046, 7.033671980275507 L 20.105468750000046, 7.8996973840599445 L 21.105468750000046, 7.8996973840599445 L 21.605468750000046, 7.033671980275507 L 21.105468750000046, 6.167646576491066 L 22.105468750000046, 6.167646576491066 L 22.605468750000046, 5.3016211727066285 L 23.105468750000046, 6.167646576491066 L 24.105468750000046, 6.167646576491066 L 23.605468750000046, 7.033671980275503 L 24.105468750000046, 7.8996973840599445 L 25.105468750000046, 7.899697384059941 L 25.605468750000046, 7.033671980275503 L 26.105468750000046, 7.899697384059941 L 27.105468750000046, 7.899697384059941 L 26.605468750000046, 8.765722787844382 L 27.105468750000046, 9.63174819162882 L 26.105468750000046, 9.63174819162882 L 25.605468750000046, 10.49777359541326 L 26.105468750000046, 11.363798999197698 L 27.105468750000046, 11.363798999197698 L 26.605468750000046, 12.229824402982135 L 27.105468750000046, 13.095849806766577 L 26.105468750000046, 13.095849806766577 L 25.605468750000046, 13.961875210551014 L 25.105468750000046, 13.095849806766577 L 24.105468750000046, 13.095849806766577 L 23.605468750000046, 13.961875210551018 L 24.105468750000046, 14.827900614335455 L 23.105468750000046, 14.827900614335455 L 22.605468750000046, 15.693926018119896 L 23.105468750000046, 16.559951421904334 L 24.105468750000046, 16.559951421904334 L 23.605468750000046, 17.42597682568877 L 24.105468750000046, 18.292002229473212 L 25.105468750000046, 18.292002229473212 L 25.605468750000046, 17.42597682568877 L 26.105468750000046, 18.292002229473212 L 27.105468750000046, 18.292002229473212 L 26.605468750000046, 19.158027633257653 L 27.105468750000046, 20.02405303704209 L 26.105468750000046, 20.024053037042094 L 25.605468750000046, 20.89007844082653 L 26.105468750000046, 21.75610384461097 L 27.105468750000046, 21.75610384461097 L 26.605468750000046, 22.62212924839541 L 27.105468750000046, 23.488154652179848 L 26.105468750000046, 23.48815465217985 L 25.605468750000046, 24.35418005596429 L 25.105468750000046, 23.48815465217985 L 24.105468750000046, 23.48815465217985 L 23.605468750000046, 24.354180055964292 L 24.105468750000046, 25.22020545974873 L 23.105468750000046, 25.22020545974873 L 22.605468750000046, 26.086230863533167 L 22.105468750000046, 25.22020545974873 L 21.105468750000046, 25.22020545974873 L 21.605468750000046, 24.35418005596429 L 21.105468750000046, 23.48815465217985 L 20.105468750000046, 23.48815465217985 L 19.605468750000046, 24.354180055964292 L 19.105468750000046, 23.488154652179855 L 18.105468750000046, 23.48815465217986 L 17.605468750000046, 24.354180055964296 L 18.105468750000046, 25.220205459748733 L 17.105468750000046, 25.220205459748733 L 16.605468750000046, 26.08623086353317 L 17.105468750000046, 26.95225626731761 L 18.105468750000046, 26.95225626731761 L 17.605468750000046, 27.818281671102046 L 18.105468750000046, 28.684307074886483 L 17.105468750000046, 28.684307074886483 L 16.605468750000046, 29.55033247867092 L 16.105468750000046, 28.684307074886483 L 15.105468750000044, 28.684307074886483 L 14.605468750000044, 29.55033247867092 L 15.105468750000044, 30.416357882455358 L 14.105468750000044, 30.416357882455358 L 13.605468750000044, 31.282383286239796 L 13.105468750000043, 30.416357882455358 L 12.105468750000043, 30.416357882455358 L 12.60546875000004, 29.550332478670917 L 12.105468750000039, 28.68430707488648 L 11.105468750000039, 28.68430707488648 L 10.605468750000039, 29.550332478670917 L 10.105468750000037, 28.68430707488648 L 9.105468750000037, 28.68430707488648 L 9.605468750000036, 27.81828167110204 L 9.105468750000034, 26.9522562673176 L 10.105468750000034, 26.952256267317598 L 10.605468750000032, 26.086230863533157 L 10.10546875000003, 25.22020545974872 L 9.10546875000003, 25.22020545974872 L 9.605468750000028, 24.354180055964278 L 9.105468750000027, 23.48815465217984 L 8.105468750000027, 23.488154652179844 L 7.605468750000028, 24.35418005596428 L 7.1054687500000275, 23.488154652179844 L 6.1054687500000275, 23.488154652179844 L 5.605468750000028, 24.354180055964285 L 6.105468750000029, 25.220205459748723 L 5.105468750000029, 25.220205459748723 L 4.60546875000003, 26.08623086353316 L 4.105468750000028, 25.220205459748723 L 3.1054687500000284, 25.220205459748723 L 3.605468750000027, 24.35418005596428 L 3.1054687500000258, 23.488154652179844 L 2.1054687500000258, 23.488154652179844 L 1.6054687500000262, 24.354180055964285 L 1.105468750000025, 23.488154652179848 L 0.10546875000002505, 23.48815465217985 L 0.6054687500000236, 22.62212924839541 L 0.10546875000002238, 21.756103844610973 L 1.1054687500000224, 21.75610384461097 L 1.6054687500000209, 20.89007844082653 L 1.1054687500000198, 20.024053037042094 L 0.10546875000001972, 20.024053037042094 L 0.6054687500000183, 19.158027633257657 L 0.10546875000001706, 18.29200222947322 L 1.105468750000017, 18.29200222947322 L 1.6054687500000155, 17.425976825688778 L 2.1054687500000178, 18.292002229473216 L 3.1054687500000173, 18.292002229473212 L 3.605468750000016, 17.425976825688775 L 3.1054687500000147, 16.559951421904337 L 4.105468750000015, 16.559951421904337 L 4.605468750000013, 15.693926018119896 L 4.1054687500000115, 14.827900614335459 L 3.1054687500000115, 14.827900614335459 L 3.60546875000001, 13.961875210551021 L 3.105468750000009, 13.095849806766584 L 2.105468750000009, 13.095849806766584 L 1.6054687500000093, 13.961875210551021 L 1.1054687500000082, 13.095849806766584 L 0.10546875000000817, 13.095849806766584 L 0.6054687500000068, 12.229824402982146 L 0.10546875000000551, 11.363798999197709 L 1.1054687500000056, 11.363798999197705 L 1.605468750000004, 10.497773595413268 L 1.1054687500000029, 9.631748191628827 L 0.10546875000000284, 9.63174819162883 L 0.6054687500000014, 8.765722787844389 L 0.10546875000000018, 7.899697384059952" />

  </g>

</svg>
