<?xml version="1.0" encoding="UTF-8" standalone="no"?>

<svg
   xmlns="http://www.w3.org/2000/svg"
   width="64.0"
   height="11.0"
   id="poliominos-6-free.svg"
   version="1.0">
  <g style="opacity:1;fill:#bebebe;fill-opacity:1;stroke:black;stroke-width:0.01;stroke-opacity:1"
     id="layer1">

    <rect
       id="item1"
       width="1"
       height="1"
       x="16.0"
       y="10.0" />

    <rect
       id="item2"
       width="1"
       height="1"
       x="17.0"
       y="10.0" />

    <rect
       id="item3"
       width="1"
       height="1"
       x="18.0"
       y="10.0" />

    <rect
       id="item4"
       width="1"
       height="1"
       x="22.0"
       y="10.0" />

    <rect
       id="item5"
       width="1"
       height="1"
       x="34.0"
       y="10.0" />

    <rect
       id="item6"
       width="1"
       height="1"
       x="37.0"
       y="10.0" />

    <rect
       id="item7"
       width="1"
       height="1"
       x="0.0"
       y="9.0" />

    <rect
       id="item8"
       width="1"
       height="1"
       x="1.0"
       y="9.0" />

    <rect
       id="item9"
       width="1"
       height="1"
       x="2.0"
       y="9.0" />

    <rect
       id="item10"
       width="1"
       height="1"
       x="3.0"
       y="9.0" />

    <rect
       id="item11"
       width="1"
       height="1"
       x="4.0"
       y="9.0" />

    <rect
       id="item12"
       width="1"
       height="1"
       x="6.0"
       y="9.0" />

    <rect
       id="item13"
       width="1"
       height="1"
       x="7.0"
       y="9.0" />

    <rect
       id="item14"
       width="1"
       height="1"
       x="8.0"
       y="9.0" />

    <rect
       id="item15"
       width="1"
       height="1"
       x="9.0"
       y="9.0" />

    <rect
       id="item16"
       width="1"
       height="1"
       x="12.0"
       y="9.0" />

    <rect
       id="item17"
       width="1"
       height="1"
       x="13.0"
       y="9.0" />

    <rect
       id="item18"
       width="1"
       height="1"
       x="14.0"
       y="9.0" />

    <rect
       id="item19"
       width="1"
       height="1"
       x="16.0"
       y="9.0" />

    <rect
       id="item20"
       width="1"
       height="1"
       x="17.0"
       y="9.0" />

    <rect
       id="item21"
       width="1"
       height="1"
       x="20.0"
       y="9.0" />

    <rect
       id="item22"
       width="1"
       height="1"
       x="21.0"
       y="9.0" />

    <rect
       id="item23"
       width="1"
       height="1"
       x="22.0"
       y="9.0" />

    <rect
       id="item24"
       width="1"
       height="1"
       x="24.0"
       y="9.0" />

    <rect
       id="item25"
       width="1"
       height="1"
       x="25.0"
       y="9.0" />

    <rect
       id="item26"
       width="1"
       height="1"
       x="26.0"
       y="9.0" />

    <rect
       id="item27"
       width="1"
       height="1"
       x="28.0"
       y="9.0" />

    <rect
       id="item28"
       width="1"
       height="1"
       x="29.0"
       y="9.0" />

    <rect
       id="item29"
       width="1"
       height="1"
       x="30.0"
       y="9.0" />

    <rect
       id="item30"
       width="1"
       height="1"
       x="31.0"
       y="9.0" />

    <rect
       id="item31"
       width="1"
       height="1"
       x="33.0"
       y="9.0" />

    <rect
       id="item32"
       width="1"
       height="1"
       x="34.0"
       y="9.0" />

    <rect
       id="item33"
       width="1"
       height="1"
       x="35.0"
       y="9.0" />

    <rect
       id="item34"
       width="1"
       height="1"
       x="37.0"
       y="9.0" />

    <rect
       id="item35"
       width="1"
       height="1"
       x="38.0"
       y="9.0" />

    <rect
       id="item36"
       width="1"
       height="1"
       x="39.0"
       y="9.0" />

    <rect
       id="item37"
       width="1"
       height="1"
       x="41.0"
       y="9.0" />

    <rect
       id="item38"
       width="1"
       height="1"
       x="42.0"
       y="9.0" />

    <rect
       id="item39"
       width="1"
       height="1"
       x="43.0"
       y="9.0" />

    <rect
       id="item40"
       width="1"
       height="1"
       x="44.0"
       y="9.0" />

    <rect
       id="item41"
       width="1"
       height="1"
       x="3.0"
       y="8.0" />

    <rect
       id="item42"
       width="1"
       height="1"
       x="6.0"
       y="8.0" />

    <rect
       id="item43"
       width="1"
       height="1"
       x="8.0"
       y="8.0" />

    <rect
       id="item44"
       width="1"
       height="1"
       x="11.0"
       y="8.0" />

    <rect
       id="item45"
       width="1"
       height="1"
       x="12.0"
       y="8.0" />

    <rect
       id="item46"
       width="1"
       height="1"
       x="13.0"
       y="8.0" />

    <rect
       id="item47"
       width="1"
       height="1"
       x="16.0"
       y="8.0" />

    <rect
       id="item48"
       width="1"
       height="1"
       x="20.0"
       y="8.0" />

    <rect
       id="item49"
       width="1"
       height="1"
       x="21.0"
       y="8.0" />

    <rect
       id="item50"
       width="1"
       height="1"
       x="24.0"
       y="8.0" />

    <rect
       id="item51"
       width="1"
       height="1"
       x="25.0"
       y="8.0" />

    <rect
       id="item52"
       width="1"
       height="1"
       x="26.0"
       y="8.0" />

    <rect
       id="item53"
       width="1"
       height="1"
       x="28.0"
       y="8.0" />

    <rect
       id="item54"
       width="1"
       height="1"
       x="29.0"
       y="8.0" />

    <rect
       id="item55"
       width="1"
       height="1"
       x="33.0"
       y="8.0" />

    <rect
       id="item56"
       width="1"
       height="1"
       x="34.0"
       y="8.0" />

    <rect
       id="item57"
       width="1"
       height="1"
       x="37.0"
       y="8.0" />

    <rect
       id="item58"
       width="1"
       height="1"
       x="38.0"
       y="8.0" />

    <rect
       id="item59"
       width="1"
       height="1"
       x="42.0"
       y="8.0" />

    <rect
       id="item60"
       width="1"
       height="1"
       x="43.0"
       y="8.0" />

    <rect
       id="item61"
       width="1"
       height="1"
       x="6.0"
       y="6.0" />

    <rect
       id="item62"
       width="1"
       height="1"
       x="11.0"
       y="6.0" />

    <rect
       id="item63"
       width="1"
       height="1"
       x="12.0"
       y="6.0" />

    <rect
       id="item64"
       width="1"
       height="1"
       x="13.0"
       y="6.0" />

    <rect
       id="item65"
       width="1"
       height="1"
       x="16.0"
       y="6.0" />

    <rect
       id="item66"
       width="1"
       height="1"
       x="20.0"
       y="6.0" />

    <rect
       id="item67"
       width="1"
       height="1"
       x="22.0"
       y="6.0" />

    <rect
       id="item68"
       width="1"
       height="1"
       x="26.0"
       y="6.0" />

    <rect
       id="item69"
       width="1"
       height="1"
       x="29.0"
       y="6.0" />

    <rect
       id="item70"
       width="1"
       height="1"
       x="30.0"
       y="6.0" />

    <rect
       id="item71"
       width="1"
       height="1"
       x="34.0"
       y="6.0" />

    <rect
       id="item72"
       width="1"
       height="1"
       x="35.0"
       y="6.0" />

    <rect
       id="item73"
       width="1"
       height="1"
       x="36.0"
       y="6.0" />

    <rect
       id="item74"
       width="1"
       height="1"
       x="37.0"
       y="6.0" />

    <rect
       id="item75"
       width="1"
       height="1"
       x="42.0"
       y="6.0" />

    <rect
       id="item76"
       width="1"
       height="1"
       x="52.0"
       y="6.0" />

    <rect
       id="item77"
       width="1"
       height="1"
       x="56.0"
       y="6.0" />

    <rect
       id="item78"
       width="1"
       height="1"
       x="60.0"
       y="6.0" />

    <rect
       id="item79"
       width="1"
       height="1"
       x="0.0"
       y="5.0" />

    <rect
       id="item80"
       width="1"
       height="1"
       x="1.0"
       y="5.0" />

    <rect
       id="item81"
       width="1"
       height="1"
       x="2.0"
       y="5.0" />

    <rect
       id="item82"
       width="1"
       height="1"
       x="3.0"
       y="5.0" />

    <rect
       id="item83"
       width="1"
       height="1"
       x="4.0"
       y="5.0" />

    <rect
       id="item84"
       width="1"
       height="1"
       x="6.0"
       y="5.0" />

    <rect
       id="item85"
       width="1"
       height="1"
       x="7.0"
       y="5.0" />

    <rect
       id="item86"
       width="1"
       height="1"
       x="8.0"
       y="5.0" />

    <rect
       id="item87"
       width="1"
       height="1"
       x="9.0"
       y="5.0" />

    <rect
       id="item88"
       width="1"
       height="1"
       x="12.0"
       y="5.0" />

    <rect
       id="item89"
       width="1"
       height="1"
       x="16.0"
       y="5.0" />

    <rect
       id="item90"
       width="1"
       height="1"
       x="17.0"
       y="5.0" />

    <rect
       id="item91"
       width="1"
       height="1"
       x="18.0"
       y="5.0" />

    <rect
       id="item92"
       width="1"
       height="1"
       x="20.0"
       y="5.0" />

    <rect
       id="item93"
       width="1"
       height="1"
       x="21.0"
       y="5.0" />

    <rect
       id="item94"
       width="1"
       height="1"
       x="22.0"
       y="5.0" />

    <rect
       id="item95"
       width="1"
       height="1"
       x="26.0"
       y="5.0" />

    <rect
       id="item96"
       width="1"
       height="1"
       x="27.0"
       y="5.0" />

    <rect
       id="item97"
       width="1"
       height="1"
       x="30.0"
       y="5.0" />

    <rect
       id="item98"
       width="1"
       height="1"
       x="31.0"
       y="5.0" />

    <rect
       id="item99"
       width="1"
       height="1"
       x="32.0"
       y="5.0" />

    <rect
       id="item100"
       width="1"
       height="1"
       x="36.0"
       y="5.0" />

    <rect
       id="item101"
       width="1"
       height="1"
       x="39.0"
       y="5.0" />

    <rect
       id="item102"
       width="1"
       height="1"
       x="40.0"
       y="5.0" />

    <rect
       id="item103"
       width="1"
       height="1"
       x="41.0"
       y="5.0" />

    <rect
       id="item104"
       width="1"
       height="1"
       x="42.0"
       y="5.0" />

    <rect
       id="item105"
       width="1"
       height="1"
       x="44.0"
       y="5.0" />

    <rect
       id="item106"
       width="1"
       height="1"
       x="45.0"
       y="5.0" />

    <rect
       id="item107"
       width="1"
       height="1"
       x="46.0"
       y="5.0" />

    <rect
       id="item108"
       width="1"
       height="1"
       x="47.0"
       y="5.0" />

    <rect
       id="item109"
       width="1"
       height="1"
       x="48.0"
       y="5.0" />

    <rect
       id="item110"
       width="1"
       height="1"
       x="50.0"
       y="5.0" />

    <rect
       id="item111"
       width="1"
       height="1"
       x="51.0"
       y="5.0" />

    <rect
       id="item112"
       width="1"
       height="1"
       x="52.0"
       y="5.0" />

    <rect
       id="item113"
       width="1"
       height="1"
       x="53.0"
       y="5.0" />

    <rect
       id="item114"
       width="1"
       height="1"
       x="55.0"
       y="5.0" />

    <rect
       id="item115"
       width="1"
       height="1"
       x="56.0"
       y="5.0" />

    <rect
       id="item116"
       width="1"
       height="1"
       x="57.0"
       y="5.0" />

    <rect
       id="item117"
       width="1"
       height="1"
       x="58.0"
       y="5.0" />

    <rect
       id="item118"
       width="1"
       height="1"
       x="60.0"
       y="5.0" />

    <rect
       id="item119"
       width="1"
       height="1"
       x="61.0"
       y="5.0" />

    <rect
       id="item120"
       width="1"
       height="1"
       x="62.0"
       y="5.0" />

    <rect
       id="item121"
       width="1"
       height="1"
       x="63.0"
       y="5.0" />

    <rect
       id="item122"
       width="1"
       height="1"
       x="0.0"
       y="4.0" />

    <rect
       id="item123"
       width="1"
       height="1"
       x="6.0"
       y="4.0" />

    <rect
       id="item124"
       width="1"
       height="1"
       x="12.0"
       y="4.0" />

    <rect
       id="item125"
       width="1"
       height="1"
       x="13.0"
       y="4.0" />

    <rect
       id="item126"
       width="1"
       height="1"
       x="15.0"
       y="4.0" />

    <rect
       id="item127"
       width="1"
       height="1"
       x="16.0"
       y="4.0" />

    <rect
       id="item128"
       width="1"
       height="1"
       x="21.0"
       y="4.0" />

    <rect
       id="item129"
       width="1"
       height="1"
       x="24.0"
       y="4.0" />

    <rect
       id="item130"
       width="1"
       height="1"
       x="25.0"
       y="4.0" />

    <rect
       id="item131"
       width="1"
       height="1"
       x="26.0"
       y="4.0" />

    <rect
       id="item132"
       width="1"
       height="1"
       x="31.0"
       y="4.0" />

    <rect
       id="item133"
       width="1"
       height="1"
       x="36.0"
       y="4.0" />

    <rect
       id="item134"
       width="1"
       height="1"
       x="41.0"
       y="4.0" />

    <rect
       id="item135"
       width="1"
       height="1"
       x="46.0"
       y="4.0" />

    <rect
       id="item136"
       width="1"
       height="1"
       x="52.0"
       y="4.0" />

    <rect
       id="item137"
       width="1"
       height="1"
       x="57.0"
       y="4.0" />

    <rect
       id="item138"
       width="1"
       height="1"
       x="62.0"
       y="4.0" />

    <rect
       id="item139"
       width="1"
       height="1"
       x="7.0"
       y="2.0" />

    <rect
       id="item140"
       width="1"
       height="1"
       x="8.0"
       y="2.0" />

    <rect
       id="item141"
       width="1"
       height="1"
       x="19.0"
       y="2.0" />

    <rect
       id="item142"
       width="1"
       height="1"
       x="20.0"
       y="2.0" />

    <rect
       id="item143"
       width="1"
       height="1"
       x="21.0"
       y="2.0" />

    <rect
       id="item144"
       width="1"
       height="1"
       x="23.0"
       y="2.0" />

    <rect
       id="item145"
       width="1"
       height="1"
       x="24.0"
       y="2.0" />

    <rect
       id="item146"
       width="1"
       height="1"
       x="25.0"
       y="2.0" />

    <rect
       id="item147"
       width="1"
       height="1"
       x="30.0"
       y="2.0" />

    <rect
       id="item148"
       width="1"
       height="1"
       x="31.0"
       y="2.0" />

    <rect
       id="item149"
       width="1"
       height="1"
       x="38.0"
       y="2.0" />

    <rect
       id="item150"
       width="1"
       height="1"
       x="39.0"
       y="2.0" />

    <rect
       id="item151"
       width="1"
       height="1"
       x="40.0"
       y="2.0" />

    <rect
       id="item152"
       width="1"
       height="1"
       x="48.0"
       y="2.0" />

    <rect
       id="item153"
       width="1"
       height="1"
       x="49.0"
       y="2.0" />

    <rect
       id="item154"
       width="1"
       height="1"
       x="50.0"
       y="2.0" />

    <rect
       id="item155"
       width="1"
       height="1"
       x="51.0"
       y="2.0" />

    <rect
       id="item156"
       width="1"
       height="1"
       x="56.0"
       y="2.0" />

    <rect
       id="item157"
       width="1"
       height="1"
       x="8.0"
       y="1.0" />

    <rect
       id="item158"
       width="1"
       height="1"
       x="9.0"
       y="1.0" />

    <rect
       id="item159"
       width="1"
       height="1"
       x="14.0"
       y="1.0" />

    <rect
       id="item160"
       width="1"
       height="1"
       x="15.0"
       y="1.0" />

    <rect
       id="item161"
       width="1"
       height="1"
       x="16.0"
       y="1.0" />

    <rect
       id="item162"
       width="1"
       height="1"
       x="18.0"
       y="1.0" />

    <rect
       id="item163"
       width="1"
       height="1"
       x="19.0"
       y="1.0" />

    <rect
       id="item164"
       width="1"
       height="1"
       x="25.0"
       y="1.0" />

    <rect
       id="item165"
       width="1"
       height="1"
       x="28.0"
       y="1.0" />

    <rect
       id="item166"
       width="1"
       height="1"
       x="29.0"
       y="1.0" />

    <rect
       id="item167"
       width="1"
       height="1"
       x="30.0"
       y="1.0" />

    <rect
       id="item168"
       width="1"
       height="1"
       x="34.0"
       y="1.0" />

    <rect
       id="item169"
       width="1"
       height="1"
       x="35.0"
       y="1.0" />

    <rect
       id="item170"
       width="1"
       height="1"
       x="36.0"
       y="1.0" />

    <rect
       id="item171"
       width="1"
       height="1"
       x="38.0"
       y="1.0" />

    <rect
       id="item172"
       width="1"
       height="1"
       x="40.0"
       y="1.0" />

    <rect
       id="item173"
       width="1"
       height="1"
       x="43.0"
       y="1.0" />

    <rect
       id="item174"
       width="1"
       height="1"
       x="44.0"
       y="1.0" />

    <rect
       id="item175"
       width="1"
       height="1"
       x="45.0"
       y="1.0" />

    <rect
       id="item176"
       width="1"
       height="1"
       x="46.0"
       y="1.0" />

    <rect
       id="item177"
       width="1"
       height="1"
       x="48.0"
       y="1.0" />

    <rect
       id="item178"
       width="1"
       height="1"
       x="53.0"
       y="1.0" />

    <rect
       id="item179"
       width="1"
       height="1"
       x="54.0"
       y="1.0" />

    <rect
       id="item180"
       width="1"
       height="1"
       x="55.0"
       y="1.0" />

    <rect
       id="item181"
       width="1"
       height="1"
       x="56.0"
       y="1.0" />

    <rect
       id="item182"
       width="1"
       height="1"
       x="58.0"
       y="1.0" />

    <rect
       id="item183"
       width="1"
       height="1"
       x="59.0"
       y="1.0" />

    <rect
       id="item184"
       width="1"
       height="1"
       x="60.0"
       y="1.0" />

    <rect
       id="item185"
       width="1"
       height="1"
       x="61.0"
       y="1.0" />

    <rect
       id="item186"
       width="1"
       height="1"
       x="0.0"
       y="0.0" />

    <rect
       id="item187"
       width="1"
       height="1"
       x="1.0"
       y="0.0" />

    <rect
       id="item188"
       width="1"
       height="1"
       x="2.0"
       y="0.0" />

    <rect
       id="item189"
       width="1"
       height="1"
       x="3.0"
       y="0.0" />

    <rect
       id="item190"
       width="1"
       height="1"
       x="4.0"
       y="0.0" />

    <rect
       id="item191"
       width="1"
       height="1"
       x="5.0"
       y="0.0" />

    <rect
       id="item192"
       width="1"
       height="1"
       x="9.0"
       y="0.0" />

    <rect
       id="item193"
       width="1"
       height="1"
       x="10.0"
       y="0.0" />

    <rect
       id="item194"
       width="1"
       height="1"
       x="12.0"
       y="0.0" />

    <rect
       id="item195"
       width="1"
       height="1"
       x="13.0"
       y="0.0" />

    <rect
       id="item196"
       width="1"
       height="1"
       x="14.0"
       y="0.0" />

    <rect
       id="item197"
       width="1"
       height="1"
       x="18.0"
       y="0.0" />

    <rect
       id="item198"
       width="1"
       height="1"
       x="25.0"
       y="0.0" />

    <rect
       id="item199"
       width="1"
       height="1"
       x="26.0"
       y="0.0" />

    <rect
       id="item200"
       width="1"
       height="1"
       x="28.0"
       y="0.0" />

    <rect
       id="item201"
       width="1"
       height="1"
       x="33.0"
       y="0.0" />

    <rect
       id="item202"
       width="1"
       height="1"
       x="34.0"
       y="0.0" />

    <rect
       id="item203"
       width="1"
       height="1"
       x="36.0"
       y="0.0" />

    <rect
       id="item204"
       width="1"
       height="1"
       x="38.0"
       y="0.0" />

    <rect
       id="item205"
       width="1"
       height="1"
       x="42.0"
       y="0.0" />

    <rect
       id="item206"
       width="1"
       height="1"
       x="43.0"
       y="0.0" />

    <rect
       id="item207"
       width="1"
       height="1"
       x="48.0"
       y="0.0" />

    <rect
       id="item208"
       width="1"
       height="1"
       x="53.0"
       y="0.0" />

    <rect
       id="item209"
       width="1"
       height="1"
       x="58.0"
       y="0.0" />

    <rect
       id="item210"
       width="1"
       height="1"
       x="61.0"
       y="0.0" />

  </g>
</svg>
