<?xml version="1.0" encoding="UTF-8" standalone="no"?>

<svg
   xmlns="http://www.w3.org/2000/svg"
   width="29.0"
   height="7.0"
   id="poliominos-cubo.svg"
   version="1.0">
  <g style="opacity:1;fill:#bebebe;fill-opacity:1;stroke:black;stroke-width:0.01;stroke-opacity:1"
     id="layer1">

    <rect
       id="item1"
       width="1"
       height="1"
       x="0.0"
       y="6.0" />

    <rect
       id="item2"
       width="1"
       height="1"
       x="1.0"
       y="6.0" />

    <rect
       id="item3"
       width="1"
       height="1"
       x="7.0"
       y="6.0" />

    <rect
       id="item4"
       width="1"
       height="1"
       x="8.0"
       y="6.0" />

    <rect
       id="item5"
       width="1"
       height="1"
       x="13.0"
       y="6.0" />

    <rect
       id="item6"
       width="1"
       height="1"
       x="17.0"
       y="6.0" />

    <rect
       id="item7"
       width="1"
       height="1"
       x="20.0"
       y="6.0" />

    <rect
       id="item8"
       width="1"
       height="1"
       x="27.0"
       y="6.0" />

    <rect
       id="item9"
       width="1"
       height="1"
       x="1.0"
       y="5.0" />

    <rect
       id="item10"
       width="1"
       height="1"
       x="2.0"
       y="5.0" />

    <rect
       id="item11"
       width="1"
       height="1"
       x="3.0"
       y="5.0" />

    <rect
       id="item12"
       width="1"
       height="1"
       x="5.0"
       y="5.0" />

    <rect
       id="item13"
       width="1"
       height="1"
       x="6.0"
       y="5.0" />

    <rect
       id="item14"
       width="1"
       height="1"
       x="7.0"
       y="5.0" />

    <rect
       id="item15"
       width="1"
       height="1"
       x="10.0"
       y="5.0" />

    <rect
       id="item16"
       width="1"
       height="1"
       x="11.0"
       y="5.0" />

    <rect
       id="item17"
       width="1"
       height="1"
       x="12.0"
       y="5.0" />

    <rect
       id="item18"
       width="1"
       height="1"
       x="13.0"
       y="5.0" />

    <rect
       id="item19"
       width="1"
       height="1"
       x="15.0"
       y="5.0" />

    <rect
       id="item20"
       width="1"
       height="1"
       x="16.0"
       y="5.0" />

    <rect
       id="item21"
       width="1"
       height="1"
       x="17.0"
       y="5.0" />

    <rect
       id="item22"
       width="1"
       height="1"
       x="18.0"
       y="5.0" />

    <rect
       id="item23"
       width="1"
       height="1"
       x="20.0"
       y="5.0" />

    <rect
       id="item24"
       width="1"
       height="1"
       x="21.0"
       y="5.0" />

    <rect
       id="item25"
       width="1"
       height="1"
       x="22.0"
       y="5.0" />

    <rect
       id="item26"
       width="1"
       height="1"
       x="23.0"
       y="5.0" />

    <rect
       id="item27"
       width="1"
       height="1"
       x="25.0"
       y="5.0" />

    <rect
       id="item28"
       width="1"
       height="1"
       x="26.0"
       y="5.0" />

    <rect
       id="item29"
       width="1"
       height="1"
       x="27.0"
       y="5.0" />

    <rect
       id="item30"
       width="1"
       height="1"
       x="28.0"
       y="5.0" />

    <rect
       id="item31"
       width="1"
       height="1"
       x="1.0"
       y="4.0" />

    <rect
       id="item32"
       width="1"
       height="1"
       x="6.0"
       y="4.0" />

    <rect
       id="item33"
       width="1"
       height="1"
       x="11.0"
       y="4.0" />

    <rect
       id="item34"
       width="1"
       height="1"
       x="16.0"
       y="4.0" />

    <rect
       id="item35"
       width="1"
       height="1"
       x="21.0"
       y="4.0" />

    <rect
       id="item36"
       width="1"
       height="1"
       x="27.0"
       y="4.0" />

    <rect
       id="item37"
       width="1"
       height="1"
       x="0.0"
       y="2.0" />

    <rect
       id="item38"
       width="1"
       height="1"
       x="11.0"
       y="2.0" />

    <rect
       id="item39"
       width="1"
       height="1"
       x="18.0"
       y="2.0" />

    <rect
       id="item40"
       width="1"
       height="1"
       x="19.0"
       y="2.0" />

    <rect
       id="item41"
       width="1"
       height="1"
       x="21.0"
       y="2.0" />

    <rect
       id="item42"
       width="1"
       height="1"
       x="0.0"
       y="1.0" />

    <rect
       id="item43"
       width="1"
       height="1"
       x="1.0"
       y="1.0" />

    <rect
       id="item44"
       width="1"
       height="1"
       x="2.0"
       y="1.0" />

    <rect
       id="item45"
       width="1"
       height="1"
       x="3.0"
       y="1.0" />

    <rect
       id="item46"
       width="1"
       height="1"
       x="5.0"
       y="1.0" />

    <rect
       id="item47"
       width="1"
       height="1"
       x="6.0"
       y="1.0" />

    <rect
       id="item48"
       width="1"
       height="1"
       x="7.0"
       y="1.0" />

    <rect
       id="item49"
       width="1"
       height="1"
       x="11.0"
       y="1.0" />

    <rect
       id="item50"
       width="1"
       height="1"
       x="12.0"
       y="1.0" />

    <rect
       id="item51"
       width="1"
       height="1"
       x="13.0"
       y="1.0" />

    <rect
       id="item52"
       width="1"
       height="1"
       x="17.0"
       y="1.0" />

    <rect
       id="item53"
       width="1"
       height="1"
       x="18.0"
       y="1.0" />

    <rect
       id="item54"
       width="1"
       height="1"
       x="21.0"
       y="1.0" />

    <rect
       id="item55"
       width="1"
       height="1"
       x="22.0"
       y="1.0" />

    <rect
       id="item56"
       width="1"
       height="1"
       x="23.0"
       y="1.0" />

    <rect
       id="item57"
       width="1"
       height="1"
       x="24.0"
       y="1.0" />

    <rect
       id="item58"
       width="1"
       height="1"
       x="3.0"
       y="0.0" />

    <rect
       id="item59"
       width="1"
       height="1"
       x="7.0"
       y="0.0" />

    <rect
       id="item60"
       width="1"
       height="1"
       x="8.0"
       y="0.0" />

    <rect
       id="item61"
       width="1"
       height="1"
       x="9.0"
       y="0.0" />

    <rect
       id="item62"
       width="1"
       height="1"
       x="13.0"
       y="0.0" />

    <rect
       id="item63"
       width="1"
       height="1"
       x="14.0"
       y="0.0" />

    <rect
       id="item64"
       width="1"
       height="1"
       x="16.0"
       y="0.0" />

    <rect
       id="item65"
       width="1"
       height="1"
       x="17.0"
       y="0.0" />

    <rect
       id="item66"
       width="1"
       height="1"
       x="21.0"
       y="0.0" />

  </g>
</svg>
