<?xml version="1.0" encoding="UTF-8" standalone="no"?>

<svg
   xmlns="http://www.w3.org/2000/svg"
   width="19.0"
   height="2.0"
   id="poliominos-4-free.svg"
   version="1.0">
  <g style="opacity:1;fill:#bebebe;fill-opacity:1;stroke:black;stroke-width:0.01;stroke-opacity:1"
     id="layer1">

    <rect
       id="item1"
       width="1"
       height="1"
       x="5.0"
       y="1.0" />

    <rect
       id="item2"
       width="1"
       height="1"
       x="6.0"
       y="1.0" />

    <rect
       id="item3"
       width="1"
       height="1"
       x="9.0"
       y="1.0" />

    <rect
       id="item4"
       width="1"
       height="1"
       x="10.0"
       y="1.0" />

    <rect
       id="item5"
       width="1"
       height="1"
       x="12.0"
       y="1.0" />

    <rect
       id="item6"
       width="1"
       height="1"
       x="13.0"
       y="1.0" />

    <rect
       id="item7"
       width="1"
       height="1"
       x="14.0"
       y="1.0" />

    <rect
       id="item8"
       width="1"
       height="1"
       x="16.0"
       y="1.0" />

    <rect
       id="item9"
       width="1"
       height="1"
       x="17.0"
       y="1.0" />

    <rect
       id="item10"
       width="1"
       height="1"
       x="18.0"
       y="1.0" />

    <rect
       id="item11"
       width="1"
       height="1"
       x="0.0"
       y="0.0" />

    <rect
       id="item12"
       width="1"
       height="1"
       x="1.0"
       y="0.0" />

    <rect
       id="item13"
       width="1"
       height="1"
       x="2.0"
       y="0.0" />

    <rect
       id="item14"
       width="1"
       height="1"
       x="3.0"
       y="0.0" />

    <rect
       id="item15"
       width="1"
       height="1"
       x="6.0"
       y="0.0" />

    <rect
       id="item16"
       width="1"
       height="1"
       x="7.0"
       y="0.0" />

    <rect
       id="item17"
       width="1"
       height="1"
       x="9.0"
       y="0.0" />

    <rect
       id="item18"
       width="1"
       height="1"
       x="10.0"
       y="0.0" />

    <rect
       id="item19"
       width="1"
       height="1"
       x="12.0"
       y="0.0" />

    <rect
       id="item20"
       width="1"
       height="1"
       x="17.0"
       y="0.0" />

  </g>
</svg>
