<?xml version="1.0" encoding="UTF-8" standalone="no"?>

<svg
    xmlns="http://www.w3.org/2000/svg"
    width="7.0546875"
    height="6.0546875"
    id="dragon-04.svg"
    version="1.0">

<!-- viewbox="-2.02734375 -5.02734375 5.02734375 1.02734375" -->

  <g 
    style="stroke:black; stroke-width:0.02734375; stroke-opacity:1; fill:none" 
    id="layer1">

    <path d="M 2.02734375, 1.02734375 L 2.02734375, 0.02734375 L 1.0273437499999998, 0.02734375 L 1.0273437499999998, 1.02734375 L 0.02734375, 1.02734375 L 0.02734375, 2.02734375 L 1.02734375, 2.02734375 L 1.02734375, 3.02734375 L 0.02734375, 3.02734375 L 0.02734375, 4.02734375 L 1.02734375, 4.02734375 L 1.02734375, 3.02734375 L 2.02734375, 3.02734375 L 2.02734375, 4.02734375 L 3.02734375, 4.02734375 L 3.02734375, 5.02734375 L 2.02734375, 5.02734375 L 2.0273437500000004, 6.02734375 L 3.02734375, 6.02734375 L 3.02734375, 5.02734375 L 4.02734375, 5.02734375 L 4.02734375, 4.02734375 L 3.02734375, 4.02734375 L 3.02734375, 3.02734375 L 4.02734375, 3.02734375 L 4.02734375, 4.02734375 L 5.02734375, 4.02734375 L 5.02734375, 3.02734375 L 6.02734375, 3.02734375 L 6.02734375, 4.02734375 L 7.02734375, 4.02734375 L 7.02734375, 5.02734375 L 6.02734375, 5.02734375" />

  </g>

</svg>
