<?xml version="1.0" encoding="UTF-8" standalone="no"?>

<svg
    xmlns="http://www.w3.org/2000/svg"
    width="63.49218750000018"
    height="52.49218750000006"
    id="dragon-10.svg"
    version="1.0">

<!-- viewbox="-21.24609374999998 -42.24609375000005 42.2460937500002 10.246093750000004" -->

  <g 
    style="stroke:black; stroke-width:0.2460937500000007; stroke-opacity:1; fill:none" 
    id="layer1">

    <path d="M 21.24609374999998, 10.246093750000007 L 20.24609374999998, 10.246093750000007 L 20.24609374999998, 11.246093750000007 L 21.24609374999998, 11.246093750000007 L 21.246093749999982, 12.246093750000007 L 22.246093749999982, 12.246093750000007 L 22.24609374999998, 11.246093750000007 L 23.24609374999998, 11.246093750000007 L 23.246093749999982, 12.246093750000007 L 24.246093749999982, 12.24609375 L 24.24609374999998, 11.24609375 L 23.24609374999998, 11.246093750000007 L 23.24609374999998, 10.246093750000007 L 24.24609374999998, 10.24609375 L 24.24609374999998, 9.24609375 L 25.24609374999998, 9.24609375 L 25.24609374999998, 10.24609375 L 26.24609374999998, 10.24609375 L 26.24609374999998, 9.24609375 L 25.24609374999998, 9.24609375 L 25.24609374999998, 8.24609375 L 24.24609374999998, 8.24609375 L 24.24609374999998, 9.24609375 L 23.24609374999998, 9.246093750000007 L 23.24609374999998, 8.24609375 L 24.24609374999998, 8.24609375 L 24.24609374999998, 7.24609375 L 23.24609374999998, 7.24609375 L 23.246093749999975, 6.24609375 L 24.246093749999975, 6.24609375 L 24.246093749999975, 5.24609375 L 25.246093749999975, 5.24609375 L 25.246093749999975, 6.24609375 L 26.24609374999998, 6.24609375 L 26.246093749999975, 5.24609375 L 25.246093749999975, 5.24609375 L 25.246093749999975, 4.24609375 L 24.246093749999975, 4.24609375 L 24.246093749999975, 5.24609375 L 23.246093749999975, 5.24609375 L 23.246093749999975, 4.24609375 L 22.246093749999975, 4.246093750000007 L 22.246093749999975, 5.246093750000007 L 23.246093749999975, 5.24609375 L 23.24609374999998, 6.24609375 L 22.24609374999998, 6.246093750000007 L 22.24609374999998, 7.246093750000007 L 21.24609374999998, 7.246093750000007 L 21.246093749999975, 6.246093750000007 L 22.246093749999975, 6.246093750000007 L 22.246093749999975, 5.246093750000007 L 21.246093749999975, 5.246093750000007 L 21.246093749999975, 4.246093750000007 L 20.246093749999975, 4.246093750000007 L 20.246093749999975, 5.246093750000007 L 19.246093749999975, 5.246093750000007 L 19.246093749999975, 4.246093750000007 L 20.246093749999975, 4.246093750000007 L 20.246093749999975, 3.246093750000007 L 19.24609374999997, 3.246093750000007 L 19.24609374999997, 2.246093750000007 L 20.24609374999997, 2.246093750000007 L 20.24609374999997, 1.246093750000007 L 21.24609374999997, 1.24609375 L 21.24609374999997, 2.24609375 L 22.24609374999997, 2.24609375 L 22.24609374999997, 1.24609375 L 21.24609374999997, 1.24609375 L 21.24609374999997, 0.24609375 L 20.24609374999997, 0.2460937500000071 L 20.24609374999997, 1.246093750000007 L 19.24609374999997, 1.246093750000007 L 19.24609374999997, 0.2460937500000071 L 18.24609374999997, 0.2460937500000071 L 18.24609374999997, 1.246093750000007 L 19.24609374999997, 1.246093750000007 L 19.24609374999997, 2.246093750000007 L 18.24609374999997, 2.246093750000007 L 18.24609374999997, 3.246093750000007 L 17.24609374999997, 3.246093750000007 L 17.24609374999997, 2.246093750000007 L 16.24609374999997, 2.246093750000007 L 16.24609374999997, 3.246093750000007 L 17.24609374999997, 3.246093750000007 L 17.246093749999975, 4.246093750000007 L 18.246093749999975, 4.246093750000007 L 18.24609374999997, 3.246093750000007 L 19.24609374999997, 3.246093750000007 L 19.246093749999975, 4.246093750000007 L 18.246093749999975, 4.246093750000007 L 18.246093749999975, 5.246093750000007 L 19.246093749999975, 5.246093750000007 L 19.246093749999975, 6.246093750000007 L 18.246093749999975, 6.246093750000007 L 18.24609374999998, 7.246093750000007 L 17.24609374999998, 7.246093750000007 L 17.246093749999975, 6.246093750000007 L 18.246093749999975, 6.246093750000007 L 18.246093749999975, 5.246093750000007 L 17.246093749999975, 5.246093750000007 L 17.246093749999975, 4.246093750000007 L 16.246093749999975, 4.246093750000007 L 16.246093749999975, 5.246093750000007 L 15.246093749999975, 5.246093750000007 L 15.246093749999975, 4.246093750000007 L 14.246093749999975, 4.246093750000014 L 14.246093749999975, 5.246093750000014 L 15.246093749999975, 5.246093750000007 L 15.246093749999975, 6.246093750000007 L 14.246093749999975, 6.246093750000014 L 14.246093749999977, 7.246093750000014 L 13.246093749999977, 7.246093750000014 L 13.246093749999975, 6.246093750000014 L 14.246093749999975, 6.246093750000007 L 14.246093749999975, 5.246093750000014 L 13.246093749999975, 5.246093750000014 L 13.246093749999973, 4.246093750000014 L 12.246093749999973, 4.246093750000014 L 12.246093749999975, 5.246093750000014 L 11.246093749999975, 5.246093750000014 L 11.246093749999973, 4.246093750000014 L 12.246093749999973, 4.246093750000014 L 12.246093749999972, 3.246093750000014 L 11.246093749999972, 3.246093750000014 L 11.24609374999997, 2.246093750000014 L 12.24609374999997, 2.246093750000014 L 12.246093749999968, 1.2460937500000142 L 13.246093749999968, 1.2460937500000142 L 13.24609374999997, 2.246093750000014 L 14.24609374999997, 2.246093750000007 L 14.246093749999968, 1.2460937500000142 L 13.246093749999968, 1.2460937500000142 L 13.246093749999966, 0.2460937500000142 L 12.246093749999966, 0.2460937500000142 L 12.246093749999968, 1.2460937500000142 L 11.246093749999968, 1.2460937500000142 L 11.246093749999966, 0.2460937500000142 L 10.246093749999966, 0.2460937500000142 L 10.246093749999968, 1.2460937500000142 L 11.246093749999968, 1.2460937500000142 L 11.24609374999997, 2.246093750000014 L 10.24609374999997, 2.2460937500000213 L 10.246093749999972, 3.2460937500000213 L 9.246093749999972, 3.2460937500000213 L 9.24609374999997, 2.2460937500000213 L 8.24609374999997, 2.2460937500000213 L 8.246093749999972, 3.2460937500000213 L 9.246093749999972, 3.2460937500000213 L 9.246093749999973, 4.246093750000021 L 10.246093749999973, 4.246093750000021 L 10.246093749999973, 3.2460937500000213 L 11.246093749999973, 3.246093750000014 L 11.246093749999975, 4.246093750000014 L 10.246093749999975, 4.246093750000021 L 10.246093749999977, 5.246093750000021 L 11.246093749999977, 5.246093750000014 L 11.246093749999979, 6.246093750000014 L 10.246093749999979, 6.246093750000021 L 10.24609374999998, 7.246093750000021 L 9.24609374999998, 7.246093750000021 L 9.246093749999979, 6.246093750000021 L 8.246093749999979, 6.246093750000021 L 8.24609374999998, 7.246093750000021 L 9.24609374999998, 7.246093750000021 L 9.246093749999982, 8.246093750000021 L 10.246093749999982, 8.246093750000021 L 10.246093749999982, 7.246093750000021 L 11.246093749999982, 7.246093750000014 L 11.246093749999984, 8.246093750000014 L 12.246093749999984, 8.246093750000014 L 12.246093749999984, 7.246093750000014 L 11.246093749999984, 7.246093750000014 L 11.246093749999984, 6.246093750000014 L 12.246093749999984, 6.246093750000014 L 12.246093749999984, 5.246093750000014 L 13.246093749999984, 5.246093750000014 L 13.246093749999986, 6.246093750000014 L 12.246093749999986, 6.246093750000014 L 12.246093749999988, 7.246093750000014 L 13.246093749999988, 7.246093750000014 L 13.24609374999999, 8.246093750000014 L 14.24609374999999, 8.246093750000014 L 14.246093749999988, 7.246093750000014 L 15.246093749999988, 7.246093750000014 L 15.24609374999999, 8.246093750000014 L 14.24609374999999, 8.246093750000014 L 14.24609374999999, 9.246093750000014 L 15.24609374999999, 9.246093750000014 L 15.24609374999999, 10.246093750000014 L 14.24609374999999, 10.246093750000014 L 14.246093749999991, 11.246093750000014 L 13.246093749999991, 11.246093750000014 L 13.24609374999999, 10.246093750000014 L 14.24609374999999, 10.246093750000014 L 14.24609374999999, 9.246093750000014 L 13.24609374999999, 9.246093750000014 L 13.24609374999999, 8.246093750000014 L 12.24609374999999, 8.246093750000014 L 12.246093749999991, 9.246093750000014 L 11.246093749999991, 9.246093750000021 L 11.24609374999999, 8.246093750000021 L 10.24609374999999, 8.246093750000021 L 10.246093749999991, 9.246093750000021 L 11.246093749999991, 9.246093750000021 L 11.246093749999993, 10.246093750000021 L 10.246093749999993, 10.246093750000021 L 10.246093749999995, 11.246093750000021 L 9.246093749999995, 11.246093750000021 L 9.246093749999993, 10.246093750000021 L 8.246093749999993, 10.246093750000021 L 8.246093749999995, 11.246093750000021 L 9.246093749999995, 11.246093750000021 L 9.246093749999996, 12.246093750000021 L 10.246093749999996, 12.246093750000021 L 10.246093749999996, 11.246093750000021 L 11.246093749999996, 11.246093750000021 L 11.246093749999998, 12.246093750000021 L 10.246093749999998, 12.246093750000021 L 10.24609375, 13.246093750000021 L 11.24609375, 13.246093750000021 L 11.246093750000002, 14.246093750000021 L 10.246093750000002, 14.246093750000021 L 10.246093750000004, 15.246093750000021 L 9.246093750000004, 15.246093750000021 L 9.246093750000002, 14.246093750000021 L 10.246093750000002, 14.246093750000021 L 10.24609375, 13.246093750000021 L 9.24609375, 13.246093750000021 L 9.246093749999998, 12.246093750000021 L 8.246093749999998, 12.246093750000021 L 8.24609375, 13.246093750000021 L 7.24609375, 13.246093750000021 L 7.246093749999998, 12.246093750000021 L 6.246093749999998, 12.246093750000021 L 6.24609375, 13.246093750000021 L 7.24609375, 13.246093750000021 L 7.246093750000002, 14.246093750000021 L 6.246093750000002, 14.246093750000021 L 6.2460937500000036, 15.246093750000021 L 5.2460937500000036, 15.246093750000028 L 5.246093750000002, 14.246093750000028 L 6.246093750000002, 14.246093750000021 L 6.24609375, 13.246093750000021 L 5.24609375, 13.246093750000028 L 5.246093749999998, 12.246093750000028 L 4.24609375, 12.246093750000028 L 4.24609375, 13.246093750000028 L 3.24609375, 13.246093750000028 L 3.24609375, 12.246093750000028 L 4.24609375, 12.246093750000028 L 4.24609375, 11.246093750000028 L 3.24609375, 11.246093750000028 L 3.24609375, 10.246093750000028 L 4.24609375, 10.246093750000028 L 4.24609375, 9.246093750000028 L 5.24609375, 9.246093750000021 L 5.246093750000002, 10.246093750000021 L 6.246093750000002, 10.246093750000021 L 6.24609375, 9.246093750000021 L 5.24609375, 9.246093750000021 L 5.246093749999998, 8.246093750000021 L 4.24609375, 8.246093750000028 L 4.24609375, 9.246093750000028 L 3.24609375, 9.246093750000028 L 3.24609375, 8.246093750000028 L 2.24609375, 8.246093750000028 L 2.24609375, 9.246093750000028 L 3.24609375, 9.246093750000028 L 3.24609375, 10.246093750000028 L 2.24609375, 10.246093750000028 L 2.24609375, 11.246093750000028 L 1.24609375, 11.246093750000028 L 1.24609375, 10.246093750000028 L 0.24609375, 10.246093750000028 L 0.24609375, 11.246093750000028 L 1.24609375, 11.246093750000028 L 1.24609375, 12.246093750000028 L 2.24609375, 12.246093750000028 L 2.24609375, 11.246093750000028 L 3.24609375, 11.246093750000028 L 3.24609375, 12.246093750000028 L 2.24609375, 12.246093750000028 L 2.24609375, 13.246093750000028 L 3.24609375, 13.246093750000028 L 3.24609375, 14.246093750000028 L 2.24609375, 14.246093750000028 L 2.24609375, 15.246093750000028 L 1.24609375, 15.246093750000028 L 1.24609375, 14.246093750000028 L 0.24609375, 14.246093750000028 L 0.24609375, 15.246093750000028 L 1.24609375, 15.246093750000028 L 1.24609375, 16.24609375000003 L 2.24609375, 16.24609375000003 L 2.24609375, 15.246093750000028 L 3.24609375, 15.246093750000028 L 3.24609375, 16.24609375000003 L 4.24609375, 16.24609375000003 L 4.24609375, 15.246093750000028 L 3.24609375, 15.246093750000028 L 3.24609375, 14.246093750000028 L 4.24609375, 14.246093750000028 L 4.24609375, 13.246093750000028 L 5.24609375, 13.246093750000028 L 5.246093750000002, 14.246093750000028 L 4.24609375, 14.246093750000028 L 4.24609375, 15.246093750000028 L 5.24609375, 15.246093750000028 L 5.246093750000002, 16.24609375000003 L 6.246093750000002, 16.24609375000002 L 6.246093750000002, 15.246093750000021 L 7.246093750000002, 15.246093750000021 L 7.2460937500000036, 16.24609375000002 L 6.2460937500000036, 16.24609375000002 L 6.246093750000005, 17.24609375000002 L 7.246093750000005, 17.24609375000002 L 7.246093750000007, 18.24609375000002 L 6.246093750000007, 18.24609375000003 L 6.246093750000009, 19.24609375000003 L 5.246093750000009, 19.24609375000003 L 5.246093750000007, 18.24609375000003 L 4.246093750000007, 18.24609375000003 L 4.246093750000007, 19.24609375000003 L 5.246093750000007, 19.24609375000003 L 5.246093750000009, 20.24609375000003 L 6.246093750000009, 20.24609375000003 L 6.246093750000009, 19.24609375000003 L 7.246093750000009, 19.24609375000003 L 7.246093750000011, 20.24609375000003 L 8.24609375000001, 20.24609375000003 L 8.24609375000001, 19.24609375000003 L 7.246093750000011, 19.24609375000003 L 7.246093750000011, 18.24609375000003 L 8.24609375000001, 18.24609375000003 L 8.24609375000001, 17.24609375000003 L 9.24609375000001, 17.24609375000003 L 9.246093750000012, 18.24609375000003 L 10.246093750000012, 18.24609375000003 L 10.246093750000012, 17.24609375000003 L 9.246093750000012, 17.24609375000003 L 9.246093750000012, 16.24609375000003 L 8.246093750000012, 16.24609375000003 L 8.246093750000012, 17.24609375000003 L 7.246093750000012, 17.24609375000003 L 7.246093750000012, 16.24609375000003 L 8.246093750000012, 16.24609375000003 L 8.246093750000012, 15.246093750000028 L 7.246093750000012, 15.246093750000028 L 7.246093750000012, 14.246093750000028 L 8.246093750000012, 14.246093750000028 L 8.246093750000012, 13.246093750000028 L 9.246093750000012, 13.246093750000028 L 9.246093750000014, 14.246093750000028 L 8.246093750000014, 14.246093750000028 L 8.246093750000016, 15.246093750000028 L 9.246093750000016, 15.246093750000028 L 9.246093750000018, 16.24609375000003 L 10.246093750000018, 16.24609375000003 L 10.246093750000018, 15.246093750000028 L 11.246093750000018, 15.246093750000028 L 11.24609375000002, 16.24609375000003 L 12.24609375000002, 16.24609375000003 L 12.24609375000002, 15.246093750000028 L 11.24609375000002, 15.246093750000028 L 11.24609375000002, 14.246093750000028 L 12.24609375000002, 14.246093750000028 L 12.24609375000002, 13.246093750000028 L 13.24609375000002, 13.246093750000028 L 13.246093750000021, 14.246093750000028 L 12.246093750000021, 14.246093750000028 L 12.246093750000023, 15.246093750000028 L 13.246093750000023, 15.246093750000028 L 13.246093750000025, 16.24609375000003 L 14.246093750000025, 16.24609375000003 L 14.246093750000023, 15.246093750000028 L 15.246093750000023, 15.246093750000021 L 15.246093750000025, 16.24609375000002 L 14.246093750000025, 16.24609375000003 L 14.246093750000025, 17.24609375000003 L 15.246093750000025, 17.24609375000002 L 15.246093750000025, 18.24609375000003 L 14.246093750000025, 18.24609375000003 L 14.246093750000027, 19.24609375000003 L 13.246093750000027, 19.24609375000003 L 13.246093750000025, 18.24609375000003 L 14.246093750000025, 18.24609375000003 L 14.246093750000025, 17.24609375000003 L 13.246093750000025, 17.24609375000003 L 13.246093750000025, 16.24609375000003 L 12.246093750000025, 16.24609375000003 L 12.246093750000027, 17.24609375000003 L 11.246093750000027, 17.24609375000003 L 11.246093750000025, 16.24609375000003 L 10.246093750000025, 16.24609375000003 L 10.246093750000027, 17.24609375000003 L 11.246093750000027, 17.24609375000003 L 11.246093750000028, 18.24609375000003 L 10.246093750000028, 18.24609375000003 L 10.24609375000003, 19.24609375000003 L 9.24609375000003, 19.24609375000003 L 9.246093750000028, 18.24609375000003 L 8.246093750000028, 18.246093750000036 L 8.24609375000003, 19.246093750000036 L 9.24609375000003, 19.24609375000003 L 9.246093750000032, 20.24609375000003 L 10.246093750000032, 20.24609375000003 L 10.246093750000032, 19.24609375000003 L 11.246093750000032, 19.24609375000003 L 11.246093750000034, 20.24609375000003 L 10.246093750000034, 20.246093750000036 L 10.246093750000036, 21.246093750000036 L 11.246093750000036, 21.246093750000032 L 11.246093750000037, 22.246093750000032 L 10.246093750000037, 22.246093750000036 L 10.246093750000039, 23.246093750000036 L 9.246093750000039, 23.246093750000036 L 9.246093750000037, 22.246093750000036 L 8.246093750000037, 22.246093750000036 L 8.246093750000039, 23.246093750000036 L 9.246093750000039, 23.246093750000036 L 9.24609375000004, 24.246093750000036 L 10.24609375000004, 24.246093750000036 L 10.24609375000004, 23.246093750000036 L 11.24609375000004, 23.246093750000036 L 11.246093750000043, 24.246093750000036 L 12.246093750000043, 24.246093750000036 L 12.246093750000043, 23.246093750000036 L 11.246093750000043, 23.246093750000036 L 11.246093750000043, 22.246093750000036 L 12.246093750000043, 22.246093750000036 L 12.246093750000043, 21.246093750000036 L 13.246093750000043, 21.246093750000036 L 13.246093750000043, 22.246093750000036 L 12.246093750000043, 22.246093750000036 L 12.246093750000044, 23.246093750000036 L 13.246093750000044, 23.246093750000036 L 13.246093750000046, 24.246093750000036 L 14.246093750000046, 24.246093750000036 L 14.246093750000044, 23.246093750000036 L 15.246093750000044, 23.246093750000036 L 15.246093750000046, 24.246093750000036 L 14.246093750000046, 24.246093750000036 L 14.246093750000046, 25.246093750000036 L 15.246093750000046, 25.246093750000036 L 15.246093750000046, 26.246093750000036 L 14.246093750000046, 26.246093750000036 L 14.246093750000048, 27.246093750000036 L 13.246093750000048, 27.246093750000036 L 13.246093750000046, 26.246093750000036 L 14.246093750000046, 26.246093750000036 L 14.246093750000046, 25.246093750000036 L 13.246093750000046, 25.246093750000036 L 13.246093750000046, 24.246093750000036 L 12.246093750000046, 24.24609375000004 L 12.246093750000048, 25.24609375000004 L 11.246093750000048, 25.246093750000043 L 11.246093750000046, 24.246093750000043 L 10.246093750000046, 24.246093750000043 L 10.246093750000048, 25.246093750000043 L 11.246093750000048, 25.246093750000043 L 11.24609375000005, 26.246093750000043 L 10.24609375000005, 26.246093750000043 L 10.246093750000052, 27.246093750000043 L 9.246093750000052, 27.246093750000043 L 9.24609375000005, 26.246093750000043 L 8.24609375000005, 26.246093750000043 L 8.246093750000052, 27.246093750000043 L 9.246093750000052, 27.246093750000043 L 9.246093750000053, 28.246093750000043 L 10.246093750000053, 28.246093750000043 L 10.246093750000053, 27.246093750000043 L 11.246093750000053, 27.246093750000043 L 11.246093750000055, 28.246093750000043 L 10.246093750000055, 28.246093750000043 L 10.246093750000057, 29.246093750000043 L 11.246093750000057, 29.246093750000043 L 11.246093750000059, 30.246093750000043 L 10.246093750000059, 30.246093750000043 L 10.24609375000006, 31.246093750000043 L 9.24609375000006, 31.246093750000043 L 9.246093750000059, 30.246093750000043 L 10.246093750000059, 30.246093750000043 L 10.246093750000057, 29.246093750000043 L 9.246093750000057, 29.246093750000043 L 9.246093750000055, 28.246093750000043 L 8.246093750000055, 28.246093750000043 L 8.246093750000057, 29.246093750000043 L 7.246093750000057, 29.246093750000043 L 7.246093750000055, 28.246093750000043 L 6.246093750000055, 28.246093750000043 L 6.246093750000057, 29.246093750000043 L 7.246093750000057, 29.246093750000043 L 7.246093750000059, 30.246093750000043 L 6.246093750000059, 30.246093750000043 L 6.24609375000006, 31.246093750000043 L 5.24609375000006, 31.246093750000043 L 5.246093750000059, 30.246093750000043 L 6.246093750000059, 30.246093750000043 L 6.246093750000057, 29.246093750000043 L 5.246093750000057, 29.246093750000043 L 5.246093750000055, 28.246093750000043 L 4.246093750000057, 28.246093750000043 L 4.246093750000057, 29.246093750000043 L 3.246093750000057, 29.246093750000043 L 3.246093750000057, 28.246093750000043 L 4.246093750000057, 28.246093750000043 L 4.246093750000057, 27.246093750000043 L 3.246093750000057, 27.246093750000043 L 3.246093750000057, 26.246093750000043 L 4.246093750000057, 26.246093750000043 L 4.246093750000057, 25.246093750000043 L 5.246093750000057, 25.246093750000043 L 5.246093750000059, 26.246093750000043 L 6.246093750000059, 26.246093750000043 L 6.246093750000057, 25.246093750000043 L 5.246093750000057, 25.246093750000043 L 5.246093750000055, 24.246093750000043 L 4.246093750000057, 24.246093750000046 L 4.246093750000057, 25.246093750000046 L 3.246093750000057, 25.24609375000005 L 3.246093750000057, 24.24609375000005 L 2.246093750000057, 24.24609375000005 L 2.246093750000057, 25.24609375000005 L 3.246093750000057, 25.24609375000005 L 3.246093750000057, 26.24609375000005 L 2.246093750000057, 26.24609375000005 L 2.246093750000057, 27.24609375000005 L 1.2460937500000568, 27.24609375000005 L 1.2460937500000568, 26.24609375000005 L 0.24609375000005684, 26.24609375000005 L 0.24609375000005684, 27.24609375000005 L 1.2460937500000568, 27.24609375000005 L 1.2460937500000568, 28.24609375000005 L 2.246093750000057, 28.24609375000005 L 2.246093750000057, 27.24609375000005 L 3.246093750000057, 27.24609375000005 L 3.246093750000057, 28.24609375000005 L 2.246093750000057, 28.24609375000005 L 2.246093750000057, 29.24609375000005 L 3.246093750000057, 29.24609375000005 L 3.246093750000057, 30.24609375000005 L 2.246093750000057, 30.24609375000005 L 2.246093750000057, 31.24609375000005 L 1.2460937500000568, 31.24609375000005 L 1.2460937500000568, 30.24609375000005 L 0.24609375000005684, 30.24609375000005 L 0.24609375000005684, 31.24609375000005 L 1.2460937500000568, 31.24609375000005 L 1.2460937500000568, 32.24609375000005 L 2.246093750000057, 32.24609375000005 L 2.246093750000057, 31.24609375000005 L 3.246093750000057, 31.24609375000005 L 3.246093750000057, 32.24609375000005 L 4.246093750000057, 32.24609375000005 L 4.246093750000057, 31.24609375000005 L 3.246093750000057, 31.24609375000005 L 3.246093750000057, 30.24609375000005 L 4.246093750000057, 30.24609375000005 L 4.246093750000057, 29.24609375000005 L 5.246093750000057, 29.24609375000005 L 5.246093750000059, 30.24609375000005 L 4.246093750000057, 30.24609375000005 L 4.246093750000057, 31.24609375000005 L 5.246093750000057, 31.24609375000005 L 5.246093750000059, 32.24609375000005 L 6.246093750000059, 32.24609375000005 L 6.246093750000059, 31.24609375000005 L 7.246093750000059, 31.24609375000005 L 7.24609375000006, 32.24609375000005 L 6.24609375000006, 32.24609375000005 L 6.246093750000062, 33.24609375000005 L 7.246093750000062, 33.24609375000005 L 7.246093750000064, 34.24609375000005 L 6.246093750000064, 34.24609375000005 L 6.246093750000066, 35.24609375000005 L 5.246093750000066, 35.24609375000005 L 5.246093750000064, 34.24609375000005 L 4.246093750000064, 34.24609375000005 L 4.246093750000064, 35.24609375000005 L 5.246093750000064, 35.24609375000005 L 5.246093750000066, 36.24609375000005 L 6.246093750000066, 36.24609375000005 L 6.246093750000066, 35.24609375000005 L 7.246093750000066, 35.24609375000005 L 7.2460937500000675, 36.24609375000005 L 8.246093750000068, 36.24609375000005 L 8.246093750000068, 35.24609375000005 L 7.2460937500000675, 35.24609375000005 L 7.2460937500000675, 34.24609375000005 L 8.246093750000068, 34.24609375000005 L 8.246093750000068, 33.24609375000005 L 9.246093750000068, 33.24609375000005 L 9.24609375000007, 34.24609375000005 L 10.24609375000007, 34.24609375000005 L 10.24609375000007, 33.24609375000005 L 9.24609375000007, 33.24609375000005 L 9.24609375000007, 32.24609375000005 L 8.24609375000007, 32.24609375000005 L 8.24609375000007, 33.24609375000005 L 7.246093750000069, 33.24609375000005 L 7.246093750000069, 32.24609375000005 L 8.24609375000007, 32.24609375000005 L 8.24609375000007, 31.24609375000005 L 7.246093750000069, 31.24609375000005 L 7.246093750000069, 30.24609375000005 L 8.24609375000007, 30.24609375000005 L 8.24609375000007, 29.24609375000005 L 9.24609375000007, 29.24609375000005 L 9.246093750000071, 30.24609375000005 L 8.246093750000071, 30.24609375000005 L 8.246093750000073, 31.24609375000005 L 9.246093750000073, 31.24609375000005 L 9.246093750000075, 32.24609375000005 L 10.246093750000075, 32.24609375000005 L 10.246093750000075, 31.24609375000005 L 11.246093750000075, 31.24609375000005 L 11.246093750000076, 32.24609375000005 L 12.246093750000076, 32.24609375000005 L 12.246093750000076, 31.24609375000005 L 11.246093750000076, 31.24609375000005 L 11.246093750000076, 30.24609375000005 L 12.246093750000076, 30.24609375000005 L 12.246093750000076, 29.24609375000005 L 13.246093750000076, 29.24609375000005 L 13.246093750000078, 30.24609375000005 L 12.246093750000078, 30.24609375000005 L 12.24609375000008, 31.24609375000005 L 13.24609375000008, 31.24609375000005 L 13.246093750000082, 32.24609375000005 L 14.246093750000082, 32.24609375000005 L 14.24609375000008, 31.24609375000005 L 15.24609375000008, 31.24609375000005 L 15.246093750000082, 32.24609375000005 L 14.246093750000082, 32.24609375000005 L 14.246093750000082, 33.24609375000005 L 15.246093750000082, 33.24609375000005 L 15.246093750000082, 34.24609375000005 L 14.246093750000082, 34.24609375000005 L 14.246093750000083, 35.24609375000005 L 13.246093750000083, 35.24609375000005 L 13.246093750000082, 34.24609375000005 L 12.246093750000082, 34.24609375000005 L 12.246093750000083, 35.24609375000005 L 13.246093750000083, 35.24609375000005 L 13.246093750000085, 36.24609375000005 L 14.246093750000085, 36.24609375000005 L 14.246093750000083, 35.24609375000005 L 15.246093750000083, 35.24609375000005 L 15.246093750000085, 36.24609375000005 L 16.246093750000085, 36.24609375000005 L 16.246093750000085, 35.24609375000005 L 15.246093750000083, 35.24609375000005 L 15.246093750000082, 34.24609375000005 L 16.24609375000008, 34.24609375000005 L 16.24609375000008, 33.24609375000005 L 17.24609375000008, 33.24609375000005 L 17.24609375000008, 34.24609375000005 L 18.24609375000008, 34.24609375000005 L 18.24609375000008, 33.24609375000005 L 17.24609375000008, 33.24609375000005 L 17.24609375000008, 32.24609375000005 L 16.24609375000008, 32.24609375000005 L 16.24609375000008, 33.24609375000005 L 15.246093750000082, 33.24609375000005 L 15.246093750000082, 32.24609375000005 L 16.24609375000008, 32.24609375000005 L 16.246093750000078, 31.24609375000005 L 15.24609375000008, 31.24609375000005 L 15.246093750000078, 30.24609375000005 L 16.246093750000078, 30.24609375000005 L 16.246093750000078, 29.24609375000005 L 17.246093750000078, 29.24609375000005 L 17.246093750000078, 30.24609375000005 L 18.246093750000078, 30.24609375000005 L 18.246093750000078, 29.24609375000005 L 17.246093750000078, 29.24609375000005 L 17.246093750000078, 28.24609375000005 L 16.246093750000078, 28.24609375000005 L 16.246093750000078, 29.24609375000005 L 15.246093750000078, 29.24609375000005 L 15.246093750000078, 28.24609375000005 L 14.246093750000078, 28.24609375000005 L 14.246093750000078, 29.24609375000005 L 15.246093750000078, 29.24609375000005 L 15.246093750000078, 30.24609375000005 L 14.246093750000078, 30.24609375000005 L 14.24609375000008, 31.24609375000005 L 13.24609375000008, 31.24609375000005 L 13.246093750000078, 30.24609375000005 L 14.246093750000078, 30.24609375000005 L 14.246093750000078, 29.24609375000005 L 13.246093750000078, 29.24609375000005 L 13.246093750000078, 28.24609375000005 L 12.246093750000078, 28.24609375000005 L 12.246093750000078, 29.24609375000005 L 11.246093750000078, 29.24609375000005 L 11.246093750000078, 28.24609375000005 L 12.246093750000078, 28.24609375000005 L 12.246093750000078, 27.24609375000005 L 11.246093750000078, 27.24609375000005 L 11.246093750000078, 26.24609375000005 L 12.246093750000078, 26.24609375000005 L 12.246093750000078, 25.24609375000005 L 13.246093750000078, 25.24609375000005 L 13.246093750000078, 26.24609375000005 L 12.246093750000078, 26.24609375000005 L 12.24609375000008, 27.24609375000005 L 13.24609375000008, 27.24609375000005 L 13.246093750000082, 28.24609375000005 L 14.246093750000082, 28.24609375000005 L 14.24609375000008, 27.24609375000005 L 15.24609375000008, 27.24609375000005 L 15.246093750000082, 28.24609375000005 L 16.24609375000008, 28.24609375000005 L 16.246093750000078, 27.24609375000005 L 15.24609375000008, 27.24609375000005 L 15.246093750000078, 26.24609375000005 L 16.246093750000078, 26.24609375000005 L 16.246093750000078, 25.24609375000005 L 17.246093750000078, 25.24609375000005 L 17.246093750000078, 26.24609375000005 L 18.246093750000078, 26.24609375000005 L 18.246093750000078, 25.24609375000005 L 17.246093750000078, 25.24609375000005 L 17.246093750000078, 24.24609375000005 L 16.246093750000078, 24.24609375000005 L 16.246093750000078, 25.24609375000005 L 15.246093750000078, 25.24609375000005 L 15.246093750000078, 24.24609375000005 L 16.246093750000078, 24.24609375000005 L 16.246093750000078, 23.24609375000005 L 15.246093750000076, 23.24609375000005 L 15.246093750000075, 22.24609375000005 L 16.246093750000075, 22.24609375000005 L 16.246093750000075, 21.24609375000005 L 17.246093750000075, 21.24609375000005 L 17.246093750000075, 22.24609375000005 L 16.246093750000075, 22.24609375000005 L 16.246093750000078, 23.24609375000005 L 17.246093750000078, 23.24609375000005 L 17.246093750000078, 24.24609375000005 L 18.246093750000078, 24.24609375000005 L 18.246093750000078, 23.24609375000005 L 19.246093750000078, 23.24609375000005 L 19.246093750000078, 24.24609375000005 L 20.246093750000078, 24.24609375000005 L 20.246093750000078, 23.24609375000005 L 19.246093750000078, 23.24609375000005 L 19.246093750000075, 22.24609375000005 L 20.246093750000075, 22.24609375000005 L 20.246093750000075, 21.24609375000005 L 21.246093750000075, 21.24609375000005 L 21.246093750000075, 22.24609375000005 L 20.246093750000075, 22.24609375000005 L 20.246093750000078, 23.24609375000005 L 21.246093750000078, 23.24609375000005 L 21.246093750000078, 24.24609375000005 L 22.246093750000078, 24.24609375000005 L 22.246093750000078, 23.24609375000005 L 23.246093750000078, 23.24609375000005 L 23.246093750000078, 24.24609375000005 L 22.246093750000078, 24.24609375000005 L 22.246093750000078, 25.24609375000005 L 23.246093750000078, 25.24609375000005 L 23.246093750000078, 26.24609375000005 L 22.246093750000078, 26.24609375000005 L 22.24609375000008, 27.24609375000005 L 21.24609375000008, 27.24609375000005 L 21.246093750000078, 26.24609375000005 L 22.246093750000078, 26.24609375000005 L 22.246093750000078, 25.24609375000005 L 21.246093750000078, 25.24609375000005 L 21.246093750000078, 24.24609375000005 L 20.246093750000078, 24.246093750000053 L 20.246093750000078, 25.246093750000053 L 19.246093750000078, 25.246093750000057 L 19.246093750000078, 24.246093750000057 L 18.246093750000078, 24.246093750000057 L 18.246093750000078, 25.246093750000057 L 19.246093750000078, 25.246093750000057 L 19.246093750000078, 26.246093750000057 L 18.246093750000078, 26.246093750000057 L 18.246093750000078, 27.246093750000057 L 17.246093750000078, 27.246093750000057 L 17.246093750000078, 26.246093750000057 L 16.246093750000078, 26.246093750000057 L 16.246093750000078, 27.246093750000057 L 17.246093750000078, 27.246093750000057 L 17.24609375000008, 28.246093750000057 L 18.24609375000008, 28.246093750000057 L 18.246093750000078, 27.246093750000057 L 19.246093750000078, 27.246093750000057 L 19.24609375000008, 28.246093750000057 L 18.24609375000008, 28.246093750000057 L 18.24609375000008, 29.246093750000057 L 19.24609375000008, 29.246093750000057 L 19.24609375000008, 30.246093750000057 L 18.24609375000008, 30.246093750000057 L 18.246093750000085, 31.246093750000057 L 17.246093750000085, 31.246093750000057 L 17.24609375000008, 30.246093750000057 L 16.24609375000008, 30.246093750000057 L 16.246093750000085, 31.246093750000057 L 17.246093750000085, 31.246093750000057 L 17.246093750000085, 32.24609375000006 L 18.246093750000085, 32.24609375000006 L 18.246093750000085, 31.246093750000057 L 19.246093750000085, 31.246093750000057 L 19.246093750000085, 32.24609375000006 L 20.246093750000085, 32.24609375000006 L 20.246093750000085, 31.246093750000057 L 19.246093750000085, 31.246093750000057 L 19.24609375000008, 30.246093750000057 L 20.24609375000008, 30.246093750000057 L 20.24609375000008, 29.246093750000057 L 21.24609375000008, 29.246093750000057 L 21.24609375000008, 30.246093750000057 L 20.24609375000008, 30.246093750000057 L 20.246093750000085, 31.246093750000057 L 21.246093750000085, 31.246093750000057 L 21.246093750000085, 32.24609375000006 L 22.246093750000085, 32.24609375000006 L 22.246093750000085, 31.246093750000057 L 23.246093750000085, 31.246093750000057 L 23.246093750000085, 32.24609375000006 L 22.246093750000085, 32.24609375000006 L 22.246093750000085, 33.24609375000006 L 23.246093750000085, 33.24609375000006 L 23.246093750000085, 34.24609375000006 L 22.246093750000085, 34.24609375000006 L 22.24609375000009, 35.24609375000006 L 21.24609375000009, 35.24609375000006 L 21.246093750000085, 34.24609375000006 L 20.246093750000085, 34.24609375000006 L 20.24609375000009, 35.24609375000006 L 21.24609375000009, 35.24609375000006 L 21.24609375000009, 36.24609375000006 L 22.24609375000009, 36.24609375000006 L 22.24609375000009, 35.24609375000006 L 23.24609375000009, 35.24609375000006 L 23.24609375000009, 36.24609375000006 L 24.24609375000009, 36.24609375000006 L 24.24609375000009, 35.24609375000006 L 23.24609375000009, 35.24609375000006 L 23.246093750000085, 34.24609375000006 L 24.246093750000085, 34.24609375000006 L 24.246093750000085, 33.24609375000006 L 25.246093750000085, 33.24609375000006 L 25.246093750000085, 34.24609375000006 L 26.246093750000085, 34.24609375000006 L 26.246093750000085, 33.24609375000006 L 25.246093750000085, 33.24609375000006 L 25.246093750000085, 32.24609375000006 L 24.246093750000085, 32.24609375000006 L 24.246093750000085, 33.24609375000006 L 23.246093750000085, 33.24609375000006 L 23.246093750000085, 32.24609375000006 L 24.246093750000085, 32.24609375000006 L 24.246093750000085, 31.246093750000057 L 23.246093750000085, 31.246093750000057 L 23.24609375000008, 30.246093750000057 L 24.24609375000008, 30.246093750000057 L 24.24609375000008, 29.246093750000057 L 25.24609375000008, 29.246093750000057 L 25.24609375000008, 30.246093750000057 L 24.24609375000008, 30.246093750000057 L 24.246093750000085, 31.246093750000057 L 25.246093750000085, 31.246093750000057 L 25.246093750000085, 32.24609375000006 L 26.246093750000085, 32.24609375000006 L 26.246093750000085, 31.246093750000057 L 27.246093750000085, 31.246093750000057 L 27.246093750000085, 32.24609375000006 L 28.246093750000085, 32.24609375000006 L 28.246093750000085, 31.246093750000057 L 27.246093750000085, 31.246093750000057 L 27.24609375000008, 30.246093750000057 L 28.24609375000008, 30.246093750000057 L 28.24609375000008, 29.246093750000057 L 29.24609375000008, 29.246093750000057 L 29.246093750000085, 30.246093750000057 L 28.246093750000085, 30.246093750000057 L 28.246093750000085, 31.246093750000057 L 29.246093750000085, 31.246093750000057 L 29.246093750000085, 32.24609375000006 L 30.246093750000085, 32.24609375000006 L 30.246093750000085, 31.246093750000057 L 31.246093750000085, 31.246093750000057 L 31.24609375000009, 32.24609375000006 L 30.24609375000009, 32.24609375000006 L 30.246093750000092, 33.24609375000006 L 31.246093750000092, 33.24609375000006 L 31.246093750000092, 34.24609375000006 L 30.246093750000092, 34.24609375000006 L 30.246093750000092, 35.24609375000006 L 29.246093750000092, 35.24609375000006 L 29.246093750000092, 34.24609375000006 L 30.246093750000092, 34.24609375000006 L 30.246093750000092, 33.24609375000006 L 29.246093750000092, 33.24609375000006 L 29.24609375000009, 32.24609375000006 L 28.24609375000009, 32.24609375000006 L 28.24609375000009, 33.24609375000006 L 27.24609375000009, 33.24609375000006 L 27.24609375000009, 32.24609375000006 L 26.24609375000009, 32.24609375000006 L 26.24609375000009, 33.24609375000006 L 27.24609375000009, 33.24609375000006 L 27.246093750000092, 34.24609375000006 L 26.246093750000092, 34.24609375000006 L 26.246093750000092, 35.24609375000006 L 25.246093750000092, 35.24609375000006 L 25.246093750000092, 34.24609375000006 L 24.246093750000092, 34.24609375000006 L 24.246093750000092, 35.24609375000006 L 25.246093750000092, 35.24609375000006 L 25.246093750000092, 36.24609375000006 L 26.246093750000092, 36.24609375000006 L 26.246093750000092, 35.24609375000006 L 27.246093750000092, 35.24609375000006 L 27.246093750000092, 36.24609375000006 L 26.246093750000092, 36.24609375000006 L 26.246093750000092, 37.24609375000006 L 27.246093750000092, 37.24609375000006 L 27.246093750000092, 38.24609375000006 L 26.246093750000092, 38.24609375000006 L 26.246093750000096, 39.24609375000006 L 25.246093750000096, 39.24609375000006 L 25.246093750000092, 38.24609375000006 L 24.246093750000092, 38.24609375000006 L 24.246093750000096, 39.24609375000006 L 25.246093750000096, 39.24609375000006 L 25.246093750000096, 40.24609375000006 L 26.246093750000096, 40.24609375000006 L 26.246093750000096, 39.24609375000006 L 27.246093750000096, 39.24609375000006 L 27.246093750000096, 40.24609375000006 L 28.246093750000096, 40.24609375000006 L 28.246093750000096, 39.24609375000006 L 27.246093750000096, 39.24609375000006 L 27.246093750000092, 38.24609375000006 L 28.246093750000092, 38.24609375000006 L 28.246093750000092, 37.24609375000006 L 29.246093750000092, 37.24609375000006 L 29.246093750000092, 38.24609375000006 L 28.246093750000092, 38.24609375000006 L 28.246093750000096, 39.24609375000006 L 29.246093750000096, 39.24609375000006 L 29.2460937500001, 40.24609375000006 L 30.2460937500001, 40.24609375000006 L 30.2460937500001, 39.24609375000006 L 31.2460937500001, 39.24609375000006 L 31.2460937500001, 40.24609375000006 L 30.2460937500001, 40.24609375000006 L 30.2460937500001, 41.24609375000006 L 31.2460937500001, 41.24609375000006 L 31.246093750000103, 42.24609375000006 L 30.246093750000103, 42.24609375000006 L 30.246093750000107, 43.24609375000006 L 29.246093750000107, 43.24609375000006 L 29.246093750000103, 42.24609375000006 L 30.246093750000103, 42.24609375000006 L 30.2460937500001, 41.24609375000006 L 29.2460937500001, 41.24609375000006 L 29.2460937500001, 40.24609375000006 L 28.2460937500001, 40.24609375000006 L 28.2460937500001, 41.24609375000006 L 27.2460937500001, 41.24609375000006 L 27.2460937500001, 40.24609375000006 L 26.2460937500001, 40.24609375000006 L 26.2460937500001, 41.24609375000006 L 27.2460937500001, 41.24609375000006 L 27.2460937500001, 42.24609375000006 L 26.2460937500001, 42.24609375000006 L 26.246093750000103, 43.24609375000006 L 25.246093750000103, 43.24609375000006 L 25.2460937500001, 42.24609375000006 L 24.2460937500001, 42.24609375000006 L 24.246093750000103, 43.24609375000006 L 25.246093750000103, 43.24609375000006 L 25.246093750000103, 44.24609375000006 L 26.246093750000103, 44.24609375000006 L 26.246093750000103, 43.24609375000006 L 27.246093750000103, 43.24609375000006 L 27.246093750000103, 44.24609375000006 L 26.246093750000103, 44.24609375000006 L 26.246093750000103, 45.24609375000006 L 27.246093750000103, 45.24609375000006 L 27.246093750000107, 46.24609375000006 L 26.246093750000107, 46.24609375000006 L 26.246093750000107, 47.24609375000006 L 25.246093750000107, 47.24609375000006 L 25.246093750000107, 46.24609375000006 L 26.246093750000107, 46.24609375000006 L 26.246093750000103, 45.24609375000006 L 25.246093750000103, 45.24609375000006 L 25.246093750000103, 44.24609375000006 L 24.246093750000103, 44.24609375000006 L 24.246093750000103, 45.24609375000006 L 23.246093750000103, 45.24609375000006 L 23.246093750000103, 44.24609375000006 L 22.246093750000103, 44.24609375000006 L 22.246093750000103, 45.24609375000006 L 23.246093750000103, 45.24609375000006 L 23.246093750000107, 46.24609375000006 L 22.246093750000107, 46.24609375000006 L 22.246093750000107, 47.24609375000006 L 21.246093750000107, 47.24609375000006 L 21.246093750000103, 46.24609375000006 L 22.246093750000103, 46.24609375000006 L 22.246093750000103, 45.24609375000006 L 21.246093750000103, 45.24609375000006 L 21.246093750000103, 44.24609375000006 L 20.246093750000103, 44.24609375000006 L 20.246093750000103, 45.24609375000006 L 19.246093750000103, 45.24609375000006 L 19.246093750000103, 44.24609375000006 L 20.246093750000103, 44.24609375000006 L 20.2460937500001, 43.24609375000006 L 19.2460937500001, 43.24609375000006 L 19.2460937500001, 42.24609375000006 L 20.2460937500001, 42.24609375000006 L 20.2460937500001, 41.24609375000006 L 21.2460937500001, 41.24609375000006 L 21.2460937500001, 42.24609375000006 L 22.2460937500001, 42.24609375000006 L 22.2460937500001, 41.24609375000006 L 21.2460937500001, 41.24609375000006 L 21.2460937500001, 40.24609375000006 L 20.2460937500001, 40.24609375000006 L 20.2460937500001, 41.24609375000006 L 19.2460937500001, 41.24609375000006 L 19.2460937500001, 40.24609375000006 L 18.2460937500001, 40.24609375000006 L 18.2460937500001, 41.24609375000006 L 19.2460937500001, 41.24609375000006 L 19.2460937500001, 42.24609375000006 L 18.2460937500001, 42.24609375000006 L 18.2460937500001, 43.24609375000006 L 17.2460937500001, 43.24609375000006 L 17.2460937500001, 42.24609375000006 L 16.2460937500001, 42.24609375000006 L 16.2460937500001, 43.24609375000006 L 17.2460937500001, 43.24609375000006 L 17.2460937500001, 44.24609375000006 L 18.2460937500001, 44.24609375000006 L 18.2460937500001, 43.24609375000006 L 19.2460937500001, 43.24609375000006 L 19.2460937500001, 44.24609375000006 L 18.2460937500001, 44.24609375000006 L 18.246093750000103, 45.24609375000006 L 19.246093750000103, 45.24609375000006 L 19.246093750000103, 46.24609375000006 L 18.246093750000103, 46.24609375000006 L 18.246093750000103, 47.24609375000006 L 17.246093750000103, 47.24609375000006 L 17.246093750000103, 46.24609375000006 L 16.246093750000103, 46.24609375000006 L 16.246093750000103, 47.24609375000006 L 17.246093750000103, 47.24609375000006 L 17.246093750000107, 48.24609375000006 L 18.246093750000107, 48.24609375000006 L 18.246093750000103, 47.24609375000006 L 19.246093750000103, 47.24609375000006 L 19.246093750000107, 48.24609375000006 L 20.246093750000107, 48.24609375000006 L 20.246093750000103, 47.24609375000006 L 19.246093750000103, 47.24609375000006 L 19.246093750000103, 46.24609375000006 L 20.246093750000103, 46.24609375000006 L 20.246093750000103, 45.24609375000006 L 21.246093750000103, 45.24609375000006 L 21.246093750000103, 46.24609375000006 L 20.246093750000103, 46.24609375000006 L 20.246093750000103, 47.24609375000006 L 21.246093750000103, 47.24609375000006 L 21.246093750000107, 48.24609375000006 L 22.246093750000107, 48.24609375000006 L 22.246093750000103, 47.24609375000006 L 23.246093750000103, 47.24609375000006 L 23.246093750000107, 48.24609375000006 L 22.246093750000107, 48.24609375000006 L 22.246093750000107, 49.24609375000006 L 23.246093750000107, 49.24609375000006 L 23.246093750000107, 50.24609375000006 L 22.246093750000107, 50.24609375000006 L 22.246093750000107, 51.24609375000006 L 21.246093750000107, 51.24609375000006 L 21.246093750000107, 50.24609375000006 L 20.246093750000107, 50.24609375000006 L 20.246093750000107, 51.24609375000006 L 21.246093750000107, 51.24609375000006 L 21.24609375000011, 52.24609375000006 L 22.24609375000011, 52.24609375000006 L 22.246093750000107, 51.24609375000006 L 23.246093750000107, 51.24609375000006 L 23.24609375000011, 52.24609375000006 L 24.24609375000011, 52.24609375000006 L 24.246093750000107, 51.24609375000006 L 23.246093750000107, 51.24609375000006 L 23.246093750000107, 50.24609375000006 L 24.246093750000107, 50.24609375000006 L 24.246093750000107, 49.24609375000006 L 25.246093750000107, 49.24609375000006 L 25.246093750000107, 50.24609375000006 L 26.246093750000107, 50.24609375000006 L 26.246093750000107, 49.24609375000006 L 25.246093750000107, 49.24609375000006 L 25.246093750000107, 48.24609375000006 L 24.246093750000107, 48.24609375000006 L 24.246093750000107, 49.24609375000006 L 23.246093750000107, 49.24609375000006 L 23.246093750000107, 48.24609375000006 L 24.246093750000107, 48.24609375000006 L 24.246093750000107, 47.24609375000006 L 23.246093750000107, 47.24609375000006 L 23.246093750000103, 46.24609375000006 L 24.246093750000103, 46.24609375000006 L 24.246093750000103, 45.24609375000006 L 25.246093750000103, 45.24609375000006 L 25.246093750000103, 46.24609375000006 L 24.246093750000103, 46.24609375000006 L 24.246093750000107, 47.24609375000006 L 25.246093750000107, 47.24609375000006 L 25.246093750000107, 48.24609375000006 L 26.246093750000107, 48.24609375000006 L 26.246093750000107, 47.24609375000006 L 27.246093750000107, 47.24609375000006 L 27.246093750000107, 48.24609375000006 L 28.246093750000107, 48.24609375000006 L 28.246093750000107, 47.24609375000006 L 27.246093750000107, 47.24609375000006 L 27.246093750000103, 46.24609375000006 L 28.246093750000103, 46.24609375000006 L 28.246093750000103, 45.24609375000006 L 29.246093750000103, 45.24609375000006 L 29.246093750000107, 46.24609375000006 L 28.246093750000107, 46.24609375000006 L 28.246093750000107, 47.24609375000006 L 29.246093750000107, 47.24609375000006 L 29.246093750000107, 48.24609375000006 L 30.246093750000107, 48.24609375000006 L 30.246093750000107, 47.24609375000006 L 31.246093750000107, 47.24609375000006 L 31.24609375000011, 48.24609375000006 L 30.24609375000011, 48.24609375000006 L 30.246093750000114, 49.24609375000006 L 31.246093750000114, 49.24609375000006 L 31.246093750000114, 50.24609375000006 L 30.246093750000114, 50.24609375000006 L 30.246093750000114, 51.24609375000006 L 29.246093750000114, 51.24609375000006 L 29.246093750000114, 50.24609375000006 L 28.246093750000114, 50.24609375000006 L 28.246093750000114, 51.24609375000006 L 29.246093750000114, 51.24609375000006 L 29.246093750000114, 52.24609375000006 L 30.246093750000114, 52.24609375000006 L 30.246093750000114, 51.24609375000006 L 31.246093750000114, 51.24609375000006 L 31.246093750000117, 52.24609375000006 L 32.246093750000114, 52.24609375000006 L 32.246093750000114, 51.24609375000006 L 31.246093750000117, 51.24609375000006 L 31.246093750000117, 50.24609375000006 L 32.246093750000114, 50.24609375000006 L 32.246093750000114, 49.24609375000006 L 33.246093750000114, 49.24609375000006 L 33.24609375000012, 50.24609375000006 L 34.24609375000012, 50.24609375000006 L 34.24609375000012, 49.24609375000006 L 33.24609375000012, 49.24609375000006 L 33.24609375000012, 48.24609375000006 L 32.24609375000012, 48.24609375000006 L 32.24609375000012, 49.24609375000006 L 31.24609375000012, 49.24609375000006 L 31.24609375000012, 48.24609375000006 L 32.24609375000012, 48.24609375000006 L 32.24609375000012, 47.24609375000006 L 31.24609375000012, 47.24609375000006 L 31.24609375000012, 46.24609375000006 L 32.24609375000012, 46.24609375000006 L 32.24609375000012, 45.24609375000006 L 33.24609375000012, 45.24609375000006 L 33.24609375000012, 46.24609375000006 L 34.24609375000012, 46.24609375000006 L 34.24609375000012, 45.24609375000006 L 33.24609375000012, 45.24609375000006 L 33.24609375000012, 44.24609375000006 L 32.24609375000012, 44.24609375000006 L 32.24609375000012, 45.24609375000006 L 31.24609375000012, 45.24609375000006 L 31.24609375000012, 44.24609375000006 L 30.24609375000012, 44.24609375000006 L 30.24609375000012, 45.24609375000006 L 31.24609375000012, 45.24609375000006 L 31.24609375000012, 46.24609375000006 L 30.24609375000012, 46.24609375000006 L 30.24609375000012, 47.24609375000006 L 29.24609375000012, 47.24609375000006 L 29.24609375000012, 46.24609375000006 L 30.24609375000012, 46.24609375000006 L 30.24609375000012, 45.24609375000006 L 29.24609375000012, 45.24609375000006 L 29.24609375000012, 44.24609375000006 L 28.24609375000012, 44.24609375000006 L 28.24609375000012, 45.24609375000006 L 27.24609375000012, 45.24609375000006 L 27.24609375000012, 44.24609375000006 L 28.24609375000012, 44.24609375000006 L 28.24609375000012, 43.24609375000006 L 27.24609375000012, 43.24609375000006 L 27.24609375000012, 42.24609375000006 L 28.24609375000012, 42.24609375000006 L 28.246093750000117, 41.24609375000006 L 29.246093750000117, 41.24609375000006 L 29.24609375000012, 42.24609375000006 L 28.24609375000012, 42.24609375000006 L 28.24609375000012, 43.24609375000006 L 29.24609375000012, 43.24609375000006 L 29.24609375000012, 44.24609375000006 L 30.24609375000012, 44.24609375000006 L 30.24609375000012, 43.24609375000006 L 31.24609375000012, 43.24609375000006 L 31.246093750000124, 44.24609375000006 L 32.24609375000013, 44.24609375000006 L 32.24609375000013, 43.24609375000006 L 31.246093750000124, 43.24609375000006 L 31.246093750000124, 42.24609375000006 L 32.24609375000013, 42.24609375000006 L 32.24609375000013, 41.24609375000006 L 33.24609375000013, 41.24609375000006 L 33.24609375000013, 42.24609375000006 L 34.24609375000013, 42.24609375000006 L 34.24609375000013, 41.24609375000006 L 33.24609375000013, 41.24609375000006 L 33.24609375000013, 40.24609375000006 L 32.24609375000013, 40.24609375000006 L 32.24609375000013, 41.24609375000006 L 31.246093750000128, 41.24609375000006 L 31.246093750000128, 40.24609375000006 L 32.24609375000013, 40.24609375000006 L 32.24609375000013, 39.24609375000006 L 31.246093750000128, 39.24609375000006 L 31.246093750000128, 38.24609375000006 L 32.24609375000013, 38.24609375000006 L 32.24609375000013, 37.24609375000006 L 33.24609375000013, 37.24609375000006 L 33.24609375000013, 38.24609375000006 L 32.24609375000013, 38.24609375000006 L 32.24609375000013, 39.24609375000006 L 33.24609375000013, 39.24609375000006 L 33.24609375000013, 40.24609375000006 L 34.24609375000013, 40.24609375000006 L 34.24609375000013, 39.24609375000006 L 35.24609375000013, 39.24609375000006 L 35.246093750000135, 40.24609375000006 L 36.246093750000135, 40.24609375000006 L 36.246093750000135, 39.24609375000006 L 35.246093750000135, 39.24609375000006 L 35.246093750000135, 38.24609375000006 L 36.246093750000135, 38.24609375000006 L 36.246093750000135, 37.24609375000006 L 37.246093750000135, 37.24609375000006 L 37.246093750000135, 38.24609375000006 L 36.246093750000135, 38.24609375000006 L 36.246093750000135, 39.24609375000006 L 37.246093750000135, 39.24609375000006 L 37.246093750000135, 40.24609375000006 L 38.246093750000135, 40.24609375000006 L 38.246093750000135, 39.24609375000006 L 39.246093750000135, 39.24609375000006 L 39.246093750000135, 40.24609375000006 L 38.246093750000135, 40.24609375000006 L 38.246093750000135, 41.24609375000006 L 39.246093750000135, 41.24609375000006 L 39.246093750000135, 42.24609375000006 L 38.246093750000135, 42.24609375000006 L 38.246093750000135, 43.24609375000006 L 37.246093750000135, 43.24609375000006 L 37.246093750000135, 42.24609375000006 L 36.246093750000135, 42.24609375000006 L 36.246093750000135, 43.24609375000006 L 37.246093750000135, 43.24609375000006 L 37.246093750000135, 44.24609375000006 L 38.246093750000135, 44.24609375000006 L 38.246093750000135, 43.24609375000006 L 39.246093750000135, 43.24609375000006 L 39.246093750000135, 44.24609375000006 L 40.246093750000135, 44.24609375000006 L 40.246093750000135, 43.24609375000006 L 39.246093750000135, 43.24609375000006 L 39.246093750000135, 42.24609375000006 L 40.246093750000135, 42.24609375000006 L 40.246093750000135, 41.24609375000006 L 41.246093750000135, 41.24609375000006 L 41.246093750000135, 42.24609375000006 L 42.246093750000135, 42.24609375000006 L 42.246093750000135, 41.24609375000006 L 41.246093750000135, 41.24609375000006 L 41.246093750000135, 40.24609375000006 L 40.246093750000135, 40.24609375000006 L 40.246093750000135, 41.24609375000006 L 39.246093750000135, 41.24609375000006 L 39.246093750000135, 40.24609375000006 L 40.246093750000135, 40.24609375000006 L 40.246093750000135, 39.24609375000006 L 39.246093750000135, 39.24609375000006 L 39.246093750000135, 38.24609375000006 L 40.246093750000135, 38.24609375000006 L 40.246093750000135, 37.24609375000006 L 41.246093750000135, 37.24609375000006 L 41.246093750000135, 38.24609375000006 L 42.246093750000135, 38.24609375000006 L 42.246093750000135, 37.24609375000006 L 41.246093750000135, 37.24609375000006 L 41.246093750000135, 36.24609375000006 L 40.246093750000135, 36.24609375000006 L 40.246093750000135, 37.24609375000006 L 39.246093750000135, 37.24609375000006 L 39.246093750000135, 36.24609375000006 L 38.246093750000135, 36.24609375000006 L 38.246093750000135, 37.24609375000006 L 39.246093750000135, 37.24609375000006 L 39.246093750000135, 38.24609375000006 L 38.246093750000135, 38.24609375000006 L 38.246093750000135, 39.24609375000006 L 37.246093750000135, 39.24609375000006 L 37.246093750000135, 38.24609375000006 L 38.246093750000135, 38.24609375000006 L 38.246093750000135, 37.24609375000006 L 37.246093750000135, 37.24609375000006 L 37.246093750000135, 36.24609375000006 L 36.246093750000135, 36.24609375000006 L 36.246093750000135, 37.24609375000006 L 35.246093750000135, 37.24609375000006 L 35.246093750000135, 36.24609375000006 L 36.246093750000135, 36.24609375000006 L 36.246093750000135, 35.24609375000006 L 35.246093750000135, 35.24609375000006 L 35.246093750000135, 34.24609375000006 L 36.246093750000135, 34.24609375000006 L 36.246093750000135, 33.24609375000006 L 37.246093750000135, 33.24609375000006 L 37.246093750000135, 34.24609375000006 L 38.246093750000135, 34.24609375000006 L 38.246093750000135, 33.24609375000006 L 37.246093750000135, 33.24609375000006 L 37.246093750000135, 32.24609375000006 L 36.246093750000135, 32.24609375000006 L 36.246093750000135, 33.24609375000006 L 35.246093750000135, 33.24609375000006 L 35.246093750000135, 32.24609375000006 L 34.246093750000135, 32.24609375000006 L 34.246093750000135, 33.24609375000006 L 35.246093750000135, 33.24609375000006 L 35.246093750000135, 34.24609375000006 L 34.246093750000135, 34.24609375000006 L 34.246093750000135, 35.24609375000006 L 33.246093750000135, 35.24609375000006 L 33.246093750000135, 34.24609375000006 L 32.246093750000135, 34.24609375000006 L 32.246093750000135, 35.24609375000006 L 33.246093750000135, 35.24609375000006 L 33.246093750000135, 36.24609375000006 L 34.246093750000135, 36.24609375000006 L 34.246093750000135, 35.24609375000006 L 35.246093750000135, 35.24609375000006 L 35.246093750000135, 36.24609375000006 L 34.246093750000135, 36.24609375000006 L 34.246093750000135, 37.24609375000006 L 35.246093750000135, 37.24609375000006 L 35.246093750000135, 38.24609375000006 L 34.246093750000135, 38.24609375000006 L 34.246093750000135, 39.24609375000006 L 33.246093750000135, 39.24609375000006 L 33.246093750000135, 38.24609375000006 L 34.246093750000135, 38.24609375000006 L 34.246093750000135, 37.24609375000006 L 33.246093750000135, 37.24609375000006 L 33.246093750000135, 36.24609375000006 L 32.246093750000135, 36.24609375000006 L 32.246093750000135, 37.24609375000006 L 31.246093750000135, 37.24609375000006 L 31.246093750000135, 36.24609375000006 L 30.246093750000135, 36.24609375000006 L 30.246093750000135, 37.24609375000006 L 31.246093750000135, 37.24609375000006 L 31.246093750000135, 38.24609375000006 L 30.246093750000135, 38.24609375000006 L 30.246093750000135, 39.24609375000006 L 29.246093750000135, 39.24609375000006 L 29.246093750000135, 38.24609375000006 L 30.246093750000135, 38.24609375000006 L 30.246093750000135, 37.24609375000006 L 29.246093750000135, 37.24609375000006 L 29.246093750000135, 36.24609375000006 L 28.246093750000135, 36.24609375000006 L 28.246093750000135, 37.24609375000006 L 27.246093750000135, 37.24609375000006 L 27.246093750000135, 36.24609375000006 L 28.246093750000135, 36.24609375000006 L 28.246093750000135, 35.24609375000006 L 27.246093750000135, 35.24609375000006 L 27.246093750000135, 34.24609375000006 L 28.246093750000135, 34.24609375000006 L 28.24609375000013, 33.24609375000006 L 29.24609375000013, 33.24609375000006 L 29.246093750000135, 34.24609375000006 L 28.246093750000135, 34.24609375000006 L 28.246093750000135, 35.24609375000006 L 29.246093750000135, 35.24609375000006 L 29.246093750000135, 36.24609375000006 L 30.246093750000135, 36.24609375000006 L 30.246093750000135, 35.24609375000006 L 31.246093750000135, 35.24609375000006 L 31.24609375000014, 36.24609375000006 L 32.24609375000014, 36.24609375000006 L 32.24609375000014, 35.24609375000006 L 31.24609375000014, 35.24609375000006 L 31.24609375000014, 34.24609375000006 L 32.24609375000014, 34.24609375000006 L 32.24609375000014, 33.24609375000006 L 33.24609375000014, 33.24609375000006 L 33.24609375000014, 34.24609375000006 L 34.24609375000014, 34.24609375000006 L 34.24609375000014, 33.24609375000006 L 33.24609375000014, 33.24609375000006 L 33.24609375000014, 32.24609375000006 L 32.24609375000014, 32.24609375000006 L 32.24609375000014, 33.24609375000006 L 31.246093750000142, 33.24609375000006 L 31.246093750000142, 32.24609375000006 L 32.24609375000014, 32.24609375000006 L 32.24609375000014, 31.246093750000057 L 31.246093750000142, 31.246093750000057 L 31.246093750000142, 30.246093750000057 L 32.24609375000014, 30.246093750000057 L 32.24609375000014, 29.246093750000057 L 33.24609375000014, 29.246093750000057 L 33.24609375000014, 30.246093750000057 L 34.24609375000014, 30.246093750000057 L 34.24609375000014, 29.246093750000057 L 33.24609375000014, 29.246093750000057 L 33.24609375000014, 28.246093750000057 L 32.24609375000014, 28.246093750000057 L 32.24609375000014, 29.246093750000057 L 31.246093750000142, 29.246093750000057 L 31.246093750000142, 28.246093750000057 L 30.246093750000142, 28.246093750000057 L 30.246093750000142, 29.246093750000057 L 31.246093750000142, 29.246093750000057 L 31.246093750000142, 30.246093750000057 L 30.246093750000142, 30.246093750000057 L 30.246093750000142, 31.246093750000057 L 29.246093750000142, 31.246093750000057 L 29.246093750000142, 30.246093750000057 L 30.246093750000142, 30.246093750000057 L 30.246093750000142, 29.246093750000057 L 29.246093750000142, 29.246093750000057 L 29.246093750000142, 28.246093750000057 L 28.246093750000142, 28.246093750000057 L 28.246093750000142, 29.246093750000057 L 27.246093750000142, 29.246093750000057 L 27.246093750000142, 28.246093750000057 L 28.246093750000142, 28.246093750000057 L 28.246093750000142, 27.246093750000057 L 27.246093750000142, 27.246093750000057 L 27.246093750000142, 26.246093750000057 L 28.246093750000142, 26.246093750000057 L 28.24609375000014, 25.246093750000057 L 29.24609375000014, 25.246093750000057 L 29.246093750000142, 26.246093750000057 L 28.246093750000142, 26.246093750000057 L 28.246093750000142, 27.246093750000057 L 29.246093750000142, 27.246093750000057 L 29.246093750000142, 28.246093750000057 L 30.246093750000142, 28.246093750000057 L 30.246093750000142, 27.246093750000057 L 31.246093750000142, 27.246093750000057 L 31.246093750000146, 28.246093750000057 L 32.24609375000014, 28.246093750000057 L 32.24609375000014, 27.246093750000057 L 31.246093750000146, 27.246093750000057 L 31.246093750000146, 26.246093750000057 L 32.24609375000014, 26.246093750000057 L 32.24609375000014, 25.246093750000057 L 33.24609375000014, 25.246093750000057 L 33.24609375000015, 26.246093750000057 L 34.24609375000015, 26.246093750000057 L 34.24609375000015, 25.246093750000057 L 33.24609375000015, 25.246093750000057 L 33.24609375000015, 24.246093750000057 L 32.24609375000015, 24.246093750000057 L 32.24609375000015, 25.246093750000057 L 31.24609375000015, 25.246093750000057 L 31.24609375000015, 24.246093750000057 L 32.24609375000015, 24.246093750000057 L 32.24609375000015, 23.246093750000057 L 31.24609375000015, 23.246093750000057 L 31.24609375000015, 22.246093750000057 L 32.24609375000015, 22.246093750000057 L 32.24609375000015, 21.246093750000057 L 33.24609375000015, 21.246093750000057 L 33.24609375000015, 22.246093750000057 L 32.24609375000015, 22.246093750000057 L 32.24609375000015, 23.246093750000057 L 33.24609375000015, 23.246093750000057 L 33.246093750000156, 24.246093750000057 L 34.246093750000156, 24.246093750000057 L 34.246093750000156, 23.246093750000057 L 35.246093750000156, 23.246093750000057 L 35.246093750000156, 24.246093750000057 L 36.246093750000156, 24.246093750000057 L 36.246093750000156, 23.246093750000057 L 35.246093750000156, 23.246093750000057 L 35.246093750000156, 22.246093750000057 L 36.246093750000156, 22.246093750000057 L 36.246093750000156, 21.246093750000057 L 37.246093750000156, 21.246093750000057 L 37.246093750000156, 22.246093750000057 L 36.246093750000156, 22.246093750000057 L 36.246093750000156, 23.246093750000057 L 37.246093750000156, 23.246093750000057 L 37.246093750000156, 24.246093750000057 L 38.246093750000156, 24.246093750000057 L 38.246093750000156, 23.246093750000057 L 39.246093750000156, 23.246093750000057 L 39.246093750000156, 24.246093750000057 L 38.246093750000156, 24.246093750000057 L 38.246093750000156, 25.246093750000057 L 39.246093750000156, 25.246093750000057 L 39.246093750000156, 26.246093750000057 L 38.246093750000156, 26.246093750000057 L 38.246093750000156, 27.246093750000057 L 37.246093750000156, 27.246093750000057 L 37.246093750000156, 26.246093750000057 L 38.246093750000156, 26.246093750000057 L 38.246093750000156, 25.246093750000057 L 37.246093750000156, 25.246093750000057 L 37.246093750000156, 24.246093750000057 L 36.246093750000156, 24.24609375000006 L 36.246093750000156, 25.24609375000006 L 35.246093750000156, 25.246093750000064 L 35.246093750000156, 24.246093750000064 L 34.246093750000156, 24.246093750000064 L 34.246093750000156, 25.246093750000064 L 35.246093750000156, 25.246093750000064 L 35.246093750000156, 26.246093750000064 L 34.246093750000156, 26.246093750000064 L 34.24609375000016, 27.246093750000064 L 33.24609375000016, 27.246093750000064 L 33.246093750000156, 26.246093750000064 L 32.246093750000156, 26.246093750000064 L 32.24609375000016, 27.246093750000064 L 33.24609375000016, 27.246093750000064 L 33.24609375000016, 28.246093750000064 L 34.24609375000016, 28.246093750000064 L 34.24609375000016, 27.246093750000064 L 35.24609375000016, 27.246093750000064 L 35.24609375000016, 28.246093750000064 L 34.24609375000016, 28.246093750000064 L 34.24609375000017, 29.246093750000064 L 35.24609375000017, 29.246093750000064 L 35.24609375000017, 30.246093750000064 L 34.24609375000017, 30.246093750000064 L 34.24609375000017, 31.246093750000064 L 33.24609375000017, 31.246093750000064 L 33.24609375000017, 30.246093750000064 L 32.24609375000017, 30.246093750000064 L 32.24609375000017, 31.246093750000064 L 33.24609375000017, 31.246093750000064 L 33.24609375000017, 32.246093750000064 L 34.24609375000017, 32.246093750000064 L 34.24609375000017, 31.246093750000064 L 35.24609375000017, 31.246093750000064 L 35.24609375000017, 32.246093750000064 L 36.24609375000017, 32.246093750000064 L 36.24609375000017, 31.246093750000064 L 35.24609375000017, 31.246093750000064 L 35.24609375000017, 30.246093750000064 L 36.24609375000017, 30.246093750000064 L 36.24609375000017, 29.246093750000064 L 37.24609375000017, 29.246093750000064 L 37.24609375000017, 30.246093750000064 L 36.24609375000017, 30.246093750000064 L 36.24609375000018, 31.246093750000064 L 37.24609375000018, 31.246093750000064 L 37.24609375000018, 32.246093750000064 L 38.24609375000018, 32.246093750000064 L 38.24609375000018, 31.246093750000064 L 39.24609375000018, 31.246093750000064 L 39.24609375000018, 32.246093750000064 L 38.24609375000018, 32.246093750000064 L 38.24609375000018, 33.246093750000064 L 39.24609375000018, 33.246093750000064 L 39.24609375000018, 34.246093750000064 L 38.24609375000018, 34.246093750000064 L 38.24609375000018, 35.246093750000064 L 37.24609375000018, 35.246093750000064 L 37.24609375000018, 34.246093750000064 L 36.24609375000018, 34.246093750000064 L 36.24609375000018, 35.246093750000064 L 37.24609375000018, 35.246093750000064 L 37.24609375000018, 36.246093750000064 L 38.24609375000018, 36.246093750000064 L 38.24609375000018, 35.246093750000064 L 39.24609375000018, 35.246093750000064 L 39.24609375000018, 36.246093750000064 L 40.24609375000018, 36.246093750000064 L 40.24609375000018, 35.246093750000064 L 39.24609375000018, 35.246093750000064 L 39.24609375000018, 34.246093750000064 L 40.24609375000018, 34.246093750000064 L 40.24609375000018, 33.246093750000064 L 41.24609375000018, 33.246093750000064 L 41.24609375000018, 34.246093750000064 L 42.24609375000018, 34.246093750000064 L 42.24609375000018, 33.246093750000064 L 41.24609375000018, 33.246093750000064 L 41.24609375000018, 32.246093750000064 L 40.24609375000018, 32.246093750000064 L 40.24609375000018, 33.246093750000064 L 39.24609375000018, 33.246093750000064 L 39.24609375000018, 32.246093750000064 L 40.24609375000018, 32.246093750000064 L 40.24609375000018, 31.246093750000064 L 39.24609375000018, 31.246093750000064 L 39.24609375000018, 30.246093750000064 L 40.24609375000018, 30.246093750000064 L 40.24609375000018, 29.246093750000064 L 41.24609375000018, 29.246093750000064 L 41.24609375000018, 30.246093750000064 L 40.24609375000018, 30.246093750000064 L 40.24609375000018, 31.246093750000064 L 41.24609375000018, 31.246093750000064 L 41.24609375000018, 32.246093750000064 L 42.24609375000018, 32.246093750000064 L 42.24609375000018, 31.246093750000064 L 43.24609375000018, 31.246093750000064 L 43.24609375000018, 32.246093750000064 L 44.24609375000018, 32.246093750000064 L 44.24609375000018, 31.246093750000064 L 43.24609375000018, 31.246093750000064 L 43.24609375000018, 30.246093750000064 L 44.24609375000018, 30.246093750000064 L 44.24609375000018, 29.246093750000064 L 45.24609375000018, 29.246093750000064 L 45.24609375000018, 30.246093750000064 L 44.24609375000018, 30.246093750000064 L 44.24609375000018, 31.246093750000064 L 45.24609375000018, 31.246093750000064 L 45.24609375000018, 32.246093750000064 L 46.24609375000018, 32.246093750000064 L 46.24609375000018, 31.246093750000064 L 47.24609375000018, 31.246093750000064 L 47.24609375000018, 32.246093750000064 L 46.24609375000018, 32.246093750000064 L 46.24609375000018, 33.246093750000064 L 47.24609375000018, 33.246093750000064 L 47.24609375000018, 34.246093750000064 L 46.24609375000018, 34.246093750000064 L 46.24609375000018, 35.246093750000064 L 45.24609375000018, 35.246093750000064 L 45.24609375000018, 34.246093750000064 L 44.24609375000018, 34.246093750000064 L 44.24609375000018, 35.246093750000064 L 45.24609375000018, 35.246093750000064 L 45.24609375000018, 36.246093750000064 L 46.24609375000018, 36.246093750000064 L 46.24609375000018, 35.246093750000064 L 47.24609375000018, 35.246093750000064 L 47.24609375000018, 36.246093750000064 L 48.24609375000018, 36.246093750000064 L 48.24609375000018, 35.246093750000064 L 47.24609375000018, 35.246093750000064 L 47.24609375000018, 34.246093750000064 L 48.24609375000018, 34.246093750000064 L 48.24609375000018, 33.246093750000064 L 49.24609375000018, 33.246093750000064 L 49.24609375000018, 34.246093750000064 L 50.24609375000018, 34.246093750000064 L 50.24609375000018, 33.246093750000064 L 49.24609375000018, 33.246093750000064 L 49.24609375000018, 32.246093750000064 L 48.24609375000018, 32.246093750000064 L 48.24609375000018, 33.246093750000064 L 47.24609375000018, 33.246093750000064 L 47.24609375000018, 32.246093750000064 L 48.24609375000018, 32.246093750000064 L 48.24609375000018, 31.246093750000064 L 47.24609375000018, 31.246093750000064 L 47.24609375000018, 30.246093750000064 L 48.24609375000018, 30.246093750000064 L 48.24609375000018, 29.246093750000064 L 49.24609375000018, 29.246093750000064 L 49.24609375000018, 30.246093750000064 L 50.24609375000018, 30.246093750000064 L 50.24609375000018, 29.246093750000064 L 49.24609375000018, 29.246093750000064 L 49.24609375000018, 28.246093750000064 L 48.24609375000018, 28.246093750000064 L 48.24609375000018, 29.246093750000064 L 47.24609375000018, 29.246093750000064 L 47.24609375000018, 28.246093750000064 L 46.24609375000018, 28.246093750000064 L 46.24609375000018, 29.246093750000064 L 47.24609375000018, 29.246093750000064 L 47.24609375000018, 30.246093750000064 L 46.24609375000018, 30.246093750000064 L 46.24609375000018, 31.246093750000064 L 45.24609375000018, 31.246093750000064 L 45.24609375000018, 30.246093750000064 L 46.24609375000018, 30.246093750000064 L 46.24609375000018, 29.246093750000064 L 45.24609375000018, 29.246093750000064 L 45.24609375000018, 28.246093750000064 L 44.24609375000018, 28.246093750000064 L 44.24609375000018, 29.246093750000064 L 43.24609375000018, 29.246093750000064 L 43.24609375000018, 28.246093750000064 L 44.24609375000018, 28.246093750000064 L 44.24609375000018, 27.246093750000064 L 43.24609375000018, 27.246093750000064 L 43.24609375000018, 26.246093750000064 L 44.24609375000018, 26.246093750000064 L 44.24609375000018, 25.246093750000064 L 45.24609375000018, 25.246093750000064 L 45.24609375000018, 26.246093750000064 L 44.24609375000018, 26.246093750000064 L 44.24609375000018, 27.246093750000064 L 45.24609375000018, 27.246093750000064 L 45.24609375000018, 28.246093750000064 L 46.24609375000018, 28.246093750000064 L 46.24609375000018, 27.246093750000064 L 47.24609375000018, 27.246093750000064 L 47.24609375000018, 28.246093750000064 L 48.24609375000018, 28.246093750000064 L 48.24609375000018, 27.246093750000064 L 47.24609375000018, 27.246093750000064 L 47.24609375000018, 26.246093750000064 L 48.24609375000018, 26.246093750000064 L 48.24609375000018, 25.246093750000064 L 49.24609375000018, 25.246093750000064 L 49.24609375000018, 26.246093750000064 L 50.24609375000018, 26.246093750000064 L 50.24609375000018, 25.246093750000064 L 49.24609375000018, 25.246093750000064 L 49.24609375000018, 24.246093750000064 L 48.24609375000018, 24.246093750000064 L 48.24609375000018, 25.246093750000064 L 47.24609375000018, 25.246093750000064 L 47.24609375000018, 24.246093750000064 L 48.24609375000018, 24.246093750000064 L 48.24609375000018, 23.246093750000064 L 47.24609375000018, 23.246093750000064 L 47.24609375000018, 22.246093750000064 L 48.24609375000018, 22.246093750000064 L 48.24609375000018, 21.246093750000064 L 49.24609375000018, 21.246093750000064 L 49.24609375000018, 22.246093750000064 L 48.24609375000018, 22.246093750000064 L 48.24609375000018, 23.246093750000064 L 49.24609375000018, 23.246093750000064 L 49.24609375000018, 24.246093750000064 L 50.24609375000018, 24.246093750000064 L 50.24609375000018, 23.246093750000064 L 51.24609375000018, 23.246093750000064 L 51.24609375000018, 24.246093750000064 L 52.24609375000018, 24.246093750000064 L 52.24609375000018, 23.246093750000064 L 51.24609375000018, 23.246093750000064 L 51.24609375000018, 22.246093750000064 L 52.24609375000018, 22.246093750000064 L 52.24609375000018, 21.246093750000064 L 53.24609375000018, 21.246093750000064 L 53.24609375000018, 22.246093750000064 L 52.24609375000018, 22.246093750000064 L 52.24609375000018, 23.246093750000064 L 53.24609375000018, 23.246093750000064 L 53.24609375000018, 24.246093750000064 L 54.24609375000018, 24.246093750000064 L 54.24609375000018, 23.246093750000064 L 55.24609375000018, 23.246093750000064 L 55.24609375000018, 24.246093750000064 L 54.24609375000018, 24.246093750000064 L 54.24609375000018, 25.246093750000064 L 55.24609375000018, 25.246093750000064 L 55.24609375000018, 26.246093750000064 L 54.24609375000018, 26.246093750000064 L 54.24609375000018, 27.246093750000064 L 53.24609375000018, 27.246093750000064 L 53.24609375000018, 26.246093750000064 L 54.24609375000018, 26.246093750000064 L 54.24609375000018, 25.246093750000064 L 53.24609375000018, 25.246093750000064 L 53.24609375000018, 24.246093750000064 L 52.24609375000018, 24.246093750000068 L 52.24609375000018, 25.246093750000068 L 51.24609375000018, 25.24609375000007 L 51.24609375000018, 24.24609375000007 L 50.24609375000018, 24.24609375000007 L 50.24609375000018, 25.24609375000007 L 51.24609375000018, 25.24609375000007 L 51.24609375000018, 26.24609375000007 L 50.24609375000018, 26.24609375000007 L 50.24609375000018, 27.24609375000007 L 49.24609375000018, 27.24609375000007 L 49.24609375000018, 26.24609375000007 L 48.24609375000018, 26.24609375000007 L 48.24609375000018, 27.24609375000007 L 49.24609375000018, 27.24609375000007 L 49.24609375000018, 28.24609375000007 L 50.24609375000018, 28.24609375000007 L 50.24609375000018, 27.24609375000007 L 51.24609375000018, 27.24609375000007 L 51.24609375000018, 28.24609375000007 L 50.24609375000018, 28.24609375000007 L 50.24609375000018, 29.24609375000007 L 51.24609375000018, 29.24609375000007 L 51.24609375000018, 30.24609375000007 L 50.24609375000018, 30.24609375000007 L 50.24609375000018, 31.24609375000007 L 49.24609375000018, 31.24609375000007 L 49.24609375000018, 30.24609375000007 L 48.24609375000018, 30.24609375000007 L 48.24609375000018, 31.24609375000007 L 49.24609375000018, 31.24609375000007 L 49.24609375000018, 32.24609375000007 L 50.24609375000018, 32.24609375000007 L 50.24609375000018, 31.24609375000007 L 51.24609375000018, 31.24609375000007 L 51.24609375000018, 32.24609375000007 L 52.24609375000018, 32.24609375000007 L 52.24609375000018, 31.24609375000007 L 51.24609375000018, 31.24609375000007 L 51.24609375000018, 30.24609375000007 L 52.24609375000018, 30.24609375000007 L 52.24609375000018, 29.24609375000007 L 53.24609375000018, 29.24609375000007 L 53.24609375000018, 30.24609375000007 L 52.24609375000018, 30.24609375000007 L 52.24609375000018, 31.24609375000007 L 53.24609375000018, 31.24609375000007 L 53.24609375000018, 32.24609375000007 L 54.24609375000018, 32.24609375000007 L 54.24609375000018, 31.24609375000007 L 55.24609375000018, 31.24609375000007 L 55.24609375000018, 32.24609375000007 L 54.24609375000018, 32.24609375000007 L 54.24609375000018, 33.24609375000007 L 55.24609375000018, 33.24609375000007 L 55.24609375000018, 34.24609375000007 L 54.24609375000018, 34.24609375000007 L 54.24609375000018, 35.24609375000007 L 53.24609375000018, 35.24609375000007 L 53.24609375000018, 34.24609375000007 L 52.24609375000018, 34.24609375000007 L 52.24609375000018, 35.24609375000007 L 53.24609375000018, 35.24609375000007 L 53.24609375000018, 36.24609375000007 L 54.24609375000018, 36.24609375000007 L 54.24609375000018, 35.24609375000007 L 55.24609375000018, 35.24609375000007 L 55.24609375000018, 36.24609375000007 L 56.24609375000018, 36.24609375000007 L 56.24609375000018, 35.24609375000007 L 55.24609375000018, 35.24609375000007 L 55.24609375000018, 34.24609375000007 L 56.24609375000018, 34.24609375000007 L 56.24609375000018, 33.24609375000007 L 57.24609375000018, 33.24609375000007 L 57.24609375000018, 34.24609375000007 L 58.24609375000018, 34.24609375000007 L 58.24609375000018, 33.24609375000007 L 57.24609375000018, 33.24609375000007 L 57.24609375000018, 32.24609375000007 L 56.24609375000018, 32.24609375000007 L 56.24609375000018, 33.24609375000007 L 55.24609375000018, 33.24609375000007 L 55.24609375000018, 32.24609375000007 L 56.24609375000018, 32.24609375000007 L 56.24609375000018, 31.24609375000007 L 55.24609375000018, 31.24609375000007 L 55.24609375000018, 30.24609375000007 L 56.24609375000018, 30.24609375000007 L 56.24609375000018, 29.24609375000007 L 57.24609375000018, 29.24609375000007 L 57.24609375000018, 30.24609375000007 L 56.24609375000018, 30.24609375000007 L 56.24609375000018, 31.24609375000007 L 57.24609375000018, 31.24609375000007 L 57.24609375000018, 32.24609375000007 L 58.24609375000018, 32.24609375000007 L 58.24609375000018, 31.24609375000007 L 59.24609375000018, 31.24609375000007 L 59.24609375000018, 32.24609375000007 L 60.24609375000018, 32.24609375000007 L 60.24609375000018, 31.24609375000007 L 59.24609375000018, 31.24609375000007 L 59.24609375000018, 30.24609375000007 L 60.24609375000018, 30.24609375000007 L 60.24609375000018, 29.24609375000007 L 61.24609375000018, 29.24609375000007 L 61.24609375000018, 30.24609375000007 L 60.24609375000018, 30.24609375000007 L 60.24609375000018, 31.24609375000007 L 61.24609375000018, 31.24609375000007 L 61.24609375000018, 32.24609375000007 L 62.24609375000018, 32.24609375000007 L 62.24609375000018, 31.24609375000007 L 63.24609375000018, 31.24609375000007 L 63.24609375000018, 32.24609375000007 L 62.24609375000018, 32.24609375000007 L 62.24609375000018, 33.24609375000007 L 63.24609375000018, 33.24609375000007 L 63.24609375000018, 34.24609375000007 L 62.24609375000018, 34.24609375000007 L 62.24609375000018, 35.24609375000007 L 61.24609375000018, 35.24609375000007 L 61.24609375000018, 34.24609375000007 L 62.24609375000018, 34.24609375000007 L 62.24609375000018, 33.24609375000007 L 61.24609375000018, 33.24609375000007 L 61.24609375000018, 32.24609375000007 L 60.24609375000018, 32.24609375000007 L 60.24609375000018, 33.24609375000007 L 59.24609375000018, 33.24609375000007 L 59.24609375000018, 32.24609375000007 L 58.24609375000018, 32.24609375000007 L 58.24609375000018, 33.24609375000007 L 59.24609375000018, 33.24609375000007 L 59.24609375000018, 34.24609375000007 L 58.24609375000018, 34.24609375000007 L 58.24609375000018, 35.24609375000007 L 57.24609375000018, 35.24609375000007 L 57.24609375000018, 34.24609375000007 L 56.24609375000018, 34.24609375000007 L 56.24609375000018, 35.24609375000007 L 57.24609375000018, 35.24609375000007 L 57.24609375000018, 36.24609375000007 L 58.24609375000018, 36.24609375000007 L 58.24609375000018, 35.24609375000007 L 59.24609375000018, 35.24609375000007 L 59.24609375000018, 36.24609375000007 L 58.24609375000018, 36.24609375000007 L 58.24609375000018, 37.24609375000007 L 59.24609375000018, 37.24609375000007 L 59.24609375000018, 38.24609375000007 L 58.24609375000018, 38.24609375000007 L 58.24609375000018, 39.24609375000007 L 57.24609375000018, 39.24609375000007 L 57.24609375000018, 38.24609375000007 L 56.24609375000018, 38.24609375000007 L 56.24609375000018, 39.24609375000007 L 57.24609375000018, 39.24609375000007 L 57.24609375000018, 40.24609375000007 L 58.24609375000018, 40.24609375000007 L 58.24609375000018, 39.24609375000007 L 59.24609375000018, 39.24609375000007 L 59.24609375000018, 40.24609375000007 L 60.24609375000018, 40.24609375000007 L 60.24609375000018, 39.24609375000007 L 59.24609375000018, 39.24609375000007 L 59.24609375000018, 38.24609375000007 L 60.24609375000018, 38.24609375000007 L 60.24609375000018, 37.24609375000007 L 61.24609375000018, 37.24609375000007 L 61.24609375000018, 38.24609375000007 L 60.24609375000018, 38.24609375000007 L 60.24609375000018, 39.24609375000007 L 61.24609375000018, 39.24609375000007 L 61.24609375000018, 40.24609375000007 L 62.24609375000018, 40.24609375000007 L 62.24609375000018, 39.24609375000007 L 63.24609375000018, 39.24609375000007 L 63.24609375000018, 40.24609375000007 L 62.24609375000018, 40.24609375000007 L 62.24609375000018, 41.24609375000007 L 63.24609375000018, 41.24609375000007 L 63.24609375000018, 42.24609375000007 L 62.24609375000018, 42.24609375000007 L 62.24609375000018, 43.24609375000007 L 61.24609375000018, 43.24609375000007 L 61.24609375000018, 42.24609375000007 L 62.24609375000018, 42.24609375000007 L 62.24609375000018, 41.24609375000007 L 61.24609375000018, 41.24609375000007 L 61.24609375000018, 40.24609375000007 L 60.24609375000018, 40.24609375000007 L 60.24609375000018, 41.24609375000007 L 59.24609375000018, 41.24609375000007 L 59.24609375000018, 40.24609375000007 L 58.24609375000018, 40.24609375000007 L 58.24609375000018, 41.24609375000007 L 59.24609375000018, 41.24609375000007 L 59.24609375000018, 42.24609375000007 L 58.24609375000018, 42.24609375000007 L 58.24609375000018, 43.24609375000007 L 57.24609375000018, 43.24609375000007 L 57.24609375000018, 42.24609375000007 L 56.24609375000018, 42.24609375000007 L 56.24609375000018, 43.24609375000007 L 57.24609375000018, 43.24609375000007 L 57.24609375000018, 44.24609375000007 L 58.24609375000018, 44.24609375000007 L 58.24609375000018, 43.24609375000007 L 59.24609375000018, 43.24609375000007 L 59.24609375000018, 44.24609375000007 L 58.24609375000018, 44.24609375000007 L 58.24609375000018, 45.24609375000007 L 59.24609375000018, 45.24609375000007 L 59.24609375000018, 46.24609375000007 L 58.24609375000018, 46.24609375000007 L 58.24609375000018, 47.24609375000007 L 57.24609375000018, 47.24609375000007 L 57.24609375000018, 46.24609375000007 L 58.24609375000018, 46.24609375000007 L 58.24609375000018, 45.24609375000007 L 57.24609375000018, 45.24609375000007 L 57.24609375000018, 44.24609375000007 L 56.24609375000018, 44.24609375000007 L 56.24609375000018, 45.24609375000007 L 55.24609375000018, 45.24609375000007 L 55.24609375000018, 44.24609375000007 L 54.24609375000018, 44.24609375000007 L 54.24609375000018, 45.24609375000007 L 55.24609375000018, 45.24609375000007 L 55.24609375000018, 46.24609375000007 L 54.24609375000018, 46.24609375000007 L 54.24609375000018, 47.24609375000007 L 53.24609375000018, 47.24609375000007 L 53.24609375000018, 46.24609375000007 L 54.24609375000018, 46.24609375000007 L 54.24609375000018, 45.24609375000007 L 53.24609375000018, 45.24609375000007 L 53.24609375000018, 44.24609375000007 L 52.24609375000018, 44.24609375000007 L 52.24609375000018, 45.24609375000007 L 51.24609375000018, 45.24609375000007 L 51.24609375000018, 44.24609375000007 L 52.24609375000018, 44.24609375000007 L 52.24609375000018, 43.24609375000007 L 51.24609375000018, 43.24609375000007 L 51.24609375000018, 42.24609375000007 L 52.24609375000018, 42.24609375000007 L 52.24609375000018, 41.24609375000007 L 53.24609375000018, 41.24609375000007 L 53.24609375000018, 42.24609375000007" />

  </g>

</svg>
