<?xml version="1.0" encoding="UTF-8" standalone="no"?>

<svg
    xmlns="http://www.w3.org/2000/svg"
    width="10.689465793718513"
    height="8.568145450158871"
    id="dragon-05.svg"
    version="1.0">

<!-- viewbox="-3.5769659438928874 -7.112499849825626 7.112499849825626 1.4556456003332445" -->

  <g 
    style="stroke:black; stroke-width:0.04143203796014928; stroke-opacity:1; fill:none" 
    id="layer1">

    <path d="M 3.5769659438928874, 1.455645600333245 L 4.284072725079435, 0.7485388191466971 L 3.576965943892887, 0.04143203796014916 L 2.8698591627063395, 0.7485388191466971 L 2.162752381519792, 0.041432037960150936 L 1.4556456003332445, 0.748538819146698 L 2.162752381519792, 1.455645600333245 L 1.4556456003332445, 2.162752381519793 L 0.7485388191466966, 1.455645600333245 L 0.04143203796014916, 2.162752381519793 L 0.7485388191466966, 2.869859162706341 L 1.455645600333244, 2.162752381519793 L 2.1627523815197915, 2.869859162706341 L 1.455645600333244, 3.576965943892888 L 2.1627523815197915, 4.284072725079435 L 1.455645600333244, 4.991179506265983 L 0.7485388191466966, 4.284072725079435 L 0.04143203796014916, 4.991179506265983 L 0.7485388191466966, 5.698286287452531 L 1.455645600333244, 4.991179506265983 L 2.1627523815197915, 5.698286287452531 L 2.869859162706339, 4.991179506265983 L 2.1627523815197915, 4.284072725079436 L 2.869859162706339, 3.5769659438928887 L 3.576965943892887, 4.284072725079436 L 2.869859162706339, 4.991179506265983 L 3.576965943892887, 5.698286287452531 L 4.284072725079435, 4.991179506265983 L 4.991179506265982, 5.698286287452531 L 4.284072725079435, 6.4053930686390785 L 4.991179506265982, 7.112499849825626 L 4.284072725079435, 7.819606631012174 L 3.576965943892887, 7.112499849825626 L 2.869859162706339, 7.819606631012174 L 3.576965943892887, 8.526713412198722 L 4.284072725079435, 7.819606631012174 L 4.991179506265982, 8.526713412198722 L 5.698286287452529, 7.819606631012174 L 4.991179506265982, 7.112499849825626 L 5.698286287452529, 6.4053930686390785 L 6.405393068639077, 7.112499849825626 L 7.112499849825625, 6.4053930686390785 L 6.405393068639077, 5.698286287452531 L 5.698286287452529, 6.4053930686390785 L 4.991179506265982, 5.698286287452531 L 5.698286287452529, 4.991179506265983 L 4.991179506265982, 4.284072725079436 L 5.698286287452529, 3.5769659438928887 L 6.405393068639077, 4.284072725079436 L 5.698286287452529, 4.991179506265983 L 6.405393068639077, 5.698286287452531 L 7.112499849825625, 4.991179506265983 L 7.819606631012173, 5.698286287452531 L 8.52671341219872, 4.991179506265983 L 7.819606631012173, 4.284072725079436 L 8.52671341219872, 3.5769659438928887 L 9.233820193385268, 4.284072725079436 L 8.52671341219872, 4.991179506265983 L 9.233820193385268, 5.698286287452531 L 9.940926974571816, 4.991179506265983 L 10.648033755758364, 5.698286287452531 L 9.940926974571816, 6.4053930686390785 L 10.648033755758364, 7.112499849825626 L 9.940926974571816, 7.819606631012174 L 9.233820193385268, 7.112499849825626" />

  </g>

</svg>
