<?xml version="1.0" encoding="UTF-8" standalone="no"?>

<svg
    xmlns="http://www.w3.org/2000/svg"
    width="31.2421875"
    height="26.2421875"
    id="dragon-08.svg"
    version="1.0">

<!-- viewbox="-10.12109375 -21.12109375 21.12109375 5.12109375" -->

  <g 
    style="stroke:black; stroke-width:0.12109375; stroke-opacity:1; fill:none" 
    id="layer1">

    <path d="M 10.12109375, 5.12109375 L 10.12109375, 6.12109375 L 11.12109375, 6.12109375 L 11.12109375, 5.12109375 L 12.12109375, 5.12109375 L 12.12109375, 4.12109375 L 11.12109375, 4.12109375 L 11.12109375, 3.12109375 L 12.12109375, 3.12109375 L 12.12109375, 2.12109375 L 11.12109375, 2.12109375 L 11.12109375, 3.12109375 L 10.12109375, 3.12109375 L 10.12109375, 2.12109375 L 9.12109375, 2.12109375 L 9.12109375, 1.12109375 L 10.12109375, 1.12109375 L 10.121093749999998, 0.12109375 L 9.121093749999998, 0.12109375 L 9.121093749999998, 1.12109375 L 8.12109375, 1.12109375 L 8.12109375, 2.12109375 L 9.12109375, 2.12109375 L 9.12109375, 3.12109375 L 8.12109375, 3.12109375 L 8.12109375, 2.12109375 L 7.121093749999999, 2.12109375 L 7.121093749999999, 3.12109375 L 6.121093749999999, 3.12109375 L 6.121093749999999, 2.12109375 L 5.121093749999999, 2.12109375 L 5.121093749999999, 1.12109375 L 6.121093749999999, 1.12109375 L 6.121093749999999, 0.12109375 L 5.121093749999999, 0.12109375 L 5.121093749999999, 1.12109375 L 4.121093749999999, 1.12109375 L 4.121093749999999, 2.12109375 L 5.121093749999999, 2.12109375 L 5.121093749999999, 3.12109375 L 4.121093749999999, 3.12109375 L 4.121093749999999, 4.12109375 L 5.121093749999999, 4.12109375 L 5.121093749999999, 3.12109375 L 6.121093749999999, 3.12109375 L 6.121093749999999, 4.12109375 L 7.121093749999999, 4.12109375 L 7.121093749999999, 5.12109375 L 6.121093749999999, 5.12109375 L 6.121093749999999, 4.12109375 L 5.121093749999999, 4.12109375 L 5.121093749999999, 5.12109375 L 4.121093749999999, 5.12109375 L 4.121093749999999, 6.12109375 L 5.121093749999999, 6.12109375 L 5.121093749999999, 7.12109375 L 4.121093749999999, 7.12109375 L 4.121093749999999, 6.12109375 L 3.121093749999999, 6.12109375 L 3.121093749999999, 7.12109375 L 2.12109375, 7.12109375 L 2.12109375, 6.12109375 L 1.12109375, 6.12109375 L 1.12109375, 5.12109375 L 2.12109375, 5.12109375 L 2.12109375, 4.12109375 L 1.12109375, 4.12109375 L 1.12109375, 5.12109375 L 0.12109375, 5.12109375 L 0.12109375, 6.12109375 L 1.12109375, 6.12109375 L 1.12109375, 7.12109375 L 0.12109375, 7.12109375 L 0.12109375, 8.12109375 L 1.12109375, 8.12109375 L 1.12109375, 7.12109375 L 2.12109375, 7.12109375 L 2.12109375, 8.12109375 L 3.12109375, 8.12109375 L 3.12109375, 9.12109375 L 2.12109375, 9.12109375 L 2.12109375, 10.12109375 L 3.12109375, 10.12109375 L 3.12109375, 9.12109375 L 4.12109375, 9.12109375 L 4.12109375, 8.12109375 L 3.12109375, 8.12109375 L 3.12109375, 7.12109375 L 4.12109375, 7.12109375 L 4.12109375, 8.12109375 L 5.12109375, 8.12109375 L 5.12109375, 7.12109375 L 6.12109375, 7.12109375 L 6.12109375, 8.12109375 L 7.12109375, 8.12109375 L 7.12109375, 9.12109375 L 6.12109375, 9.12109375 L 6.12109375, 8.12109375 L 5.12109375, 8.12109375 L 5.12109375, 9.12109375 L 4.12109375, 9.12109375 L 4.12109375, 10.12109375 L 5.12109375, 10.12109375 L 5.12109375, 11.12109375 L 4.12109375, 11.12109375 L 4.12109375, 12.12109375 L 5.12109375, 12.12109375 L 5.12109375, 11.12109375 L 6.12109375, 11.12109375 L 6.12109375, 12.12109375 L 7.12109375, 12.12109375 L 7.12109375, 13.12109375 L 6.12109375, 13.12109375 L 6.12109375, 12.12109375 L 5.12109375, 12.12109375 L 5.12109375, 13.12109375 L 4.12109375, 13.12109375 L 4.12109375, 14.12109375 L 5.12109375, 14.12109375 L 5.12109375, 15.12109375 L 4.12109375, 15.12109375 L 4.12109375, 14.12109375 L 3.12109375, 14.12109375 L 3.12109375, 15.12109375 L 2.12109375, 15.12109375 L 2.12109375, 14.12109375 L 1.12109375, 14.12109375 L 1.12109375, 13.12109375 L 2.12109375, 13.12109375 L 2.12109375, 12.12109375 L 1.12109375, 12.12109375 L 1.12109375, 13.12109375 L 0.12109375, 13.12109375 L 0.12109375, 14.12109375 L 1.12109375, 14.12109375 L 1.12109375, 15.12109375 L 0.12109375, 15.12109375 L 0.12109375, 16.12109375 L 1.12109375, 16.12109375 L 1.12109375, 15.12109375 L 2.12109375, 15.12109375 L 2.12109375, 16.12109375 L 3.12109375, 16.12109375 L 3.12109375, 17.12109375 L 2.12109375, 17.12109375 L 2.12109375, 18.12109375 L 3.12109375, 18.12109375 L 3.12109375, 17.12109375 L 4.12109375, 17.12109375 L 4.12109375, 16.12109375 L 3.12109375, 16.12109375 L 3.12109375, 15.12109375 L 4.12109375, 15.12109375 L 4.12109375, 16.12109375 L 5.12109375, 16.12109375 L 5.12109375, 15.12109375 L 6.12109375, 15.12109375 L 6.12109375, 16.12109375 L 7.12109375, 16.12109375 L 7.12109375, 17.12109375 L 6.12109375, 17.12109375 L 6.12109375, 18.12109375 L 7.12109375, 18.12109375 L 7.12109375, 17.12109375 L 8.12109375, 17.12109375 L 8.12109375, 16.12109375 L 7.12109375, 16.12109375 L 7.12109375, 15.12109375 L 8.12109375, 15.12109375 L 8.12109375, 14.12109375 L 7.12109375, 14.12109375 L 7.12109375, 15.12109375 L 6.12109375, 15.12109375 L 6.12109375, 14.12109375 L 5.12109375, 14.12109375 L 5.12109375, 13.12109375 L 6.12109375, 13.12109375 L 6.12109375, 14.12109375 L 7.12109375, 14.12109375 L 7.12109375, 13.12109375 L 8.12109375, 13.12109375 L 8.12109375, 12.12109375 L 7.12109375, 12.12109375 L 7.12109375, 11.12109375 L 8.12109375, 11.12109375 L 8.12109375, 12.12109375 L 9.12109375, 12.12109375 L 9.12109375, 11.12109375 L 10.12109375, 11.12109375 L 10.12109375, 12.12109375 L 11.12109375, 12.12109375 L 11.12109375, 13.12109375 L 10.12109375, 13.12109375 L 10.12109375, 12.12109375 L 9.12109375, 12.12109375 L 9.12109375, 13.12109375 L 8.12109375, 13.12109375 L 8.12109375, 14.12109375 L 9.12109375, 14.12109375 L 9.12109375, 15.12109375 L 8.12109375, 15.12109375 L 8.12109375, 16.12109375 L 9.12109375, 16.12109375 L 9.12109375, 15.12109375 L 10.12109375, 15.12109375 L 10.12109375, 16.12109375 L 11.12109375, 16.12109375 L 11.12109375, 17.12109375 L 10.12109375, 17.12109375 L 10.12109375, 18.12109375 L 11.12109375, 18.12109375 L 11.12109375, 17.12109375 L 12.12109375, 17.12109375 L 12.12109375, 16.12109375 L 11.12109375, 16.12109375 L 11.12109375, 15.12109375 L 12.12109375, 15.12109375 L 12.12109375, 16.12109375 L 13.12109375, 16.12109375 L 13.12109375, 15.12109375 L 14.12109375, 15.12109375 L 14.12109375, 16.12109375 L 15.12109375, 16.12109375 L 15.12109375, 17.12109375 L 14.12109375, 17.12109375 L 14.12109375, 16.12109375 L 13.12109375, 16.12109375 L 13.12109375, 17.12109375 L 12.12109375, 17.12109375 L 12.12109375, 18.12109375 L 13.12109375, 18.12109375 L 13.12109375, 19.12109375 L 12.12109375, 19.12109375 L 12.12109375, 20.12109375 L 13.12109375, 20.12109375 L 13.12109375, 19.12109375 L 14.12109375, 19.12109375 L 14.12109375, 20.12109375 L 15.12109375, 20.12109375 L 15.12109375, 21.12109375 L 14.12109375, 21.12109375 L 14.12109375, 20.12109375 L 13.12109375, 20.12109375 L 13.12109375, 21.12109375 L 12.12109375, 21.12109375 L 12.12109375, 22.12109375 L 13.12109375, 22.12109375 L 13.12109375, 23.12109375 L 12.12109375, 23.12109375 L 12.12109375, 22.12109375 L 11.12109375, 22.12109375 L 11.12109375, 23.12109375 L 10.12109375, 23.12109375 L 10.12109375, 22.12109375 L 9.12109375, 22.12109375 L 9.12109375, 21.12109375 L 10.12109375, 21.12109375 L 10.12109375, 20.12109375 L 9.12109375, 20.12109375 L 9.12109375, 21.12109375 L 8.12109375, 21.12109375 L 8.12109375, 22.12109375 L 9.12109375, 22.12109375 L 9.12109375, 23.12109375 L 8.12109375, 23.12109375 L 8.12109375, 24.12109375 L 9.12109375, 24.12109375 L 9.12109375, 23.12109375 L 10.12109375, 23.12109375 L 10.12109375, 24.12109375 L 11.12109375, 24.12109375 L 11.12109375, 25.12109375 L 10.12109375, 25.12109375 L 10.12109375, 26.12109375 L 11.12109375, 26.12109375 L 11.12109375, 25.12109375 L 12.12109375, 25.12109375 L 12.12109375, 24.12109375 L 11.12109375, 24.12109375 L 11.12109375, 23.12109375 L 12.12109375, 23.12109375 L 12.12109375, 24.12109375 L 13.12109375, 24.12109375 L 13.12109375, 23.12109375 L 14.12109375, 23.12109375 L 14.12109375, 24.12109375 L 15.12109375, 24.12109375 L 15.12109375, 25.12109375 L 14.12109375, 25.12109375 L 14.12109375, 26.12109375 L 15.12109375, 26.12109375 L 15.12109375, 25.12109375 L 16.12109375, 25.12109375 L 16.12109375, 24.12109375 L 15.12109375, 24.12109375 L 15.12109375, 23.12109375 L 16.12109375, 23.12109375 L 16.12109375, 22.12109375 L 15.12109375, 22.12109375 L 15.12109375, 23.12109375 L 14.12109375, 23.12109375 L 14.12109375, 22.12109375 L 13.12109375, 22.12109375 L 13.12109375, 21.12109375 L 14.12109375, 21.12109375 L 14.12109375, 22.12109375 L 15.12109375, 22.12109375 L 15.12109375, 21.12109375 L 16.12109375, 21.12109375 L 16.12109375, 20.12109375 L 15.12109375, 20.12109375 L 15.12109375, 19.12109375 L 16.12109375, 19.12109375 L 16.12109375, 20.12109375 L 17.12109375, 20.12109375 L 17.12109375, 19.12109375 L 18.12109375, 19.12109375 L 18.12109375, 20.12109375 L 19.12109375, 20.12109375 L 19.12109375, 21.12109375 L 18.12109375, 21.12109375 L 18.12109375, 22.12109375 L 19.12109375, 22.12109375 L 19.12109375, 21.12109375 L 20.12109375, 21.12109375 L 20.12109375, 20.12109375 L 19.12109375, 20.12109375 L 19.12109375, 19.12109375 L 20.12109375, 19.12109375 L 20.12109375, 18.12109375 L 19.12109375, 18.12109375 L 19.12109375, 19.12109375 L 18.12109375, 19.12109375 L 18.12109375, 18.12109375 L 17.12109375, 18.12109375 L 17.12109375, 17.12109375 L 18.12109375, 17.12109375 L 18.12109375, 16.12109375 L 17.12109375, 16.12109375 L 17.12109375, 17.12109375 L 16.12109375, 17.12109375 L 16.12109375, 18.12109375 L 17.12109375, 18.12109375 L 17.12109375, 19.12109375 L 16.12109375, 19.12109375 L 16.12109375, 18.12109375 L 15.12109375, 18.12109375 L 15.12109375, 19.12109375 L 14.12109375, 19.12109375 L 14.12109375, 18.12109375 L 13.12109375, 18.12109375 L 13.12109375, 17.12109375 L 14.12109375, 17.12109375 L 14.12109375, 18.12109375 L 15.12109375, 18.12109375 L 15.12109375, 17.12109375 L 16.12109375, 17.12109375 L 16.12109375, 16.12109375 L 15.12109375, 16.12109375 L 15.12109375, 15.12109375 L 16.12109375, 15.12109375 L 16.12109375, 14.12109375 L 15.12109375, 14.12109375 L 15.12109375, 15.12109375 L 14.12109375, 15.12109375 L 14.12109375, 14.12109375 L 13.12109375, 14.12109375 L 13.12109375, 13.12109375 L 14.12109375, 13.12109375 L 14.12109375, 14.12109375 L 15.12109375, 14.12109375 L 15.12109375, 13.12109375 L 16.12109375, 13.12109375 L 16.12109375, 12.12109375 L 15.12109375, 12.12109375 L 15.12109375, 11.12109375 L 16.12109375, 11.12109375 L 16.12109375, 12.12109375 L 17.12109375, 12.12109375 L 17.12109375, 11.12109375 L 18.12109375, 11.12109375 L 18.12109375, 12.12109375 L 19.12109375, 12.12109375 L 19.12109375, 13.12109375 L 18.12109375, 13.12109375 L 18.12109375, 12.12109375 L 17.12109375, 12.12109375 L 17.12109375, 13.12109375 L 16.12109375, 13.12109375 L 16.12109375, 14.12109375 L 17.12109375, 14.12109375 L 17.12109375, 15.12109375 L 16.12109375, 15.12109375 L 16.12109375, 16.12109375 L 17.12109375, 16.12109375 L 17.12109375, 15.12109375 L 18.12109375, 15.12109375 L 18.12109375, 16.12109375 L 19.12109375, 16.12109375 L 19.12109375, 17.12109375 L 18.12109375, 17.12109375 L 18.12109375, 18.12109375 L 19.12109375, 18.12109375 L 19.12109375, 17.12109375 L 20.12109375, 17.12109375 L 20.12109375, 16.12109375 L 19.12109375, 16.12109375 L 19.12109375, 15.12109375 L 20.12109375, 15.12109375 L 20.12109375, 16.12109375 L 21.12109375, 16.12109375 L 21.12109375, 15.12109375 L 22.12109375, 15.12109375 L 22.12109375, 16.12109375 L 23.12109375, 16.12109375 L 23.12109375, 17.12109375 L 22.12109375, 17.12109375 L 22.12109375, 18.12109375 L 23.12109375, 18.12109375 L 23.12109375, 17.12109375 L 24.12109375, 17.12109375 L 24.12109375, 16.12109375 L 23.12109375, 16.12109375 L 23.12109375, 15.12109375 L 24.12109375, 15.12109375 L 24.12109375, 14.12109375 L 23.12109375, 14.12109375 L 23.12109375, 15.12109375 L 22.12109375, 15.12109375 L 22.12109375, 14.12109375 L 21.12109375, 14.12109375 L 21.12109375, 13.12109375 L 22.12109375, 13.12109375 L 22.12109375, 14.12109375 L 23.12109375, 14.12109375 L 23.12109375, 13.12109375 L 24.12109375, 13.12109375 L 24.12109375, 12.12109375 L 23.12109375, 12.12109375 L 23.12109375, 11.12109375 L 24.12109375, 11.12109375 L 24.12109375, 12.12109375 L 25.12109375, 12.12109375 L 25.12109375, 11.12109375 L 26.12109375, 11.12109375 L 26.12109375, 12.12109375 L 27.12109375, 12.12109375 L 27.12109375, 13.12109375 L 26.12109375, 13.12109375 L 26.12109375, 12.12109375 L 25.12109375, 12.12109375 L 25.12109375, 13.12109375 L 24.12109375, 13.12109375 L 24.12109375, 14.12109375 L 25.12109375, 14.12109375 L 25.12109375, 15.12109375 L 24.12109375, 15.12109375 L 24.12109375, 16.12109375 L 25.12109375, 16.12109375 L 25.12109375, 15.12109375 L 26.12109375, 15.12109375 L 26.12109375, 16.12109375 L 27.12109375, 16.12109375 L 27.12109375, 17.12109375 L 26.12109375, 17.12109375 L 26.12109375, 18.12109375 L 27.12109375, 18.12109375 L 27.12109375, 17.12109375 L 28.12109375, 17.12109375 L 28.12109375, 16.12109375 L 27.12109375, 16.12109375 L 27.12109375, 15.12109375 L 28.12109375, 15.12109375 L 28.12109375, 16.12109375 L 29.12109375, 16.12109375 L 29.12109375, 15.12109375 L 30.12109375, 15.12109375 L 30.12109375, 16.12109375 L 31.12109375, 16.12109375 L 31.12109375, 17.12109375 L 30.12109375, 17.12109375 L 30.12109375, 16.12109375 L 29.12109375, 16.12109375 L 29.12109375, 17.12109375 L 28.12109375, 17.12109375 L 28.12109375, 18.12109375 L 29.12109375, 18.12109375 L 29.12109375, 19.12109375 L 28.12109375, 19.12109375 L 28.12109375, 20.12109375 L 29.12109375, 20.12109375 L 29.12109375, 19.12109375 L 30.12109375, 19.12109375 L 30.12109375, 20.12109375 L 31.12109375, 20.12109375 L 31.12109375, 21.12109375 L 30.12109375, 21.12109375 L 30.12109375, 20.12109375 L 29.12109375, 20.12109375 L 29.12109375, 21.12109375 L 28.12109375, 21.12109375 L 28.12109375, 22.12109375 L 29.12109375, 22.12109375 L 29.12109375, 23.12109375 L 28.12109375, 23.12109375 L 28.12109375, 22.12109375 L 27.12109375, 22.12109375 L 27.12109375, 23.12109375 L 26.12109375, 23.12109375 L 26.12109375, 22.12109375 L 25.12109375, 22.12109375 L 25.12109375, 21.12109375 L 26.12109375, 21.12109375" />

  </g>

</svg>
