<?xml version="1.0" encoding="UTF-8" standalone="no"?>

<svg
    xmlns="http://www.w3.org/2000/svg"
    width="44.89575633361778"
    height="37.11758174056571"
    id="dragon-09.svg"
    version="1.0">

<!-- viewbox="-15.023256964350125 -29.87249936926761 29.872499369267658 7.245082371298103" -->

  <g 
    style="stroke:black; stroke-width:0.17401455943262706; stroke-opacity:1; fill:none" 
    id="layer1">

    <path d="M 15.023256964350125, 7.2450823712981 L 14.316150183163579, 7.9521891524846495 L 15.023256964350127, 8.659295933671196 L 15.730363745536673, 7.952189152484646 L 16.43747052672322, 8.659295933671192 L 17.14457730790977, 7.952189152484646 L 16.43747052672322, 7.245082371298096 L 17.144577307909767, 6.53797559011155 L 17.851684089096317, 7.245082371298096 L 18.558790870282863, 6.537975590111547 L 17.851684089096313, 5.8308688089250005 L 17.144577307909767, 6.53797559011155 L 16.437470526723217, 5.830868808925004 L 17.144577307909763, 5.123762027738454 L 16.437470526723217, 4.416655246551905 L 17.144577307909763, 3.7095484653653585 L 17.851684089096313, 4.416655246551905 L 18.55879087028286, 3.7095484653653585 L 17.85168408909631, 3.0024416841788124 L 17.144577307909763, 3.7095484653653585 L 16.437470526723214, 3.0024416841788124 L 15.730363745536668, 3.7095484653653585 L 16.437470526723217, 4.416655246551905 L 15.73036374553667, 5.123762027738458 L 15.023256964350121, 4.416655246551912 L 15.730363745536668, 3.7095484653653585 L 15.02325696435012, 3.0024416841788124 L 14.316150183163574, 3.7095484653653656 L 13.609043401977026, 3.0024416841788195 L 14.316150183163572, 2.2953349029922663 L 13.609043401977024, 1.5882281218057201 L 14.31615018316357, 0.881121340619174 L 15.023256964350118, 1.5882281218057201 L 15.730363745536666, 0.881121340619174 L 15.023256964350118, 0.17401455943262079 L 14.31615018316357, 0.881121340619174 L 13.609043401977022, 0.17401455943262079 L 12.901936620790476, 0.881121340619174 L 13.609043401977024, 1.5882281218057201 L 12.901936620790476, 2.2953349029922663 L 12.194829839603928, 1.5882281218057201 L 11.48772305841738, 2.2953349029922663 L 12.19482983960393, 3.0024416841788124 L 12.901936620790476, 2.2953349029922663 L 13.609043401977024, 3.0024416841788124 L 12.901936620790478, 3.7095484653653656 L 13.609043401977026, 4.416655246551912 L 12.90193662079048, 5.123762027738458 L 12.19482983960393, 4.416655246551912 L 12.901936620790476, 3.7095484653653656 L 12.194829839603928, 3.0024416841788195 L 11.487723058417382, 3.7095484653653656 L 10.780616277230834, 3.0024416841788195 L 10.073509496044288, 3.7095484653653656 L 10.780616277230834, 4.416655246551912 L 10.073509496044288, 5.1237620277384615 L 9.36640271485774, 4.416655246551912 L 10.073509496044288, 3.7095484653653656 L 9.366402714857738, 3.0024416841788195 L 8.659295933671192, 3.7095484653653656 L 7.952189152484644, 3.0024416841788195 L 8.659295933671192, 2.2953349029922734 L 7.952189152484643, 1.5882281218057273 L 8.65929593367119, 0.881121340619174 L 9.366402714857738, 1.5882281218057273 L 10.073509496044284, 0.881121340619174 L 9.366402714857738, 0.1740145594326279 L 8.65929593367119, 0.881121340619174 L 7.952189152484642, 0.1740145594326279 L 7.245082371298095, 0.881121340619174 L 7.952189152484643, 1.5882281218057273 L 7.245082371298096, 2.2953349029922734 L 6.537975590111548, 1.5882281218057273 L 5.830868808925002, 2.2953349029922734 L 6.53797559011155, 3.0024416841788195 L 7.245082371298097, 2.2953349029922734 L 7.952189152484645, 3.0024416841788195 L 7.245082371298098, 3.7095484653653656 L 7.952189152484646, 4.416655246551912 L 7.245082371298099, 5.123762027738465 L 6.53797559011155, 4.416655246551919 L 5.830868808925004, 5.123762027738465 L 6.537975590111552, 5.830868808925011 L 7.245082371298099, 5.123762027738465 L 7.952189152484647, 5.830868808925011 L 8.659295933671194, 5.1237620277384615 L 7.952189152484646, 4.416655246551912 L 8.659295933671192, 3.7095484653653656 L 9.366402714857742, 4.416655246551912 L 8.659295933671194, 5.1237620277384615 L 9.366402714857742, 5.830868808925011 L 10.073509496044288, 5.1237620277384615 L 10.780616277230838, 5.830868808925008 L 10.07350949604429, 6.537975590111557 L 10.780616277230838, 7.245082371298103 L 10.073509496044291, 7.952189152484653 L 9.366402714857742, 7.245082371298103 L 10.07350949604429, 6.537975590111557 L 9.366402714857742, 5.830868808925011 L 8.659295933671196, 6.537975590111557 L 7.952189152484647, 5.830868808925011 L 7.2450823712981, 6.537975590111561 L 7.952189152484648, 7.245082371298107 L 7.245082371298101, 7.952189152484653 L 6.537975590111552, 7.245082371298107 L 5.830868808925006, 7.952189152484657 L 6.537975590111554, 8.659295933671203 L 7.245082371298101, 7.952189152484653 L 7.952189152484649, 8.659295933671203 L 7.245082371298102, 9.366402714857749 L 7.9521891524846495, 10.073509496044295 L 7.2450823712981025, 10.780616277230845 L 6.537975590111554, 10.073509496044299 L 7.245082371298101, 9.366402714857749 L 6.537975590111552, 8.659295933671203 L 5.830868808925006, 9.366402714857752 L 5.123762027738458, 8.659295933671206 L 4.416655246551912, 9.366402714857752 L 5.12376202773846, 10.073509496044299 L 4.4166552465519135, 10.780616277230848 L 3.7095484653653656, 10.073509496044302 L 4.416655246551912, 9.366402714857752 L 3.709548465365364, 8.659295933671206 L 3.0024416841788177, 9.366402714857756 L 2.29533490299227, 8.659295933671206 L 3.002441684178816, 7.95218915248466 L 2.295334902992268, 7.2450823712981105 L 3.002441684178814, 6.537975590111564 L 3.709548465365362, 7.2450823712981105 L 4.416655246551908, 6.537975590111561 L 3.7095484653653603, 5.830868808925015 L 3.002441684178814, 6.537975590111564 L 2.2953349029922663, 5.830868808925018 L 1.5882281218057201, 6.537975590111564 L 2.295334902992268, 7.2450823712981105 L 1.588228121805722, 7.95218915248466 L 0.881121340619174, 7.245082371298114 L 0.1740145594326279, 7.95218915248466 L 0.8811213406191758, 8.65929593367121 L 1.588228121805722, 7.95218915248466 L 2.29533490299227, 8.659295933671206 L 1.5882281218057237, 9.366402714857756 L 2.2953349029922716, 10.073509496044302 L 1.5882281218057255, 10.780616277230852 L 0.8811213406191776, 10.073509496044302 L 0.17401455943263144, 10.780616277230852 L 0.8811213406191793, 11.487723058417398 L 1.5882281218057255, 10.780616277230852 L 2.2953349029922734, 11.487723058417398 L 3.0024416841788195, 10.780616277230848 L 2.2953349029922716, 10.073509496044302 L 3.0024416841788177, 9.366402714857756 L 3.7095484653653656, 10.073509496044302 L 3.0024416841788195, 10.780616277230852 L 3.7095484653653674, 11.487723058417398 L 4.4166552465519135, 10.780616277230848 L 5.1237620277384615, 11.487723058417394 L 4.416655246551915, 12.194829839603944 L 5.123762027738463, 12.90193662079049 L 4.416655246551917, 13.60904340197704 L 3.709548465365369, 12.901936620790494 L 3.002441684178823, 13.60904340197704 L 3.709548465365371, 14.316150183163586 L 4.416655246551917, 13.60904340197704 L 5.123762027738465, 14.316150183163586 L 5.830868808925011, 13.60904340197704 L 5.123762027738463, 12.90193662079049 L 5.830868808925009, 12.194829839603944 L 6.537975590111557, 12.90193662079049 L 7.245082371298104, 12.19482983960394 L 6.5379755901115555, 11.487723058417394 L 5.830868808925008, 12.194829839603944 L 5.12376202773846, 11.487723058417394 L 5.830868808925006, 10.780616277230848 L 5.123762027738458, 10.073509496044302 L 5.830868808925004, 9.366402714857752 L 6.537975590111552, 10.073509496044302 L 5.830868808925006, 10.780616277230848 L 6.537975590111554, 11.487723058417394 L 7.245082371298101, 10.780616277230848 L 7.952189152484649, 11.487723058417394 L 8.659295933671196, 10.780616277230848 L 7.952189152484648, 10.073509496044299 L 8.659295933671196, 9.366402714857752 L 9.366402714857742, 10.073509496044299 L 8.659295933671196, 10.780616277230848 L 9.366402714857744, 11.487723058417394 L 10.073509496044291, 10.780616277230845 L 10.780616277230838, 11.487723058417394 L 10.073509496044291, 12.19482983960394 L 10.78061627723084, 12.901936620790487 L 10.073509496044291, 13.609043401977036 L 9.366402714857745, 12.901936620790487 L 10.073509496044291, 12.19482983960394 L 9.366402714857744, 11.487723058417394 L 8.659295933671196, 12.19482983960394 L 7.952189152484649, 11.487723058417394 L 7.245082371298102, 12.19482983960394 L 7.9521891524846495, 12.90193662079049 L 7.2450823712981025, 13.609043401977036 L 6.537975590111554, 12.90193662079049 L 5.830868808925008, 13.60904340197704 L 6.5379755901115555, 14.316150183163586 L 7.2450823712981025, 13.609043401977036 L 7.95218915248465, 14.316150183163586 L 7.245082371298103, 15.023256964350132 L 7.952189152484651, 15.730363745536678 L 7.245082371298104, 16.437470526723224 L 6.5379755901115555, 15.730363745536678 L 5.830868808925009, 16.437470526723228 L 6.537975590111557, 17.144577307909774 L 7.245082371298104, 16.437470526723224 L 7.952189152484652, 17.14457730790977 L 8.6592959336712, 16.437470526723224 L 7.952189152484651, 15.730363745536678 L 8.6592959336712, 15.023256964350132 L 9.366402714857745, 15.730363745536678 L 8.6592959336712, 16.437470526723224 L 9.366402714857747, 17.14457730790977 L 10.073509496044295, 16.437470526723224 L 10.780616277230841, 17.14457730790977 L 10.073509496044295, 17.851684089096317 L 10.780616277230843, 18.558790870282863 L 10.073509496044295, 19.26589765146941 L 9.366402714857749, 18.558790870282863 L 10.073509496044295, 17.851684089096317 L 9.366402714857747, 17.14457730790977 L 8.6592959336712, 17.851684089096317 L 7.952189152484652, 17.14457730790977 L 7.245082371298105, 17.85168408909632 L 7.952189152484653, 18.558790870282866 L 7.245082371298106, 19.265897651469416 L 6.537975590111557, 18.55879087028287 L 5.830868808925011, 19.265897651469416 L 6.537975590111559, 19.973004432655962 L 7.245082371298106, 19.265897651469416 L 7.952189152484654, 19.973004432655962 L 7.245082371298107, 20.68011121384251 L 7.952189152484655, 21.387217995029054 L 7.245082371298108, 22.0943247762156 L 6.537975590111559, 21.387217995029054 L 7.245082371298106, 20.68011121384251 L 6.537975590111557, 19.973004432655962 L 5.830868808925011, 20.68011121384251 L 5.123762027738463, 19.973004432655962 L 4.416655246551917, 20.680111213842512 L 5.123762027738465, 21.387217995029058 L 4.416655246551919, 22.094324776215608 L 3.709548465365371, 21.38721799502906 L 4.416655246551917, 20.680111213842512 L 3.709548465365369, 19.973004432655966 L 3.002441684178823, 20.680111213842515 L 2.295334902992275, 19.97300443265597 L 3.0024416841788213, 19.26589765146942 L 2.2953349029922734, 18.558790870282873 L 3.0024416841788195, 17.851684089096324 L 3.7095484653653674, 18.55879087028287 L 4.4166552465519135, 17.851684089096324 L 3.7095484653653656, 17.144577307909778 L 3.0024416841788195, 17.851684089096324 L 2.2953349029922716, 17.144577307909778 L 1.5882281218057255, 17.851684089096327 L 2.2953349029922734, 18.558790870282873 L 1.5882281218057273, 19.265897651469423 L 0.8811213406191793, 18.558790870282877 L 0.17401455943263322, 19.265897651469423 L 0.8811213406191811, 19.97300443265597 L 1.5882281218057273, 19.265897651469423 L 2.295334902992275, 19.97300443265597 L 1.588228121805729, 20.680111213842515 L 2.295334902992277, 21.38721799502906 L 1.5882281218057308, 22.094324776215608 L 0.8811213406191829, 21.38721799502906 L 0.17401455943263677, 22.09432477621561 L 0.8811213406191847, 22.801431557402157 L 1.5882281218057308, 22.094324776215608 L 2.2953349029922787, 22.801431557402154 L 3.002441684178825, 22.094324776215608 L 2.295334902992277, 21.38721799502906 L 3.002441684178823, 20.680111213842515 L 3.709548465365371, 21.38721799502906 L 3.002441684178825, 22.094324776215608 L 3.7095484653653727, 22.801431557402154 L 4.416655246551919, 22.094324776215608 L 5.123762027738467, 22.801431557402154 L 4.416655246551921, 23.5085383385887 L 5.123762027738469, 24.215645119775246 L 4.416655246551922, 24.922751900961796 L 3.7095484653653745, 24.21564511977525 L 3.0024416841788284, 24.9227519009618 L 3.7095484653653763, 25.629858682148345 L 4.416655246551922, 24.922751900961796 L 5.12376202773847, 25.629858682148342 L 5.8308688089250165, 24.922751900961792 L 5.123762027738469, 24.215645119775246 L 5.830868808925015, 23.508538338588696 L 6.537975590111563, 24.215645119775242 L 7.24508237129811, 23.508538338588693 L 6.537975590111561, 22.801431557402147 L 5.830868808925015, 23.508538338588696 L 5.123762027738467, 22.80143155740215 L 5.830868808925013, 22.0943247762156 L 5.123762027738465, 21.387217995029054 L 5.830868808925011, 20.68011121384251 L 6.537975590111559, 21.387217995029054 L 5.830868808925013, 22.0943247762156 L 6.537975590111561, 22.801431557402147 L 7.245082371298108, 22.0943247762156 L 7.952189152484656, 22.801431557402147 L 8.659295933671203, 22.094324776215597 L 7.952189152484655, 21.38721799502905 L 8.659295933671203, 20.6801112138425 L 9.366402714857749, 21.387217995029047 L 8.659295933671203, 22.094324776215597 L 9.36640271485775, 22.801431557402143 L 10.073509496044299, 22.094324776215593 L 10.780616277230845, 22.80143155740214 L 10.073509496044299, 23.50853833858869 L 10.780616277230846, 24.215645119775235 L 10.073509496044299, 24.922751900961785 L 9.366402714857752, 24.21564511977524 L 8.659295933671205, 24.92275190096179 L 9.366402714857752, 25.629858682148335 L 10.073509496044299, 24.922751900961785 L 10.780616277230848, 25.62985868214833 L 11.487723058417394, 24.92275190096178 L 10.780616277230846, 24.215645119775235 L 11.487723058417394, 23.508538338588686 L 12.19482983960394, 24.215645119775232 L 12.901936620790488, 23.508538338588682 L 12.19482983960394, 22.801431557402136 L 11.487723058417394, 23.508538338588686 L 10.780616277230845, 22.80143155740214 L 11.487723058417393, 22.094324776215593 L 10.780616277230845, 21.387217995029044 L 11.48772305841739, 20.680111213842494 L 12.19482983960394, 21.38721799502904 L 12.901936620790487, 20.680111213842494 L 12.194829839603939, 19.973004432655948 L 11.48772305841739, 20.680111213842494 L 10.780616277230845, 19.973004432655948 L 10.073509496044297, 20.680111213842494 L 10.780616277230845, 21.387217995029044 L 10.073509496044299, 22.094324776215593 L 9.366402714857749, 21.387217995029044 L 10.073509496044297, 20.680111213842494 L 9.366402714857749, 19.973004432655948 L 8.659295933671203, 20.680111213842494 L 7.952189152484654, 19.973004432655948 L 8.659295933671201, 19.265897651469402 L 7.952189152484653, 18.558790870282852 L 8.6592959336712, 17.851684089096302 L 9.366402714857749, 18.55879087028285 L 8.659295933671201, 19.2658976514694 L 9.366402714857749, 19.973004432655944 L 10.073509496044295, 19.265897651469395 L 10.780616277230845, 19.97300443265594 L 11.48772305841739, 19.265897651469395 L 10.780616277230843, 18.55879087028285 L 11.48772305841739, 17.851684089096302 L 12.194829839603937, 18.55879087028285 L 12.901936620790485, 17.8516840890963 L 12.194829839603937, 17.144577307909753 L 11.48772305841739, 17.851684089096302 L 10.780616277230841, 17.144577307909753 L 11.487723058417389, 16.437470526723203 L 10.780616277230841, 15.730363745536657 L 11.487723058417387, 15.02325696435011 L 12.194829839603937, 15.730363745536657 L 11.487723058417389, 16.437470526723203 L 12.194829839603937, 17.14457730790975 L 12.901936620790483, 16.437470526723203 L 13.609043401977033, 17.14457730790975 L 14.316150183163579, 16.4374705267232 L 13.609043401977031, 15.730363745536653 L 14.316150183163577, 15.023256964350104 L 15.023256964350127, 15.73036374553665 L 14.316150183163579, 16.4374705267232 L 15.023256964350127, 17.144577307909746 L 15.730363745536675, 16.437470526723196 L 16.43747052672322, 17.144577307909742 L 15.730363745536675, 17.851684089096292 L 16.437470526723224, 18.558790870282838 L 15.730363745536676, 19.265897651469388 L 15.023256964350129, 18.55879087028284 L 15.730363745536675, 17.851684089096292 L 15.023256964350127, 17.144577307909746 L 14.31615018316358, 17.851684089096295 L 13.609043401977033, 17.14457730790975 L 12.901936620790487, 17.851684089096295 L 13.609043401977035, 18.55879087028284 L 12.901936620790487, 19.265897651469388 L 12.194829839603939, 18.55879087028284 L 11.48772305841739, 19.26589765146939 L 12.19482983960394, 19.973004432655937 L 12.901936620790487, 19.265897651469388 L 13.609043401977035, 19.973004432655934 L 12.901936620790488, 20.680111213842483 L 13.609043401977036, 21.38721799502903 L 12.90193662079049, 22.09432477621558 L 12.19482983960394, 21.387217995029033 L 11.487723058417394, 22.09432477621558 L 12.194829839603942, 22.801431557402125 L 12.90193662079049, 22.09432477621558 L 13.609043401977038, 22.801431557402125 L 14.316150183163584, 22.094324776215576 L 13.609043401977036, 21.38721799502903 L 14.316150183163582, 20.68011121384248 L 15.023256964350132, 21.387217995029026 L 14.316150183163584, 22.094324776215576 L 15.023256964350132, 22.801431557402122 L 15.73036374553668, 22.094324776215572 L 16.437470526723228, 22.80143155740212 L 15.730363745536682, 23.508538338588668 L 16.437470526723228, 24.215645119775214 L 15.730363745536682, 24.922751900961764 L 15.023256964350134, 24.215645119775218 L 14.316150183163588, 24.922751900961767 L 15.023256964350136, 25.629858682148313 L 15.730363745536682, 24.922751900961764 L 16.43747052672323, 25.62985868214831 L 17.144577307909778, 24.92275190096176 L 16.437470526723228, 24.215645119775214 L 17.144577307909778, 23.508538338588664 L 17.851684089096324, 24.21564511977521 L 18.55879087028287, 23.50853833858866 L 17.851684089096324, 22.801431557402115 L 17.144577307909778, 23.508538338588664 L 16.437470526723228, 22.80143155740212 L 17.144577307909774, 22.094324776215572 L 16.437470526723228, 21.387217995029022 L 17.144577307909774, 20.680111213842473 L 17.85168408909632, 21.38721799502902 L 17.144577307909774, 22.09432477621557 L 17.851684089096324, 22.801431557402115 L 18.55879087028287, 22.094324776215565 L 19.265897651469416, 22.80143155740211 L 19.973004432655962, 22.094324776215565 L 19.265897651469416, 21.38721799502902 L 19.973004432655962, 20.680111213842473 L 20.680111213842512, 21.38721799502902 L 19.973004432655962, 22.094324776215565 L 20.680111213842512, 22.80143155740211 L 21.387217995029058, 22.094324776215565 L 22.094324776215608, 22.80143155740211 L 21.38721799502906, 23.508538338588657 L 22.094324776215608, 24.215645119775203 L 21.38721799502906, 24.922751900961753 L 20.680111213842512, 24.215645119775207 L 21.38721799502906, 23.508538338588657 L 20.680111213842512, 22.80143155740211 L 19.973004432655966, 23.50853833858866 L 19.265897651469416, 22.801431557402115 L 18.55879087028287, 23.508538338588664 L 19.265897651469416, 24.21564511977521 L 18.55879087028287, 24.92275190096176 L 17.851684089096324, 24.215645119775214 L 17.144577307909778, 24.922751900961764 L 17.851684089096324, 25.62985868214831 L 18.55879087028287, 24.92275190096176 L 19.26589765146942, 25.629858682148306 L 18.55879087028287, 26.336965463334856 L 19.26589765146942, 27.044072244521402 L 18.558790870282873, 27.751179025707952 L 17.851684089096324, 27.044072244521406 L 17.144577307909778, 27.751179025707955 L 17.851684089096324, 28.4582858068945 L 18.558790870282873, 27.751179025707952 L 19.26589765146942, 28.458285806894498 L 19.97300443265597, 27.75117902570795 L 19.26589765146942, 27.044072244521402 L 19.973004432655966, 26.336965463334852 L 20.680111213842515, 27.0440722445214 L 19.97300443265597, 27.75117902570795 L 20.680111213842515, 28.458285806894494 L 21.38721799502906, 27.751179025707945 L 22.09432477621561, 28.45828580689449 L 21.38721799502906, 29.16539258808104 L 22.09432477621561, 29.872499369267587 L 21.387217995029065, 30.579606150454136 L 20.680111213842515, 29.87249936926759 L 21.38721799502906, 29.16539258808104 L 20.680111213842515, 28.458285806894494 L 19.97300443265597, 29.165392588081044 L 19.26589765146942, 28.458285806894498 L 18.558790870282873, 29.165392588081048 L 19.265897651469423, 29.872499369267594 L 18.558790870282873, 30.579606150454143 L 17.851684089096327, 29.872499369267597 L 17.144577307909778, 30.579606150454147 L 17.851684089096327, 31.286712931640693 L 18.558790870282873, 30.579606150454143 L 19.265897651469423, 31.28671293164069 L 18.558790870282877, 31.99381971282724 L 19.265897651469423, 32.700926494013785 L 18.558790870282877, 33.40803327520034 L 17.851684089096327, 32.700926494013785 L 18.558790870282873, 31.99381971282724 L 17.851684089096327, 31.286712931640693 L 17.144577307909778, 31.993819712827243 L 16.43747052672323, 31.286712931640697 L 15.730363745536684, 31.993819712827246 L 16.43747052672323, 32.70092649401379 L 15.730363745536685, 33.40803327520034 L 15.023256964350137, 32.7009264940138 L 15.730363745536684, 31.993819712827246 L 15.023256964350136, 31.2867129316407 L 14.31615018316359, 31.99381971282725 L 13.60904340197704, 31.286712931640704 L 14.316150183163588, 30.579606150454154 L 13.60904340197704, 29.872499369267608 L 14.316150183163586, 29.16539258808106 L 15.023256964350134, 29.872499369267604 L 15.730363745536682, 29.165392588081055 L 15.023256964350134, 28.45828580689451 L 14.316150183163586, 29.16539258808106 L 13.609043401977038, 28.458285806894512 L 12.90193662079049, 29.165392588081062 L 13.60904340197704, 29.872499369267608 L 12.901936620790492, 30.579606150454158 L 12.194829839603944, 29.87249936926761 L 11.487723058417398, 30.57960615045416 L 12.194829839603944, 31.286712931640707 L 12.901936620790492, 30.579606150454158 L 13.60904340197704, 31.286712931640704 L 12.901936620790494, 31.993819712827253 L 13.609043401977042, 32.7009264940138 L 12.901936620790494, 33.40803327520035 L 12.194829839603946, 32.7009264940138 L 11.4877230584174, 33.40803327520035 L 12.194829839603948, 34.1151400563869 L 12.901936620790494, 33.40803327520035 L 13.609043401977043, 34.11514005638689 L 14.31615018316359, 33.408033275200346 L 13.609043401977042, 32.7009264940138 L 14.316150183163588, 31.99381971282725 L 15.023256964350137, 32.7009264940138 L 14.31615018316359, 33.408033275200346 L 15.023256964350137, 34.11514005638689 L 15.730363745536685, 33.40803327520034 L 16.43747052672323, 34.11514005638689 L 15.730363745536685, 34.82224683757344 L 16.437470526723235, 35.529353618759984 L 15.730363745536687, 36.23646039994654 L 15.02325696435014, 35.529353618759984 L 14.316150183163593, 36.23646039994654 L 15.023256964350141, 36.94356718113308 L 15.730363745536687, 36.23646039994654 L 16.437470526723235, 36.943567181133076 L 17.14457730790978, 36.23646039994653 L 16.437470526723235, 35.529353618759984 L 17.14457730790978, 34.82224683757343 L 17.85168408909633, 35.529353618759984 L 18.558790870282877, 34.82224683757343 L 17.851684089096327, 34.115140056386885 L 17.14457730790978, 34.82224683757343 L 16.43747052672323, 34.11514005638689 L 17.14457730790978, 33.40803327520034 L 16.43747052672323, 32.70092649401379 L 17.144577307909778, 31.993819712827243 L 17.851684089096327, 32.700926494013785 L 17.144577307909778, 33.40803327520034 L 17.851684089096327, 34.115140056386885 L 18.558790870282873, 33.40803327520034 L 19.265897651469423, 34.11514005638688 L 19.97300443265597, 33.40803327520033 L 19.265897651469423, 32.700926494013785 L 19.97300443265597, 31.993819712827236 L 20.680111213842515, 32.700926494013785 L 19.97300443265597, 33.40803327520033 L 20.680111213842515, 34.11514005638688 L 21.387217995029065, 33.408033275200324 L 22.09432477621561, 34.11514005638688 L 21.387217995029065, 34.822246837573424 L 22.094324776215615, 35.52935361875997 L 21.387217995029065, 36.23646039994652 L 20.68011121384252, 35.52935361875997 L 19.97300443265597, 36.23646039994652 L 20.68011121384252, 36.94356718113307 L 21.387217995029065, 36.23646039994652 L 22.094324776215615, 36.94356718113306 L 22.80143155740216, 36.236460399946516 L 22.094324776215615, 35.52935361875997 L 22.80143155740216, 34.82224683757342 L 23.508538338588707, 35.52935361875997 L 24.215645119775253, 34.82224683757342 L 23.508538338588707, 34.11514005638687 L 22.80143155740216, 34.82224683757342 L 22.09432477621561, 34.11514005638688 L 22.80143155740216, 33.408033275200324 L 22.09432477621561, 32.70092649401378 L 22.801431557402157, 31.99381971282723 L 23.508538338588707, 32.70092649401377 L 24.215645119775253, 31.993819712827225 L 23.508538338588707, 31.28671293164068 L 22.801431557402157, 31.99381971282723 L 22.09432477621561, 31.286712931640682 L 21.38721799502906, 31.993819712827232 L 22.09432477621561, 32.70092649401378 L 21.387217995029065, 33.408033275200324 L 20.680111213842515, 32.700926494013785 L 21.38721799502906, 31.993819712827232 L 20.680111213842515, 31.286712931640686 L 19.97300443265597, 31.993819712827236 L 19.26589765146942, 31.28671293164069 L 19.97300443265597, 30.57960615045414 L 19.26589765146942, 29.872499369267594 L 19.973004432655966, 29.165392588081044 L 20.680111213842515, 29.87249936926759 L 19.97300443265597, 30.57960615045414 L 20.680111213842515, 31.286712931640686 L 21.38721799502906, 30.579606150454136 L 22.09432477621561, 31.286712931640682 L 22.801431557402157, 30.579606150454133 L 22.094324776215608, 29.872499369267587 L 22.801431557402157, 29.165392588081037 L 23.508538338588707, 29.872499369267583 L 24.215645119775253, 29.165392588081033 L 23.508538338588703, 28.458285806894487 L 22.801431557402157, 29.165392588081037 L 22.094324776215608, 28.45828580689449 L 22.801431557402154, 27.75117902570794 L 22.094324776215608, 27.044072244521395 L 22.801431557402154, 26.336965463334845 L 23.508538338588703, 27.04407224452139 L 22.801431557402157, 27.75117902570794 L 23.508538338588707, 28.458285806894487 L 24.215645119775253, 27.751179025707938 L 24.9227519009618, 28.458285806894484 L 25.629858682148345, 27.751179025707934 L 24.9227519009618, 27.044072244521388 L 25.629858682148345, 26.33696546333484 L 26.33696546333489, 27.044072244521384 L 25.629858682148345, 27.751179025707934 L 26.33696546333489, 28.45828580689448 L 27.044072244521438, 27.75117902570793 L 27.751179025707987, 28.458285806894477 L 27.04407224452144, 29.165392588081026 L 27.75117902570799, 29.872499369267572 L 27.044072244521445, 30.579606150454122 L 26.336965463334895, 29.872499369267576 L 25.62985868214835, 30.579606150454126 L 26.3369654633349, 31.286712931640672 L 27.044072244521445, 30.579606150454122 L 27.75117902570799, 31.28671293164067 L 28.458285806894537, 30.57960615045412 L 27.75117902570799, 29.872499369267572 L 28.458285806894537, 29.165392588081023 L 29.165392588081083, 29.87249936926757 L 29.87249936926763, 29.16539258808102 L 29.165392588081083, 28.458285806894473 L 28.458285806894533, 29.165392588081023 L 27.751179025707984, 28.458285806894477 L 28.45828580689453, 27.751179025707927 L 27.751179025707984, 27.04407224452138 L 28.45828580689453, 26.33696546333483 L 29.165392588081076, 27.044072244521377 L 29.872499369267622, 26.336965463334828 L 29.165392588081076, 25.62985868214828 L 28.45828580689453, 26.33696546333483 L 27.751179025707984, 25.629858682148285 L 27.044072244521434, 26.336965463334835 L 27.751179025707984, 27.04407224452138 L 27.044072244521434, 27.75117902570793 L 26.336965463334884, 27.044072244521384 L 27.04407224452143, 26.336965463334835 L 26.336965463334884, 25.62985868214829 L 25.62985868214834, 26.33696546333484 L 24.922751900961792, 25.629858682148292 L 25.62985868214834, 24.922751900961742 L 24.92275190096179, 24.215645119775196 L 25.629858682148335, 23.508538338588647 L 26.336965463334884, 24.215645119775193 L 27.04407224452143, 23.508538338588643 L 26.33696546333488, 22.801431557402097 L 25.629858682148335, 23.508538338588647 L 24.922751900961785, 22.8014315574021 L 24.21564511977524, 23.50853833858865 L 24.922751900961785, 24.215645119775196 L 24.21564511977524, 24.922751900961746 L 23.508538338588693, 24.2156451197752 L 22.801431557402143, 24.92275190096175 L 23.508538338588693, 25.629858682148296 L 24.21564511977524, 24.922751900961746 L 24.92275190096179, 25.629858682148292 L 24.215645119775242, 26.336965463334842 L 24.922751900961792, 27.044072244521388 L 24.215645119775242, 27.751179025707938 L 23.508538338588693, 27.04407224452139 L 24.21564511977524, 26.336965463334842 L 23.508538338588693, 25.629858682148296 L 22.801431557402147, 26.336965463334845 L 22.094324776215597, 25.6298586821483 L 21.38721799502905, 26.33696546333485 L 22.0943247762156, 27.044072244521395 L 21.38721799502905, 27.751179025707945 L 20.680111213842505, 27.0440722445214 L 21.38721799502905, 26.33696546333485 L 20.6801112138425, 25.629858682148303 L 19.973004432655955, 26.336965463334852 L 19.26589765146941, 25.629858682148306 L 19.973004432655955, 24.922751900961757 L 19.26589765146941, 24.21564511977521 L 19.973004432655955, 23.50853833858866 L 20.6801112138425, 24.215645119775207 L 19.973004432655955, 24.922751900961757 L 20.6801112138425, 25.629858682148303 L 21.38721799502905, 24.922751900961753 L 22.094324776215597, 25.6298586821483 L 22.801431557402147, 24.92275190096175 L 22.094324776215597, 24.215645119775203 L 22.801431557402143, 23.508538338588654 L 23.508538338588693, 24.2156451197752 L 24.21564511977524, 23.50853833858865 L 23.508538338588693, 22.801431557402104 L 22.801431557402143, 23.508538338588654 L 22.094324776215597, 22.801431557402108 L 22.801431557402143, 22.094324776215558 L 22.094324776215593, 21.38721799502901 L 22.801431557402143, 20.680111213842466 L 23.508538338588693, 21.38721799502901 L 24.21564511977524, 20.680111213842462 L 23.50853833858869, 19.973004432655916 L 22.801431557402143, 20.680111213842466 L 22.094324776215593, 19.973004432655916 L 21.387217995029047, 20.680111213842466 L 22.094324776215593, 21.38721799502901 L 21.387217995029047, 22.094324776215558 L 20.6801112138425, 21.38721799502901 L 21.387217995029047, 20.680111213842466 L 20.6801112138425, 19.973004432655916 L 19.97300443265595, 20.680111213842466 L 19.265897651469405, 19.973004432655916 L 19.97300443265595, 19.265897651469366 L 19.265897651469402, 18.55879087028282 L 19.97300443265595, 17.851684089096274 L 20.680111213842498, 18.55879087028282 L 19.97300443265595, 19.265897651469366 L 20.6801112138425, 19.973004432655912 L 21.387217995029047, 19.265897651469366 L 22.094324776215593, 19.973004432655912 L 22.80143155740214, 19.265897651469363 L 22.094324776215593, 18.558790870282817 L 22.80143155740214, 17.851684089096267 L 23.50853833858869, 18.558790870282813 L 24.215645119775235, 17.851684089096267 L 23.508538338588686, 17.14457730790972 L 22.80143155740214, 17.851684089096267 L 22.094324776215593, 17.14457730790972 L 22.80143155740214, 16.437470526723175 L 22.094324776215593, 15.730363745536625 L 22.80143155740214, 15.023256964350075 L 23.508538338588686, 15.730363745536621 L 22.80143155740214, 16.43747052672317 L 23.50853833858869, 17.144577307909717 L 24.215645119775235, 16.437470526723168 L 24.922751900961785, 17.144577307909714 L 25.62985868214833, 16.437470526723168 L 24.92275190096178, 15.730363745536621 L 25.629858682148328, 15.023256964350075 L 26.336965463334877, 15.730363745536621 L 25.62985868214833, 16.437470526723168 L 26.336965463334877, 17.144577307909714 L 27.044072244521423, 16.437470526723168 L 27.75117902570797, 17.144577307909714 L 27.044072244521423, 17.85168408909626 L 27.751179025707973, 18.558790870282806 L 27.044072244521427, 19.265897651469352 L 26.336965463334877, 18.558790870282806 L 27.044072244521423, 17.85168408909626 L 26.336965463334877, 17.144577307909714 L 25.62985868214833, 17.85168408909626 L 24.922751900961785, 17.144577307909714 L 24.21564511977524, 17.851684089096263 L 24.922751900961785, 18.55879087028281 L 24.21564511977524, 19.26589765146936 L 23.508538338588693, 18.558790870282813 L 22.801431557402143, 19.26589765146936 L 23.508538338588693, 19.973004432655905 L 24.21564511977524, 19.26589765146936 L 24.922751900961785, 19.973004432655905 L 24.21564511977524, 20.68011121384245 L 24.92275190096179, 21.387217995028998 L 24.215645119775242, 22.094324776215544 L 23.508538338588693, 21.387217995028998 L 22.801431557402147, 22.094324776215547 L 23.508538338588696, 22.801431557402093 L 24.215645119775242, 22.094324776215544 L 24.922751900961792, 22.80143155740209 L 25.62985868214834, 22.094324776215544 L 24.92275190096179, 21.387217995028998 L 25.629858682148335, 20.68011121384245 L 26.336965463334884, 21.387217995028998 L 25.62985868214834, 22.094324776215544 L 26.336965463334884, 22.80143155740209 L 27.04407224452143, 22.094324776215544 L 27.751179025707977, 22.80143155740209 L 27.04407224452143, 23.508538338588636 L 27.75117902570798, 24.215645119775182 L 27.044072244521434, 24.92275190096173 L 26.336965463334884, 24.215645119775186 L 25.62985868214834, 24.922751900961735 L 26.336965463334888, 25.62985868214828 L 27.044072244521434, 24.92275190096173 L 27.751179025707984, 25.629858682148278 L 28.45828580689453, 24.922751900961728 L 27.75117902570798, 24.215645119775182 L 28.458285806894526, 23.508538338588632 L 29.165392588081076, 24.21564511977518 L 29.872499369267622, 23.50853833858863 L 29.165392588081072, 22.801431557402083 L 28.458285806894526, 23.508538338588632 L 27.751179025707977, 22.801431557402086 L 28.458285806894523, 22.094324776215537 L 27.751179025707977, 21.38721799502899 L 28.458285806894523, 20.680111213842444 L 29.16539258808107, 21.38721799502899 L 28.458285806894523, 22.094324776215537 L 29.165392588081072, 22.801431557402083 L 29.87249936926762, 22.094324776215537 L 30.57960615045417, 22.801431557402083 L 31.286712931640714, 22.094324776215533 L 30.57960615045417, 21.387217995028987 L 31.286712931640714, 20.680111213842437 L 31.993819712827264, 21.387217995028983 L 31.286712931640718, 22.094324776215533 L 31.993819712827268, 22.80143155740208 L 32.700926494013814, 22.09432477621553 L 33.40803327520037, 22.801431557402076 L 32.700926494013814, 23.508538338588625 L 33.40803327520037, 24.21564511977517 L 32.70092649401382, 24.92275190096172 L 31.99381971282727, 24.215645119775175 L 31.286712931640725, 24.922751900961725 L 31.993819712827275, 25.62985868214827 L 32.70092649401382, 24.92275190096172 L 33.40803327520037, 25.629858682148267 L 34.11514005638692, 24.922751900961718 L 33.40803327520037, 24.21564511977517 L 34.11514005638691, 23.50853833858862 L 34.82224683757346, 24.215645119775168 L 35.52935361876001, 23.508538338588618 L 34.82224683757346, 22.801431557402072 L 34.11514005638691, 23.50853833858862 L 33.40803327520037, 22.801431557402076 L 34.115140056386906, 22.09432477621553 L 33.40803327520036, 21.38721799502898 L 34.115140056386906, 20.68011121384243 L 34.82224683757346, 21.387217995028976 L 35.52935361876, 20.68011121384243 L 34.82224683757345, 19.973004432655884 L 34.115140056386906, 20.68011121384243 L 33.40803327520035, 19.973004432655884 L 32.700926494013814, 20.68011121384243 L 33.40803327520036, 21.38721799502898 L 32.700926494013814, 22.09432477621553 L 31.993819712827264, 21.38721799502898 L 32.700926494013814, 20.68011121384243 L 31.99381971282726, 19.973004432655884 L 31.286712931640714, 20.68011121384243 L 30.57960615045417, 19.973004432655884 L 31.286712931640714, 19.265897651469338 L 30.57960615045417, 18.558790870282788 L 31.286712931640714, 17.85168408909624 L 31.993819712827264, 18.558790870282785 L 31.286712931640718, 19.265897651469334 L 31.993819712827268, 19.97300443265588 L 32.700926494013814, 19.26589765146933 L 33.40803327520037, 19.973004432655877 L 34.115140056386906, 19.26589765146933 L 33.40803327520036, 18.558790870282785 L 34.115140056386906, 17.85168408909624 L 34.82224683757346, 18.558790870282785 L 35.52935361876, 17.851684089096235 L 34.82224683757345, 17.14457730790969 L 34.115140056386906, 17.85168408909624 L 33.40803327520035, 17.14457730790969 L 34.115140056386906, 16.43747052672314 L 33.40803327520035, 15.730363745536593 L 34.1151400563869, 15.023256964350047 L 34.822246837573445, 15.730363745536593 L 34.115140056386906, 16.43747052672314 L 34.82224683757345, 17.144577307909685 L 35.52935361876, 16.43747052672314 L 36.23646039994655, 17.144577307909685 L 36.94356718113309, 16.437470526723136 L 36.236460399946544, 15.73036374553659 L 36.94356718113309, 15.02325696435004 L 37.650673962319644, 15.730363745536586 L 36.94356718113309, 16.437470526723136 L 37.650673962319644, 17.14457730790968 L 38.35778074350619, 16.437470526723132 L 39.064887524692736, 17.144577307909678 L 38.3577807435062, 17.851684089096228 L 39.06488752469274, 18.558790870282774 L 38.3577807435062, 19.265897651469324 L 37.650673962319644, 18.558790870282778 L 38.3577807435062, 17.851684089096228 L 37.650673962319644, 17.14457730790968 L 36.9435671811331, 17.85168408909623 L 36.23646039994655, 17.144577307909685 L 35.52935361876, 17.85168408909623 L 36.23646039994655, 18.558790870282778 L 35.529353618760005, 19.265897651469324 L 34.82224683757346, 18.558790870282778 L 34.115140056386906, 19.265897651469327 L 34.82224683757346, 19.973004432655873 L 35.529353618760005, 19.265897651469324 L 36.23646039994655, 19.97300443265587 L 35.52935361876001, 20.68011121384242 L 36.23646039994656, 21.387217995028966 L 35.52935361876001, 22.094324776215515 L 34.82224683757346, 21.38721799502897 L 34.11514005638692, 22.094324776215515 L 34.822246837573466, 22.80143155740206 L 35.52935361876001, 22.094324776215515 L 36.236460399946566, 22.80143155740206 L 36.943567181133105, 22.09432477621551 L 36.23646039994656, 21.387217995028966 L 36.943567181133105, 20.680111213842416 L 37.65067396231966, 21.387217995028962 L 36.943567181133105, 22.09432477621551 L 37.65067396231966, 22.801431557402058 L 38.357780743506204, 22.094324776215508 L 39.06488752469275, 22.801431557402054 L 38.35778074350621, 23.508538338588604 L 39.06488752469276, 24.21564511977515 L 38.35778074350621, 24.9227519009617 L 37.65067396231966, 24.215645119775154 L 36.94356718113312, 24.922751900961703 L 37.650673962319665, 25.62985868214825 L 38.35778074350621, 24.9227519009617 L 39.064887524692764, 25.629858682148246 L 39.7719943058793, 24.922751900961696 L 39.06488752469276, 24.21564511977515 L 39.7719943058793, 23.5085383385886 L 40.47910108706586, 24.215645119775147 L 41.186207868252396, 23.508538338588597 L 40.47910108706585, 22.80143155740205 L 39.7719943058793, 23.5085383385886 L 39.06488752469275, 22.801431557402054 L 39.7719943058793, 22.094324776215508 L 39.06488752469275, 21.38721799502896 L 39.771994305879296, 20.68011121384241 L 40.47910108706584, 21.387217995028955 L 39.7719943058793, 22.094324776215505 L 40.47910108706585, 22.80143155740205 L 41.186207868252396, 22.0943247762155 L 41.89331464943895, 22.801431557402047 L 42.60042143062549, 22.0943247762155 L 41.89331464943894, 21.387217995028955 L 42.60042143062549, 20.68011121384241 L 43.30752821181204, 21.387217995028955 L 42.60042143062549, 22.0943247762155 L 43.30752821181204, 22.801431557402047 L 44.01463499299859, 22.0943247762155 L 44.72174177418513, 22.801431557402047 L 44.014634992998594, 23.508538338588593 L 44.72174177418514, 24.21564511977514 L 44.014634992998594, 24.92275190096169 L 43.30752821181204, 24.215645119775143 L 44.014634992998594, 23.508538338588593 L 43.30752821181204, 22.801431557402047 L 42.600421430625495, 23.508538338588597 L 41.89331464943895, 22.80143155740205 L 41.186207868252396, 23.5085383385886 L 41.89331464943895, 24.215645119775147 L 41.1862078682524, 24.922751900961696 L 40.47910108706586, 24.21564511977515 L 39.7719943058793, 24.9227519009617 L 40.47910108706586, 25.629858682148246 L 41.1862078682524, 24.922751900961696 L 41.89331464943895, 25.629858682148242 L 41.18620786825241, 26.336965463334792 L 41.893314649438956, 27.044072244521338 L 41.18620786825241, 27.751179025707888 L 40.47910108706586, 27.04407224452134 L 39.77199430587932, 27.75117902570789 L 40.479101087065864, 28.458285806894438 L 41.18620786825241, 27.751179025707888 L 41.89331464943896, 28.458285806894434 L 42.6004214306255, 27.751179025707884 L 41.893314649438956, 27.044072244521338 L 42.6004214306255, 26.33696546333479 L 43.307528211812055, 27.044072244521335 L 42.6004214306255, 27.751179025707884 L 43.307528211812055, 28.45828580689443 L 44.0146349929986, 27.75117902570788 L 44.72174177418515, 28.458285806894427 L 44.01463499299861, 29.165392588080977 L 44.721741774185155, 29.872499369267523 L 44.01463499299861, 30.579606150454072 L 43.307528211812055, 29.872499369267526 L 44.01463499299861, 29.165392588080977 L 43.307528211812055, 28.45828580689443 L 42.60042143062551, 29.16539258808098 L 41.89331464943896, 28.458285806894434 L 41.18620786825241, 29.165392588080984 L 41.89331464943896, 29.87249936926753 L 41.18620786825242, 30.57960615045408 L 40.47910108706587, 29.872499369267533 L 39.77199430587932, 30.579606150454083 L 40.47910108706587, 31.28671293164063 L 41.18620786825242, 30.57960615045408 L 41.89331464943896, 31.286712931640626 L 41.186207868252424, 31.993819712827175 L 41.89331464943897, 32.70092649401372 L 41.186207868252424, 33.40803327520027 L 40.47910108706587, 32.70092649401373 L 41.186207868252424, 31.993819712827175 L 40.47910108706587, 31.28671293164063 L 39.771994305879325, 31.99381971282718 L 39.06488752469278, 31.286712931640633 L 38.357780743506225, 31.993819712827182 L 39.06488752469278, 32.70092649401373 L 38.35778074350623, 33.40803327520028 L 37.650673962319686, 32.70092649401373 L 38.357780743506225, 31.993819712827182 L 37.65067396231968, 31.286712931640636 L 36.94356718113313, 31.993819712827186 L 36.23646039994658, 31.28671293164064 L 36.94356718113313, 30.57960615045409 L 36.23646039994658, 29.872499369267544 L 36.943567181133126, 29.165392588080994 L 37.65067396231967, 29.87249936926754" />

  </g>

</svg>
