<?xml version="1.0" encoding="UTF-8" standalone="no"?>

<svg
    xmlns="http://www.w3.org/2000/svg"
    width="15.1171875"
    height="12.117187500000002"
    id="dragon-06.svg"
    version="1.0">

<!-- viewbox="-5.05859375 -10.058593750000002 10.05859375 2.05859375" -->

  <g 
    style="stroke:black; stroke-width:0.05859375; stroke-opacity:1; fill:none" 
    id="layer1">

    <path d="M 5.05859375, 2.05859375 L 6.05859375, 2.05859375 L 6.05859375, 1.05859375 L 5.05859375, 1.05859375 L 5.05859375, 0.05859375 L 4.05859375, 0.05859375 L 4.05859375, 1.05859375 L 3.0585937499999996, 1.05859375 L 3.0585937499999996, 0.05859375 L 2.0585937499999996, 0.05859375 L 2.0585937499999996, 1.05859375 L 3.0585937499999996, 1.05859375 L 3.0585937499999996, 2.05859375 L 2.0585937499999996, 2.05859375 L 2.0585937499999996, 3.0585937500000018 L 1.05859375, 3.0585937500000018 L 1.05859375, 2.0585937500000018 L 0.05859375, 2.0585937500000018 L 0.05859375, 3.0585937500000018 L 1.05859375, 3.0585937500000018 L 1.05859375, 4.058593750000002 L 2.05859375, 4.058593750000002 L 2.05859375, 3.0585937500000018 L 3.05859375, 3.0585937500000018 L 3.05859375, 4.058593750000002 L 2.05859375, 4.058593750000002 L 2.05859375, 5.058593750000002 L 3.05859375, 5.058593750000002 L 3.05859375, 6.058593750000002 L 2.05859375, 6.058593750000002 L 2.05859375, 7.058593750000002 L 1.05859375, 7.058593750000002 L 1.05859375, 6.058593750000002 L 0.05859375, 6.058593750000002 L 0.05859375, 7.058593750000002 L 1.05859375, 7.058593750000002 L 1.05859375, 8.058593750000002 L 2.05859375, 8.058593750000002 L 2.05859375, 7.058593750000002 L 3.05859375, 7.058593750000002 L 3.05859375, 8.058593750000002 L 4.05859375, 8.058593750000002 L 4.05859375, 7.058593750000002 L 3.05859375, 7.058593750000002 L 3.05859375, 6.058593750000002 L 4.05859375, 6.058593750000002 L 4.05859375, 5.058593750000002 L 5.05859375, 5.058593750000002 L 5.05859375, 6.058593750000002 L 4.05859375, 6.058593750000002 L 4.05859375, 7.058593750000002 L 5.05859375, 7.058593750000002 L 5.05859375, 8.058593750000002 L 6.05859375, 8.058593750000002 L 6.05859375, 7.058593750000002 L 7.05859375, 7.058593750000002 L 7.05859375, 8.058593750000002 L 6.05859375, 8.058593750000002 L 6.05859375, 9.058593750000002 L 7.05859375, 9.058593750000002 L 7.05859375, 10.058593750000002 L 6.05859375, 10.058593750000002 L 6.05859375, 11.058593750000002 L 5.05859375, 11.058593750000002 L 5.05859375, 10.058593750000002 L 4.05859375, 10.058593750000002 L 4.05859375, 11.058593750000002 L 5.05859375, 11.058593750000002 L 5.05859375, 12.058593750000002 L 6.05859375, 12.058593750000002 L 6.05859375, 11.058593750000002 L 7.05859375, 11.058593750000002 L 7.05859375, 12.058593750000002 L 8.05859375, 12.058593750000002 L 8.05859375, 11.058593750000002 L 7.05859375, 11.058593750000002 L 7.05859375, 10.058593750000002 L 8.05859375, 10.058593750000002 L 8.05859375, 9.058593750000002 L 9.05859375, 9.058593750000002 L 9.05859375, 10.058593750000002 L 10.05859375, 10.058593750000002 L 10.05859375, 9.058593750000002 L 9.05859375, 9.058593750000002 L 9.05859375, 8.058593750000002 L 8.05859375, 8.058593750000002 L 8.05859375, 9.058593750000002 L 7.05859375, 9.058593750000002 L 7.05859375, 8.058593750000002 L 8.05859375, 8.058593750000002 L 8.05859375, 7.058593750000002 L 7.05859375, 7.058593750000002 L 7.05859375, 6.058593750000002 L 8.05859375, 6.058593750000002 L 8.05859375, 5.058593750000002 L 9.05859375, 5.058593750000002 L 9.05859375, 6.058593750000002 L 8.05859375, 6.058593750000002 L 8.05859375, 7.058593750000002 L 9.05859375, 7.058593750000002 L 9.05859375, 8.058593750000002 L 10.05859375, 8.058593750000002 L 10.05859375, 7.058593750000002 L 11.05859375, 7.058593750000002 L 11.05859375, 8.058593750000002 L 12.05859375, 8.058593750000002 L 12.05859375, 7.058593750000002 L 11.05859375, 7.058593750000002 L 11.05859375, 6.058593750000002 L 12.05859375, 6.058593750000002 L 12.05859375, 5.058593750000002 L 13.05859375, 5.058593750000002 L 13.05859375, 6.058593750000002 L 12.05859375, 6.058593750000002 L 12.05859375, 7.058593750000002 L 13.05859375, 7.058593750000002 L 13.05859375, 8.058593750000002 L 14.05859375, 8.058593750000002 L 14.05859375, 7.058593750000002 L 15.05859375, 7.058593750000002 L 15.05859375, 8.058593750000002 L 14.05859375, 8.058593750000002 L 14.05859375, 9.058593750000002 L 15.05859375, 9.058593750000002 L 15.05859375, 10.058593750000002 L 14.05859375, 10.058593750000002 L 14.05859375, 11.058593750000002 L 13.05859375, 11.058593750000002 L 13.05859375, 10.058593750000002" />

  </g>

</svg>
