<?xml version="1.0" encoding="UTF-8" standalone="no"?>

<svg
    xmlns="http://www.w3.org/2000/svg"
    width="22.091562640351597"
    height="18.55602873441886"
    id="dragon-07.svg"
    version="1.0">

<!-- viewbox="-7.156694023649786 -14.934868616701811 14.934868616701811 3.6211601177170465" -->

  <g 
    style="stroke:black; stroke-width:0.08562621178430851; stroke-opacity:1; fill:none" 
    id="layer1">

    <path d="M 7.156694023649786, 3.6211601177170483 L 7.863800804836334, 4.328266898903596 L 8.57090758602288, 3.6211601177170483 L 7.863800804836333, 2.9140533365305004 L 8.57090758602288, 2.2069465553439542 L 7.863800804836333, 1.4998397741574045 L 7.156694023649785, 2.2069465553439542 L 6.449587242463238, 1.4998397741574045 L 7.156694023649785, 0.7927329929708584 L 6.449587242463237, 0.08562621178430874 L 5.74248046127669, 0.7927329929708584 L 6.449587242463237, 1.4998397741574045 L 5.74248046127669, 2.2069465553439542 L 5.035373680090142, 1.4998397741574045 L 4.328266898903594, 2.2069465553439542 L 3.6211601177170474, 1.4998397741574045 L 4.328266898903594, 0.7927329929708584 L 3.6211601177170474, 0.08562621178430874 L 2.9140533365305004, 0.7927329929708584 L 3.621160117717048, 1.4998397741574045 L 2.9140533365305004, 2.2069465553439542 L 3.621160117717048, 2.9140533365305004 L 4.328266898903595, 2.2069465553439542 L 5.035373680090142, 2.9140533365305004 L 4.328266898903595, 3.6211601177170483 L 3.6211601177170474, 2.9140533365305004 L 2.9140533365305004, 3.6211601177170483 L 3.621160117717048, 4.328266898903594 L 2.9140533365305004, 5.035373680090142 L 2.2069465553439525, 4.328266898903596 L 1.4998397741574045, 5.035373680090142 L 0.7927329929708566, 4.328266898903596 L 1.4998397741574037, 3.6211601177170483 L 0.7927329929708558, 2.9140533365305004 L 0.08562621178430874, 3.6211601177170483 L 0.7927329929708566, 4.328266898903594 L 0.08562621178430874, 5.035373680090142 L 0.7927329929708566, 5.74248046127669 L 1.4998397741574045, 5.035373680090142 L 2.2069465553439525, 5.74248046127669 L 1.4998397741574045, 6.449587242463238 L 2.2069465553439525, 7.156694023649784 L 2.9140533365305004, 6.449587242463238 L 2.2069465553439525, 5.74248046127669 L 2.9140533365305004, 5.035373680090142 L 3.621160117717048, 5.74248046127669 L 4.328266898903595, 5.035373680090142 L 5.035373680090142, 5.74248046127669 L 4.328266898903595, 6.449587242463238 L 3.6211601177170474, 5.74248046127669 L 2.9140533365305004, 6.449587242463238 L 3.621160117717048, 7.156694023649784 L 2.9140533365305004, 7.863800804836334 L 3.621160117717048, 8.57090758602288 L 4.328266898903595, 7.863800804836332 L 5.035373680090142, 8.57090758602288 L 4.328266898903595, 9.278014367209428 L 3.6211601177170474, 8.57090758602288 L 2.9140533365305004, 9.278014367209428 L 3.621160117717048, 9.985121148395976 L 2.9140533365305004, 10.692227929582524 L 2.2069465553439525, 9.985121148395976 L 1.4998397741574045, 10.692227929582524 L 0.7927329929708566, 9.985121148395976 L 1.4998397741574037, 9.278014367209428 L 0.7927329929708558, 8.57090758602288 L 0.08562621178430874, 9.278014367209428 L 0.7927329929708566, 9.985121148395976 L 0.08562621178430874, 10.692227929582524 L 0.7927329929708566, 11.399334710769072 L 1.4998397741574045, 10.692227929582524 L 2.2069465553439525, 11.399334710769072 L 1.4998397741574045, 12.10644149195562 L 2.2069465553439525, 12.813548273142167 L 2.9140533365305004, 12.10644149195562 L 2.2069465553439525, 11.399334710769072 L 2.9140533365305004, 10.692227929582524 L 3.621160117717048, 11.399334710769072 L 4.328266898903595, 10.692227929582524 L 5.035373680090142, 11.399334710769072 L 4.328266898903595, 12.10644149195562 L 5.035373680090142, 12.813548273142167 L 5.74248046127669, 12.10644149195562 L 5.035373680090142, 11.399334710769072 L 5.74248046127669, 10.692227929582524 L 5.035373680090142, 9.985121148395976 L 4.328266898903595, 10.692227929582524 L 3.621160117717048, 9.985121148395976 L 4.328266898903595, 9.278014367209428 L 5.035373680090142, 9.985121148395976 L 5.74248046127669, 9.278014367209428 L 5.035373680090142, 8.57090758602288 L 5.74248046127669, 7.863800804836332 L 6.449587242463238, 8.57090758602288 L 7.156694023649785, 7.863800804836332 L 7.863800804836333, 8.57090758602288 L 7.156694023649785, 9.278014367209428 L 6.449587242463238, 8.57090758602288 L 5.74248046127669, 9.278014367209428 L 6.449587242463238, 9.985121148395976 L 5.74248046127669, 10.692227929582524 L 6.449587242463238, 11.399334710769072 L 7.156694023649785, 10.692227929582524 L 7.863800804836333, 11.399334710769072 L 7.156694023649785, 12.10644149195562 L 7.863800804836333, 12.813548273142167 L 8.57090758602288, 12.10644149195562 L 7.863800804836333, 11.399334710769072 L 8.57090758602288, 10.692227929582524 L 9.278014367209428, 11.399334710769072 L 9.985121148395976, 10.692227929582524 L 10.692227929582522, 11.399334710769072 L 9.985121148395976, 12.10644149195562 L 9.278014367209428, 11.399334710769072 L 8.57090758602288, 12.10644149195562 L 9.278014367209428, 12.813548273142167 L 8.57090758602288, 13.520655054328715 L 9.278014367209428, 14.227761835515263 L 9.985121148395976, 13.520655054328715 L 10.692227929582522, 14.227761835515263 L 9.985121148395976, 14.934868616701811 L 9.278014367209428, 14.227761835515263 L 8.57090758602288, 14.934868616701811 L 9.278014367209428, 15.641975397888359 L 8.57090758602288, 16.349082179074905 L 7.863800804836333, 15.641975397888359 L 7.156694023649785, 16.349082179074905 L 6.449587242463238, 15.641975397888359 L 7.156694023649785, 14.934868616701811 L 6.449587242463237, 14.227761835515263 L 5.74248046127669, 14.934868616701811 L 6.449587242463237, 15.641975397888359 L 5.74248046127669, 16.349082179074905 L 6.449587242463237, 17.056188960261455 L 7.156694023649785, 16.349082179074905 L 7.863800804836332, 17.056188960261455 L 7.156694023649785, 17.763295741448005 L 7.863800804836332, 18.47040252263455 L 8.57090758602288, 17.763295741448005 L 7.863800804836332, 17.056188960261455 L 8.57090758602288, 16.349082179074905 L 9.278014367209428, 17.056188960261455 L 9.985121148395976, 16.349082179074905 L 10.692227929582522, 17.056188960261455 L 9.985121148395976, 17.763295741448005 L 10.692227929582522, 18.47040252263455 L 11.39933471076907, 17.763295741448005 L 10.692227929582522, 17.056188960261455 L 11.39933471076907, 16.349082179074905 L 10.692227929582522, 15.641975397888359 L 9.985121148395976, 16.349082179074905 L 9.278014367209428, 15.641975397888359 L 9.985121148395976, 14.934868616701811 L 10.692227929582522, 15.641975397888359 L 11.39933471076907, 14.934868616701811 L 10.692227929582522, 14.227761835515263 L 11.39933471076907, 13.520655054328715 L 12.106441491955618, 14.227761835515263 L 12.813548273142166, 13.520655054328715 L 13.520655054328714, 14.227761835515263 L 12.813548273142166, 14.934868616701811 L 13.520655054328714, 15.641975397888359 L 14.227761835515262, 14.934868616701811 L 13.520655054328714, 14.227761835515263 L 14.227761835515262, 13.520655054328715 L 13.520655054328714, 12.813548273142167 L 12.813548273142166, 13.520655054328715 L 12.106441491955618, 12.813548273142167 L 12.813548273142166, 12.10644149195562 L 12.106441491955618, 11.399334710769072 L 11.39933471076907, 12.10644149195562 L 12.106441491955618, 12.813548273142167 L 11.399334710769068, 13.520655054328715 L 10.692227929582522, 12.813548273142167 L 9.985121148395974, 13.520655054328715 L 9.278014367209426, 12.813548273142167 L 9.985121148395974, 12.10644149195562 L 10.692227929582522, 12.813548273142167 L 11.399334710769068, 12.10644149195562 L 10.692227929582522, 11.399334710769072 L 11.399334710769068, 10.692227929582524 L 10.692227929582522, 9.985121148395976 L 9.985121148395974, 10.692227929582524 L 9.278014367209426, 9.985121148395976 L 9.985121148395974, 9.278014367209428 L 10.692227929582522, 9.985121148395976 L 11.399334710769068, 9.278014367209428 L 10.692227929582522, 8.57090758602288 L 11.399334710769068, 7.863800804836332 L 12.106441491955618, 8.57090758602288 L 12.813548273142164, 7.863800804836332 L 13.520655054328714, 8.57090758602288 L 12.813548273142166, 9.278014367209428 L 12.106441491955618, 8.57090758602288 L 11.39933471076907, 9.278014367209428 L 12.106441491955618, 9.985121148395976 L 11.39933471076907, 10.692227929582524 L 12.106441491955618, 11.399334710769072 L 12.813548273142166, 10.692227929582524 L 13.520655054328714, 11.399334710769072 L 12.813548273142166, 12.10644149195562 L 13.520655054328714, 12.813548273142167 L 14.227761835515262, 12.10644149195562 L 13.520655054328714, 11.399334710769072 L 14.227761835515262, 10.692227929582524 L 14.93486861670181, 11.399334710769072 L 15.641975397888357, 10.692227929582524 L 16.349082179074905, 11.399334710769072 L 15.641975397888357, 12.10644149195562 L 16.349082179074905, 12.813548273142167 L 17.05618896026145, 12.10644149195562 L 16.349082179074905, 11.399334710769072 L 17.05618896026145, 10.692227929582524 L 16.349082179074905, 9.985121148395976 L 15.641975397888357, 10.692227929582524 L 14.93486861670181, 9.985121148395976 L 15.641975397888357, 9.278014367209428 L 16.349082179074905, 9.985121148395976 L 17.05618896026145, 9.278014367209428 L 16.349082179074905, 8.57090758602288 L 17.05618896026145, 7.863800804836332 L 17.763295741448, 8.57090758602288 L 18.47040252263455, 7.863800804836332 L 19.177509303821097, 8.57090758602288 L 18.47040252263455, 9.278014367209428 L 17.763295741448, 8.57090758602288 L 17.05618896026145, 9.278014367209428 L 17.763295741448, 9.985121148395976 L 17.05618896026145, 10.692227929582524 L 17.763295741448, 11.399334710769072 L 18.47040252263455, 10.692227929582524 L 19.177509303821097, 11.399334710769072 L 18.47040252263455, 12.10644149195562 L 19.177509303821097, 12.813548273142167 L 19.884616085007643, 12.10644149195562 L 19.177509303821097, 11.399334710769072 L 19.884616085007643, 10.692227929582524 L 20.591722866194193, 11.399334710769072 L 21.298829647380742, 10.692227929582524 L 22.00593642856729, 11.399334710769072 L 21.298829647380742, 12.10644149195562 L 20.591722866194193, 11.399334710769072 L 19.884616085007643, 12.10644149195562 L 20.591722866194193, 12.813548273142167 L 19.884616085007643, 13.520655054328715 L 20.591722866194193, 14.227761835515263 L 21.298829647380742, 13.520655054328715 L 22.00593642856729, 14.227761835515263 L 21.298829647380742, 14.934868616701811 L 20.591722866194193, 14.227761835515263 L 19.884616085007643, 14.934868616701811 L 20.591722866194193, 15.641975397888359 L 19.884616085007643, 16.349082179074905 L 19.177509303821097, 15.641975397888359 L 18.47040252263455, 16.349082179074905 L 17.763295741448, 15.641975397888359 L 18.47040252263455, 14.934868616701811" />

  </g>

</svg>
