<?xml version="1.0" encoding="UTF-8" standalone="no"?>

<svg
    xmlns="http://www.w3.org/2000/svg"
    width="7.0546875"
    height="7.0546875"
    id="hilbert-02.svg"
    version="1.0">

<!-- viewbox="-0.027343750000000222 -0.02734375000000011 7.02734375 7.02734375" -->

  <g 
    style="stroke:black; stroke-width:0.02734375; stroke-opacity:1; fill:none" 
    id="layer1">

    <path d="M 0.027343750000000222, 7.02734375 L 0.027343750000000284, 6.02734375 L 1.0273437500000002, 6.02734375 L 1.0273437500000002, 7.02734375 L 2.02734375, 7.02734375 L 3.02734375, 7.02734375 L 3.02734375, 6.02734375 L 2.02734375, 6.02734375 L 2.02734375, 5.02734375 L 3.02734375, 5.02734375 L 3.02734375, 4.02734375 L 2.02734375, 4.02734375 L 1.0273437500000002, 4.02734375 L 1.02734375, 5.02734375 L 0.02734375, 5.02734375 L 0.027343750000000062, 4.02734375 L 0.02734375000000012, 3.02734375 L 1.02734375, 3.02734375 L 1.0273437500000002, 2.02734375 L 0.027343750000000222, 2.02734375 L 0.027343750000000284, 1.02734375 L 0.027343750000000343, 0.02734375 L 1.0273437500000004, 0.02734375 L 1.0273437500000004, 1.02734375 L 2.02734375, 1.02734375 L 2.02734375, 0.02734375 L 3.02734375, 0.02734375 L 3.02734375, 1.02734375 L 3.02734375, 2.02734375 L 2.02734375, 2.02734375 L 2.02734375, 3.02734375 L 3.02734375, 3.02734375 L 4.02734375, 3.02734375 L 5.02734375, 3.02734375 L 5.02734375, 2.02734375 L 4.02734375, 2.02734375 L 4.02734375, 1.02734375 L 4.02734375, 0.02734375 L 5.02734375, 0.02734375 L 5.02734375, 1.02734375 L 6.02734375, 1.02734375 L 6.02734375, 0.02734375 L 7.02734375, 0.02734375 L 7.02734375, 1.02734375 L 7.02734375, 2.02734375 L 6.02734375, 2.02734375 L 6.02734375, 3.02734375 L 7.02734375, 3.02734375 L 7.02734375, 4.02734375 L 7.02734375, 5.02734375 L 6.02734375, 5.02734375 L 6.02734375, 4.02734375 L 5.02734375, 4.02734375 L 4.02734375, 4.02734375 L 4.02734375, 5.02734375 L 5.02734375, 5.02734375 L 5.02734375, 6.02734375 L 4.02734375, 6.02734375 L 4.02734375, 7.02734375 L 5.02734375, 7.02734375 L 6.02734375, 7.02734375 L 6.02734375, 6.02734375 L 7.02734375, 6.02734375 L 7.02734375, 7.02734375" />

  </g>

</svg>
