<?xml version="1.0" encoding="UTF-8" standalone="no"?>

<svg
    xmlns="http://www.w3.org/2000/svg"
    width="15.1171875"
    height="15.1171875"
    id="hilbert-03.svg"
    version="1.0">

<!-- viewbox="-0.05859375000000022 -0.05859375000000011 15.05859375 15.05859375" -->

  <g 
    style="stroke:black; stroke-width:0.05859375; stroke-opacity:1; fill:none" 
    id="layer1">

    <path d="M 0.05859375000000022, 15.05859375 L 1.0585937500000002, 15.05859375 L 1.0585937500000002, 14.05859375 L 0.05859375000000022, 14.05859375 L 0.058593750000000284, 13.05859375 L 0.05859375000000035, 12.05859375 L 1.0585937500000004, 12.05859375 L 1.0585937500000004, 13.05859375 L 2.05859375, 13.05859375 L 2.05859375, 12.05859375 L 3.05859375, 12.05859375 L 3.05859375, 13.05859375 L 3.05859375, 14.05859375 L 2.05859375, 14.05859375 L 2.05859375, 15.05859375 L 3.05859375, 15.05859375 L 4.05859375, 15.05859375 L 4.05859375, 14.05859375 L 5.05859375, 14.05859375 L 5.05859375, 15.05859375 L 6.05859375, 15.05859375 L 7.05859375, 15.05859375 L 7.05859375, 14.05859375 L 6.05859375, 14.05859375 L 6.05859375, 13.05859375 L 7.05859375, 13.05859375 L 7.05859375, 12.05859375 L 6.05859375, 12.05859375 L 5.05859375, 12.05859375 L 5.05859375, 13.05859375 L 4.05859375, 13.05859375 L 4.05859375, 12.05859375 L 4.05859375, 11.05859375 L 4.05859375, 10.05859375 L 5.05859375, 10.05859375 L 5.05859375, 11.05859375 L 6.05859375, 11.05859375 L 7.05859375, 11.05859375 L 7.05859375, 10.05859375 L 6.05859375, 10.05859375 L 6.05859375, 9.05859375 L 7.05859375, 9.05859375 L 7.05859375, 8.05859375 L 6.05859375, 8.05859375 L 5.05859375, 8.05859375 L 5.05859375, 9.05859375 L 4.05859375, 9.05859375 L 4.05859375, 8.05859375 L 3.05859375, 8.05859375 L 2.05859375, 8.05859375 L 2.05859375, 9.05859375 L 3.05859375, 9.05859375 L 3.05859375, 10.05859375 L 3.05859375, 11.05859375 L 2.05859375, 11.05859375 L 2.05859375, 10.05859375 L 1.0585937500000002, 10.05859375 L 1.05859375, 11.05859375 L 0.05859375, 11.05859375 L 0.05859375000000006, 10.05859375 L 0.058593750000000125, 9.05859375 L 1.05859375, 9.05859375 L 1.0585937500000002, 8.05859375 L 0.05859375000000022, 8.05859375 L 0.058593750000000284, 7.05859375 L 0.05859375000000035, 6.05859375 L 1.0585937500000004, 6.05859375 L 1.0585937500000004, 7.05859375 L 2.05859375, 7.05859375 L 3.05859375, 7.05859375 L 3.05859375, 6.05859375 L 2.05859375, 6.05859375 L 2.05859375, 5.05859375 L 3.05859375, 5.05859375 L 3.05859375, 4.05859375 L 2.05859375, 4.05859375 L 1.0585937500000002, 4.05859375 L 1.05859375, 5.05859375 L 0.05859375, 5.05859375 L 0.05859375000000006, 4.05859375 L 0.058593750000000125, 3.05859375 L 1.05859375, 3.05859375 L 1.0585937500000002, 2.05859375 L 0.05859375000000022, 2.05859375 L 0.058593750000000284, 1.05859375 L 0.05859375000000035, 0.05859375 L 1.0585937500000004, 0.05859375 L 1.0585937500000004, 1.05859375 L 2.05859375, 1.05859375 L 2.05859375, 0.05859375 L 3.05859375, 0.05859375 L 3.05859375, 1.05859375 L 3.05859375, 2.05859375 L 2.05859375, 2.05859375 L 2.05859375, 3.05859375 L 3.05859375, 3.05859375 L 4.05859375, 3.05859375 L 5.05859375, 3.05859375 L 5.05859375, 2.05859375 L 4.05859375, 2.05859375 L 4.05859375, 1.05859375 L 4.05859375, 0.05859375 L 5.05859375, 0.05859375 L 5.05859375, 1.05859375 L 6.05859375, 1.05859375 L 6.05859375, 0.05859375 L 7.05859375, 0.05859375 L 7.05859375, 1.05859375 L 7.05859375, 2.05859375 L 6.05859375, 2.05859375 L 6.05859375, 3.05859375 L 7.05859375, 3.05859375 L 7.05859375, 4.05859375 L 7.05859375, 5.05859375 L 6.05859375, 5.05859375 L 6.05859375, 4.05859375 L 5.05859375, 4.05859375 L 4.05859375, 4.05859375 L 4.05859375, 5.05859375 L 5.05859375, 5.05859375 L 5.05859375, 6.05859375 L 4.05859375, 6.05859375 L 4.05859375, 7.05859375 L 5.05859375, 7.05859375 L 6.05859375, 7.05859375 L 6.05859375, 6.05859375 L 7.05859375, 6.05859375 L 7.05859375, 7.05859375 L 8.05859375, 7.05859375 L 8.05859375, 6.05859375 L 9.05859375, 6.05859375 L 9.05859375, 7.05859375 L 10.05859375, 7.05859375 L 11.05859375, 7.05859375 L 11.05859375, 6.05859375 L 10.05859375, 6.05859375 L 10.05859375, 5.05859375 L 11.05859375, 5.05859375 L 11.05859375, 4.05859375 L 10.05859375, 4.05859375 L 9.05859375, 4.05859375 L 9.05859375, 5.05859375 L 8.05859375, 5.05859375 L 8.05859375, 4.05859375 L 8.05859375, 3.05859375 L 9.05859375, 3.05859375 L 9.05859375, 2.05859375 L 8.05859375, 2.05859375 L 8.05859375, 1.05859375 L 8.05859375, 0.05859375 L 9.05859375, 0.05859375 L 9.05859375, 1.05859375 L 10.05859375, 1.05859375 L 10.05859375, 0.05859375 L 11.05859375, 0.05859375 L 11.05859375, 1.05859375 L 11.05859375, 2.05859375 L 10.05859375, 2.05859375 L 10.05859375, 3.05859375 L 11.05859375, 3.05859375 L 12.05859375, 3.05859375 L 13.05859375, 3.05859375 L 13.05859375, 2.05859375 L 12.05859375, 2.05859375 L 12.05859375, 1.05859375 L 12.05859375, 0.05859375 L 13.05859375, 0.05859375 L 13.05859375, 1.05859375 L 14.05859375, 1.05859375 L 14.05859375, 0.05859375 L 15.05859375, 0.05859375 L 15.05859375, 1.05859375 L 15.05859375, 2.05859375 L 14.05859375, 2.05859375 L 14.05859375, 3.05859375 L 15.05859375, 3.05859375 L 15.05859375, 4.05859375 L 15.05859375, 5.05859375 L 14.05859375, 5.05859375 L 14.05859375, 4.05859375 L 13.05859375, 4.05859375 L 12.05859375, 4.05859375 L 12.05859375, 5.05859375 L 13.05859375, 5.05859375 L 13.05859375, 6.05859375 L 12.05859375, 6.05859375 L 12.05859375, 7.05859375 L 13.05859375, 7.05859375 L 14.05859375, 7.05859375 L 14.05859375, 6.05859375 L 15.05859375, 6.05859375 L 15.05859375, 7.05859375 L 15.05859375, 8.05859375 L 14.05859375, 8.05859375 L 14.05859375, 9.05859375 L 15.05859375, 9.05859375 L 15.05859375, 10.05859375 L 15.05859375, 11.05859375 L 14.05859375, 11.05859375 L 14.05859375, 10.05859375 L 13.05859375, 10.05859375 L 13.05859375, 11.05859375 L 12.05859375, 11.05859375 L 12.05859375, 10.05859375 L 12.05859375, 9.05859375 L 13.05859375, 9.05859375 L 13.05859375, 8.05859375 L 12.05859375, 8.05859375 L 11.05859375, 8.05859375 L 11.05859375, 9.05859375 L 10.05859375, 9.05859375 L 10.05859375, 8.05859375 L 9.05859375, 8.05859375 L 8.05859375, 8.05859375 L 8.05859375, 9.05859375 L 9.05859375, 9.05859375 L 9.05859375, 10.05859375 L 8.05859375, 10.05859375 L 8.05859375, 11.05859375 L 9.05859375, 11.05859375 L 10.05859375, 11.05859375 L 10.05859375, 10.05859375 L 11.05859375, 10.05859375 L 11.05859375, 11.05859375 L 11.05859375, 12.05859375 L 11.05859375, 13.05859375 L 10.05859375, 13.05859375 L 10.05859375, 12.05859375 L 9.05859375, 12.05859375 L 8.05859375, 12.05859375 L 8.05859375, 13.05859375 L 9.05859375, 13.05859375 L 9.05859375, 14.05859375 L 8.05859375, 14.05859375 L 8.05859375, 15.05859375 L 9.05859375, 15.05859375 L 10.05859375, 15.05859375 L 10.05859375, 14.05859375 L 11.05859375, 14.05859375 L 11.05859375, 15.05859375 L 12.05859375, 15.05859375 L 13.05859375, 15.05859375 L 13.05859375, 14.05859375 L 12.05859375, 14.05859375 L 12.05859375, 13.05859375 L 12.05859375, 12.05859375 L 13.05859375, 12.05859375 L 13.05859375, 13.05859375 L 14.05859375, 13.05859375 L 14.05859375, 12.05859375 L 15.05859375, 12.05859375 L 15.05859375, 13.05859375 L 15.05859375, 14.05859375 L 14.05859375, 14.05859375 L 14.05859375, 15.05859375 L 15.05859375, 15.05859375" />

  </g>

</svg>
