<?xml version="1.0" encoding="UTF-8" standalone="no"?>

<svg
    xmlns="http://www.w3.org/2000/svg"
    width="244.8984375"
    height="72.0464952065396"
    id="koch-line-05.svg"
    version="1.0">

<!-- viewbox="-0.94921875 -0.94921875 243.94921875 71.0972764565396" -->

  <g 
    style="stroke:black; stroke-width:0.94921875; stroke-opacity:1; fill:none" 
    id="layer1">

    <path d="M 0.94921875, 71.0972764565396 L 1.94921875, 71.0972764565396 L 2.44921875, 70.23125105275517 L 2.94921875, 71.0972764565396 L 3.94921875, 71.0972764565396 L 4.44921875, 70.23125105275517 L 3.94921875, 69.36522564897072 L 4.94921875, 69.36522564897072 L 5.44921875, 68.49920024518629 L 5.94921875, 69.36522564897072 L 6.94921875, 69.36522564897072 L 6.44921875, 70.23125105275517 L 6.94921875, 71.0972764565396 L 7.94921875, 71.0972764565396 L 8.44921875, 70.23125105275517 L 8.94921875, 71.0972764565396 L 9.94921875, 71.0972764565396 L 10.44921875, 70.23125105275517 L 9.94921875, 69.36522564897072 L 10.94921875, 69.36522564897072 L 11.44921875, 68.49920024518629 L 10.94921875, 67.63317484140185 L 9.94921875, 67.63317484140185 L 10.44921875, 66.7671494376174 L 9.94921875, 65.90112403383297 L 10.94921875, 65.90112403383297 L 11.44921875, 65.03509863004854 L 11.94921875, 65.90112403383297 L 12.94921875, 65.90112403383297 L 13.44921875, 65.03509863004854 L 12.94921875, 64.16907322626409 L 13.94921875, 64.16907322626409 L 14.44921875, 63.303047822479655 L 14.94921875, 64.16907322626409 L 15.94921875, 64.16907322626409 L 15.44921875, 65.03509863004852 L 15.94921875, 65.90112403383297 L 16.94921875, 65.90112403383297 L 17.44921875, 65.03509863004852 L 17.94921875, 65.90112403383297 L 18.94921875, 65.90112403383296 L 18.44921875, 66.7671494376174 L 18.94921875, 67.63317484140184 L 17.94921875, 67.63317484140184 L 17.44921875, 68.49920024518629 L 17.94921875, 69.36522564897072 L 18.94921875, 69.36522564897072 L 18.44921875, 70.23125105275516 L 18.94921875, 71.0972764565396 L 19.94921875, 71.0972764565396 L 20.44921875, 70.23125105275516 L 20.94921875, 71.0972764565396 L 21.94921875, 71.09727645653959 L 22.44921875, 70.23125105275516 L 21.94921875, 69.36522564897072 L 22.94921875, 69.36522564897072 L 23.44921875, 68.49920024518627 L 23.94921875, 69.36522564897072 L 24.94921875, 69.36522564897072 L 24.44921875, 70.23125105275516 L 24.94921875, 71.09727645653959 L 25.94921875, 71.09727645653959 L 26.44921875, 70.23125105275516 L 26.94921875, 71.09727645653959 L 27.94921875, 71.09727645653959 L 28.44921875, 70.23125105275516 L 27.94921875, 69.36522564897072 L 28.94921875, 69.36522564897072 L 29.44921875, 68.49920024518627 L 28.94921875, 67.63317484140184 L 27.94921875, 67.63317484140184 L 28.44921875, 66.7671494376174 L 27.94921875, 65.90112403383296 L 28.94921875, 65.90112403383296 L 29.44921875, 65.03509863004852 L 29.94921875, 65.90112403383296 L 30.94921875, 65.90112403383296 L 31.44921875, 65.03509863004852 L 30.94921875, 64.16907322626408 L 31.94921875, 64.16907322626408 L 32.44921875, 63.30304782247964 L 31.94921875, 62.4370224186952 L 30.94921875, 62.4370224186952 L 31.44921875, 61.57099701491076 L 30.94921875, 60.704971611126325 L 29.94921875, 60.704971611126325 L 29.44921875, 61.57099701491076 L 28.94921875, 60.704971611126325 L 27.94921875, 60.704971611126325 L 28.44921875, 59.838946207341884 L 27.94921875, 58.97292080355744 L 28.94921875, 58.97292080355744 L 29.44921875, 58.10689539977301 L 28.94921875, 57.24086999598857 L 27.94921875, 57.24086999598857 L 28.44921875, 56.37484459220413 L 27.94921875, 55.508819188419686 L 28.94921875, 55.508819188419686 L 29.44921875, 54.642793784635245 L 29.94921875, 55.508819188419686 L 30.94921875, 55.508819188419686 L 31.44921875, 54.642793784635245 L 30.94921875, 53.77676838085081 L 31.94921875, 53.77676838085081 L 32.44921875, 52.91074297706638 L 32.94921875, 53.77676838085081 L 33.94921875, 53.77676838085081 L 33.44921875, 54.642793784635245 L 33.94921875, 55.508819188419686 L 34.94921875, 55.508819188419686 L 35.44921875, 54.642793784635245 L 35.94921875, 55.508819188419686 L 36.94921875, 55.508819188419686 L 37.44921875, 54.642793784635245 L 36.94921875, 53.77676838085081 L 37.94921875, 53.77676838085081 L 38.44921875, 52.91074297706638 L 37.94921875, 52.044717573281936 L 36.94921875, 52.044717573281936 L 37.44921875, 51.178692169497495 L 36.94921875, 50.31266676571306 L 37.94921875, 50.31266676571306 L 38.44921875, 49.44664136192863 L 38.94921875, 50.31266676571306 L 39.94921875, 50.31266676571306 L 40.44921875, 49.44664136192863 L 39.94921875, 48.580615958144186 L 40.94921875, 48.580615958144186 L 41.44921875, 47.714590554359745 L 41.94921875, 48.580615958144186 L 42.94921875, 48.580615958144186 L 42.44921875, 49.44664136192863 L 42.94921875, 50.31266676571306 L 43.94921875, 50.31266676571306 L 44.44921875, 49.44664136192863 L 44.94921875, 50.31266676571306 L 45.94921875, 50.31266676571306 L 45.44921875, 51.178692169497495 L 45.94921875, 52.044717573281936 L 44.94921875, 52.044717573281936 L 44.44921875, 52.91074297706638 L 44.94921875, 53.77676838085081 L 45.94921875, 53.77676838085081 L 45.44921875, 54.642793784635245 L 45.94921875, 55.508819188419686 L 46.94921875, 55.508819188419686 L 47.44921875, 54.642793784635245 L 47.94921875, 55.508819188419686 L 48.94921875, 55.508819188419686 L 49.44921875, 54.642793784635245 L 48.94921875, 53.77676838085081 L 49.94921875, 53.77676838085081 L 50.44921875, 52.91074297706638 L 50.94921875, 53.77676838085081 L 51.94921875, 53.77676838085081 L 51.44921875, 54.642793784635245 L 51.94921875, 55.508819188419686 L 52.94921875, 55.508819188419686 L 53.44921875, 54.642793784635245 L 53.94921875, 55.508819188419686 L 54.94921875, 55.508819188419686 L 54.44921875, 56.37484459220413 L 54.94921875, 57.24086999598856 L 53.94921875, 57.24086999598857 L 53.44921875, 58.10689539977301 L 53.94921875, 58.97292080355744 L 54.94921875, 58.97292080355744 L 54.44921875, 59.838946207341884 L 54.94921875, 60.704971611126325 L 53.94921875, 60.704971611126325 L 53.44921875, 61.57099701491076 L 52.94921875, 60.704971611126325 L 51.94921875, 60.704971611126325 L 51.44921875, 61.570997014910766 L 51.94921875, 62.43702241869521 L 50.94921875, 62.43702241869521 L 50.44921875, 63.30304782247964 L 50.94921875, 64.16907322626409 L 51.94921875, 64.16907322626409 L 51.44921875, 65.03509863004852 L 51.94921875, 65.90112403383296 L 52.94921875, 65.90112403383296 L 53.44921875, 65.03509863004852 L 53.94921875, 65.90112403383296 L 54.94921875, 65.90112403383296 L 54.44921875, 66.76714943761739 L 54.94921875, 67.63317484140184 L 53.94921875, 67.63317484140184 L 53.44921875, 68.49920024518627 L 53.94921875, 69.3652256489707 L 54.94921875, 69.3652256489707 L 54.44921875, 70.23125105275516 L 54.94921875, 71.09727645653959 L 55.94921875, 71.09727645653959 L 56.44921875, 70.23125105275516 L 56.94921875, 71.09727645653959 L 57.94921875, 71.09727645653959 L 58.44921875, 70.23125105275516 L 57.94921875, 69.3652256489707 L 58.94921875, 69.3652256489707 L 59.44921875, 68.49920024518627 L 59.94921875, 69.3652256489707 L 60.94921875, 69.3652256489707 L 60.44921875, 70.23125105275516 L 60.94921875, 71.09727645653959 L 61.94921875, 71.09727645653959 L 62.44921875, 70.23125105275516 L 62.94921875, 71.09727645653959 L 63.94921875, 71.09727645653959 L 64.44921875, 70.23125105275514 L 63.94921875, 69.3652256489707 L 64.94921875, 69.3652256489707 L 65.44921875, 68.49920024518627 L 64.94921875, 67.63317484140183 L 63.94921875, 67.63317484140183 L 64.44921875, 66.76714943761739 L 63.94921875, 65.90112403383296 L 64.94921875, 65.90112403383296 L 65.44921875, 65.03509863004851 L 65.94921875, 65.90112403383296 L 66.94921875, 65.90112403383296 L 67.44921875, 65.03509863004851 L 66.94921875, 64.16907322626408 L 67.94921875, 64.16907322626408 L 68.44921875, 63.303047822479634 L 68.94921875, 64.16907322626408 L 69.94921875, 64.16907322626408 L 69.44921875, 65.03509863004851 L 69.94921875, 65.90112403383294 L 70.94921875, 65.90112403383294 L 71.44921875, 65.03509863004851 L 71.94921875, 65.90112403383294 L 72.94921875, 65.90112403383294 L 72.44921875, 66.76714943761739 L 72.94921875, 67.63317484140183 L 71.94921875, 67.63317484140183 L 71.44921875, 68.49920024518626 L 71.94921875, 69.3652256489707 L 72.94921875, 69.3652256489707 L 72.44921875, 70.23125105275514 L 72.94921875, 71.09727645653957 L 73.94921875, 71.09727645653957 L 74.44921875, 70.23125105275514 L 74.94921875, 71.09727645653957 L 75.94921875, 71.09727645653957 L 76.44921875, 70.23125105275514 L 75.94921875, 69.3652256489707 L 76.94921875, 69.3652256489707 L 77.44921875, 68.49920024518626 L 77.94921875, 69.36522564897069 L 78.94921875, 69.36522564897069 L 78.44921875, 70.23125105275514 L 78.94921875, 71.09727645653957 L 79.94921875, 71.09727645653957 L 80.44921875, 70.23125105275514 L 80.94921875, 71.09727645653957 L 81.94921875, 71.09727645653957 L 82.44921875, 70.23125105275514 L 81.94921875, 69.36522564897069 L 82.94921875, 69.36522564897069 L 83.44921875, 68.49920024518626 L 82.94921875, 67.63317484140183 L 81.94921875, 67.63317484140183 L 82.44921875, 66.76714943761738 L 81.94921875, 65.90112403383294 L 82.94921875, 65.90112403383294 L 83.44921875, 65.03509863004851 L 83.94921875, 65.90112403383294 L 84.94921875, 65.90112403383294 L 85.44921875, 65.03509863004851 L 84.94921875, 64.16907322626406 L 85.94921875, 64.16907322626406 L 86.44921875, 63.30304782247963 L 85.94921875, 62.437022418695186 L 84.94921875, 62.437022418695186 L 85.44921875, 61.570997014910745 L 84.94921875, 60.704971611126304 L 83.94921875, 60.704971611126304 L 83.44921875, 61.570997014910745 L 82.94921875, 60.704971611126304 L 81.94921875, 60.704971611126304 L 82.44921875, 59.83894620734186 L 81.94921875, 58.97292080355743 L 82.94921875, 58.97292080355743 L 83.44921875, 58.10689539977299 L 82.94921875, 57.24086999598855 L 81.94921875, 57.24086999598855 L 82.44921875, 56.37484459220411 L 81.94921875, 55.50881918841967 L 82.94921875, 55.50881918841967 L 83.44921875, 54.64279378463523 L 83.94921875, 55.508819188419665 L 84.94921875, 55.508819188419665 L 85.44921875, 54.64279378463523 L 84.94921875, 53.7767683808508 L 85.94921875, 53.7767683808508 L 86.44921875, 52.910742977066356 L 86.94921875, 53.7767683808508 L 87.94921875, 53.7767683808508 L 87.44921875, 54.64279378463523 L 87.94921875, 55.508819188419665 L 88.94921875, 55.508819188419665 L 89.44921875, 54.64279378463523 L 89.94921875, 55.508819188419665 L 90.94921875, 55.508819188419665 L 91.44921875, 54.64279378463523 L 90.94921875, 53.7767683808508 L 91.94921875, 53.7767683808508 L 92.44921875, 52.910742977066356 L 91.94921875, 52.044717573281915 L 90.94921875, 52.044717573281915 L 91.44921875, 51.17869216949748 L 90.94921875, 50.31266676571305 L 91.94921875, 50.31266676571305 L 92.44921875, 49.446641361928606 L 92.94921875, 50.31266676571305 L 93.94921875, 50.31266676571305 L 94.44921875, 49.446641361928606 L 93.94921875, 48.580615958144165 L 94.94921875, 48.580615958144165 L 95.44921875, 47.71459055435973 L 94.94921875, 46.8485651505753 L 93.94921875, 46.8485651505753 L 94.44921875, 45.982539746790856 L 93.94921875, 45.116514343006415 L 92.94921875, 45.116514343006415 L 92.44921875, 45.982539746790856 L 91.94921875, 45.116514343006415 L 90.94921875, 45.116514343006415 L 91.44921875, 44.25048893922198 L 90.94921875, 43.38446353543755 L 91.94921875, 43.38446353543755 L 92.44921875, 42.518438131653106 L 91.94921875, 41.652412727868665 L 90.94921875, 41.652412727868665 L 91.44921875, 40.78638732408423 L 90.94921875, 39.9203619202998 L 89.94921875, 39.9203619202998 L 89.44921875, 40.78638732408423 L 88.94921875, 39.9203619202998 L 87.94921875, 39.9203619202998 L 87.44921875, 40.78638732408423 L 87.94921875, 41.652412727868665 L 86.94921875, 41.652412727868665 L 86.44921875, 42.518438131653106 L 85.94921875, 41.652412727868665 L 84.94921875, 41.652412727868665 L 85.44921875, 40.78638732408423 L 84.94921875, 39.9203619202998 L 83.94921875, 39.9203619202998 L 83.44921875, 40.78638732408423 L 82.94921875, 39.9203619202998 L 81.94921875, 39.9203619202998 L 82.44921875, 39.054336516515356 L 81.94921875, 38.188311112730915 L 82.94921875, 38.188311112730915 L 83.44921875, 37.322285708946474 L 82.94921875, 36.45626030516203 L 81.94921875, 36.45626030516203 L 82.44921875, 35.59023490137759 L 81.94921875, 34.72420949759315 L 82.94921875, 34.72420949759315 L 83.44921875, 33.85818409380871 L 83.94921875, 34.72420949759315 L 84.94921875, 34.72420949759315 L 85.44921875, 33.85818409380871 L 84.94921875, 32.99215869002427 L 85.94921875, 32.99215869002427 L 86.44921875, 32.12613328623983 L 85.94921875, 31.260107882455387 L 84.94921875, 31.260107882455387 L 85.44921875, 30.394082478670946 L 84.94921875, 29.528057074886505 L 83.94921875, 29.528057074886505 L 83.44921875, 30.394082478670946 L 82.94921875, 29.528057074886505 L 81.94921875, 29.528057074886505 L 82.44921875, 28.662031671102064 L 81.94921875, 27.796006267317622 L 82.94921875, 27.796006267317622 L 83.44921875, 26.92998086353318 L 82.94921875, 26.06395545974874 L 81.94921875, 26.06395545974874 L 82.44921875, 25.1979300559643 L 81.94921875, 24.33190465217986 L 82.94921875, 24.33190465217986 L 83.44921875, 23.465879248395417 L 83.94921875, 24.33190465217986 L 84.94921875, 24.33190465217986 L 85.44921875, 23.465879248395417 L 84.94921875, 22.599853844610976 L 85.94921875, 22.599853844610976 L 86.44921875, 21.733828440826535 L 86.94921875, 22.599853844610976 L 87.94921875, 22.599853844610976 L 87.44921875, 23.465879248395417 L 87.94921875, 24.33190465217986 L 88.94921875, 24.33190465217986 L 89.44921875, 23.465879248395417 L 89.94921875, 24.33190465217986 L 90.94921875, 24.33190465217986 L 91.44921875, 23.465879248395417 L 90.94921875, 22.599853844610976 L 91.94921875, 22.599853844610976 L 92.44921875, 21.733828440826535 L 91.94921875, 20.867803037042094 L 90.94921875, 20.867803037042094 L 91.44921875, 20.001777633257653 L 90.94921875, 19.135752229473212 L 91.94921875, 19.135752229473212 L 92.44921875, 18.26972682568877 L 92.94921875, 19.135752229473212 L 93.94921875, 19.135752229473212 L 94.44921875, 18.26972682568877 L 93.94921875, 17.40370142190433 L 94.94921875, 17.40370142190433 L 95.44921875, 16.53767601811989 L 95.94921875, 17.40370142190433 L 96.94921875, 17.40370142190433 L 96.44921875, 18.26972682568877 L 96.94921875, 19.135752229473212 L 97.94921875, 19.135752229473212 L 98.44921875, 18.26972682568877 L 98.94921875, 19.135752229473212 L 99.94921875, 19.135752229473212 L 99.44921875, 20.001777633257653 L 99.94921875, 20.867803037042094 L 98.94921875, 20.867803037042094 L 98.44921875, 21.733828440826535 L 98.94921875, 22.599853844610976 L 99.94921875, 22.599853844610976 L 99.44921875, 23.465879248395417 L 99.94921875, 24.33190465217986 L 100.94921875, 24.33190465217986 L 101.44921875, 23.465879248395417 L 101.94921875, 24.33190465217986 L 102.94921875, 24.33190465217986 L 103.44921875, 23.465879248395417 L 102.94921875, 22.599853844610976 L 103.94921875, 22.599853844610976 L 104.44921875, 21.733828440826535 L 104.94921875, 22.599853844610976 L 105.94921875, 22.599853844610976 L 105.44921875, 23.465879248395417 L 105.94921875, 24.33190465217986 L 106.94921875, 24.33190465217986 L 107.44921875, 23.465879248395417 L 107.94921875, 24.33190465217986 L 108.94921875, 24.33190465217986 L 109.44921875, 23.465879248395417 L 108.94921875, 22.599853844610976 L 109.94921875, 22.599853844610976 L 110.44921875, 21.733828440826535 L 109.94921875, 20.867803037042094 L 108.94921875, 20.867803037042094 L 109.44921875, 20.001777633257653 L 108.94921875, 19.135752229473212 L 109.94921875, 19.135752229473212 L 110.44921875, 18.26972682568877 L 110.94921875, 19.135752229473212 L 111.94921875, 19.135752229473212 L 112.44921875, 18.26972682568877 L 111.94921875, 17.40370142190433 L 112.94921875, 17.40370142190433 L 113.44921875, 16.53767601811989 L 112.94921875, 15.671650614335448 L 111.94921875, 15.671650614335448 L 112.44921875, 14.805625210551007 L 111.94921875, 13.939599806766566 L 110.94921875, 13.939599806766566 L 110.44921875, 14.805625210551007 L 109.94921875, 13.939599806766566 L 108.94921875, 13.939599806766566 L 109.44921875, 13.073574402982125 L 108.94921875, 12.207548999197684 L 109.94921875, 12.207548999197684 L 110.44921875, 11.341523595413243 L 109.94921875, 10.475498191628802 L 108.94921875, 10.475498191628802 L 109.44921875, 9.60947278784436 L 108.94921875, 8.74344738405992 L 109.94921875, 8.74344738405992 L 110.44921875, 7.877421980275486 L 110.94921875, 8.74344738405992 L 111.94921875, 8.74344738405992 L 112.44921875, 7.877421980275486 L 111.94921875, 7.0113965764910375 L 112.94921875, 7.0113965764910375 L 113.44921875, 6.145371172706604 L 113.94921875, 7.0113965764910375 L 114.94921875, 7.0113965764910375 L 114.44921875, 7.877421980275486 L 114.94921875, 8.74344738405992 L 115.94921875, 8.74344738405992 L 116.44921875, 7.877421980275486 L 116.94921875, 8.74344738405992 L 117.94921875, 8.74344738405992 L 118.44921875, 7.877421980275486 L 117.94921875, 7.0113965764910375 L 118.94921875, 7.0113965764910375 L 119.44921875, 6.145371172706604 L 118.94921875, 5.27934576892217 L 117.94921875, 5.27934576892217 L 118.44921875, 4.413320365137736 L 117.94921875, 3.547294961353302 L 118.94921875, 3.547294961353302 L 119.44921875, 2.681269557568868 L 119.94921875, 3.547294961353302 L 120.94921875, 3.547294961353302 L 121.44921875, 2.681269557568868 L 120.94921875, 1.815244153784434 L 121.94921875, 1.815244153784434 L 122.44921875, 0.94921875 L 122.94921875, 1.815244153784434 L 123.94921875, 1.815244153784434 L 123.44921875, 2.681269557568868 L 123.94921875, 3.547294961353302 L 124.94921875, 3.547294961353302 L 125.44921875, 2.681269557568868 L 125.94921875, 3.547294961353302 L 126.94921875, 3.547294961353302 L 126.44921875, 4.413320365137736 L 126.94921875, 5.27934576892217 L 125.94921875, 5.27934576892217 L 125.44921875, 6.145371172706604 L 125.94921875, 7.0113965764910375 L 126.94921875, 7.0113965764910375 L 126.44921875, 7.877421980275486 L 126.94921875, 8.74344738405992 L 127.94921875, 8.74344738405992 L 128.44921875, 7.877421980275486 L 128.94921875, 8.74344738405992 L 129.94921875, 8.74344738405992 L 130.44921875, 7.877421980275486 L 129.94921875, 7.0113965764910375 L 130.94921875, 7.0113965764910375 L 131.44921875, 6.145371172706604 L 131.94921875, 7.0113965764910375 L 132.94921875, 7.0113965764910375 L 132.44921875, 7.877421980275486 L 132.94921875, 8.74344738405992 L 133.94921875, 8.74344738405992 L 134.44921875, 7.877421980275486 L 134.94921875, 8.74344738405992 L 135.94921875, 8.74344738405992 L 135.44921875, 9.60947278784436 L 135.94921875, 10.475498191628802 L 134.94921875, 10.475498191628802 L 134.44921875, 11.341523595413243 L 134.94921875, 12.207548999197684 L 135.94921875, 12.207548999197684 L 135.44921875, 13.073574402982125 L 135.94921875, 13.939599806766566 L 134.94921875, 13.939599806766566 L 134.44921875, 14.805625210551007 L 133.94921875, 13.939599806766566 L 132.94921875, 13.939599806766566 L 132.44921875, 14.805625210551007 L 132.94921875, 15.671650614335448 L 131.94921875, 15.671650614335448 L 131.44921875, 16.53767601811989 L 131.94921875, 17.40370142190433 L 132.94921875, 17.40370142190433 L 132.44921875, 18.26972682568877 L 132.94921875, 19.135752229473212 L 133.94921875, 19.135752229473212 L 134.44921875, 18.26972682568877 L 134.94921875, 19.135752229473212 L 135.94921875, 19.135752229473212 L 135.44921875, 20.001777633257653 L 135.94921875, 20.867803037042094 L 134.94921875, 20.867803037042094 L 134.44921875, 21.733828440826535 L 134.94921875, 22.599853844610976 L 135.94921875, 22.599853844610976 L 135.44921875, 23.465879248395417 L 135.94921875, 24.33190465217986 L 136.94921875, 24.33190465217986 L 137.44921875, 23.465879248395417 L 137.94921875, 24.33190465217986 L 138.94921875, 24.33190465217986 L 139.44921875, 23.465879248395417 L 138.94921875, 22.599853844610976 L 139.94921875, 22.599853844610976 L 140.44921875, 21.733828440826535 L 140.94921875, 22.599853844610976 L 141.94921875, 22.599853844610976 L 141.44921875, 23.465879248395417 L 141.94921875, 24.33190465217986 L 142.94921875, 24.33190465217986 L 143.44921875, 23.465879248395417 L 143.94921875, 24.33190465217986 L 144.94921875, 24.33190465217986 L 145.44921875, 23.465879248395417 L 144.94921875, 22.599853844610976 L 145.94921875, 22.599853844610976 L 146.44921875, 21.733828440826535 L 145.94921875, 20.867803037042094 L 144.94921875, 20.867803037042094 L 145.44921875, 20.001777633257653 L 144.94921875, 19.135752229473212 L 145.94921875, 19.135752229473212 L 146.44921875, 18.26972682568877 L 146.94921875, 19.135752229473212 L 147.94921875, 19.135752229473212 L 148.44921875, 18.26972682568877 L 147.94921875, 17.40370142190433 L 148.94921875, 17.40370142190433 L 149.44921875, 16.53767601811989 L 149.94921875, 17.40370142190433 L 150.94921875, 17.40370142190433 L 150.44921875, 18.26972682568877 L 150.94921875, 19.135752229473212 L 151.94921875, 19.135752229473212 L 152.44921875, 18.26972682568877 L 152.94921875, 19.135752229473212 L 153.94921875, 19.135752229473212 L 153.44921875, 20.001777633257653 L 153.94921875, 20.867803037042094 L 152.94921875, 20.867803037042094 L 152.44921875, 21.733828440826535 L 152.94921875, 22.599853844610976 L 153.94921875, 22.599853844610976 L 153.44921875, 23.465879248395417 L 153.94921875, 24.33190465217986 L 154.94921875, 24.33190465217986 L 155.44921875, 23.465879248395417 L 155.94921875, 24.33190465217986 L 156.94921875, 24.33190465217986 L 157.44921875, 23.465879248395417 L 156.94921875, 22.599853844610976 L 157.94921875, 22.599853844610976 L 158.44921875, 21.733828440826535 L 158.94921875, 22.599853844610976 L 159.94921875, 22.599853844610976 L 159.44921875, 23.465879248395417 L 159.94921875, 24.33190465217986 L 160.94921875, 24.33190465217986 L 161.44921875, 23.465879248395417 L 161.94921875, 24.33190465217986 L 162.94921875, 24.33190465217986 L 162.44921875, 25.1979300559643 L 162.94921875, 26.06395545974874 L 161.94921875, 26.06395545974874 L 161.44921875, 26.92998086353318 L 161.94921875, 27.796006267317622 L 162.94921875, 27.796006267317622 L 162.44921875, 28.662031671102064 L 162.94921875, 29.528057074886505 L 161.94921875, 29.528057074886505 L 161.44921875, 30.394082478670946 L 160.94921875, 29.528057074886505 L 159.94921875, 29.528057074886505 L 159.44921875, 30.394082478670946 L 159.94921875, 31.260107882455387 L 158.94921875, 31.260107882455387 L 158.44921875, 32.12613328623983 L 158.94921875, 32.99215869002427 L 159.94921875, 32.99215869002427 L 159.44921875, 33.85818409380871 L 159.94921875, 34.72420949759315 L 160.94921875, 34.72420949759315 L 161.44921875, 33.85818409380871 L 161.94921875, 34.72420949759315 L 162.94921875, 34.72420949759315 L 162.44921875, 35.59023490137759 L 162.94921875, 36.45626030516203 L 161.94921875, 36.45626030516203 L 161.44921875, 37.322285708946474 L 161.94921875, 38.188311112730915 L 162.94921875, 38.188311112730915 L 162.44921875, 39.054336516515356 L 162.94921875, 39.9203619202998 L 161.94921875, 39.9203619202998 L 161.44921875, 40.78638732408423 L 160.94921875, 39.9203619202998 L 159.94921875, 39.9203619202998 L 159.44921875, 40.78638732408423 L 159.94921875, 41.652412727868665 L 158.94921875, 41.652412727868665 L 158.44921875, 42.518438131653106 L 157.94921875, 41.652412727868665 L 156.94921875, 41.652412727868665 L 157.44921875, 40.78638732408423 L 156.94921875, 39.92036192029979 L 155.94921875, 39.92036192029979 L 155.44921875, 40.78638732408423 L 154.94921875, 39.92036192029979 L 153.94921875, 39.92036192029979 L 153.44921875, 40.78638732408423 L 153.94921875, 41.652412727868665 L 152.94921875, 41.652412727868665 L 152.44921875, 42.5184381316531 L 152.94921875, 43.38446353543754 L 153.94921875, 43.38446353543754 L 153.44921875, 44.25048893922198 L 153.94921875, 45.116514343006415 L 152.94921875, 45.116514343006415 L 152.44921875, 45.98253974679085 L 151.94921875, 45.116514343006415 L 150.94921875, 45.116514343006415 L 150.44921875, 45.98253974679085 L 150.94921875, 46.84856515057529 L 149.94921875, 46.84856515057529 L 149.44921875, 47.71459055435973 L 149.94921875, 48.580615958144165 L 150.94921875, 48.580615958144165 L 150.44921875, 49.4466413619286 L 150.94921875, 50.31266676571304 L 151.94921875, 50.31266676571304 L 152.44921875, 49.4466413619286 L 152.94921875, 50.31266676571304 L 153.94921875, 50.31266676571304 L 153.44921875, 51.17869216949748 L 153.94921875, 52.044717573281915 L 152.94921875, 52.044717573281915 L 152.44921875, 52.91074297706635 L 152.94921875, 53.77676838085079 L 153.94921875, 53.77676838085079 L 153.44921875, 54.64279378463523 L 153.94921875, 55.508819188419665 L 154.94921875, 55.508819188419665 L 155.44921875, 54.64279378463523 L 155.94921875, 55.508819188419665 L 156.94921875, 55.508819188419665 L 157.44921875, 54.64279378463523 L 156.94921875, 53.77676838085079 L 157.94921875, 53.77676838085079 L 158.44921875, 52.91074297706635 L 158.94921875, 53.77676838085079 L 159.94921875, 53.77676838085079 L 159.44921875, 54.64279378463523 L 159.94921875, 55.508819188419665 L 160.94921875, 55.508819188419665 L 161.44921875, 54.64279378463523 L 161.94921875, 55.508819188419665 L 162.94921875, 55.508819188419665 L 162.44921875, 56.374844592204106 L 162.94921875, 57.24086999598855 L 161.94921875, 57.24086999598855 L 161.44921875, 58.10689539977298 L 161.94921875, 58.97292080355742 L 162.94921875, 58.97292080355742 L 162.44921875, 59.83894620734186 L 162.94921875, 60.7049716111263 L 161.94921875, 60.704971611126304 L 161.44921875, 61.570997014910745 L 160.94921875, 60.704971611126304 L 159.94921875, 60.704971611126304 L 159.44921875, 61.570997014910745 L 159.94921875, 62.43702241869518 L 158.94921875, 62.437022418695186 L 158.44921875, 63.30304782247963 L 158.94921875, 64.16907322626406 L 159.94921875, 64.16907322626406 L 159.44921875, 65.0350986300485 L 159.94921875, 65.90112403383294 L 160.94921875, 65.90112403383294 L 161.44921875, 65.0350986300485 L 161.94921875, 65.90112403383294 L 162.94921875, 65.90112403383293 L 162.44921875, 66.76714943761738 L 162.94921875, 67.63317484140181 L 161.94921875, 67.63317484140181 L 161.44921875, 68.49920024518626 L 161.94921875, 69.36522564897069 L 162.94921875, 69.36522564897069 L 162.44921875, 70.23125105275513 L 162.94921875, 71.09727645653957 L 163.94921875, 71.09727645653957 L 164.44921875, 70.23125105275513 L 164.94921875, 71.09727645653957 L 165.94921875, 71.09727645653956 L 166.44921875, 70.23125105275513 L 165.94921875, 69.36522564897069 L 166.94921875, 69.36522564897069 L 167.44921875, 68.49920024518624 L 167.94921875, 69.36522564897069 L 168.94921875, 69.36522564897069 L 168.44921875, 70.23125105275513 L 168.94921875, 71.09727645653956 L 169.94921875, 71.09727645653956 L 170.44921875, 70.23125105275513 L 170.94921875, 71.09727645653956 L 171.94921875, 71.09727645653956 L 172.44921875, 70.23125105275513 L 171.94921875, 69.36522564897069 L 172.94921875, 69.36522564897069 L 173.44921875, 68.49920024518624 L 172.94921875, 67.63317484140181 L 171.94921875, 67.63317484140181 L 172.44921875, 66.76714943761738 L 171.94921875, 65.90112403383293 L 172.94921875, 65.90112403383293 L 173.44921875, 65.0350986300485 L 173.94921875, 65.90112403383293 L 174.94921875, 65.90112403383293 L 175.44921875, 65.0350986300485 L 174.94921875, 64.16907322626405 L 175.94921875, 64.16907322626405 L 176.44921875, 63.30304782247961 L 176.94921875, 64.16907322626405 L 177.94921875, 64.16907322626405 L 177.44921875, 65.0350986300485 L 177.94921875, 65.90112403383293 L 178.94921875, 65.90112403383293 L 179.44921875, 65.03509863004848 L 179.94921875, 65.90112403383293 L 180.94921875, 65.90112403383293 L 180.44921875, 66.76714943761736 L 180.94921875, 67.6331748414018 L 179.94921875, 67.6331748414018 L 179.44921875, 68.49920024518624 L 179.94921875, 69.36522564897068 L 180.94921875, 69.36522564897068 L 180.44921875, 70.23125105275513 L 180.94921875, 71.09727645653956 L 181.94921875, 71.09727645653956 L 182.44921875, 70.23125105275511 L 182.94921875, 71.09727645653956 L 183.94921875, 71.09727645653956 L 184.44921875, 70.23125105275511 L 183.94921875, 69.36522564897068 L 184.94921875, 69.36522564897068 L 185.44921875, 68.49920024518624 L 185.94921875, 69.36522564897068 L 186.94921875, 69.36522564897068 L 186.44921875, 70.23125105275511 L 186.94921875, 71.09727645653956 L 187.94921875, 71.09727645653956 L 188.44921875, 70.23125105275511 L 188.94921875, 71.09727645653956 L 189.94921875, 71.09727645653956 L 190.44921875, 70.23125105275511 L 189.94921875, 69.36522564897068 L 190.94921875, 69.36522564897068 L 191.44921875, 68.49920024518624 L 190.94921875, 67.6331748414018 L 189.94921875, 67.6331748414018 L 190.44921875, 66.76714943761736 L 189.94921875, 65.90112403383293 L 190.94921875, 65.90112403383293 L 191.44921875, 65.03509863004848 L 191.94921875, 65.90112403383291 L 192.94921875, 65.90112403383291 L 193.44921875, 65.03509863004848 L 192.94921875, 64.16907322626405 L 193.94921875, 64.16907322626405 L 194.44921875, 63.3030478224796 L 193.94921875, 62.437022418695165 L 192.94921875, 62.437022418695165 L 193.44921875, 61.57099701491072 L 192.94921875, 60.70497161112628 L 191.94921875, 60.70497161112628 L 191.44921875, 61.57099701491072 L 190.94921875, 60.70497161112628 L 189.94921875, 60.70497161112628 L 190.44921875, 59.83894620734185 L 189.94921875, 58.97292080355741 L 190.94921875, 58.97292080355741 L 191.44921875, 58.10689539977297 L 190.94921875, 57.240869995988525 L 189.94921875, 57.240869995988525 L 190.44921875, 56.374844592204084 L 189.94921875, 55.50881918841965 L 190.94921875, 55.50881918841965 L 191.44921875, 54.64279378463521 L 191.94921875, 55.50881918841965 L 192.94921875, 55.50881918841965 L 193.44921875, 54.64279378463521 L 192.94921875, 53.77676838085077 L 193.94921875, 53.77676838085077 L 194.44921875, 52.910742977066334 L 194.94921875, 53.77676838085077 L 195.94921875, 53.77676838085077 L 195.44921875, 54.64279378463521 L 195.94921875, 55.50881918841965 L 196.94921875, 55.50881918841965 L 197.44921875, 54.64279378463521 L 197.94921875, 55.50881918841965 L 198.94921875, 55.50881918841965 L 199.44921875, 54.64279378463521 L 198.94921875, 53.77676838085077 L 199.94921875, 53.77676838085077 L 200.44921875, 52.910742977066334 L 199.94921875, 52.0447175732819 L 198.94921875, 52.0447175732819 L 199.44921875, 51.17869216949746 L 198.94921875, 50.31266676571302 L 199.94921875, 50.31266676571302 L 200.44921875, 49.446641361928585 L 200.94921875, 50.31266676571302 L 201.94921875, 50.31266676571302 L 202.44921875, 49.446641361928585 L 201.94921875, 48.58061595814415 L 202.94921875, 48.58061595814415 L 203.44921875, 47.71459055435971 L 203.94921875, 48.58061595814415 L 204.94921875, 48.58061595814415 L 204.44921875, 49.446641361928585 L 204.94921875, 50.31266676571302 L 205.94921875, 50.31266676571302 L 206.44921875, 49.446641361928585 L 206.94921875, 50.31266676571302 L 207.94921875, 50.31266676571302 L 207.44921875, 51.17869216949746 L 207.94921875, 52.0447175732819 L 206.94921875, 52.0447175732819 L 206.44921875, 52.910742977066334 L 206.94921875, 53.77676838085077 L 207.94921875, 53.77676838085077 L 207.44921875, 54.64279378463521 L 207.94921875, 55.50881918841965 L 208.94921875, 55.50881918841965 L 209.44921875, 54.64279378463521 L 209.94921875, 55.50881918841965 L 210.94921875, 55.50881918841965 L 211.44921875, 54.64279378463521 L 210.94921875, 53.77676838085077 L 211.94921875, 53.77676838085077 L 212.44921875, 52.910742977066334 L 212.94921875, 53.77676838085077 L 213.94921875, 53.77676838085077 L 213.44921875, 54.64279378463521 L 213.94921875, 55.50881918841965 L 214.94921875, 55.50881918841965 L 215.44921875, 54.64279378463521 L 215.94921875, 55.50881918841965 L 216.94921875, 55.50881918841965 L 216.44921875, 56.374844592204084 L 216.94921875, 57.240869995988525 L 215.94921875, 57.240869995988525 L 215.44921875, 58.10689539977297 L 215.94921875, 58.9729208035574 L 216.94921875, 58.9729208035574 L 216.44921875, 59.83894620734184 L 216.94921875, 60.70497161112628 L 215.94921875, 60.70497161112628 L 215.44921875, 61.57099701491072 L 214.94921875, 60.70497161112628 L 213.94921875, 60.70497161112629 L 213.44921875, 61.57099701491073 L 213.94921875, 62.437022418695165 L 212.94921875, 62.437022418695165 L 212.44921875, 63.303047822479606 L 212.94921875, 64.16907322626405 L 213.94921875, 64.16907322626405 L 213.44921875, 65.03509863004848 L 213.94921875, 65.90112403383291 L 214.94921875, 65.90112403383291 L 215.44921875, 65.03509863004848 L 215.94921875, 65.90112403383291 L 216.94921875, 65.90112403383291 L 216.44921875, 66.76714943761736 L 216.94921875, 67.6331748414018 L 215.94921875, 67.6331748414018 L 215.44921875, 68.49920024518623 L 215.94921875, 69.36522564897068 L 216.94921875, 69.36522564897068 L 216.44921875, 70.23125105275511 L 216.94921875, 71.09727645653955 L 217.94921875, 71.09727645653955 L 218.44921875, 70.23125105275511 L 218.94921875, 71.09727645653955 L 219.94921875, 71.09727645653955 L 220.44921875, 70.23125105275511 L 219.94921875, 69.36522564897068 L 220.94921875, 69.36522564897068 L 221.44921875, 68.49920024518623 L 221.94921875, 69.36522564897066 L 222.94921875, 69.36522564897066 L 222.44921875, 70.23125105275511 L 222.94921875, 71.09727645653955 L 223.94921875, 71.09727645653955 L 224.44921875, 70.23125105275511 L 224.94921875, 71.09727645653955 L 225.94921875, 71.09727645653955 L 226.44921875, 70.23125105275511 L 225.94921875, 69.36522564897066 L 226.94921875, 69.36522564897066 L 227.44921875, 68.49920024518623 L 226.94921875, 67.6331748414018 L 225.94921875, 67.6331748414018 L 226.44921875, 66.76714943761735 L 225.94921875, 65.90112403383291 L 226.94921875, 65.90112403383291 L 227.44921875, 65.03509863004848 L 227.94921875, 65.90112403383291 L 228.94921875, 65.90112403383291 L 229.44921875, 65.03509863004848 L 228.94921875, 64.16907322626403 L 229.94921875, 64.16907322626403 L 230.44921875, 63.3030478224796 L 230.94921875, 64.16907322626403 L 231.94921875, 64.16907322626403 L 231.44921875, 65.03509863004847 L 231.94921875, 65.90112403383291 L 232.94921875, 65.90112403383291 L 233.44921875, 65.03509863004847 L 233.94921875, 65.90112403383291 L 234.94921875, 65.9011240338329 L 234.44921875, 66.76714943761735 L 234.94921875, 67.63317484140178 L 233.94921875, 67.63317484140178 L 233.44921875, 68.49920024518623 L 233.94921875, 69.36522564897066 L 234.94921875, 69.36522564897066 L 234.44921875, 70.2312510527551 L 234.94921875, 71.09727645653955 L 235.94921875, 71.09727645653955 L 236.44921875, 70.2312510527551 L 236.94921875, 71.09727645653955 L 237.94921875, 71.09727645653953 L 238.44921875, 70.2312510527551 L 237.94921875, 69.36522564897066 L 238.94921875, 69.36522564897066 L 239.44921875, 68.49920024518622 L 239.94921875, 69.36522564897066 L 240.94921875, 69.36522564897066 L 240.44921875, 70.2312510527551 L 240.94921875, 71.09727645653953 L 241.94921875, 71.09727645653953 L 242.44921875, 70.2312510527551 L 242.94921875, 71.09727645653953 L 243.94921875, 71.09727645653953" />

  </g>

</svg>
