<?xml version="1.0" encoding="UTF-8" standalone="no"?>

<svg
    xmlns="http://www.w3.org/2000/svg"
    width="6.046875000000001"
    height="6.046875"
    id="koch-quadratic-01.svg"
    version="1.0">

<!-- viewbox="-1.0234375000000009 -1.0234375 5.0234375 5.0234375" -->

  <g 
    style="stroke:black; stroke-width:0.023437500000000003; stroke-opacity:1; fill:none" 
    id="layer1">

    <path d="M 1.0234375000000009, 5.0234375 L 2.023437500000001, 5.0234375 L 2.023437500000001, 4.0234375 L 3.023437500000001, 4.0234375 L 3.023437500000001, 5.0234375 L 3.023437500000001, 6.0234375 L 4.023437500000001, 6.0234375 L 4.023437500000001, 5.0234375 L 5.023437500000001, 5.0234375 L 5.023437500000001, 4.0234375 L 4.023437500000001, 4.0234375 L 4.023437500000001, 3.0234375 L 5.023437500000001, 3.0234375 L 6.023437500000001, 3.0234375 L 6.023437500000001, 2.0234375 L 5.023437500000001, 2.0234375 L 5.023437500000001, 1.0234375 L 4.023437500000001, 1.0234375 L 4.023437500000001, 2.0234375 L 3.023437500000001, 2.0234375 L 3.023437500000001, 1.0234375 L 3.023437500000001, 0.0234375 L 2.023437500000001, 0.0234375 L 2.023437500000001, 1.0234375 L 1.0234375000000007, 1.0234375 L 1.0234375000000004, 2.0234375 L 2.0234375000000004, 2.0234375 L 2.0234375, 3.0234375000000004 L 1.0234375000000002, 3.0234375 L 0.023437500000000222, 3.0234375 L 0.0234375, 4.0234375 L 1.0234375, 4.0234375 L 1.0234374999999998, 5.0234375" />

  </g>

</svg>
