<?xml version="1.0" encoding="UTF-8" standalone="no"?>

<svg
    xmlns="http://www.w3.org/2000/svg"
    width="26.203125"
    height="26.203125"
    id="koch-quadratic-02.svg"
    version="1.0">

<!-- viewbox="-5.101562500000002 -5.1015625 21.1015625 21.1015625" -->

  <g 
    style="stroke:black; stroke-width:0.1015625; stroke-opacity:1; fill:none" 
    id="layer1">

    <path d="M 5.101562500000002, 21.1015625 L 6.101562500000002, 21.1015625 L 6.101562500000002, 20.1015625 L 7.101562500000002, 20.1015625 L 7.101562500000002, 21.1015625 L 7.101562500000002, 22.1015625 L 8.101562500000002, 22.1015625 L 8.101562500000002, 21.1015625 L 9.101562500000002, 21.1015625 L 9.101562500000002, 20.1015625 L 8.101562500000002, 20.1015625 L 8.101562500000002, 19.1015625 L 9.101562500000002, 19.1015625 L 10.101562500000002, 19.1015625 L 10.101562500000002, 18.1015625 L 9.101562500000002, 18.1015625 L 9.101562500000002, 17.1015625 L 10.101562500000002, 17.1015625 L 10.101562500000002, 16.1015625 L 11.101562500000002, 16.1015625 L 11.101562500000002, 17.1015625 L 11.101562500000002, 18.1015625 L 12.101562500000002, 18.1015625 L 12.101562500000002, 17.1015625 L 13.101562500000002, 17.1015625 L 13.101562500000002, 18.1015625 L 14.101562500000002, 18.1015625 L 14.101562500000002, 19.1015625 L 13.101562500000002, 19.1015625 L 12.101562500000002, 19.1015625 L 12.101562500000002, 20.1015625 L 13.101562500000002, 20.1015625 L 13.101562500000002, 21.1015625 L 13.101562500000002, 22.1015625 L 14.101562500000002, 22.1015625 L 14.101562500000002, 23.1015625 L 13.101562500000002, 23.1015625 L 12.101562500000002, 23.1015625 L 12.101562500000002, 24.1015625 L 13.101562500000002, 24.1015625 L 13.101562500000002, 25.1015625 L 14.101562500000002, 25.1015625 L 14.101562500000002, 24.1015625 L 15.101562500000002, 24.1015625 L 15.101562500000002, 25.1015625 L 15.101562500000002, 26.1015625 L 16.1015625, 26.1015625 L 16.1015625, 25.1015625 L 17.1015625, 25.1015625 L 17.1015625, 24.1015625 L 16.1015625, 24.1015625 L 16.1015625, 23.1015625 L 17.1015625, 23.1015625 L 18.1015625, 23.1015625 L 18.1015625, 22.1015625 L 17.1015625, 22.1015625 L 17.1015625, 21.1015625 L 18.1015625, 21.1015625 L 18.1015625, 20.1015625 L 19.1015625, 20.1015625 L 19.1015625, 21.1015625 L 19.1015625, 22.1015625 L 20.1015625, 22.1015625 L 20.1015625, 21.1015625 L 21.1015625, 21.1015625 L 21.1015625, 20.1015625 L 20.1015625, 20.1015625 L 20.1015625, 19.1015625 L 21.1015625, 19.1015625 L 22.1015625, 19.1015625 L 22.1015625, 18.1015625 L 21.1015625, 18.1015625 L 21.1015625, 17.1015625 L 20.1015625, 17.1015625 L 20.1015625, 18.1015625 L 19.1015625, 18.1015625 L 19.1015625, 17.1015625 L 19.1015625, 16.1015625 L 18.1015625, 16.1015625 L 18.1015625, 17.1015625 L 17.1015625, 17.1015625 L 17.1015625, 16.1015625 L 16.1015625, 16.1015625 L 16.1015625, 15.1015625 L 17.1015625, 15.1015625 L 18.1015625, 15.1015625 L 18.1015625, 14.1015625 L 17.1015625, 14.1015625 L 17.1015625, 13.1015625 L 18.1015625, 13.1015625 L 18.1015625, 12.1015625 L 19.1015625, 12.1015625 L 19.1015625, 13.1015625 L 19.1015625, 14.1015625 L 20.1015625, 14.1015625 L 20.1015625, 13.1015625 L 21.1015625, 13.1015625 L 22.1015625, 13.1015625 L 22.1015625, 12.1015625 L 23.1015625, 12.1015625 L 23.1015625, 13.1015625 L 23.1015625, 14.1015625 L 24.1015625, 14.1015625 L 24.1015625, 13.1015625 L 25.1015625, 13.1015625 L 25.1015625, 12.1015625 L 24.1015625, 12.1015625 L 24.1015625, 11.1015625 L 25.1015625, 11.1015625 L 26.1015625, 11.1015625 L 26.1015625, 10.1015625 L 25.1015625, 10.1015625 L 25.1015625, 9.1015625 L 24.1015625, 9.1015625 L 24.1015625, 10.1015625 L 23.1015625, 10.1015625 L 23.1015625, 9.1015625 L 23.1015625, 8.1015625 L 22.1015625, 8.1015625 L 22.1015625, 9.1015625 L 21.1015625, 9.1015625 L 21.1015625, 8.1015625 L 20.1015625, 8.1015625 L 20.1015625, 7.1015625 L 21.1015625, 7.1015625 L 22.1015625, 7.1015625 L 22.1015625, 6.1015625 L 21.1015625, 6.1015625 L 21.1015625, 5.1015625 L 20.1015625, 5.1015625 L 20.1015625, 6.1015625 L 19.1015625, 6.1015625 L 19.1015625, 5.1015625 L 19.1015625, 4.1015625 L 18.1015625, 4.1015625 L 18.1015625, 5.1015625 L 17.1015625, 5.1015625 L 17.1015625, 6.1015625 L 18.1015625, 6.1015625 L 18.1015625, 7.1015625 L 17.1015625, 7.1015625 L 16.1015625, 7.1015625 L 16.1015625, 8.1015625 L 17.1015625, 8.1015625 L 17.1015625, 9.1015625 L 16.1015625, 9.1015625 L 16.1015625, 10.1015625 L 15.101562500000002, 10.1015625 L 15.101562500000002, 9.1015625 L 15.101562500000002, 8.1015625 L 14.101562500000002, 8.1015625 L 14.101562500000002, 9.1015625 L 13.101562500000002, 9.1015625 L 13.101562500000002, 8.1015625 L 12.101562500000002, 8.1015625 L 12.101562500000002, 7.1015625 L 13.101562500000002, 7.1015625 L 14.101562500000002, 7.1015625 L 14.101562500000002, 6.1015625 L 13.101562500000002, 6.1015625 L 13.101562500000002, 5.1015625 L 13.101562500000002, 4.1015625 L 12.101562500000002, 4.1015625 L 12.101562500000002, 3.1015625 L 13.101562500000002, 3.1015625 L 14.101562500000002, 3.1015625 L 14.101562500000002, 2.1015625 L 13.101562500000002, 2.1015625 L 13.101562500000002, 1.1015625 L 12.101562500000002, 1.1015625 L 12.101562500000002, 2.1015625 L 11.101562500000002, 2.1015625 L 11.101562500000002, 1.1015625 L 11.101562500000002, 0.1015625 L 10.101562500000002, 0.1015625 L 10.101562500000002, 1.1015625 L 9.101562500000002, 1.1015625 L 9.101562500000002, 2.1015625 L 10.101562500000002, 2.1015625 L 10.101562500000002, 3.1015625 L 9.101562500000002, 3.1015625 L 8.101562500000002, 3.1015625 L 8.101562500000002, 4.1015625 L 9.101562500000002, 4.1015625 L 9.101562500000002, 5.1015625 L 8.101562500000002, 5.1015625 L 8.101562500000002, 6.1015625 L 7.101562500000002, 6.1015625 L 7.101562500000002, 5.1015625 L 7.101562500000002, 4.1015625 L 6.101562500000002, 4.1015625 L 6.101562500000002, 5.1015625 L 5.101562500000002, 5.1015625 L 5.101562500000002, 6.1015625 L 6.101562500000002, 6.1015625 L 6.101562500000001, 7.1015625 L 5.101562500000001, 7.1015625 L 4.101562500000001, 7.1015625 L 4.101562500000001, 8.1015625 L 5.101562500000001, 8.1015625 L 5.101562500000001, 9.1015625 L 6.101562500000001, 9.1015625 L 6.101562500000001, 8.1015625 L 7.101562500000001, 8.1015625 L 7.101562500000001, 9.1015625 L 7.1015625, 10.1015625 L 8.1015625, 10.1015625 L 8.1015625, 9.1015625 L 9.1015625, 9.1015625 L 9.1015625, 10.1015625 L 10.1015625, 10.1015625 L 10.1015625, 11.1015625 L 9.1015625, 11.1015625 L 8.1015625, 11.1015625 L 8.1015625, 12.1015625 L 9.1015625, 12.1015625 L 9.1015625, 13.1015625 L 8.1015625, 13.1015625 L 8.1015625, 14.1015625 L 7.101562500000001, 14.1015625 L 7.101562500000001, 13.1015625 L 7.101562500000001, 12.1015625 L 6.101562500000001, 12.1015625 L 6.101562500000001, 13.1015625 L 5.101562500000001, 13.1015625 L 4.101562500000001, 13.1015625 L 4.1015625, 14.1015625 L 3.1015625000000004, 14.1015625 L 3.1015625000000004, 13.1015625 L 3.1015625000000004, 12.1015625 L 2.1015625000000004, 12.1015625 L 2.1015625000000004, 13.1015625 L 1.1015625, 13.1015625 L 1.1015625, 14.1015625 L 2.1015625, 14.1015625 L 2.1015625, 15.1015625 L 1.1015625, 15.1015625 L 0.1015625, 15.1015625 L 0.1015625, 16.1015625 L 1.1015625, 16.1015625 L 1.1015625, 17.1015625 L 2.1015625, 17.1015625 L 2.1015625000000004, 16.1015625 L 3.1015625000000004, 16.1015625 L 3.1015625000000004, 17.1015625 L 3.1015625000000004, 18.1015625 L 4.1015625, 18.1015625 L 4.101562500000001, 17.1015625 L 5.101562500000001, 17.1015625 L 5.101562500000001, 18.1015625 L 6.1015625, 18.1015625 L 6.1015625, 19.1015625 L 5.1015625, 19.1015625 L 4.1015625, 19.1015625 L 4.1015625, 20.1015625 L 5.1015625, 20.1015625 L 5.1015625, 21.1015625" />

  </g>

</svg>
