<?xml version="1.0" encoding="UTF-8" standalone="no"?>

<svg
    xmlns="http://www.w3.org/2000/svg"
    width="106.828125"
    height="106.828125"
    id="koch-quadratic-03.svg"
    version="1.0">

<!-- viewbox="-21.4140625 -21.4140625 85.4140625 85.4140625" -->

  <g 
    style="stroke:black; stroke-width:0.4140625; stroke-opacity:1; fill:none" 
    id="layer1">

    <path d="M 21.4140625, 85.4140625 L 22.4140625, 85.4140625 L 22.4140625, 84.4140625 L 23.4140625, 84.4140625 L 23.4140625, 85.4140625 L 23.4140625, 86.4140625 L 24.4140625, 86.4140625 L 24.4140625, 85.4140625 L 25.4140625, 85.4140625 L 25.4140625, 84.4140625 L 24.4140625, 84.4140625 L 24.4140625, 83.4140625 L 25.4140625, 83.4140625 L 26.4140625, 83.4140625 L 26.4140625, 82.4140625 L 25.4140625, 82.4140625 L 25.4140625, 81.4140625 L 26.4140625, 81.4140625 L 26.4140625, 80.4140625 L 27.4140625, 80.4140625 L 27.4140625, 81.4140625 L 27.4140625, 82.4140625 L 28.4140625, 82.4140625 L 28.4140625, 81.4140625 L 29.4140625, 81.4140625 L 29.4140625, 82.4140625 L 30.4140625, 82.4140625 L 30.4140625, 83.4140625 L 29.4140625, 83.4140625 L 28.4140625, 83.4140625 L 28.4140625, 84.4140625 L 29.4140625, 84.4140625 L 29.4140625, 85.4140625 L 29.4140625, 86.4140625 L 30.4140625, 86.4140625 L 30.4140625, 87.4140625 L 29.4140625, 87.4140625 L 28.4140625, 87.4140625 L 28.4140625, 88.4140625 L 29.4140625, 88.4140625 L 29.4140625, 89.4140625 L 30.4140625, 89.4140625 L 30.4140625, 88.4140625 L 31.4140625, 88.4140625 L 31.4140625, 89.4140625 L 31.4140625, 90.4140625 L 32.4140625, 90.4140625 L 32.4140625, 89.4140625 L 33.4140625, 89.4140625 L 33.4140625, 88.4140625 L 32.4140625, 88.4140625 L 32.4140625, 87.4140625 L 33.4140625, 87.4140625 L 34.4140625, 87.4140625 L 34.4140625, 86.4140625 L 33.4140625, 86.4140625 L 33.4140625, 85.4140625 L 34.4140625, 85.4140625 L 34.4140625, 84.4140625 L 35.4140625, 84.4140625 L 35.4140625, 85.4140625 L 35.4140625, 86.4140625 L 36.4140625, 86.4140625 L 36.4140625, 85.4140625 L 37.4140625, 85.4140625 L 37.4140625, 84.4140625 L 36.4140625, 84.4140625 L 36.4140625, 83.4140625 L 37.4140625, 83.4140625 L 38.4140625, 83.4140625 L 38.4140625, 82.4140625 L 37.4140625, 82.4140625 L 37.4140625, 81.4140625 L 36.4140625, 81.4140625 L 36.4140625, 82.4140625 L 35.4140625, 82.4140625 L 35.4140625, 81.4140625 L 35.4140625, 80.4140625 L 34.4140625, 80.4140625 L 34.4140625, 81.4140625 L 33.4140625, 81.4140625 L 33.4140625, 80.4140625 L 32.4140625, 80.4140625 L 32.4140625, 79.4140625 L 33.4140625, 79.4140625 L 34.4140625, 79.4140625 L 34.4140625, 78.4140625 L 33.4140625, 78.4140625 L 33.4140625, 77.4140625 L 34.4140625, 77.4140625 L 34.4140625, 76.4140625 L 35.4140625, 76.4140625 L 35.4140625, 77.4140625 L 35.4140625, 78.4140625 L 36.4140625, 78.4140625 L 36.4140625, 77.4140625 L 37.4140625, 77.4140625 L 38.4140625, 77.4140625 L 38.4140625, 76.4140625 L 39.4140625, 76.4140625 L 39.4140625, 77.4140625 L 39.4140625, 78.4140625 L 40.4140625, 78.4140625 L 40.4140625, 77.4140625 L 41.4140625, 77.4140625 L 41.4140625, 76.4140625 L 40.4140625, 76.4140625 L 40.4140625, 75.4140625 L 41.4140625, 75.4140625 L 42.4140625, 75.4140625 L 42.4140625, 74.4140625 L 41.4140625, 74.4140625 L 41.4140625, 73.4140625 L 40.4140625, 73.4140625 L 40.4140625, 74.4140625 L 39.4140625, 74.4140625 L 39.4140625, 73.4140625 L 39.4140625, 72.4140625 L 38.4140625, 72.4140625 L 38.4140625, 73.4140625 L 37.4140625, 73.4140625 L 37.4140625, 72.4140625 L 36.4140625, 72.4140625 L 36.4140625, 71.4140625 L 37.4140625, 71.4140625 L 38.4140625, 71.4140625 L 38.4140625, 70.4140625 L 37.4140625, 70.4140625 L 37.4140625, 69.4140625 L 38.4140625, 69.4140625 L 38.4140625, 68.4140625 L 39.4140625, 68.4140625 L 39.4140625, 69.4140625 L 39.4140625, 70.4140625 L 40.4140625, 70.4140625 L 40.4140625, 69.4140625 L 41.4140625, 69.4140625 L 41.4140625, 68.4140625 L 40.4140625, 68.4140625 L 40.4140625, 67.4140625 L 41.4140625, 67.4140625 L 42.4140625, 67.4140625 L 42.4140625, 66.4140625 L 41.4140625, 66.4140625 L 41.4140625, 65.4140625 L 42.4140625, 65.4140625 L 42.4140625, 64.4140625 L 43.4140625, 64.4140625 L 43.4140625, 65.4140625 L 43.4140625, 66.4140625 L 44.4140625, 66.4140625 L 44.4140625, 65.4140625 L 45.4140625, 65.4140625 L 45.4140625, 66.4140625 L 46.4140625, 66.4140625 L 46.4140625, 67.4140625 L 45.4140625, 67.4140625 L 44.4140625, 67.4140625 L 44.4140625, 68.4140625 L 45.4140625, 68.4140625 L 45.4140625, 69.4140625 L 45.4140625, 70.4140625 L 46.4140625, 70.4140625 L 46.4140625, 71.4140625 L 45.4140625, 71.4140625 L 44.4140625, 71.4140625 L 44.4140625, 72.4140625 L 45.4140625, 72.4140625 L 45.4140625, 73.4140625 L 46.4140625, 73.4140625 L 46.4140625, 72.4140625 L 47.4140625, 72.4140625 L 47.4140625, 73.4140625 L 47.4140625, 74.4140625 L 48.4140625, 74.4140625 L 48.4140625, 73.4140625 L 49.4140625, 73.4140625 L 49.4140625, 72.4140625 L 48.4140625, 72.4140625 L 48.4140625, 71.4140625 L 49.4140625, 71.4140625 L 50.4140625, 71.4140625 L 50.4140625, 70.4140625 L 49.4140625, 70.4140625 L 49.4140625, 69.4140625 L 50.4140625, 69.4140625 L 50.4140625, 68.4140625 L 51.4140625, 68.4140625 L 51.4140625, 69.4140625 L 51.4140625, 70.4140625 L 52.4140625, 70.4140625 L 52.4140625, 69.4140625 L 53.4140625, 69.4140625 L 53.4140625, 70.4140625 L 54.4140625, 70.4140625 L 54.4140625, 71.4140625 L 53.4140625, 71.4140625 L 52.4140625, 71.4140625 L 52.4140625, 72.4140625 L 53.4140625, 72.4140625 L 53.4140625, 73.4140625 L 54.4140625, 73.4140625 L 54.4140625, 72.4140625 L 55.4140625, 72.4140625 L 55.4140625, 73.4140625 L 55.4140625, 74.4140625 L 56.4140625, 74.4140625 L 56.4140625, 73.4140625 L 57.4140625, 73.4140625 L 57.4140625, 74.4140625 L 58.4140625, 74.4140625 L 58.4140625, 75.4140625 L 57.4140625, 75.4140625 L 56.4140625, 75.4140625 L 56.4140625, 76.4140625 L 57.4140625, 76.4140625 L 57.4140625, 77.4140625 L 56.4140625, 77.4140625 L 56.4140625, 78.4140625 L 55.4140625, 78.4140625 L 55.4140625, 77.4140625 L 55.4140625, 76.4140625 L 54.4140625, 76.4140625 L 54.4140625, 77.4140625 L 53.4140625, 77.4140625 L 52.4140625, 77.4140625 L 52.4140625, 78.4140625 L 51.4140625, 78.4140625 L 51.4140625, 77.4140625 L 51.4140625, 76.4140625 L 50.4140625, 76.4140625 L 50.4140625, 77.4140625 L 49.4140625, 77.4140625 L 49.4140625, 78.4140625 L 50.4140625, 78.4140625 L 50.4140625, 79.4140625 L 49.4140625, 79.4140625 L 48.4140625, 79.4140625 L 48.4140625, 80.4140625 L 49.4140625, 80.4140625 L 49.4140625, 81.4140625 L 50.4140625, 81.4140625 L 50.4140625, 80.4140625 L 51.4140625, 80.4140625 L 51.4140625, 81.4140625 L 51.4140625, 82.4140625 L 52.4140625, 82.4140625 L 52.4140625, 81.4140625 L 53.4140625, 81.4140625 L 53.4140625, 82.4140625 L 54.4140625, 82.4140625 L 54.4140625, 83.4140625 L 53.4140625, 83.4140625 L 52.4140625, 83.4140625 L 52.4140625, 84.4140625 L 53.4140625, 84.4140625 L 53.4140625, 85.4140625 L 53.4140625, 86.4140625 L 54.4140625, 86.4140625 L 54.4140625, 87.4140625 L 53.4140625, 87.4140625 L 52.4140625, 87.4140625 L 52.4140625, 88.4140625 L 53.4140625, 88.4140625 L 53.4140625, 89.4140625 L 54.4140625, 89.4140625 L 54.4140625, 88.4140625 L 55.4140625, 88.4140625 L 55.4140625, 89.4140625 L 55.4140625, 90.4140625 L 56.4140625, 90.4140625 L 56.4140625, 89.4140625 L 57.4140625, 89.4140625 L 57.4140625, 90.4140625 L 58.4140625, 90.4140625 L 58.4140625, 91.4140625 L 57.4140625, 91.4140625 L 56.4140625, 91.4140625 L 56.4140625, 92.4140625 L 57.4140625, 92.4140625 L 57.4140625, 93.4140625 L 56.4140625, 93.4140625 L 56.4140625, 94.4140625 L 55.4140625, 94.4140625 L 55.4140625, 93.4140625 L 55.4140625, 92.4140625 L 54.4140625, 92.4140625 L 54.4140625, 93.4140625 L 53.4140625, 93.4140625 L 52.4140625, 93.4140625 L 52.4140625, 94.4140625 L 51.4140625, 94.4140625 L 51.4140625, 93.4140625 L 51.4140625, 92.4140625 L 50.4140625, 92.4140625 L 50.4140625, 93.4140625 L 49.4140625, 93.4140625 L 49.4140625, 94.4140625 L 50.4140625, 94.4140625 L 50.4140625, 95.4140625 L 49.4140625, 95.4140625 L 48.4140625, 95.4140625 L 48.4140625, 96.4140625 L 49.4140625, 96.4140625 L 49.4140625, 97.4140625 L 50.4140625, 97.4140625 L 50.4140625, 96.4140625 L 51.4140625, 96.4140625 L 51.4140625, 97.4140625 L 51.4140625, 98.4140625 L 52.4140625, 98.4140625 L 52.4140625, 97.4140625 L 53.4140625, 97.4140625 L 53.4140625, 98.4140625 L 54.4140625, 98.4140625 L 54.4140625, 99.4140625 L 53.4140625, 99.4140625 L 52.4140625, 99.4140625 L 52.4140625, 100.4140625 L 53.4140625, 100.4140625 L 53.4140625, 101.4140625 L 54.4140625, 101.4140625 L 54.4140625, 100.4140625 L 55.4140625, 100.4140625 L 55.4140625, 101.4140625 L 55.4140625, 102.4140625 L 56.4140625, 102.4140625 L 56.4140625, 101.4140625 L 57.4140625, 101.4140625 L 57.4140625, 100.4140625 L 56.4140625, 100.4140625 L 56.4140625, 99.4140625 L 57.4140625, 99.4140625 L 58.4140625, 99.4140625 L 58.4140625, 98.4140625 L 57.4140625, 98.4140625 L 57.4140625, 97.4140625 L 58.4140625, 97.4140625 L 58.4140625, 96.4140625 L 59.4140625, 96.4140625 L 59.4140625, 97.4140625 L 59.4140625, 98.4140625 L 60.4140625, 98.4140625 L 60.4140625, 97.4140625 L 61.4140625, 97.4140625 L 61.4140625, 98.4140625 L 62.4140625, 98.4140625 L 62.4140625, 99.4140625 L 61.4140625, 99.4140625 L 60.4140625, 99.4140625 L 60.4140625, 100.4140625 L 61.4140625, 100.4140625 L 61.4140625, 101.4140625 L 61.4140625, 102.4140625 L 62.4140625, 102.4140625 L 62.4140625, 103.4140625 L 61.4140625, 103.4140625 L 60.4140625, 103.4140625 L 60.4140625, 104.4140625 L 61.4140625, 104.4140625 L 61.4140625, 105.4140625 L 62.4140625, 105.4140625 L 62.4140625, 104.4140625 L 63.4140625, 104.4140625 L 63.4140625, 105.4140625 L 63.4140625, 106.4140625 L 64.4140625, 106.4140625 L 64.4140625, 105.4140625 L 65.4140625, 105.4140625 L 65.4140625, 104.4140625 L 64.4140625, 104.4140625 L 64.4140625, 103.4140625 L 65.4140625, 103.4140625 L 66.4140625, 103.4140625 L 66.4140625, 102.4140625 L 65.4140625, 102.4140625 L 65.4140625, 101.4140625 L 66.4140625, 101.4140625 L 66.4140625, 100.4140625 L 67.4140625, 100.4140625 L 67.4140625, 101.4140625 L 67.4140625, 102.4140625 L 68.4140625, 102.4140625 L 68.4140625, 101.4140625 L 69.4140625, 101.4140625 L 69.4140625, 100.4140625 L 68.4140625, 100.4140625 L 68.4140625, 99.4140625 L 69.4140625, 99.4140625 L 70.4140625, 99.4140625 L 70.4140625, 98.4140625 L 69.4140625, 98.4140625 L 69.4140625, 97.4140625 L 68.4140625, 97.4140625 L 68.4140625, 98.4140625 L 67.4140625, 98.4140625 L 67.4140625, 97.4140625 L 67.4140625, 96.4140625 L 66.4140625, 96.4140625 L 66.4140625, 97.4140625 L 65.4140625, 97.4140625 L 65.4140625, 96.4140625 L 64.4140625, 96.4140625 L 64.4140625, 95.4140625 L 65.4140625, 95.4140625 L 66.4140625, 95.4140625 L 66.4140625, 94.4140625 L 65.4140625, 94.4140625 L 65.4140625, 93.4140625 L 66.4140625, 93.4140625 L 66.4140625, 92.4140625 L 67.4140625, 92.4140625 L 67.4140625, 93.4140625 L 67.4140625, 94.4140625 L 68.4140625, 94.4140625 L 68.4140625, 93.4140625 L 69.4140625, 93.4140625 L 70.4140625, 93.4140625 L 70.4140625, 92.4140625 L 71.4140625, 92.4140625 L 71.4140625, 93.4140625 L 71.4140625, 94.4140625 L 72.4140625, 94.4140625 L 72.4140625, 93.4140625 L 73.4140625, 93.4140625 L 73.4140625, 92.4140625 L 72.4140625, 92.4140625 L 72.4140625, 91.4140625 L 73.4140625, 91.4140625 L 74.4140625, 91.4140625 L 74.4140625, 90.4140625 L 73.4140625, 90.4140625 L 73.4140625, 89.4140625 L 72.4140625, 89.4140625 L 72.4140625, 90.4140625 L 71.4140625, 90.4140625 L 71.4140625, 89.4140625 L 71.4140625, 88.4140625 L 70.4140625, 88.4140625 L 70.4140625, 89.4140625 L 69.4140625, 89.4140625 L 69.4140625, 88.4140625 L 68.4140625, 88.4140625 L 68.4140625, 87.4140625 L 69.4140625, 87.4140625 L 70.4140625, 87.4140625 L 70.4140625, 86.4140625 L 69.4140625, 86.4140625 L 69.4140625, 85.4140625 L 70.4140625, 85.4140625 L 70.4140625, 84.4140625 L 71.4140625, 84.4140625 L 71.4140625, 85.4140625 L 71.4140625, 86.4140625 L 72.4140625, 86.4140625 L 72.4140625, 85.4140625 L 73.4140625, 85.4140625 L 73.4140625, 84.4140625 L 72.4140625, 84.4140625 L 72.4140625, 83.4140625 L 73.4140625, 83.4140625 L 74.4140625, 83.4140625 L 74.4140625, 82.4140625 L 73.4140625, 82.4140625 L 73.4140625, 81.4140625 L 74.4140625, 81.4140625 L 74.4140625, 80.4140625 L 75.4140625, 80.4140625 L 75.4140625, 81.4140625 L 75.4140625, 82.4140625 L 76.4140625, 82.4140625 L 76.4140625, 81.4140625 L 77.4140625, 81.4140625 L 77.4140625, 82.4140625 L 78.4140625, 82.4140625 L 78.4140625, 83.4140625 L 77.4140625, 83.4140625 L 76.4140625, 83.4140625 L 76.4140625, 84.4140625 L 77.4140625, 84.4140625 L 77.4140625, 85.4140625 L 77.4140625, 86.4140625 L 78.4140625, 86.4140625 L 78.4140625, 87.4140625 L 77.4140625, 87.4140625 L 76.4140625, 87.4140625 L 76.4140625, 88.4140625 L 77.4140625, 88.4140625 L 77.4140625, 89.4140625 L 78.4140625, 89.4140625 L 78.4140625, 88.4140625 L 79.4140625, 88.4140625 L 79.4140625, 89.4140625 L 79.4140625, 90.4140625 L 80.4140625, 90.4140625 L 80.4140625, 89.4140625 L 81.4140625, 89.4140625 L 81.4140625, 88.4140625 L 80.4140625, 88.4140625 L 80.4140625, 87.4140625 L 81.4140625, 87.4140625 L 82.4140625, 87.4140625 L 82.4140625, 86.4140625 L 81.4140625, 86.4140625 L 81.4140625, 85.4140625 L 82.4140625, 85.4140625 L 82.4140625, 84.4140625 L 83.4140625, 84.4140625 L 83.4140625, 85.4140625 L 83.4140625, 86.4140625 L 84.4140625, 86.4140625 L 84.4140625, 85.4140625 L 85.4140625, 85.4140625 L 85.4140625, 84.4140625 L 84.4140625, 84.4140625 L 84.4140625, 83.4140625 L 85.4140625, 83.4140625 L 86.4140625, 83.4140625 L 86.4140625, 82.4140625 L 85.4140625, 82.4140625 L 85.4140625, 81.4140625 L 84.4140625, 81.4140625 L 84.4140625, 82.4140625 L 83.4140625, 82.4140625 L 83.4140625, 81.4140625 L 83.4140625, 80.4140625 L 82.4140625, 80.4140625 L 82.4140625, 81.4140625 L 81.4140625, 81.4140625 L 81.4140625, 80.4140625 L 80.4140625, 80.4140625 L 80.4140625, 79.4140625 L 81.4140625, 79.4140625 L 82.4140625, 79.4140625 L 82.4140625, 78.4140625 L 81.4140625, 78.4140625 L 81.4140625, 77.4140625 L 82.4140625, 77.4140625 L 82.4140625, 76.4140625 L 83.4140625, 76.4140625 L 83.4140625, 77.4140625 L 83.4140625, 78.4140625 L 84.4140625, 78.4140625 L 84.4140625, 77.4140625 L 85.4140625, 77.4140625 L 86.4140625, 77.4140625 L 86.4140625, 76.4140625 L 87.4140625, 76.4140625 L 87.4140625, 77.4140625 L 87.4140625, 78.4140625 L 88.4140625, 78.4140625 L 88.4140625, 77.4140625 L 89.4140625, 77.4140625 L 89.4140625, 76.4140625 L 88.4140625, 76.4140625 L 88.4140625, 75.4140625 L 89.4140625, 75.4140625 L 90.4140625, 75.4140625 L 90.4140625, 74.4140625 L 89.4140625, 74.4140625 L 89.4140625, 73.4140625 L 88.4140625, 73.4140625 L 88.4140625, 74.4140625 L 87.4140625, 74.4140625 L 87.4140625, 73.4140625 L 87.4140625, 72.4140625 L 86.4140625, 72.4140625 L 86.4140625, 73.4140625 L 85.4140625, 73.4140625 L 85.4140625, 72.4140625 L 84.4140625, 72.4140625 L 84.4140625, 71.4140625 L 85.4140625, 71.4140625 L 86.4140625, 71.4140625 L 86.4140625, 70.4140625 L 85.4140625, 70.4140625 L 85.4140625, 69.4140625 L 84.4140625, 69.4140625 L 84.4140625, 70.4140625 L 83.4140625, 70.4140625 L 83.4140625, 69.4140625 L 83.4140625, 68.4140625 L 82.4140625, 68.4140625 L 82.4140625, 69.4140625 L 81.4140625, 69.4140625 L 81.4140625, 70.4140625 L 82.4140625, 70.4140625 L 82.4140625, 71.4140625 L 81.4140625, 71.4140625 L 80.4140625, 71.4140625 L 80.4140625, 72.4140625 L 81.4140625, 72.4140625 L 81.4140625, 73.4140625 L 80.4140625, 73.4140625 L 80.4140625, 74.4140625 L 79.4140625, 74.4140625 L 79.4140625, 73.4140625 L 79.4140625, 72.4140625 L 78.4140625, 72.4140625 L 78.4140625, 73.4140625 L 77.4140625, 73.4140625 L 77.4140625, 72.4140625 L 76.4140625, 72.4140625 L 76.4140625, 71.4140625 L 77.4140625, 71.4140625 L 78.4140625, 71.4140625 L 78.4140625, 70.4140625 L 77.4140625, 70.4140625 L 77.4140625, 69.4140625 L 77.4140625, 68.4140625 L 76.4140625, 68.4140625 L 76.4140625, 67.4140625 L 77.4140625, 67.4140625 L 78.4140625, 67.4140625 L 78.4140625, 66.4140625 L 77.4140625, 66.4140625 L 77.4140625, 65.4140625 L 76.4140625, 65.4140625 L 76.4140625, 66.4140625 L 75.4140625, 66.4140625 L 75.4140625, 65.4140625 L 75.4140625, 64.4140625 L 74.4140625, 64.4140625 L 74.4140625, 65.4140625 L 73.4140625, 65.4140625 L 73.4140625, 66.4140625 L 74.4140625, 66.4140625 L 74.4140625, 67.4140625 L 73.4140625, 67.4140625 L 72.4140625, 67.4140625 L 72.4140625, 68.4140625 L 73.4140625, 68.4140625 L 73.4140625, 69.4140625 L 72.4140625, 69.4140625 L 72.4140625, 70.4140625 L 71.4140625, 70.4140625 L 71.4140625, 69.4140625 L 71.4140625, 68.4140625 L 70.4140625, 68.4140625 L 70.4140625, 69.4140625 L 69.4140625, 69.4140625 L 69.4140625, 68.4140625 L 68.4140625, 68.4140625 L 68.4140625, 67.4140625 L 69.4140625, 67.4140625 L 70.4140625, 67.4140625 L 70.4140625, 66.4140625 L 69.4140625, 66.4140625 L 69.4140625, 65.4140625 L 68.4140625, 65.4140625 L 68.4140625, 66.4140625 L 67.4140625, 66.4140625 L 67.4140625, 65.4140625 L 67.4140625, 64.4140625 L 66.4140625, 64.4140625 L 66.4140625, 65.4140625 L 65.4140625, 65.4140625 L 65.4140625, 64.4140625 L 64.4140625, 64.4140625 L 64.4140625, 63.4140625 L 65.4140625, 63.4140625 L 66.4140625, 63.4140625 L 66.4140625, 62.4140625 L 65.4140625, 62.4140625 L 65.4140625, 61.4140625 L 66.4140625, 61.4140625 L 66.4140625, 60.4140625 L 67.4140625, 60.4140625 L 67.4140625, 61.4140625 L 67.4140625, 62.4140625 L 68.4140625, 62.4140625 L 68.4140625, 61.4140625 L 69.4140625, 61.4140625 L 70.4140625, 61.4140625 L 70.4140625, 60.4140625 L 71.4140625, 60.4140625 L 71.4140625, 61.4140625 L 71.4140625, 62.4140625 L 72.4140625, 62.4140625 L 72.4140625, 61.4140625 L 73.4140625, 61.4140625 L 73.4140625, 60.4140625 L 72.4140625, 60.4140625 L 72.4140625, 59.4140625 L 73.4140625, 59.4140625 L 74.4140625, 59.4140625 L 74.4140625, 58.4140625 L 73.4140625, 58.4140625 L 73.4140625, 57.4140625 L 72.4140625, 57.4140625 L 72.4140625, 58.4140625 L 71.4140625, 58.4140625 L 71.4140625, 57.4140625 L 71.4140625, 56.4140625 L 70.4140625, 56.4140625 L 70.4140625, 57.4140625 L 69.4140625, 57.4140625 L 69.4140625, 56.4140625 L 68.4140625, 56.4140625 L 68.4140625, 55.4140625 L 69.4140625, 55.4140625 L 70.4140625, 55.4140625 L 70.4140625, 54.4140625 L 69.4140625, 54.4140625 L 69.4140625, 53.4140625 L 70.4140625, 53.4140625 L 70.4140625, 52.4140625 L 71.4140625, 52.4140625 L 71.4140625, 53.4140625 L 71.4140625, 54.4140625 L 72.4140625, 54.4140625 L 72.4140625, 53.4140625 L 73.4140625, 53.4140625 L 73.4140625, 52.4140625 L 72.4140625, 52.4140625 L 72.4140625, 51.4140625 L 73.4140625, 51.4140625 L 74.4140625, 51.4140625 L 74.4140625, 50.4140625 L 73.4140625, 50.4140625 L 73.4140625, 49.4140625 L 74.4140625, 49.4140625 L 74.4140625, 48.4140625 L 75.4140625, 48.4140625 L 75.4140625, 49.4140625 L 75.4140625, 50.4140625 L 76.4140625, 50.4140625 L 76.4140625, 49.4140625 L 77.4140625, 49.4140625 L 77.4140625, 50.4140625 L 78.4140625, 50.4140625 L 78.4140625, 51.4140625 L 77.4140625, 51.4140625 L 76.4140625, 51.4140625 L 76.4140625, 52.4140625 L 77.4140625, 52.4140625 L 77.4140625, 53.4140625 L 77.4140625, 54.4140625 L 78.4140625, 54.4140625 L 78.4140625, 55.4140625 L 77.4140625, 55.4140625 L 76.4140625, 55.4140625 L 76.4140625, 56.4140625 L 77.4140625, 56.4140625 L 77.4140625, 57.4140625 L 78.4140625, 57.4140625 L 78.4140625, 56.4140625 L 79.4140625, 56.4140625 L 79.4140625, 57.4140625 L 79.4140625, 58.4140625 L 80.4140625, 58.4140625 L 80.4140625, 57.4140625 L 81.4140625, 57.4140625 L 81.4140625, 56.4140625 L 80.4140625, 56.4140625 L 80.4140625, 55.4140625 L 81.4140625, 55.4140625 L 82.4140625, 55.4140625 L 82.4140625, 54.4140625 L 81.4140625, 54.4140625 L 81.4140625, 53.4140625 L 82.4140625, 53.4140625 L 82.4140625, 52.4140625 L 83.4140625, 52.4140625 L 83.4140625, 53.4140625 L 83.4140625, 54.4140625 L 84.4140625, 54.4140625 L 84.4140625, 53.4140625 L 85.4140625, 53.4140625 L 86.4140625, 53.4140625 L 86.4140625, 52.4140625 L 87.4140625, 52.4140625 L 87.4140625, 53.4140625 L 87.4140625, 54.4140625 L 88.4140625, 54.4140625 L 88.4140625, 53.4140625 L 89.4140625, 53.4140625 L 89.4140625, 52.4140625 L 88.4140625, 52.4140625 L 88.4140625, 51.4140625 L 89.4140625, 51.4140625 L 90.4140625, 51.4140625 L 90.4140625, 50.4140625 L 89.4140625, 50.4140625 L 89.4140625, 49.4140625 L 90.4140625, 49.4140625 L 90.4140625, 48.4140625 L 91.4140625, 48.4140625 L 91.4140625, 49.4140625 L 91.4140625, 50.4140625 L 92.4140625, 50.4140625 L 92.4140625, 49.4140625 L 93.4140625, 49.4140625 L 93.4140625, 50.4140625 L 94.4140625, 50.4140625 L 94.4140625, 51.4140625 L 93.4140625, 51.4140625 L 92.4140625, 51.4140625 L 92.4140625, 52.4140625 L 93.4140625, 52.4140625 L 93.4140625, 53.4140625 L 93.4140625, 54.4140625 L 94.4140625, 54.4140625 L 94.4140625, 55.4140625 L 93.4140625, 55.4140625 L 92.4140625, 55.4140625 L 92.4140625, 56.4140625 L 93.4140625, 56.4140625 L 93.4140625, 57.4140625 L 94.4140625, 57.4140625 L 94.4140625, 56.4140625 L 95.4140625, 56.4140625 L 95.4140625, 57.4140625 L 95.4140625, 58.4140625 L 96.4140625, 58.4140625 L 96.4140625, 57.4140625 L 97.4140625, 57.4140625 L 97.4140625, 56.4140625 L 96.4140625, 56.4140625 L 96.4140625, 55.4140625 L 97.4140625, 55.4140625 L 98.4140625, 55.4140625 L 98.4140625, 54.4140625 L 97.4140625, 54.4140625 L 97.4140625, 53.4140625 L 98.4140625, 53.4140625 L 98.4140625, 52.4140625 L 99.4140625, 52.4140625 L 99.4140625, 53.4140625 L 99.4140625, 54.4140625 L 100.4140625, 54.4140625 L 100.4140625, 53.4140625 L 101.4140625, 53.4140625 L 101.4140625, 52.4140625 L 100.4140625, 52.4140625 L 100.4140625, 51.4140625 L 101.4140625, 51.4140625 L 102.4140625, 51.4140625 L 102.4140625, 50.4140625 L 101.4140625, 50.4140625 L 101.4140625, 49.4140625 L 100.4140625, 49.4140625 L 100.4140625, 50.4140625 L 99.4140625, 50.4140625 L 99.4140625, 49.4140625 L 99.4140625, 48.4140625 L 98.4140625, 48.4140625 L 98.4140625, 49.4140625 L 97.4140625, 49.4140625 L 97.4140625, 48.4140625 L 96.4140625, 48.4140625 L 96.4140625, 47.4140625 L 97.4140625, 47.4140625 L 98.4140625, 47.4140625 L 98.4140625, 46.4140625 L 97.4140625, 46.4140625 L 97.4140625, 45.4140625 L 98.4140625, 45.4140625 L 98.4140625, 44.4140625 L 99.4140625, 44.4140625 L 99.4140625, 45.4140625 L 99.4140625, 46.4140625 L 100.4140625, 46.4140625 L 100.4140625, 45.4140625 L 101.4140625, 45.4140625 L 102.4140625, 45.4140625 L 102.4140625, 44.4140625 L 103.4140625, 44.4140625 L 103.4140625, 45.4140625 L 103.4140625, 46.4140625 L 104.4140625, 46.4140625 L 104.4140625, 45.4140625 L 105.4140625, 45.4140625 L 105.4140625, 44.4140625 L 104.4140625, 44.4140625 L 104.4140625, 43.4140625 L 105.4140625, 43.4140625 L 106.4140625, 43.4140625 L 106.4140625, 42.4140625 L 105.4140625, 42.4140625 L 105.4140625, 41.4140625 L 104.4140625, 41.4140625 L 104.4140625, 42.4140625 L 103.4140625, 42.4140625 L 103.4140625, 41.4140625 L 103.4140625, 40.4140625 L 102.4140625, 40.4140625 L 102.4140625, 41.4140625 L 101.4140625, 41.4140625 L 101.4140625, 40.4140625 L 100.4140625, 40.4140625 L 100.4140625, 39.4140625 L 101.4140625, 39.4140625 L 102.4140625, 39.4140625 L 102.4140625, 38.4140625 L 101.4140625, 38.4140625 L 101.4140625, 37.4140625 L 100.4140625, 37.4140625 L 100.4140625, 38.4140625 L 99.4140625, 38.4140625 L 99.4140625, 37.4140625 L 99.4140625, 36.4140625 L 98.4140625, 36.4140625 L 98.4140625, 37.4140625 L 97.4140625, 37.4140625 L 97.4140625, 38.4140625 L 98.4140625, 38.4140625 L 98.4140625, 39.4140625 L 97.4140625, 39.4140625 L 96.4140625, 39.4140625 L 96.4140625, 40.4140625 L 97.4140625, 40.4140625 L 97.4140625, 41.4140625 L 96.4140625, 41.4140625 L 96.4140625, 42.4140625 L 95.4140625, 42.4140625 L 95.4140625, 41.4140625 L 95.4140625, 40.4140625 L 94.4140625, 40.4140625 L 94.4140625, 41.4140625 L 93.4140625, 41.4140625 L 93.4140625, 40.4140625 L 92.4140625, 40.4140625 L 92.4140625, 39.4140625 L 93.4140625, 39.4140625 L 94.4140625, 39.4140625 L 94.4140625, 38.4140625 L 93.4140625, 38.4140625 L 93.4140625, 37.4140625 L 93.4140625, 36.4140625 L 92.4140625, 36.4140625 L 92.4140625, 35.4140625 L 93.4140625, 35.4140625 L 94.4140625, 35.4140625 L 94.4140625, 34.4140625 L 93.4140625, 34.4140625 L 93.4140625, 33.4140625 L 92.4140625, 33.4140625 L 92.4140625, 34.4140625 L 91.4140625, 34.4140625 L 91.4140625, 33.4140625 L 91.4140625, 32.4140625 L 90.4140625, 32.4140625 L 90.4140625, 33.4140625 L 89.4140625, 33.4140625 L 89.4140625, 34.4140625 L 90.4140625, 34.4140625 L 90.4140625, 35.4140625 L 89.4140625, 35.4140625 L 88.4140625, 35.4140625 L 88.4140625, 36.4140625 L 89.4140625, 36.4140625 L 89.4140625, 37.4140625 L 88.4140625, 37.4140625 L 88.4140625, 38.4140625 L 87.4140625, 38.4140625 L 87.4140625, 37.4140625 L 87.4140625, 36.4140625 L 86.4140625, 36.4140625 L 86.4140625, 37.4140625 L 85.4140625, 37.4140625 L 85.4140625, 36.4140625 L 84.4140625, 36.4140625 L 84.4140625, 35.4140625 L 85.4140625, 35.4140625 L 86.4140625, 35.4140625 L 86.4140625, 34.4140625 L 85.4140625, 34.4140625 L 85.4140625, 33.4140625 L 84.4140625, 33.4140625 L 84.4140625, 34.4140625 L 83.4140625, 34.4140625 L 83.4140625, 33.4140625 L 83.4140625, 32.4140625 L 82.4140625, 32.4140625 L 82.4140625, 33.4140625 L 81.4140625, 33.4140625 L 81.4140625, 32.4140625 L 80.4140625, 32.4140625 L 80.4140625, 31.4140625 L 81.4140625, 31.4140625 L 82.4140625, 31.4140625 L 82.4140625, 30.4140625 L 81.4140625, 30.4140625 L 81.4140625, 29.4140625 L 82.4140625, 29.4140625 L 82.4140625, 28.4140625 L 83.4140625, 28.4140625 L 83.4140625, 29.4140625 L 83.4140625, 30.4140625 L 84.4140625, 30.4140625 L 84.4140625, 29.4140625 L 85.4140625, 29.4140625 L 86.4140625, 29.4140625 L 86.4140625, 28.4140625 L 87.4140625, 28.4140625 L 87.4140625, 29.4140625 L 87.4140625, 30.4140625 L 88.4140625, 30.4140625 L 88.4140625, 29.4140625 L 89.4140625, 29.4140625 L 89.4140625, 28.4140625 L 88.4140625, 28.4140625 L 88.4140625, 27.4140625 L 89.4140625, 27.4140625 L 90.4140625, 27.4140625 L 90.4140625, 26.4140625 L 89.4140625, 26.4140625 L 89.4140625, 25.4140625 L 88.4140625, 25.4140625 L 88.4140625, 26.4140625 L 87.4140625, 26.4140625 L 87.4140625, 25.4140625 L 87.4140625, 24.4140625 L 86.4140625, 24.4140625 L 86.4140625, 25.4140625 L 85.4140625, 25.4140625 L 85.4140625, 24.4140625 L 84.4140625, 24.4140625 L 84.4140625, 23.4140625 L 85.4140625, 23.4140625 L 86.4140625, 23.4140625 L 86.4140625, 22.4140625 L 85.4140625, 22.4140625 L 85.4140625, 21.4140625 L 84.4140625, 21.4140625 L 84.4140625, 22.4140625 L 83.4140625, 22.4140625 L 83.4140625, 21.4140625 L 83.4140625, 20.4140625 L 82.4140625, 20.4140625 L 82.4140625, 21.4140625 L 81.4140625, 21.4140625 L 81.4140625, 22.4140625 L 82.4140625, 22.4140625 L 82.4140625, 23.4140625 L 81.4140625, 23.4140625 L 80.4140625, 23.4140625 L 80.4140625, 24.4140625 L 81.4140625, 24.4140625 L 81.4140625, 25.4140625 L 80.4140625, 25.4140625 L 80.4140625, 26.4140625 L 79.4140625, 26.4140625 L 79.4140625, 25.4140625 L 79.4140625, 24.4140625 L 78.4140625, 24.4140625 L 78.4140625, 25.4140625 L 77.4140625, 25.4140625 L 77.4140625, 24.4140625 L 76.4140625, 24.4140625 L 76.4140625, 23.4140625 L 77.4140625, 23.4140625 L 78.4140625, 23.4140625 L 78.4140625, 22.4140625 L 77.4140625, 22.4140625 L 77.4140625, 21.4140625 L 77.4140625, 20.4140625 L 76.4140625, 20.4140625 L 76.4140625, 19.4140625 L 77.4140625, 19.4140625 L 78.4140625, 19.4140625 L 78.4140625, 18.4140625 L 77.4140625, 18.4140625 L 77.4140625, 17.4140625 L 76.4140625, 17.4140625 L 76.4140625, 18.4140625 L 75.4140625, 18.4140625 L 75.4140625, 17.4140625 L 75.4140625, 16.4140625 L 74.4140625, 16.4140625 L 74.4140625, 17.4140625 L 73.4140625, 17.4140625 L 73.4140625, 18.4140625 L 74.4140625, 18.4140625 L 74.4140625, 19.4140625 L 73.4140625, 19.4140625 L 72.4140625, 19.4140625 L 72.4140625, 20.4140625 L 73.4140625, 20.4140625 L 73.4140625, 21.4140625 L 72.4140625, 21.4140625 L 72.4140625, 22.4140625 L 71.4140625, 22.4140625 L 71.4140625, 21.4140625 L 71.4140625, 20.4140625 L 70.4140625, 20.4140625 L 70.4140625, 21.4140625 L 69.4140625, 21.4140625 L 69.4140625, 22.4140625 L 70.4140625, 22.4140625 L 70.4140625, 23.4140625 L 69.4140625, 23.4140625 L 68.4140625, 23.4140625 L 68.4140625, 24.4140625 L 69.4140625, 24.4140625 L 69.4140625, 25.4140625 L 70.4140625, 25.4140625 L 70.4140625, 24.4140625 L 71.4140625, 24.4140625 L 71.4140625, 25.4140625 L 71.4140625, 26.4140625 L 72.4140625, 26.4140625 L 72.4140625, 25.4140625 L 73.4140625, 25.4140625 L 73.4140625, 26.4140625 L 74.4140625, 26.4140625 L 74.4140625, 27.4140625 L 73.4140625, 27.4140625 L 72.4140625, 27.4140625 L 72.4140625, 28.4140625 L 73.4140625, 28.4140625 L 73.4140625, 29.4140625 L 72.4140625, 29.4140625 L 72.4140625, 30.4140625 L 71.4140625, 30.4140625 L 71.4140625, 29.4140625 L 71.4140625, 28.4140625 L 70.4140625, 28.4140625 L 70.4140625, 29.4140625 L 69.4140625, 29.4140625 L 68.4140625, 29.4140625 L 68.4140625, 30.4140625 L 67.4140625, 30.4140625 L 67.4140625, 29.4140625 L 67.4140625, 28.4140625 L 66.4140625, 28.4140625 L 66.4140625, 29.4140625 L 65.4140625, 29.4140625 L 65.4140625, 30.4140625 L 66.4140625, 30.4140625 L 66.4140625, 31.4140625 L 65.4140625, 31.4140625 L 64.4140625, 31.4140625 L 64.4140625, 32.4140625 L 65.4140625, 32.4140625 L 65.4140625, 33.4140625 L 66.4140625, 33.4140625 L 66.4140625, 32.4140625 L 67.4140625, 32.4140625 L 67.4140625, 33.4140625 L 67.4140625, 34.4140625 L 68.4140625, 34.4140625 L 68.4140625, 33.4140625 L 69.4140625, 33.4140625 L 69.4140625, 34.4140625 L 70.4140625, 34.4140625 L 70.4140625, 35.4140625 L 69.4140625, 35.4140625 L 68.4140625, 35.4140625 L 68.4140625, 36.4140625 L 69.4140625, 36.4140625 L 69.4140625, 37.4140625 L 68.4140625, 37.4140625 L 68.4140625, 38.4140625 L 67.4140625, 38.4140625 L 67.4140625, 37.4140625 L 67.4140625, 36.4140625 L 66.4140625, 36.4140625 L 66.4140625, 37.4140625 L 65.4140625, 37.4140625 L 65.4140625, 38.4140625 L 66.4140625, 38.4140625 L 66.4140625, 39.4140625 L 65.4140625, 39.4140625 L 64.4140625, 39.4140625 L 64.4140625, 40.4140625 L 65.4140625, 40.4140625 L 65.4140625, 41.4140625 L 64.4140625, 41.4140625 L 64.4140625, 42.4140625 L 63.4140625, 42.4140625 L 63.4140625, 41.4140625 L 63.4140625, 40.4140625 L 62.4140625, 40.4140625 L 62.4140625, 41.4140625 L 61.4140625, 41.4140625 L 61.4140625, 40.4140625 L 60.4140625, 40.4140625 L 60.4140625, 39.4140625 L 61.4140625, 39.4140625 L 62.4140625, 39.4140625 L 62.4140625, 38.4140625 L 61.4140625, 38.4140625 L 61.4140625, 37.4140625 L 61.4140625, 36.4140625 L 60.4140625, 36.4140625 L 60.4140625, 35.4140625 L 61.4140625, 35.4140625 L 62.4140625, 35.4140625 L 62.4140625, 34.4140625 L 61.4140625, 34.4140625 L 61.4140625, 33.4140625 L 60.4140625, 33.4140625 L 60.4140625, 34.4140625 L 59.4140625, 34.4140625 L 59.4140625, 33.4140625 L 59.4140625, 32.4140625 L 58.4140625, 32.4140625 L 58.4140625, 33.4140625 L 57.4140625, 33.4140625 L 57.4140625, 34.4140625 L 58.4140625, 34.4140625 L 58.4140625, 35.4140625 L 57.4140625, 35.4140625 L 56.4140625, 35.4140625 L 56.4140625, 36.4140625 L 57.4140625, 36.4140625 L 57.4140625, 37.4140625 L 56.4140625, 37.4140625 L 56.4140625, 38.4140625 L 55.4140625, 38.4140625 L 55.4140625, 37.4140625 L 55.4140625, 36.4140625 L 54.4140625, 36.4140625 L 54.4140625, 37.4140625 L 53.4140625, 37.4140625 L 53.4140625, 36.4140625 L 52.4140625, 36.4140625 L 52.4140625, 35.4140625 L 53.4140625, 35.4140625 L 54.4140625, 35.4140625 L 54.4140625, 34.4140625 L 53.4140625, 34.4140625 L 53.4140625, 33.4140625 L 52.4140625, 33.4140625 L 52.4140625, 34.4140625 L 51.4140625, 34.4140625 L 51.4140625, 33.4140625 L 51.4140625, 32.4140625 L 50.4140625, 32.4140625 L 50.4140625, 33.4140625 L 49.4140625, 33.4140625 L 49.4140625, 32.4140625 L 48.4140625, 32.4140625 L 48.4140625, 31.4140625 L 49.4140625, 31.4140625 L 50.4140625, 31.4140625 L 50.4140625, 30.4140625 L 49.4140625, 30.4140625 L 49.4140625, 29.4140625 L 50.4140625, 29.4140625 L 50.4140625, 28.4140625 L 51.4140625, 28.4140625 L 51.4140625, 29.4140625 L 51.4140625, 30.4140625 L 52.4140625, 30.4140625 L 52.4140625, 29.4140625 L 53.4140625, 29.4140625 L 54.4140625, 29.4140625 L 54.4140625, 28.4140625 L 55.4140625, 28.4140625 L 55.4140625, 29.4140625 L 55.4140625, 30.4140625 L 56.4140625, 30.4140625 L 56.4140625, 29.4140625 L 57.4140625, 29.4140625 L 57.4140625, 28.4140625 L 56.4140625, 28.4140625 L 56.4140625, 27.4140625 L 57.4140625, 27.4140625 L 58.4140625, 27.4140625 L 58.4140625, 26.4140625 L 57.4140625, 26.4140625 L 57.4140625, 25.4140625 L 56.4140625, 25.4140625 L 56.4140625, 26.4140625 L 55.4140625, 26.4140625 L 55.4140625, 25.4140625 L 55.4140625, 24.4140625 L 54.4140625, 24.4140625 L 54.4140625, 25.4140625 L 53.4140625, 25.4140625 L 53.4140625, 24.4140625 L 52.4140625, 24.4140625 L 52.4140625, 23.4140625 L 53.4140625, 23.4140625 L 54.4140625, 23.4140625 L 54.4140625, 22.4140625 L 53.4140625, 22.4140625 L 53.4140625, 21.4140625 L 53.4140625, 20.4140625 L 52.4140625, 20.4140625 L 52.4140625, 19.4140625 L 53.4140625, 19.4140625 L 54.4140625, 19.4140625 L 54.4140625, 18.4140625 L 53.4140625, 18.4140625 L 53.4140625, 17.4140625 L 52.4140625, 17.4140625 L 52.4140625, 18.4140625 L 51.4140625, 18.4140625 L 51.4140625, 17.4140625 L 51.4140625, 16.4140625 L 50.4140625, 16.4140625 L 50.4140625, 17.4140625 L 49.4140625, 17.4140625 L 49.4140625, 16.4140625 L 48.4140625, 16.4140625 L 48.4140625, 15.4140625 L 49.4140625, 15.4140625 L 50.4140625, 15.4140625 L 50.4140625, 14.4140625 L 49.4140625, 14.4140625 L 49.4140625, 13.4140625 L 50.4140625, 13.4140625 L 50.4140625, 12.4140625 L 51.4140625, 12.4140625 L 51.4140625, 13.4140625 L 51.4140625, 14.4140625 L 52.4140625, 14.4140625 L 52.4140625, 13.4140625 L 53.4140625, 13.4140625 L 54.4140625, 13.4140625 L 54.4140625, 12.4140625 L 55.4140625, 12.4140625 L 55.4140625, 13.4140625 L 55.4140625, 14.4140625 L 56.4140625, 14.4140625 L 56.4140625, 13.4140625 L 57.4140625, 13.4140625 L 57.4140625, 12.4140625 L 56.4140625, 12.4140625 L 56.4140625, 11.4140625 L 57.4140625, 11.4140625 L 58.4140625, 11.4140625 L 58.4140625, 10.4140625 L 57.4140625, 10.4140625 L 57.4140625, 9.4140625 L 56.4140625, 9.4140625 L 56.4140625, 10.4140625 L 55.4140625, 10.4140625 L 55.4140625, 9.4140625 L 55.4140625, 8.4140625 L 54.4140625, 8.4140625 L 54.4140625, 9.4140625 L 53.4140625, 9.4140625 L 53.4140625, 8.4140625 L 52.4140625, 8.4140625 L 52.4140625, 7.4140625 L 53.4140625, 7.4140625 L 54.4140625, 7.4140625 L 54.4140625, 6.4140625 L 53.4140625, 6.4140625 L 53.4140625, 5.4140625 L 52.4140625, 5.4140625 L 52.4140625, 6.4140625 L 51.4140625, 6.4140625 L 51.4140625, 5.4140625 L 51.4140625, 4.4140625 L 50.4140625, 4.4140625 L 50.4140625, 5.4140625 L 49.4140625, 5.4140625 L 49.4140625, 6.4140625 L 50.4140625, 6.4140625 L 50.4140625, 7.4140625 L 49.4140625, 7.4140625 L 48.4140625, 7.4140625 L 48.4140625, 8.4140625 L 49.4140625, 8.4140625 L 49.4140625, 9.4140625 L 48.4140625, 9.4140625 L 48.4140625, 10.4140625 L 47.4140625, 10.4140625 L 47.4140625, 9.4140625 L 47.4140625, 8.4140625 L 46.4140625, 8.4140625 L 46.4140625, 9.4140625 L 45.4140625, 9.4140625 L 45.4140625, 8.4140625 L 44.4140625, 8.4140625 L 44.4140625, 7.4140625 L 45.4140625, 7.4140625 L 46.4140625, 7.4140625 L 46.4140625, 6.4140625 L 45.4140625, 6.4140625 L 45.4140625, 5.4140625 L 45.4140625, 4.4140625 L 44.4140625, 4.4140625 L 44.4140625, 3.4140625 L 45.4140625, 3.4140625 L 46.4140625, 3.4140625 L 46.4140625, 2.4140625 L 45.4140625, 2.4140625 L 45.4140625, 1.4140625 L 44.4140625, 1.4140625 L 44.4140625, 2.4140625 L 43.4140625, 2.4140625 L 43.4140625, 1.4140625 L 43.4140625, 0.4140625 L 42.4140625, 0.4140625 L 42.4140625, 1.4140625 L 41.4140625, 1.4140625 L 41.4140625, 2.4140625 L 42.4140625, 2.4140625 L 42.4140625, 3.4140625 L 41.4140625, 3.4140625 L 40.4140625, 3.4140625 L 40.4140625, 4.4140625 L 41.4140625, 4.4140625 L 41.4140625, 5.4140625 L 40.4140625, 5.4140625 L 40.4140625, 6.4140625 L 39.4140625, 6.4140625 L 39.4140625, 5.4140625 L 39.4140625, 4.4140625 L 38.4140625, 4.4140625 L 38.4140625, 5.4140625 L 37.4140625, 5.4140625 L 37.4140625, 6.4140625 L 38.4140625, 6.4140625 L 38.4140625, 7.4140625 L 37.4140625, 7.4140625 L 36.4140625, 7.4140625 L 36.4140625, 8.4140625 L 37.4140625, 8.4140625 L 37.4140625, 9.4140625 L 38.4140625, 9.4140625 L 38.4140625, 8.4140625 L 39.4140625, 8.4140625 L 39.4140625, 9.4140625 L 39.4140625, 10.4140625 L 40.4140625, 10.4140625 L 40.4140625, 9.4140625 L 41.4140625, 9.4140625 L 41.4140625, 10.4140625 L 42.4140625, 10.4140625 L 42.4140625, 11.4140625 L 41.4140625, 11.4140625 L 40.4140625, 11.4140625 L 40.4140625, 12.4140625 L 41.4140625, 12.4140625 L 41.4140625, 13.4140625 L 40.4140625, 13.4140625 L 40.4140625, 14.4140625 L 39.4140625, 14.4140625 L 39.4140625, 13.4140625 L 39.4140625, 12.4140625 L 38.4140625, 12.4140625 L 38.4140625, 13.4140625 L 37.4140625, 13.4140625 L 36.4140625, 13.4140625 L 36.4140625, 14.4140625 L 35.4140625, 14.4140625 L 35.4140625, 13.4140625 L 35.4140625, 12.4140625 L 34.4140625, 12.4140625 L 34.4140625, 13.4140625 L 33.4140625, 13.4140625 L 33.4140625, 14.4140625 L 34.4140625, 14.4140625 L 34.4140625, 15.4140625 L 33.4140625, 15.4140625 L 32.4140625, 15.4140625 L 32.4140625, 16.4140625 L 33.4140625, 16.4140625 L 33.4140625, 17.4140625 L 34.4140625, 17.4140625 L 34.4140625, 16.4140625 L 35.4140625, 16.4140625 L 35.4140625, 17.4140625 L 35.4140625, 18.4140625 L 36.4140625, 18.4140625 L 36.4140625, 17.4140625 L 37.4140625, 17.4140625 L 37.4140625, 18.4140625 L 38.4140625, 18.4140625 L 38.4140625, 19.4140625 L 37.4140625, 19.4140625 L 36.4140625, 19.4140625 L 36.4140625, 20.4140625 L 37.4140625, 20.4140625 L 37.4140625, 21.4140625 L 36.4140625, 21.4140625 L 36.4140625, 22.4140625 L 35.4140625, 22.4140625 L 35.4140625, 21.4140625 L 35.4140625, 20.4140625 L 34.4140625, 20.4140625 L 34.4140625, 21.4140625 L 33.4140625, 21.4140625 L 33.4140625, 22.4140625 L 34.4140625, 22.4140625 L 34.4140625, 23.4140625 L 33.4140625, 23.4140625 L 32.4140625, 23.4140625 L 32.4140625, 24.4140625 L 33.4140625, 24.4140625 L 33.4140625, 25.4140625 L 32.4140625, 25.4140625 L 32.4140625, 26.4140625 L 31.4140625, 26.4140625 L 31.4140625, 25.4140625 L 31.4140625, 24.4140625 L 30.4140625, 24.4140625 L 30.4140625, 25.4140625 L 29.4140625, 25.4140625 L 29.4140625, 24.4140625 L 28.4140625, 24.4140625 L 28.4140625, 23.4140625 L 29.4140625, 23.4140625 L 30.4140625, 23.4140625 L 30.4140625, 22.4140625 L 29.4140625, 22.4140625 L 29.4140625, 21.4140625 L 29.4140625, 20.4140625 L 28.4140625, 20.4140625 L 28.4140625, 19.4140625 L 29.4140625, 19.4140625 L 30.4140625, 19.4140625 L 30.4140625, 18.4140625 L 29.4140625, 18.4140625 L 29.4140625, 17.4140625 L 28.4140625, 17.4140625 L 28.4140625, 18.4140625 L 27.4140625, 18.4140625 L 27.4140625, 17.4140625 L 27.4140625, 16.4140625 L 26.4140625, 16.4140625 L 26.4140625, 17.4140625 L 25.4140625, 17.4140625 L 25.4140625, 18.4140625 L 26.4140625, 18.4140625 L 26.4140625, 19.4140625 L 25.4140625, 19.4140625 L 24.4140625, 19.4140625 L 24.4140625, 20.4140625 L 25.4140625, 20.4140625 L 25.4140625, 21.4140625 L 24.4140625, 21.4140625 L 24.4140625, 22.4140625 L 23.4140625, 22.4140625 L 23.4140625, 21.4140625 L 23.4140625, 20.4140625 L 22.4140625, 20.4140625 L 22.4140625, 21.4140625 L 21.4140625, 21.4140625 L 21.4140625, 22.4140625 L 22.4140625, 22.4140625 L 22.4140625, 23.4140625 L 21.4140625, 23.4140625 L 20.4140625, 23.4140625 L 20.4140625, 24.4140625 L 21.4140625, 24.4140625 L 21.4140625, 25.4140625 L 22.4140625, 25.4140625 L 22.4140625, 24.4140625 L 23.4140625, 24.4140625 L 23.4140625, 25.4140625 L 23.4140625, 26.4140625 L 24.4140625, 26.4140625 L 24.4140625, 25.4140625 L 25.4140625, 25.4140625 L 25.4140625, 26.4140625 L 26.4140625, 26.4140625 L 26.4140625, 27.4140625 L 25.4140625, 27.4140625 L 24.4140625, 27.4140625 L 24.4140625, 28.4140625 L 25.4140625, 28.4140625 L 25.4140625, 29.4140625 L 24.4140625, 29.4140625 L 24.4140625, 30.4140625 L 23.4140625, 30.4140625 L 23.4140625, 29.4140625 L 23.4140625, 28.4140625 L 22.4140625, 28.4140625 L 22.4140625, 29.4140625 L 21.4140625, 29.4140625 L 20.4140625, 29.4140625 L 20.4140625, 30.4140625 L 19.4140625, 30.4140625 L 19.4140625, 29.4140625 L 19.4140625, 28.4140625 L 18.4140625, 28.4140625 L 18.4140625, 29.4140625 L 17.4140625, 29.4140625 L 17.4140625, 30.4140625 L 18.4140625, 30.4140625 L 18.4140625, 31.4140625 L 17.4140625, 31.4140625 L 16.4140625, 31.4140625 L 16.4140625, 32.4140625 L 17.4140625, 32.4140625 L 17.4140625, 33.4140625 L 18.4140625, 33.4140625 L 18.4140625, 32.4140625 L 19.4140625, 32.4140625 L 19.4140625, 33.4140625 L 19.4140625, 34.4140625 L 20.4140625, 34.4140625 L 20.4140625, 33.4140625 L 21.4140625, 33.4140625 L 21.4140625, 34.4140625 L 22.4140625, 34.4140625 L 22.4140625, 35.4140625 L 21.4140625, 35.4140625 L 20.4140625, 35.4140625 L 20.4140625, 36.4140625 L 21.4140625, 36.4140625 L 21.414062499999996, 37.4140625 L 22.414062499999996, 37.4140625 L 22.4140625, 36.4140625 L 23.4140625, 36.4140625 L 23.414062499999996, 37.4140625 L 23.414062499999996, 38.4140625 L 24.414062499999996, 38.4140625 L 24.4140625, 37.4140625 L 25.4140625, 37.4140625 L 25.4140625, 36.4140625 L 24.4140625, 36.4140625 L 24.4140625, 35.4140625 L 25.4140625, 35.4140625 L 26.4140625, 35.4140625 L 26.4140625, 34.4140625 L 25.4140625, 34.4140625 L 25.4140625, 33.4140625 L 26.4140625, 33.4140625 L 26.4140625, 32.4140625 L 27.4140625, 32.4140625 L 27.4140625, 33.4140625 L 27.4140625, 34.4140625 L 28.4140625, 34.4140625 L 28.4140625, 33.4140625 L 29.4140625, 33.4140625 L 29.4140625, 34.4140625 L 30.4140625, 34.4140625 L 30.4140625, 35.4140625 L 29.4140625, 35.4140625 L 28.4140625, 35.4140625 L 28.4140625, 36.4140625 L 29.4140625, 36.4140625 L 29.4140625, 37.4140625 L 29.4140625, 38.4140625 L 30.4140625, 38.4140625 L 30.4140625, 39.4140625 L 29.4140625, 39.4140625 L 28.4140625, 39.4140625 L 28.4140625, 40.4140625 L 29.4140625, 40.4140625 L 29.4140625, 41.4140625 L 30.4140625, 41.4140625 L 30.4140625, 40.4140625 L 31.4140625, 40.4140625 L 31.4140625, 41.4140625 L 31.4140625, 42.4140625 L 32.4140625, 42.4140625 L 32.4140625, 41.4140625 L 33.4140625, 41.4140625 L 33.4140625, 40.4140625 L 32.4140625, 40.4140625 L 32.4140625, 39.4140625 L 33.4140625, 39.4140625 L 34.4140625, 39.4140625 L 34.4140625, 38.4140625 L 33.4140625, 38.4140625 L 33.4140625, 37.4140625 L 34.4140625, 37.4140625 L 34.4140625, 36.4140625 L 35.4140625, 36.4140625 L 35.4140625, 37.4140625 L 35.4140625, 38.4140625 L 36.4140625, 38.4140625 L 36.4140625, 37.4140625 L 37.4140625, 37.4140625 L 37.4140625, 38.4140625 L 38.4140625, 38.4140625 L 38.4140625, 39.4140625 L 37.4140625, 39.4140625 L 36.4140625, 39.4140625 L 36.4140625, 40.4140625 L 37.4140625, 40.4140625 L 37.4140625, 41.4140625 L 38.4140625, 41.4140625 L 38.4140625, 40.4140625 L 39.4140625, 40.4140625 L 39.4140625, 41.4140625 L 39.4140625, 42.4140625 L 40.4140625, 42.4140625 L 40.4140625, 41.4140625 L 41.4140625, 41.4140625 L 41.4140625, 42.4140625 L 42.4140625, 42.4140625 L 42.4140625, 43.4140625 L 41.4140625, 43.4140625 L 40.4140625, 43.4140625 L 40.4140625, 44.4140625 L 41.4140625, 44.4140625 L 41.4140625, 45.4140625 L 40.4140625, 45.4140625 L 40.4140625, 46.4140625 L 39.4140625, 46.4140625 L 39.4140625, 45.4140625 L 39.4140625, 44.4140625 L 38.4140625, 44.4140625 L 38.4140625, 45.4140625 L 37.4140625, 45.4140625 L 36.4140625, 45.4140625 L 36.4140625, 46.4140625 L 35.4140625, 46.4140625 L 35.4140625, 45.4140625 L 35.4140625, 44.4140625 L 34.4140625, 44.4140625 L 34.4140625, 45.4140625 L 33.4140625, 45.4140625 L 33.4140625, 46.4140625 L 34.4140625, 46.4140625 L 34.4140625, 47.4140625 L 33.4140625, 47.4140625 L 32.4140625, 47.4140625 L 32.4140625, 48.4140625 L 33.4140625, 48.4140625 L 33.4140625, 49.4140625 L 34.4140625, 49.4140625 L 34.4140625, 48.4140625 L 35.4140625, 48.4140625 L 35.4140625, 49.4140625 L 35.4140625, 50.4140625 L 36.4140625, 50.4140625 L 36.4140625, 49.4140625 L 37.4140625, 49.4140625 L 37.4140625, 50.4140625 L 38.4140625, 50.4140625 L 38.4140625, 51.4140625 L 37.4140625, 51.4140625 L 36.4140625, 51.4140625 L 36.4140625, 52.4140625 L 37.4140625, 52.4140625 L 37.4140625, 53.4140625 L 36.4140625, 53.4140625 L 36.4140625, 54.4140625 L 35.4140625, 54.4140625 L 35.4140625, 53.4140625 L 35.4140625, 52.4140625 L 34.4140625, 52.4140625 L 34.4140625, 53.4140625 L 33.4140625, 53.4140625 L 33.4140625, 54.4140625 L 34.4140625, 54.4140625 L 34.4140625, 55.4140625 L 33.4140625, 55.4140625 L 32.4140625, 55.4140625 L 32.4140625, 56.4140625 L 33.4140625, 56.4140625 L 33.4140625, 57.4140625 L 32.4140625, 57.4140625 L 32.4140625, 58.4140625 L 31.4140625, 58.4140625 L 31.4140625, 57.4140625 L 31.4140625, 56.4140625 L 30.4140625, 56.4140625 L 30.4140625, 57.4140625 L 29.4140625, 57.4140625 L 29.4140625, 56.4140625 L 28.4140625, 56.4140625 L 28.4140625, 55.4140625 L 29.4140625, 55.4140625 L 30.4140625, 55.4140625 L 30.4140625, 54.4140625 L 29.4140625, 54.4140625 L 29.4140625, 53.4140625 L 29.4140625, 52.4140625 L 28.4140625, 52.4140625 L 28.4140625, 51.4140625 L 29.4140625, 51.4140625 L 30.4140625, 51.4140625 L 30.4140625, 50.4140625 L 29.4140625, 50.4140625 L 29.4140625, 49.4140625 L 28.4140625, 49.4140625 L 28.4140625, 50.4140625 L 27.4140625, 50.4140625 L 27.4140625, 49.4140625 L 27.4140625, 48.4140625 L 26.4140625, 48.4140625 L 26.4140625, 49.4140625 L 25.4140625, 49.4140625 L 25.4140625, 50.4140625 L 26.4140625, 50.4140625 L 26.4140625, 51.4140625 L 25.4140625, 51.4140625 L 24.4140625, 51.4140625 L 24.4140625, 52.4140625 L 25.4140625, 52.4140625 L 25.4140625, 53.4140625 L 24.4140625, 53.4140625 L 24.4140625, 54.4140625 L 23.4140625, 54.4140625 L 23.4140625, 53.4140625 L 23.4140625, 52.4140625 L 22.4140625, 52.4140625 L 22.4140625, 53.4140625 L 21.4140625, 53.4140625 L 20.4140625, 53.4140625 L 20.4140625, 54.4140625 L 19.4140625, 54.4140625 L 19.4140625, 53.4140625 L 19.4140625, 52.4140625 L 18.4140625, 52.4140625 L 18.4140625, 53.4140625 L 17.4140625, 53.4140625 L 17.4140625, 54.4140625 L 18.4140625, 54.4140625 L 18.4140625, 55.4140625 L 17.4140625, 55.4140625 L 16.4140625, 55.4140625 L 16.4140625, 56.4140625 L 17.4140625, 56.4140625 L 17.4140625, 57.4140625 L 16.4140625, 57.4140625 L 16.4140625, 58.4140625 L 15.4140625, 58.4140625 L 15.4140625, 57.4140625 L 15.4140625, 56.4140625 L 14.4140625, 56.4140625 L 14.4140625, 57.4140625 L 13.4140625, 57.4140625 L 13.4140625, 56.4140625 L 12.4140625, 56.4140625 L 12.4140625, 55.4140625 L 13.4140625, 55.4140625 L 14.4140625, 55.4140625 L 14.4140625, 54.4140625 L 13.4140625, 54.4140625 L 13.4140625, 53.4140625 L 13.4140625, 52.4140625 L 12.4140625, 52.4140625 L 12.4140625, 51.4140625 L 13.4140625, 51.4140625 L 14.4140625, 51.4140625 L 14.4140625, 50.4140625 L 13.4140625, 50.4140625 L 13.4140625, 49.4140625 L 12.4140625, 49.4140625 L 12.4140625, 50.4140625 L 11.4140625, 50.4140625 L 11.4140625, 49.4140625 L 11.4140625, 48.4140625 L 10.4140625, 48.4140625 L 10.4140625, 49.4140625 L 9.4140625, 49.4140625 L 9.4140625, 50.4140625 L 10.4140625, 50.4140625 L 10.4140625, 51.4140625 L 9.4140625, 51.4140625 L 8.4140625, 51.4140625 L 8.4140625, 52.4140625 L 9.4140625, 52.4140625 L 9.4140625, 53.4140625 L 8.4140625, 53.4140625 L 8.4140625, 54.4140625 L 7.4140625, 54.4140625 L 7.4140625, 53.4140625 L 7.4140625, 52.4140625 L 6.4140625, 52.4140625 L 6.4140625, 53.4140625 L 5.4140625, 53.4140625 L 5.4140625, 54.4140625 L 6.4140625, 54.4140625 L 6.4140625, 55.4140625 L 5.4140625, 55.4140625 L 4.4140625, 55.4140625 L 4.4140625, 56.4140625 L 5.4140625, 56.4140625 L 5.4140625, 57.4140625 L 6.4140625, 57.4140625 L 6.4140625, 56.4140625 L 7.4140625, 56.4140625 L 7.4140625, 57.4140625 L 7.4140625, 58.4140625 L 8.4140625, 58.4140625 L 8.4140625, 57.4140625 L 9.4140625, 57.4140625 L 9.4140625, 58.4140625 L 10.4140625, 58.4140625 L 10.4140625, 59.4140625 L 9.4140625, 59.4140625 L 8.4140625, 59.4140625 L 8.4140625, 60.4140625 L 9.4140625, 60.4140625 L 9.4140625, 61.4140625 L 8.4140625, 61.4140625 L 8.4140625, 62.4140625 L 7.4140625, 62.4140625 L 7.4140625, 61.4140625 L 7.4140625, 60.4140625 L 6.4140625, 60.4140625 L 6.4140625, 61.4140625 L 5.4140625, 61.4140625 L 4.4140625, 61.4140625 L 4.4140625, 62.4140625 L 3.4140625, 62.4140625 L 3.4140625, 61.4140625 L 3.4140625, 60.4140625 L 2.4140625, 60.4140625 L 2.4140625, 61.4140625 L 1.4140625, 61.4140625 L 1.4140625, 62.4140625 L 2.4140625, 62.4140625 L 2.4140625, 63.4140625 L 1.4140625, 63.4140625 L 0.4140625, 63.4140625 L 0.4140625, 64.4140625 L 1.4140625, 64.4140625 L 1.4140625, 65.4140625 L 2.4140625, 65.4140625 L 2.4140625, 64.4140625 L 3.4140625, 64.4140625 L 3.4140625, 65.4140625 L 3.4140625, 66.4140625 L 4.4140625, 66.4140625 L 4.4140625, 65.4140625 L 5.4140625, 65.4140625 L 5.4140625, 66.4140625 L 6.4140625, 66.4140625 L 6.4140625, 67.4140625 L 5.4140625, 67.4140625 L 4.4140625, 67.4140625 L 4.4140625, 68.4140625 L 5.4140625, 68.4140625 L 5.4140625, 69.4140625 L 6.4140625, 69.4140625 L 6.4140625, 68.4140625 L 7.4140625, 68.4140625 L 7.4140625, 69.4140625 L 7.4140625, 70.4140625 L 8.4140625, 70.4140625 L 8.4140625, 69.4140625 L 9.4140625, 69.4140625 L 9.4140625, 68.4140625 L 8.4140625, 68.4140625 L 8.4140625, 67.4140625 L 9.4140625, 67.4140625 L 10.4140625, 67.4140625 L 10.4140625, 66.4140625 L 9.4140625, 66.4140625 L 9.4140625, 65.4140625 L 10.4140625, 65.4140625 L 10.4140625, 64.4140625 L 11.4140625, 64.4140625 L 11.4140625, 65.4140625 L 11.4140625, 66.4140625 L 12.4140625, 66.4140625 L 12.4140625, 65.4140625 L 13.4140625, 65.4140625 L 13.4140625, 66.4140625 L 14.4140625, 66.4140625 L 14.4140625, 67.4140625 L 13.4140625, 67.4140625 L 12.4140625, 67.4140625 L 12.4140625, 68.4140625 L 13.4140625, 68.4140625 L 13.4140625, 69.4140625 L 13.4140625, 70.4140625 L 14.4140625, 70.4140625 L 14.4140625, 71.4140625 L 13.4140625, 71.4140625 L 12.4140625, 71.4140625 L 12.4140625, 72.4140625 L 13.4140625, 72.4140625 L 13.4140625, 73.4140625 L 14.4140625, 73.4140625 L 14.4140625, 72.4140625 L 15.4140625, 72.4140625 L 15.4140625, 73.4140625 L 15.4140625, 74.4140625 L 16.4140625, 74.4140625 L 16.4140625, 73.4140625 L 17.4140625, 73.4140625 L 17.4140625, 72.4140625 L 16.4140625, 72.4140625 L 16.4140625, 71.4140625 L 17.4140625, 71.4140625 L 18.4140625, 71.4140625 L 18.4140625, 70.4140625 L 17.4140625, 70.4140625 L 17.4140625, 69.4140625 L 18.4140625, 69.4140625 L 18.4140625, 68.4140625 L 19.4140625, 68.4140625 L 19.4140625, 69.4140625 L 19.4140625, 70.4140625 L 20.4140625, 70.4140625 L 20.4140625, 69.4140625 L 21.4140625, 69.4140625 L 21.4140625, 70.4140625 L 22.4140625, 70.4140625 L 22.4140625, 71.4140625 L 21.4140625, 71.4140625 L 20.4140625, 71.4140625 L 20.4140625, 72.4140625 L 21.4140625, 72.4140625 L 21.4140625, 73.4140625 L 22.4140625, 73.4140625 L 22.4140625, 72.4140625 L 23.4140625, 72.4140625 L 23.4140625, 73.4140625 L 23.4140625, 74.4140625 L 24.4140625, 74.4140625 L 24.4140625, 73.4140625 L 25.4140625, 73.4140625 L 25.4140625, 74.4140625 L 26.4140625, 74.4140625 L 26.4140625, 75.4140625 L 25.4140625, 75.4140625 L 24.4140625, 75.4140625 L 24.4140625, 76.4140625 L 25.4140625, 76.4140625 L 25.4140625, 77.4140625 L 24.4140625, 77.4140625 L 24.4140625, 78.4140625 L 23.4140625, 78.4140625 L 23.4140625, 77.4140625 L 23.4140625, 76.4140625 L 22.4140625, 76.4140625 L 22.4140625, 77.4140625 L 21.4140625, 77.4140625 L 20.4140625, 77.4140625 L 20.4140625, 78.4140625 L 19.4140625, 78.4140625 L 19.4140625, 77.4140625 L 19.4140625, 76.4140625 L 18.4140625, 76.4140625 L 18.4140625, 77.4140625 L 17.4140625, 77.4140625 L 17.4140625, 78.4140625 L 18.4140625, 78.4140625 L 18.4140625, 79.4140625 L 17.4140625, 79.4140625 L 16.4140625, 79.4140625 L 16.4140625, 80.4140625 L 17.4140625, 80.4140625 L 17.4140625, 81.4140625 L 18.4140625, 81.4140625 L 18.414062500000004, 80.4140625 L 19.414062500000004, 80.4140625 L 19.414062500000004, 81.4140625 L 19.4140625, 82.4140625 L 20.4140625, 82.4140625 L 20.414062500000004, 81.4140625 L 21.414062500000004, 81.4140625 L 21.414062500000004, 82.4140625 L 22.414062500000004, 82.4140625 L 22.4140625, 83.4140625 L 21.4140625, 83.4140625 L 20.4140625, 83.4140625 L 20.4140625, 84.4140625 L 21.4140625, 84.4140625 L 21.4140625, 85.4140625" />

  </g>

</svg>
