<?xml version="1.0" encoding="UTF-8" standalone="no"?>

<svg
    xmlns="http://www.w3.org/2000/svg"
    width="9.070312500000005"
    height="10.462617345413264"
    id="koch-island-02.svg"
    version="1.0">

<!-- viewbox="-0.03515625000000535 -7.829384884059947 9.03515625 2.633232461353316" -->

  <g 
    style="stroke:black; stroke-width:0.03515625000000002; stroke-opacity:1; fill:none" 
    id="layer1">

    <path d="M 0.03515625000000535, 2.633232461353317 L 1.0351562500000053, 2.633232461353317 L 1.5351562500000053, 1.7672070575688785 L 2.0351562500000053, 2.633232461353317 L 3.0351562500000053, 2.633232461353317 L 3.5351562500000053, 1.7672070575688785 L 3.0351562500000053, 0.9011816537844393 L 4.035156250000005, 0.9011816537844393 L 4.535156250000005, 0.03515625 L 5.035156250000005, 0.9011816537844393 L 6.035156250000005, 0.9011816537844393 L 5.535156250000005, 1.7672070575688785 L 6.035156250000005, 2.633232461353317 L 7.035156250000005, 2.633232461353317 L 7.535156250000005, 1.7672070575688785 L 8.035156250000005, 2.633232461353317 L 9.035156250000005, 2.633232461353317 L 8.535156250000005, 3.4992578651377553 L 9.035156250000005, 4.3652832689221945 L 8.035156250000005, 4.3652832689221945 L 7.535156250000005, 5.231308672706633 L 8.035156250000005, 6.097334076491071 L 9.035156250000005, 6.097334076491072 L 8.535156250000005, 6.9633594802755105 L 9.035156250000005, 7.829384884059949 L 8.035156250000005, 7.829384884059949 L 7.535156250000005, 8.695410287844387 L 7.035156250000005, 7.829384884059949 L 6.035156250000005, 7.829384884059949 L 5.535156250000005, 8.695410287844387 L 6.035156250000005, 9.561435691628827 L 5.035156250000005, 9.561435691628827 L 4.535156250000005, 10.427461095413264 L 4.035156250000005, 9.561435691628827 L 3.035156250000005, 9.561435691628827 L 3.5351562500000044, 8.695410287844386 L 3.035156250000004, 7.829384884059948 L 2.035156250000004, 7.829384884059948 L 1.5351562500000038, 8.695410287844386 L 1.0351562500000033, 7.829384884059948 L 0.03515625000000335, 7.829384884059948 L 0.5351562500000027, 6.963359480275509 L 0.03515625000000224, 6.09733407649107 L 1.0351562500000022, 6.0973340764910695 L 1.5351562500000016, 5.23130867270663 L 1.035156250000001, 4.365283268922192 L 0.03515625000000113, 4.365283268922192 L 0.5351562500000004, 3.4992578651377535 L 0.03515625000000002, 2.6332324613533142" />

  </g>

</svg>
