<?xml version="1.0" encoding="UTF-8" standalone="no"?>

<svg
    xmlns="http://www.w3.org/2000/svg"
    width="27.2109375"
    height="8.005166134059952"
    id="koch-line-03.svg"
    version="1.0">

<!-- viewbox="-0.10546875 -0.10546875 27.10546875 7.899697384059952" -->

  <g 
    style="stroke:black; stroke-width:0.10546875; stroke-opacity:1; fill:none" 
    id="layer1">

    <path d="M 0.10546875, 7.899697384059952 L 1.10546875, 7.899697384059952 L 1.60546875, 7.033671980275513 L 2.10546875, 7.899697384059952 L 3.10546875, 7.899697384059952 L 3.60546875, 7.033671980275513 L 3.10546875, 6.167646576491075 L 4.10546875, 6.167646576491075 L 4.60546875, 5.301621172706636 L 5.10546875, 6.167646576491074 L 6.10546875, 6.167646576491074 L 5.60546875, 7.033671980275513 L 6.10546875, 7.899697384059952 L 7.10546875, 7.899697384059952 L 7.60546875, 7.033671980275513 L 8.10546875, 7.899697384059952 L 9.10546875, 7.899697384059952 L 9.60546875, 7.033671980275513 L 9.10546875, 6.167646576491074 L 10.10546875, 6.167646576491074 L 10.60546875, 5.301621172706636 L 10.10546875, 4.435595768922196 L 9.10546875, 4.435595768922196 L 9.60546875, 3.569570365137758 L 9.10546875, 2.7035449613533196 L 10.10546875, 2.7035449613533196 L 10.60546875, 1.8375195575688803 L 11.10546875, 2.7035449613533187 L 12.10546875, 2.703544961353318 L 12.60546875, 1.8375195575688785 L 12.10546875, 0.9714941537844402 L 13.10546875, 0.9714941537844393 L 13.60546875, 0.10546875 L 14.10546875, 0.9714941537844384 L 15.10546875, 0.9714941537844375 L 14.60546875, 1.8375195575688767 L 15.10546875, 2.703544961353315 L 16.10546875, 2.7035449613533142 L 16.60546875, 1.837519557568875 L 17.10546875, 2.7035449613533133 L 18.10546875, 2.7035449613533125 L 17.60546875, 3.5695703651377517 L 18.10546875, 4.43559576892219 L 17.10546875, 4.435595768922191 L 16.60546875, 5.30162117270663 L 17.10546875, 6.167646576491069 L 18.10546875, 6.167646576491068 L 17.60546875, 7.033671980275507 L 18.10546875, 7.899697384059945 L 19.10546875, 7.899697384059945 L 19.60546875, 7.033671980275506 L 20.10546875, 7.8996973840599445 L 21.10546875, 7.8996973840599445 L 21.60546875, 7.033671980275505 L 21.10546875, 6.167646576491067 L 22.10546875, 6.167646576491066 L 22.60546875, 5.301621172706628 L 23.10546875, 6.167646576491066 L 24.10546875, 6.167646576491066 L 23.60546875, 7.033671980275504 L 24.10546875, 7.899697384059943 L 25.10546875, 7.899697384059943 L 25.60546875, 7.033671980275503 L 26.10546875, 7.899697384059942 L 27.10546875, 7.899697384059942" />

  </g>

</svg>
