<?xml version="1.0" encoding="UTF-8" standalone="no"?>

<svg
    xmlns="http://www.w3.org/2000/svg"
    width="64.5"
    height="55.05960043841971"
    id="sierpinski-05.svg"
    version="1.0">

<!-- viewbox="-0.25 -0.25000000000002287 64.25 54.809600438419686" -->

  <g 
    style="stroke:black; stroke-width:0.25; stroke-opacity:1; fill:none" 
    id="layer1">

    <path d="M 0.25, 54.809600438419686 L 1.25, 54.809600438419686 L 1.75, 53.943575034635245 L 1.2500000000000002, 53.077549630850804 L 1.7500000000000004, 52.21152422706637 L 2.7500000000000004, 52.21152422706637 L 3.2500000000000004, 53.077549630850804 L 2.750000000000001, 53.943575034635245 L 3.250000000000001, 54.809600438419686 L 4.250000000000001, 54.809600438419686 L 4.750000000000001, 53.943575034635245 L 5.750000000000001, 53.943575034635245 L 6.250000000000001, 54.809600438419686 L 7.250000000000001, 54.809600438419686 L 7.750000000000001, 53.943575034635245 L 7.250000000000001, 53.077549630850804 L 6.250000000000001, 53.077549630850804 L 5.750000000000001, 52.21152422706637 L 6.250000000000001, 51.34549882328193 L 5.750000000000001, 50.47947341949749 L 4.750000000000001, 50.47947341949749 L 4.25, 51.34549882328193 L 3.25, 51.34549882328193 L 2.75, 50.47947341949749 L 3.2499999999999996, 49.613448015713054 L 4.25, 49.613448015713054 L 4.749999999999999, 48.74742261192861 L 4.249999999999999, 47.88139720814417 L 4.749999999999999, 47.01537180435974 L 5.749999999999999, 47.01537180435974 L 6.25, 47.88139720814417 L 7.25, 47.88139720814417 L 7.75, 47.01537180435973 L 7.25, 46.1493464005753 L 6.25, 46.1493464005753 L 5.75, 45.283320996790856 L 6.25, 44.417295593006415 L 7.25, 44.417295593006415 L 7.75, 43.55127018922198 L 7.25, 42.68524478543754 L 7.75, 41.8192193816531 L 8.75, 41.8192193816531 L 9.25, 42.68524478543754 L 8.75, 43.55127018922198 L 9.25, 44.417295593006415 L 10.25, 44.417295593006415 L 10.75, 45.283320996790856 L 10.25, 46.1493464005753 L 9.25, 46.1493464005753 L 8.75, 47.01537180435973 L 9.25, 47.88139720814417 L 10.25, 47.88139720814417 L 10.75, 47.01537180435973 L 11.75, 47.01537180435973 L 12.25, 47.88139720814417 L 11.75, 48.74742261192861 L 12.25, 49.61344801571305 L 13.25, 49.61344801571305 L 13.75, 50.47947341949749 L 13.25, 51.34549882328193 L 12.25, 51.34549882328193 L 11.749999999999998, 50.47947341949749 L 10.749999999999998, 50.47947341949749 L 10.249999999999998, 51.34549882328193 L 10.749999999999998, 52.21152422706637 L 10.249999999999998, 53.07754963085081 L 9.249999999999998, 53.07754963085081 L 8.749999999999998, 53.943575034635245 L 9.249999999999998, 54.809600438419686 L 10.249999999999998, 54.809600438419686 L 10.749999999999998, 53.943575034635245 L 11.749999999999998, 53.943575034635245 L 12.249999999999998, 54.809600438419686 L 13.249999999999998, 54.809600438419686 L 13.749999999999998, 53.943575034635245 L 13.249999999999998, 53.077549630850804 L 13.749999999999998, 52.21152422706637 L 14.749999999999998, 52.21152422706637 L 15.249999999999998, 53.077549630850804 L 14.749999999999998, 53.943575034635245 L 15.249999999999998, 54.809600438419686 L 16.25, 54.809600438419686 L 16.749999999999996, 53.943575034635245 L 17.749999999999996, 53.943575034635245 L 18.249999999999996, 54.80960043841968 L 19.249999999999996, 54.80960043841968 L 19.749999999999996, 53.943575034635245 L 19.249999999999996, 53.077549630850804 L 18.249999999999996, 53.077549630850804 L 17.749999999999996, 52.21152422706636 L 18.249999999999996, 51.34549882328193 L 19.249999999999996, 51.34549882328193 L 19.749999999999996, 50.47947341949749 L 19.249999999999996, 49.61344801571305 L 19.749999999999996, 48.74742261192861 L 20.749999999999996, 48.74742261192861 L 21.249999999999996, 49.61344801571305 L 20.749999999999996, 50.47947341949749 L 21.249999999999996, 51.34549882328193 L 22.249999999999996, 51.34549882328193 L 22.749999999999996, 52.21152422706636 L 22.249999999999996, 53.077549630850804 L 21.249999999999996, 53.077549630850804 L 20.749999999999996, 53.943575034635245 L 21.249999999999996, 54.80960043841968 L 22.249999999999996, 54.80960043841968 L 22.749999999999996, 53.943575034635245 L 23.749999999999996, 53.943575034635245 L 24.249999999999996, 54.80960043841968 L 25.249999999999996, 54.80960043841968 L 25.749999999999996, 53.94357503463524 L 25.249999999999996, 53.077549630850804 L 25.749999999999996, 52.21152422706636 L 26.749999999999996, 52.21152422706636 L 27.249999999999996, 53.077549630850804 L 26.749999999999996, 53.94357503463524 L 27.249999999999996, 54.80960043841968 L 28.249999999999996, 54.80960043841968 L 28.749999999999996, 53.94357503463524 L 29.749999999999996, 53.94357503463524 L 30.249999999999996, 54.80960043841968 L 31.249999999999996, 54.80960043841968 L 31.749999999999996, 53.94357503463524 L 31.249999999999996, 53.0775496308508 L 30.249999999999996, 53.0775496308508 L 29.749999999999996, 52.21152422706636 L 30.249999999999996, 51.34549882328192 L 29.749999999999996, 50.47947341949748 L 28.749999999999996, 50.47947341949748 L 28.249999999999996, 51.34549882328192 L 27.249999999999996, 51.34549882328192 L 26.749999999999996, 50.47947341949748 L 27.249999999999996, 49.61344801571305 L 28.249999999999996, 49.61344801571305 L 28.749999999999996, 48.747422611928606 L 28.249999999999996, 47.881397208144165 L 27.249999999999996, 47.881397208144165 L 26.749999999999996, 47.01537180435973 L 27.249999999999996, 46.14934640057529 L 26.749999999999996, 45.28332099679085 L 25.749999999999996, 45.28332099679085 L 25.249999999999996, 46.14934640057529 L 25.749999999999996, 47.01537180435973 L 25.249999999999996, 47.881397208144165 L 24.249999999999996, 47.881397208144165 L 23.749999999999996, 47.01537180435973 L 22.749999999999996, 47.01537180435973 L 22.249999999999996, 47.881397208144165 L 21.249999999999996, 47.881397208144165 L 20.749999999999996, 47.01537180435973 L 21.249999999999996, 46.14934640057529 L 22.249999999999996, 46.14934640057529 L 22.749999999999996, 45.28332099679085 L 22.249999999999996, 44.41729559300641 L 22.749999999999996, 43.55127018922197 L 23.749999999999996, 43.55127018922197 L 24.249999999999996, 44.41729559300641 L 25.249999999999996, 44.41729559300641 L 25.749999999999996, 43.55127018922197 L 25.249999999999996, 42.68524478543753 L 24.249999999999996, 42.68524478543753 L 23.749999999999996, 41.81921938165309 L 24.249999999999996, 40.95319397786865 L 23.749999999999996, 40.08716857408422 L 22.749999999999996, 40.08716857408422 L 22.249999999999996, 40.95319397786865 L 21.249999999999996, 40.95319397786865 L 20.749999999999996, 40.08716857408422 L 21.249999999999996, 39.221143170299776 L 22.249999999999996, 39.221143170299776 L 22.749999999999996, 38.355117766515335 L 22.249999999999996, 37.4890923627309 L 21.249999999999996, 37.4890923627309 L 20.749999999999996, 36.62306695894647 L 21.249999999999996, 35.757041555162026 L 20.749999999999996, 34.891016151377585 L 19.749999999999996, 34.891016151377585 L 19.249999999999996, 35.757041555162026 L 19.749999999999996, 36.62306695894647 L 19.249999999999996, 37.4890923627309 L 18.249999999999996, 37.4890923627309 L 17.749999999999996, 38.355117766515335 L 18.249999999999996, 39.221143170299776 L 19.249999999999996, 39.221143170299776 L 19.749999999999996, 40.08716857408422 L 19.249999999999996, 40.95319397786866 L 18.249999999999996, 40.95319397786866 L 17.749999999999996, 40.08716857408422 L 16.749999999999996, 40.08716857408422 L 16.249999999999996, 40.95319397786866 L 15.249999999999996, 40.95319397786866 L 14.749999999999996, 40.08716857408422 L 15.249999999999996, 39.221143170299776 L 14.749999999999996, 38.35511776651534 L 13.749999999999996, 38.35511776651534 L 13.249999999999996, 39.22114317029978 L 13.749999999999996, 40.08716857408422 L 13.249999999999996, 40.95319397786866 L 12.249999999999996, 40.95319397786866 L 11.749999999999996, 40.08716857408422 L 10.749999999999996, 40.08716857408422 L 10.249999999999996, 40.95319397786866 L 9.249999999999996, 40.95319397786866 L 8.749999999999996, 40.08716857408422 L 9.249999999999996, 39.22114317029978 L 10.249999999999996, 39.22114317029978 L 10.749999999999996, 38.35511776651534 L 10.249999999999996, 37.4890923627309 L 10.749999999999996, 36.62306695894647 L 11.749999999999996, 36.62306695894647 L 12.249999999999996, 37.4890923627309 L 13.249999999999996, 37.4890923627309 L 13.749999999999996, 36.62306695894647 L 13.249999999999996, 35.75704155516203 L 12.249999999999996, 35.75704155516203 L 11.749999999999996, 34.89101615137759 L 12.249999999999996, 34.02499074759315 L 13.249999999999996, 34.02499074759315 L 13.749999999999996, 33.15896534380872 L 13.249999999999996, 32.29293994002428 L 13.749999999999996, 31.426914536239842 L 14.749999999999996, 31.426914536239842 L 15.249999999999996, 32.29293994002428 L 14.749999999999996, 33.15896534380872 L 15.249999999999996, 34.02499074759315 L 16.249999999999996, 34.02499074759315 L 16.749999999999996, 33.15896534380872 L 17.749999999999996, 33.15896534380872 L 18.249999999999996, 34.02499074759315 L 19.249999999999996, 34.02499074759315 L 19.749999999999996, 33.15896534380872 L 19.249999999999996, 32.29293994002428 L 18.249999999999996, 32.29293994002428 L 17.749999999999996, 31.426914536239842 L 18.249999999999996, 30.560889132455404 L 17.749999999999996, 29.694863728670967 L 16.749999999999996, 29.694863728670967 L 16.249999999999996, 30.560889132455404 L 15.249999999999996, 30.560889132455404 L 14.749999999999996, 29.694863728670967 L 15.249999999999996, 28.82883832488653 L 16.249999999999996, 28.82883832488653 L 16.749999999999996, 27.962812921102092 L 16.249999999999996, 27.096787517317654 L 16.749999999999996, 26.230762113533217 L 17.749999999999996, 26.230762113533217 L 18.249999999999996, 27.096787517317654 L 19.249999999999996, 27.096787517317654 L 19.749999999999996, 26.230762113533217 L 19.249999999999996, 25.36473670974878 L 18.249999999999996, 25.36473670974878 L 17.749999999999996, 24.498711305964342 L 18.249999999999996, 23.632685902179905 L 19.249999999999996, 23.632685902179905 L 19.749999999999996, 22.766660498395467 L 19.249999999999996, 21.900635094611026 L 19.749999999999996, 21.034609690826585 L 20.749999999999996, 21.034609690826585 L 21.249999999999996, 21.900635094611026 L 20.749999999999996, 22.766660498395467 L 21.249999999999996, 23.632685902179905 L 22.249999999999996, 23.632685902179905 L 22.749999999999996, 24.498711305964342 L 22.249999999999996, 25.36473670974878 L 21.249999999999996, 25.36473670974878 L 20.749999999999996, 26.230762113533217 L 21.249999999999996, 27.096787517317654 L 22.249999999999996, 27.096787517317654 L 22.749999999999996, 26.230762113533217 L 23.749999999999996, 26.230762113533217 L 24.249999999999996, 27.096787517317654 L 25.249999999999996, 27.096787517317654 L 25.749999999999996, 26.230762113533217 L 25.249999999999996, 25.36473670974878 L 25.749999999999996, 24.498711305964342 L 26.749999999999996, 24.498711305964342 L 27.249999999999996, 25.36473670974878 L 26.749999999999996, 26.230762113533217 L 27.249999999999996, 27.096787517317654 L 28.249999999999996, 27.096787517317654 L 28.749999999999996, 26.230762113533217 L 29.749999999999996, 26.230762113533217 L 30.249999999999996, 27.096787517317654 L 31.249999999999996, 27.096787517317654 L 31.749999999999996, 26.230762113533217 L 31.249999999999996, 25.36473670974878 L 30.249999999999996, 25.36473670974878 L 29.749999999999996, 24.498711305964342 L 30.249999999999996, 23.632685902179905 L 29.749999999999996, 22.766660498395467 L 28.749999999999996, 22.766660498395467 L 28.249999999999996, 23.632685902179905 L 27.249999999999996, 23.632685902179905 L 26.749999999999996, 22.766660498395467 L 27.249999999999996, 21.900635094611026 L 28.249999999999996, 21.900635094611026 L 28.749999999999996, 21.034609690826585 L 28.249999999999996, 20.168584287042144 L 27.249999999999996, 20.168584287042144 L 26.749999999999996, 19.302558883257703 L 27.249999999999996, 18.436533479473262 L 26.749999999999996, 17.57050807568882 L 25.749999999999996, 17.57050807568882 L 25.249999999999996, 18.436533479473262 L 25.749999999999996, 19.302558883257703 L 25.249999999999996, 20.168584287042144 L 24.249999999999996, 20.168584287042144 L 23.749999999999996, 19.302558883257703 L 22.749999999999996, 19.302558883257703 L 22.249999999999996, 20.168584287042144 L 21.249999999999996, 20.168584287042144 L 20.749999999999996, 19.302558883257703 L 21.249999999999996, 18.436533479473262 L 22.249999999999996, 18.436533479473262 L 22.749999999999996, 17.57050807568882 L 22.249999999999996, 16.70448267190438 L 22.749999999999996, 15.838457268119939 L 23.749999999999996, 15.838457268119939 L 24.249999999999996, 16.70448267190438 L 25.249999999999996, 16.70448267190438 L 25.749999999999996, 15.838457268119939 L 25.249999999999996, 14.972431864335498 L 24.249999999999996, 14.972431864335498 L 23.749999999999996, 14.106406460551057 L 24.249999999999996, 13.240381056766616 L 25.249999999999996, 13.240381056766616 L 25.749999999999996, 12.374355652982175 L 25.249999999999996, 11.508330249197734 L 25.749999999999996, 10.642304845413292 L 26.749999999999996, 10.642304845413292 L 27.249999999999996, 11.508330249197734 L 26.749999999999996, 12.374355652982175 L 27.249999999999996, 13.240381056766616 L 28.249999999999996, 13.240381056766616 L 28.749999999999996, 12.374355652982175 L 29.749999999999996, 12.374355652982175 L 30.249999999999996, 13.240381056766616 L 31.249999999999996, 13.240381056766616 L 31.749999999999996, 12.374355652982175 L 31.249999999999996, 11.508330249197734 L 30.249999999999996, 11.508330249197734 L 29.749999999999996, 10.642304845413292 L 30.249999999999996, 9.776279441628851 L 29.749999999999996, 8.91025403784441 L 28.749999999999996, 8.91025403784441 L 28.249999999999996, 9.776279441628851 L 27.249999999999996, 9.776279441628851 L 26.749999999999996, 8.91025403784441 L 27.249999999999996, 8.04422863405997 L 28.249999999999996, 8.04422863405997 L 28.749999999999996, 7.178203230275528 L 28.249999999999996, 6.312177826491087 L 28.749999999999996, 5.446152422706646 L 29.749999999999996, 5.446152422706646 L 30.249999999999996, 6.312177826491087 L 31.249999999999996, 6.312177826491087 L 31.749999999999996, 5.446152422706646 L 31.249999999999996, 4.580127018922205 L 30.249999999999996, 4.580127018922205 L 29.749999999999996, 3.714101615137764 L 30.249999999999996, 2.848076211353323 L 31.249999999999996, 2.848076211353323 L 31.749999999999996, 1.982050807568882 L 31.249999999999996, 1.116025403784441 L 31.749999999999996, 0.25 L 32.75, 0.25 L 33.25, 1.116025403784441 L 32.75, 1.982050807568882 L 33.25, 2.848076211353323 L 34.25, 2.848076211353323 L 34.75, 3.714101615137764 L 34.25, 4.580127018922205 L 33.25, 4.580127018922205 L 32.75, 5.446152422706646 L 33.25, 6.312177826491087 L 34.25, 6.312177826491087 L 34.75, 5.446152422706646 L 35.75, 5.446152422706646 L 36.25, 6.312177826491087 L 35.75, 7.178203230275528 L 36.25, 8.04422863405997 L 37.25, 8.04422863405997 L 37.75, 8.91025403784441 L 37.25, 9.776279441628851 L 36.25, 9.776279441628851 L 35.75, 8.91025403784441 L 34.75, 8.91025403784441 L 34.25, 9.776279441628851 L 34.75, 10.642304845413292 L 34.25, 11.508330249197734 L 33.25, 11.508330249197734 L 32.75, 12.374355652982175 L 33.25, 13.240381056766616 L 34.25, 13.240381056766616 L 34.75, 12.374355652982175 L 35.75, 12.374355652982175 L 36.25, 13.240381056766616 L 37.25, 13.240381056766616 L 37.75, 12.374355652982175 L 37.25, 11.508330249197734 L 37.75, 10.642304845413292 L 38.75, 10.642304845413292 L 39.25, 11.508330249197734 L 38.75, 12.374355652982175 L 39.25, 13.240381056766616 L 40.25, 13.240381056766616 L 40.75, 14.106406460551057 L 40.25, 14.972431864335498 L 39.25, 14.972431864335498 L 38.75, 15.838457268119939 L 39.25, 16.70448267190438 L 40.25, 16.70448267190438 L 40.75, 15.838457268119939 L 41.75, 15.838457268119939 L 42.25, 16.70448267190438 L 41.75, 17.57050807568882 L 42.25, 18.436533479473262 L 43.25, 18.436533479473262 L 43.75, 19.302558883257703 L 43.25, 20.168584287042144 L 42.25, 20.168584287042144 L 41.75, 19.302558883257703 L 40.75, 19.302558883257703 L 40.25, 20.168584287042144 L 39.25, 20.168584287042144 L 38.75, 19.302558883257703 L 39.25, 18.436533479473262 L 38.75, 17.57050807568882 L 37.75, 17.57050807568882 L 37.25, 18.436533479473262 L 37.75, 19.302558883257703 L 37.25, 20.168584287042144 L 36.25, 20.168584287042144 L 35.75, 21.034609690826585 L 36.25, 21.900635094611026 L 37.25, 21.900635094611026 L 37.75, 22.766660498395467 L 37.25, 23.632685902179905 L 36.25, 23.632685902179905 L 35.75, 22.766660498395467 L 34.75, 22.766660498395467 L 34.25, 23.632685902179905 L 34.75, 24.498711305964342 L 34.25, 25.36473670974878 L 33.25, 25.36473670974878 L 32.75, 26.230762113533217 L 33.25, 27.096787517317654 L 34.25, 27.096787517317654 L 34.75, 26.230762113533217 L 35.75, 26.230762113533217 L 36.25, 27.096787517317654 L 37.25, 27.096787517317654 L 37.75, 26.230762113533217 L 37.25, 25.36473670974878 L 37.75, 24.498711305964342 L 38.75, 24.498711305964342 L 39.25, 25.36473670974878 L 38.75, 26.230762113533217 L 39.25, 27.096787517317654 L 40.25, 27.096787517317654 L 40.75, 26.230762113533217 L 41.75, 26.230762113533217 L 42.25, 27.096787517317654 L 43.25, 27.096787517317654 L 43.75, 26.230762113533217 L 43.25, 25.36473670974878 L 42.25, 25.36473670974878 L 41.75, 24.498711305964342 L 42.25, 23.632685902179905 L 43.25, 23.632685902179905 L 43.75, 22.766660498395467 L 43.25, 21.900635094611026 L 43.75, 21.034609690826585 L 44.75, 21.034609690826585 L 45.25, 21.900635094611026 L 44.75, 22.766660498395467 L 45.25, 23.632685902179905 L 46.25, 23.632685902179905 L 46.75, 24.498711305964342 L 46.25, 25.36473670974878 L 45.25, 25.36473670974878 L 44.75, 26.230762113533217 L 45.25, 27.096787517317654 L 46.25, 27.096787517317654 L 46.75, 26.230762113533217 L 47.75, 26.230762113533217 L 48.25, 27.096787517317654 L 47.75, 27.962812921102092 L 48.25, 28.82883832488653 L 49.25, 28.82883832488653 L 49.75, 29.694863728670967 L 49.25, 30.560889132455404 L 48.25, 30.560889132455404 L 47.75, 29.694863728670967 L 46.75, 29.694863728670967 L 46.25, 30.560889132455404 L 46.75, 31.426914536239842 L 46.25, 32.29293994002428 L 45.25, 32.29293994002428 L 44.75, 33.15896534380872 L 45.25, 34.02499074759315 L 46.25, 34.02499074759315 L 46.75, 33.15896534380872 L 47.75, 33.15896534380872 L 48.25, 34.02499074759315 L 49.25, 34.02499074759315 L 49.75, 33.15896534380872 L 49.25, 32.29293994002428 L 49.75, 31.426914536239842 L 50.75, 31.426914536239842 L 51.25, 32.29293994002428 L 50.75, 33.15896534380872 L 51.25, 34.02499074759315 L 52.25, 34.02499074759315 L 52.75, 34.89101615137759 L 52.25, 35.75704155516203 L 51.25, 35.75704155516203 L 50.75, 36.62306695894647 L 51.25, 37.4890923627309 L 52.25, 37.4890923627309 L 52.75, 36.62306695894647 L 53.75, 36.62306695894647 L 54.25, 37.4890923627309 L 53.75, 38.35511776651534 L 54.25, 39.221143170299776 L 55.25, 39.221143170299776 L 55.75, 40.08716857408422 L 55.25, 40.95319397786865 L 54.25, 40.95319397786866 L 53.75, 40.08716857408422 L 52.75, 40.08716857408422 L 52.25, 40.95319397786866 L 51.25, 40.953193977868665 L 50.75, 40.087168574084224 L 51.25, 39.22114317029978 L 50.75, 38.35511776651535 L 49.75, 38.35511776651535 L 49.25, 39.22114317029978 L 49.75, 40.087168574084224 L 49.25, 40.953193977868665 L 48.25, 40.953193977868665 L 47.75, 40.08716857408423 L 46.75, 40.08716857408423 L 46.25, 40.95319397786867 L 45.25, 40.95319397786867 L 44.75, 40.08716857408423 L 45.25, 39.2211431702998 L 46.25, 39.2211431702998 L 46.75, 38.355117766515356 L 46.25, 37.489092362730915 L 45.25, 37.489092362730915 L 44.75, 36.62306695894648 L 45.25, 35.75704155516204 L 44.75, 34.8910161513776 L 43.75, 34.8910161513776 L 43.25, 35.75704155516204 L 43.75, 36.62306695894648 L 43.25, 37.489092362730915 L 42.25, 37.489092362730915 L 41.75, 38.35511776651535 L 42.25, 39.22114317029979 L 43.25, 39.22114317029979 L 43.75, 40.087168574084224 L 43.25, 40.953193977868665 L 42.25, 40.953193977868665 L 41.75, 40.08716857408423 L 40.75, 40.08716857408423 L 40.25, 40.95319397786867 L 40.75, 41.819219381653106 L 40.25, 42.68524478543755 L 39.25, 42.68524478543755 L 38.75, 43.55127018922199 L 39.25, 44.41729559300643 L 40.25, 44.41729559300643 L 40.75, 43.55127018922199 L 41.75, 43.55127018922199 L 42.25, 44.41729559300643 L 41.75, 45.28332099679086 L 42.25, 46.149346400575304 L 43.25, 46.149346400575304 L 43.75, 47.015371804359745 L 43.25, 47.881397208144186 L 42.25, 47.881397208144186 L 41.75, 47.015371804359745 L 40.75, 47.015371804359745 L 40.25, 47.881397208144186 L 39.25, 47.881397208144186 L 38.75, 47.01537180435975 L 39.25, 46.14934640057531 L 38.75, 45.28332099679088 L 37.75, 45.28332099679088 L 37.25, 46.14934640057531 L 37.75, 47.01537180435975 L 37.25, 47.88139720814419 L 36.25, 47.88139720814419 L 35.75, 48.747422611928634 L 36.25, 49.61344801571307 L 37.25, 49.61344801571307 L 37.75, 50.47947341949751 L 37.25, 51.34549882328195 L 36.25, 51.34549882328195 L 35.75, 50.47947341949751 L 34.75, 50.47947341949751 L 34.25, 51.34549882328195 L 34.75, 52.21152422706639 L 34.25, 53.077549630850825 L 33.25, 53.07754963085083 L 32.75, 53.943575034635266 L 33.25, 54.80960043841971 L 34.25, 54.80960043841971 L 34.75, 53.943575034635266 L 35.75, 53.943575034635266 L 36.25, 54.80960043841971 L 37.25, 54.80960043841971 L 37.75, 53.943575034635266 L 37.25, 53.077549630850825 L 37.75, 52.21152422706639 L 38.75, 52.21152422706639 L 39.25, 53.077549630850825 L 38.75, 53.943575034635266 L 39.25, 54.80960043841971 L 40.25, 54.80960043841971 L 40.75, 53.943575034635266 L 41.75, 53.943575034635266 L 42.25, 54.8096004384197 L 43.25, 54.8096004384197 L 43.75, 53.943575034635266 L 43.25, 53.077549630850825 L 42.25, 53.077549630850825 L 41.75, 52.211524227066384 L 42.25, 51.34549882328195 L 43.25, 51.34549882328195 L 43.75, 50.47947341949751 L 43.25, 49.61344801571307 L 43.75, 48.74742261192863 L 44.75, 48.74742261192863 L 45.25, 49.61344801571307 L 44.75, 50.47947341949751 L 45.25, 51.34549882328194 L 46.25, 51.34549882328194 L 46.75, 52.211524227066384 L 46.25, 53.077549630850825 L 45.25, 53.077549630850825 L 44.75, 53.943575034635266 L 45.25, 54.8096004384197 L 46.25, 54.8096004384197 L 46.75, 53.943575034635266 L 47.75, 53.94357503463526 L 48.25, 54.8096004384197 L 49.25, 54.8096004384197 L 49.75, 53.94357503463526 L 49.25, 53.077549630850825 L 49.75, 52.211524227066384 L 50.75, 52.211524227066384 L 51.25, 53.077549630850825 L 50.75, 53.94357503463526 L 51.25, 54.8096004384197 L 52.25, 54.8096004384197 L 52.75, 53.94357503463526 L 53.75, 53.94357503463526 L 54.25, 54.8096004384197 L 55.25, 54.8096004384197 L 55.75, 53.94357503463526 L 55.25, 53.07754963085082 L 54.25, 53.07754963085082 L 53.75, 52.211524227066384 L 54.25, 51.34549882328194 L 53.75, 50.4794734194975 L 52.75, 50.4794734194975 L 52.25, 51.34549882328194 L 51.25, 51.34549882328194 L 50.75, 50.4794734194975 L 51.25, 49.61344801571306 L 52.25, 49.61344801571306 L 52.75, 48.74742261192863 L 52.25, 47.881397208144186 L 52.75, 47.015371804359745 L 53.75, 47.015371804359745 L 54.25, 47.881397208144186 L 55.25, 47.881397208144186 L 55.75, 47.015371804359745 L 55.25, 46.14934640057531 L 54.25, 46.14934640057531 L 53.75, 45.28332099679087 L 54.25, 44.41729559300643 L 55.25, 44.41729559300643 L 55.75, 43.55127018922199 L 55.25, 42.68524478543755 L 55.75, 41.81921938165311 L 56.75, 41.81921938165311 L 57.25, 42.68524478543755 L 56.75, 43.55127018922199 L 57.25, 44.41729559300643 L 58.25, 44.41729559300643 L 58.75, 45.28332099679086 L 58.25, 46.149346400575304 L 57.25, 46.149346400575304 L 56.75, 47.015371804359745 L 57.25, 47.881397208144186 L 58.25, 47.88139720814418 L 58.75, 47.015371804359745 L 59.75, 47.015371804359745 L 60.25, 47.88139720814418 L 59.75, 48.74742261192862 L 60.25, 49.61344801571306 L 61.25, 49.61344801571306 L 61.75, 50.479473419497495 L 61.25, 51.345498823281936 L 60.25, 51.345498823281936 L 59.75, 50.4794734194975 L 58.75, 50.4794734194975 L 58.25, 51.34549882328194 L 58.75, 52.21152422706638 L 58.25, 53.07754963085082 L 57.25, 53.07754963085082 L 56.75, 53.94357503463526 L 57.25, 54.80960043841969 L 58.25, 54.80960043841969 L 58.75, 53.94357503463526 L 59.75, 53.94357503463526 L 60.25, 54.80960043841969 L 61.25, 54.80960043841969 L 61.75, 53.94357503463526 L 61.25, 53.07754963085082 L 61.75, 52.21152422706638 L 62.75, 52.21152422706638 L 63.25, 53.07754963085082 L 62.75, 53.94357503463526 L 63.25, 54.80960043841969 L 64.25, 54.80960043841969" />

  </g>

</svg>
