<?xml version="1.0" encoding="UTF-8" standalone="no"?>

<svg
    xmlns="http://www.w3.org/2000/svg"
    width="32.25"
    height="27.096787517317605"
    id="sierpinski-04.svg"
    version="1.0">

<!-- viewbox="-0.125 -0.1250000000000122 32.125 26.971787517317594" -->

  <g 
    style="stroke:black; stroke-width:0.125; stroke-opacity:1; fill:none" 
    id="layer1">

    <path d="M 0.125, 26.971787517317594 L 0.6250000000000001, 26.105762113533153 L 1.625, 26.105762113533153 L 2.125, 26.971787517317594 L 3.125, 26.971787517317594 L 3.625, 26.105762113533153 L 3.125, 25.239736709748716 L 2.125, 25.239736709748716 L 1.6249999999999998, 24.373711305964278 L 2.1249999999999996, 23.507685902179837 L 3.1249999999999996, 23.507685902179837 L 3.624999999999999, 22.641660498395396 L 3.124999999999999, 21.77563509461096 L 3.6249999999999987, 20.90960969082652 L 4.624999999999998, 20.90960969082652 L 5.124999999999998, 21.77563509461096 L 4.624999999999999, 22.6416604983954 L 5.125, 23.507685902179837 L 6.125, 23.507685902179837 L 6.625, 24.373711305964274 L 6.125000000000001, 25.239736709748716 L 5.125000000000001, 25.239736709748716 L 4.625000000000002, 26.105762113533153 L 5.125000000000002, 26.971787517317594 L 6.125000000000002, 26.971787517317594 L 6.625000000000002, 26.105762113533153 L 7.625000000000002, 26.105762113533153 L 8.125000000000002, 26.97178751731759 L 9.125000000000002, 26.97178751731759 L 9.625000000000002, 26.105762113533153 L 9.125000000000002, 25.239736709748712 L 9.625000000000002, 24.373711305964274 L 10.625000000000002, 24.373711305964274 L 11.125000000000002, 25.239736709748712 L 10.625000000000002, 26.105762113533153 L 11.125000000000002, 26.97178751731759 L 12.125000000000002, 26.97178751731759 L 12.625000000000002, 26.10576211353315 L 13.625000000000002, 26.10576211353315 L 14.125000000000002, 26.971787517317587 L 15.125000000000002, 26.971787517317587 L 15.625000000000002, 26.10576211353315 L 15.125000000000002, 25.239736709748712 L 14.125000000000002, 25.239736709748712 L 13.625000000000002, 24.37371130596427 L 14.125000000000002, 23.507685902179833 L 13.625000000000002, 22.641660498395396 L 12.625000000000002, 22.641660498395396 L 12.125000000000002, 23.507685902179833 L 11.125000000000002, 23.507685902179833 L 10.625000000000002, 22.641660498395396 L 11.125000000000002, 21.775635094610955 L 12.125000000000002, 21.775635094610955 L 12.625000000000002, 20.909609690826514 L 12.125000000000002, 20.043584287042076 L 11.125000000000002, 20.043584287042076 L 10.625000000000002, 19.17755888325764 L 11.125000000000002, 18.311533479473198 L 10.625000000000002, 17.44550807568876 L 9.625000000000002, 17.44550807568876 L 9.125000000000002, 18.311533479473198 L 9.625000000000002, 19.17755888325764 L 9.125000000000002, 20.043584287042076 L 8.125000000000002, 20.043584287042076 L 7.625000000000002, 19.17755888325764 L 6.625000000000002, 19.17755888325764 L 6.125000000000002, 20.043584287042076 L 5.125000000000002, 20.043584287042076 L 4.625000000000002, 19.17755888325764 L 5.125000000000002, 18.311533479473198 L 6.125000000000002, 18.311533479473198 L 6.625000000000002, 17.44550807568876 L 6.125000000000002, 16.579482671904323 L 6.625000000000002, 15.713457268119882 L 7.625000000000002, 15.713457268119882 L 8.125000000000002, 16.579482671904323 L 9.125000000000002, 16.579482671904323 L 9.625000000000002, 15.713457268119882 L 9.125000000000002, 14.847431864335443 L 8.125000000000002, 14.847431864335443 L 7.625000000000002, 13.981406460551003 L 8.125000000000002, 13.115381056766564 L 9.125000000000002, 13.115381056766564 L 9.625000000000002, 12.249355652982125 L 9.125000000000002, 11.383330249197686 L 9.625000000000002, 10.51730484541325 L 10.625000000000002, 10.51730484541325 L 11.125000000000002, 11.383330249197686 L 10.625000000000002, 12.249355652982125 L 11.125000000000002, 13.115381056766564 L 12.125000000000002, 13.115381056766564 L 12.625000000000002, 12.249355652982125 L 13.625000000000002, 12.249355652982125 L 14.125000000000002, 13.115381056766564 L 15.125000000000002, 13.115381056766564 L 15.625000000000002, 12.249355652982125 L 15.125000000000002, 11.383330249197686 L 14.125000000000002, 11.383330249197686 L 13.625000000000002, 10.51730484541325 L 14.125000000000002, 9.651279441628812 L 13.625000000000002, 8.785254037844375 L 12.625000000000002, 8.785254037844375 L 12.125000000000002, 9.651279441628812 L 11.125000000000002, 9.651279441628812 L 10.625000000000002, 8.785254037844375 L 11.125000000000002, 7.919228634059937 L 12.125000000000002, 7.919228634059937 L 12.625000000000002, 7.0532032302755 L 12.125000000000002, 6.187177826491062 L 12.625000000000002, 5.321152422706625 L 13.625000000000002, 5.321152422706625 L 14.125000000000002, 6.187177826491062 L 15.125000000000002, 6.187177826491062 L 15.625000000000002, 5.321152422706625 L 15.125000000000002, 4.455127018922187 L 14.125000000000002, 4.455127018922187 L 13.625000000000002, 3.58910161513775 L 14.125000000000002, 2.7230762113533125 L 15.125000000000002, 2.7230762113533125 L 15.625000000000002, 1.857050807568875 L 15.125000000000002, 0.9910254037844375 L 15.625000000000002, 0.125 L 16.625, 0.125 L 17.125, 0.9910254037844375 L 16.625, 1.857050807568875 L 17.125, 2.7230762113533125 L 18.125, 2.7230762113533125 L 18.625, 3.58910161513775 L 18.125, 4.455127018922187 L 17.125, 4.455127018922187 L 16.625, 5.321152422706625 L 17.125, 6.187177826491062 L 18.125, 6.187177826491062 L 18.625, 5.321152422706625 L 19.625, 5.321152422706625 L 20.125, 6.187177826491062 L 19.625, 7.0532032302755 L 20.125, 7.919228634059937 L 21.125, 7.919228634059937 L 21.625, 8.785254037844375 L 21.125, 9.651279441628812 L 20.125, 9.651279441628812 L 19.625, 8.785254037844375 L 18.625, 8.785254037844375 L 18.125, 9.651279441628812 L 18.625, 10.51730484541325 L 18.125, 11.383330249197687 L 17.125, 11.383330249197689 L 16.625, 12.249355652982128 L 17.125, 13.115381056766568 L 18.125, 13.115381056766568 L 18.625, 12.249355652982128 L 19.625, 12.249355652982128 L 20.125, 13.115381056766568 L 21.125, 13.115381056766568 L 21.625, 12.249355652982128 L 21.125, 11.383330249197689 L 21.625, 10.517304845413253 L 22.625, 10.517304845413253 L 23.125, 11.383330249197689 L 22.625, 12.249355652982128 L 23.125, 13.115381056766568 L 24.125, 13.115381056766568 L 24.625, 13.981406460551005 L 24.125, 14.847431864335444 L 23.125, 14.847431864335446 L 22.625, 15.713457268119885 L 23.125, 16.579482671904323 L 24.125, 16.579482671904323 L 24.625, 15.713457268119885 L 25.625, 15.713457268119885 L 26.125, 16.579482671904323 L 25.625, 17.445508075688764 L 26.125, 18.311533479473205 L 27.125, 18.311533479473205 L 27.625, 19.177558883257642 L 27.125, 20.04358428704208 L 26.125, 20.04358428704208 L 25.625, 19.177558883257646 L 24.625, 19.177558883257646 L 24.125, 20.043584287042084 L 23.125, 20.043584287042087 L 22.625, 19.177558883257646 L 23.125, 18.31153347947321 L 22.625, 17.44550807568877 L 21.625, 17.44550807568877 L 21.125, 18.311533479473212 L 21.625, 19.17755888325765 L 21.125, 20.04358428704209 L 20.125, 20.04358428704209 L 19.625, 20.909609690826528 L 20.125, 21.77563509461097 L 21.125, 21.77563509461097 L 21.625, 22.641660498395407 L 21.125, 23.507685902179844 L 20.125, 23.507685902179844 L 19.625, 22.64166049839541 L 18.625, 22.64166049839541 L 18.125, 23.507685902179848 L 18.625, 24.373711305964285 L 18.125, 25.239736709748726 L 17.125, 25.239736709748726 L 16.625, 26.105762113533167 L 17.125, 26.971787517317605 L 18.125, 26.971787517317605 L 18.625, 26.105762113533167 L 19.625, 26.105762113533164 L 20.125, 26.971787517317605 L 21.125, 26.9717875173176 L 21.625, 26.105762113533164 L 21.125, 25.239736709748726 L 21.625, 24.373711305964285 L 22.625, 24.373711305964285 L 23.125, 25.239736709748726 L 22.625, 26.105762113533164 L 23.125, 26.9717875173176 L 24.125, 26.9717875173176 L 24.625, 26.105762113533164 L 25.625, 26.105762113533164 L 26.125, 26.9717875173176 L 27.125, 26.9717875173176 L 27.625, 26.10576211353316 L 27.125, 25.239736709748723 L 26.125, 25.239736709748723 L 25.625, 24.373711305964285 L 26.125, 23.507685902179844 L 27.125, 23.507685902179844 L 27.625, 22.641660498395407 L 27.125, 21.77563509461097 L 27.625, 20.909609690826528 L 28.625, 20.909609690826528 L 29.125, 21.775635094610966 L 28.625, 22.641660498395407 L 29.125, 23.507685902179844 L 30.125, 23.507685902179844 L 30.625, 24.37371130596428 L 30.125, 25.239736709748723 L 29.125, 25.239736709748723 L 28.625, 26.10576211353316 L 29.125, 26.9717875173176 L 30.125, 26.9717875173176 L 30.625, 26.10576211353316 L 31.625, 26.10576211353316 L 32.125, 26.971787517317598" />

  </g>

</svg>
