<?xml version="1.0" encoding="UTF-8" standalone="no"?>

<svg
    xmlns="http://www.w3.org/2000/svg"
    width="16.124999999999996"
    height="13.115381056766587"
    id="sierpinski-03.svg"
    version="1.0">

<!-- viewbox="-0.06249999999999999 -0.06250000000000155 16.062499999999996 13.052881056766585" -->

  <g 
    style="stroke:black; stroke-width:0.06249999999999999; stroke-opacity:1; fill:none" 
    id="layer1">

    <path d="M 0.06249999999999999, 13.052881056766585 L 1.0625, 13.052881056766585 L 1.5625, 12.186855652982146 L 1.0625000000000002, 11.320830249197709 L 1.5625000000000004, 10.45480484541327 L 2.5625000000000004, 10.45480484541327 L 3.0625000000000004, 11.320830249197709 L 2.562500000000001, 12.186855652982146 L 3.062500000000001, 13.052881056766585 L 4.062500000000001, 13.052881056766585 L 4.562500000000001, 12.186855652982146 L 5.562500000000001, 12.186855652982146 L 6.062500000000001, 13.052881056766585 L 7.062500000000001, 13.052881056766585 L 7.562500000000001, 12.186855652982146 L 7.062500000000001, 11.320830249197709 L 6.062500000000001, 11.320830249197709 L 5.562500000000001, 10.45480484541327 L 6.062500000000001, 9.58877944162883 L 5.562500000000001, 8.722754037844393 L 4.562500000000001, 8.722754037844393 L 4.0625, 9.58877944162883 L 3.0625, 9.58877944162883 L 2.5625, 8.722754037844393 L 3.0624999999999996, 7.856728634059953 L 4.062499999999999, 7.856728634059953 L 4.562499999999999, 6.990703230275514 L 4.062499999999999, 6.124677826491076 L 4.562499999999999, 5.258652422706637 L 5.562499999999999, 5.258652422706637 L 6.0625, 6.124677826491076 L 7.0625, 6.124677826491075 L 7.5625, 5.258652422706636 L 7.0625, 4.392627018922196 L 6.0625, 4.392627018922196 L 5.5625, 3.526601615137757 L 6.0625, 2.660576211353318 L 7.0625, 2.660576211353318 L 7.5625, 1.7945508075688785 L 7.0625, 0.9285254037844393 L 7.5625, 0.0625 L 8.5625, 0.0625 L 9.0625, 0.9285254037844393 L 8.5625, 1.7945508075688785 L 9.0625, 2.660576211353318 L 10.0625, 2.660576211353318 L 10.5625, 3.5266016151377553 L 10.0625, 4.3926270189221945 L 9.0625, 4.392627018922196 L 8.5625, 5.258652422706636 L 9.0625, 6.124677826491074 L 10.0625, 6.124677826491073 L 10.5625, 5.258652422706634 L 11.5625, 5.258652422706634 L 12.0625, 6.124677826491072 L 11.5625, 6.990703230275511 L 12.0625, 7.85672863405995 L 13.0625, 7.85672863405995 L 13.5625, 8.722754037844389 L 13.0625, 9.588779441628827 L 12.0625, 9.588779441628828 L 11.562499999999998, 8.72275403784439 L 10.562499999999998, 8.722754037844393 L 10.062499999999998, 9.58877944162883 L 10.562499999999998, 10.45480484541327 L 10.062499999999998, 11.320830249197709 L 9.062499999999998, 11.32083024919771 L 8.562499999999998, 12.18685565298215 L 9.062499999999998, 13.052881056766587 L 10.062499999999998, 13.052881056766587 L 10.562499999999998, 12.186855652982148 L 11.562499999999998, 12.186855652982148 L 12.062499999999998, 13.052881056766585 L 13.062499999999998, 13.052881056766585 L 13.562499999999998, 12.186855652982146 L 13.062499999999998, 11.320830249197709 L 13.562499999999998, 10.45480484541327 L 14.562499999999998, 10.454804845413268 L 15.062499999999998, 11.320830249197707 L 14.562499999999998, 12.186855652982146 L 15.062499999999998, 13.052881056766584 L 16.062499999999996, 13.052881056766584" />

  </g>

</svg>
